<svg xmlns="http://www.w3.org/2000/svg" viewBox="0 0 210.76 59.62"><defs><style>.cls-1{isolation:isolate;}.cls-2{mix-blend-mode:multiply;}</style></defs><title>Asset 32</title><g class="cls-1"><g id="Layer_2" data-name="Layer 2"><g id="Слой_1" data-name="Слой 1"><g class="cls-2"><rect x="9.96" y="11.44" width="193.87" height="38.98" transform="translate(-0.24 0.84) rotate(-0.45)"/><path d="M166.19,4.37c6.33-.21,12.7-.34,19-.44l25.42-.3c.06,4.59.12,9,.17,13.39l-.19-13.36-14.12.19c4.9-.06,9.53-.1,14-.1,0,4.13,0,8.21-.08,12.33,0,2-.06,4.09-.09,6.19-.05,1.34-.1,2.71-.15,4.12A18.48,18.48,0,0,1,209.9,24l-.06-1.43c0-.68,0-1.36-.05-2-.08-2.91-.17-5.57-.51-6.42l-.06-9h-10.5l-5.28,0-4,0-14.14-.25-28-.77C155.42,2.33,160.46,4.47,166.19,4.37Z"/><path d="M209.58,49.61c0-2.1-.06-4.15-.08-6.18C209.59,45.59,209.66,47.71,209.58,49.61Z"/><path d="M27.7,11.9c-2.4.11-4.81.21-7.14.25C22.9,12,25.3,11.94,27.7,11.9Z"/><path d="M138.73,8.33c-1.25.13-2.52.24-3.81.32l-29.31-.38C116.41,8.36,127.93,7.61,138.73,8.33Z"/><path d="M149.16,9.69c9.82-.14,19.79.05,29.11.67C169,9.89,159.14,9.73,149.16,9.69Z"/><path d="M26.65,43.18c0-.13.14-.23.42-.32a3.68,3.68,0,0,0,.77-.17l11.89.46c-1,.07-1.9.33-2.9.35C32.46,43.33,31.54,42.73,26.65,43.18Z"/><path d="M30.37,11.83l.25-.07,2.44-.12.29,0C32.36,11.75,31.37,11.8,30.37,11.83Z"/><path d="M21.62,43.15a2.9,2.9,0,0,0-.13-.7l.1,0h.34l.84,0,1.68.06,3.35.12c-.27.06-.53.11-.73.17C25.59,43.05,23.24,42.81,21.62,43.15Z"/><path d="M19.86,22.05c.17,0,0-.53,0-.65a11.74,11.74,0,0,1,1.22.47l.24.11.11.05.76,0,3.17.15c.68-.14,2.11-.16,3.46-.43q1.2.28,2.58.51h-10l-1.44-.12-.12,1a4.94,4.94,0,0,1,0-1.15Z"/><path d="M202.06,46.9c-12.8.48-27.6-.75-40.06.71,14.64.73,34.84.87,37,3.07s-20,.35-31.48.55l3,.44a13.33,13.33,0,0,0-4.38-.17c3,.45,8.92.84,10.6,1.55l-2.69.54c7.73,1.6,22.21,1.84,29.94,3.44-37.68-5-90-2.37-135.82-1.57-10.24.38-20.18,1-29.85,1.66q-7.24.52-14.29,1.14c-1.68.2-6.34.43-10.13.66l-12.13.7q-.36-5.79-.72-11.5-.2-3-.37-5.95l-.1-1.51c0-.49-.06-1.09-.09-1.27L.35,37.72C.19,35.62.13,32,.12,28.08.14,22,.16,15.35.17,9.8.11,7.38.06,5,0,2.55l15.79-.39,4-.11,1.77,0L22.65,2l4.3-.2c5.72-.28,11.43-.61,17.1-1C71-.51,97.1.51,125.85,0c5.73-.1,13.63,2-.51,2.74-11.7.83-23.55,1.21-35.42,1.32,1.37-.69,7-.34,9.66-.87-8.75-.34-16-.46-24.57-.31l17.17-.3c-14.31.25-30.13.29-45.78.81-5.74.1-10.77-2-18.86-.41C48,3.57,69,4.24,89.92,4.06l-.1.05C99.16,4,107.61,4,116.63,3.86c-2.8.12-5.66.27-8.13.17,13.13.51,26.08.53,39,.55C111,7.2,70.28,5.94,33.25,7.09c10.42,1.06,24.24-.67,33.32.65-8.49.08-17,.1-25.55.09l-28.3-.14c1.75-.09,3.47-.2,5.23-.34-4.31-.19-8.83-.26-13.35-.27,0,2.86,0,5.78,0,8.69s.09,5.69.13,8.53c.07,4,.15,8,.12,11.89,0,1,0,1.92,0,2.9,0-1,0-1.93,0-2.9q.09-6.07.18-12.07.06-8.31.11-16.47l7.54,0c-2.34.12-4.71.2-7.24.26.08,4,.08,8.11,0,12.8.35-3.32.52-7.66.66-12.12l3.27.09,11.2,0,8.72,0-5,.1L18.9,9c-4.16.13-8.16.29-11.88.49.13,2.56.26,5,.41,7.4q.08-3.4.15-6.85l32.58.31-19.86.41L8.2,10.62Q8.11,22.67,8,35c0-.43,0-.86,0-1.29,0,.86,0,1.71,0,2.57q0,7.49,0,15.06l.05,1.93c4.12-.12,8.22-.4,12-.74l2.15,0c-.59.12-1.18.23-1.18.32s.57.18,1.73.22c10.27.57,21.39-.62,33.16.16A114,114,0,0,0,67.68,53a5.62,5.62,0,0,0,2.43-.12L73,52.78c2.39-.05,4.79-.08,7.13-.25-2.33,0-4.73.14-7.13.25l-2.68.06a7.72,7.72,0,0,1,2.58-.43c-16.47,0-33.55-.14-50.72.09,1-.18,2.48-.37,3.08-.49l-2.52.27-1.29.13-1.42.12-11.49.21-.19-7.33A37.09,37.09,0,0,0,9,50.13C9,46.76,9,43.39,9,40c0-3.09-.07-6.18-.1-9.28Q8.7,20.87,8.54,11l11.76-.23L42.72,11l22.15.22c-7.94-.58-16.25-.81-24.71-.92,22.49-.46,45-.8,67.47-.33-4,.82-9.6,1.41-12.13,2.45.16.49,7.4.61,3.19.93-15.32,1.51-26.33.36-32.57,3.2-1.17.76,16,3.29,10.49,3.89-4.65.28-13,.59-21.92.84-2.59-.06-5.27-.07-8-.07a5.56,5.56,0,0,0-1.66.3c-4.85.1-9.59.17-13.76.2H23l-1.1,0h-.46l-.08,0-1.08-.17a8.27,8.27,0,0,1-.93-.6,2.13,2.13,0,0,1-.32.38l.07.2c-.06.45-.12,1-.17,1.48l0,.41v.71c0,1.25,0,2.49,0,3.72-.22,2.76-.47,5.5-.65,8.23.18-.06.41-.5.59,0,0,1.18,0,2.37,0,3.55l0,1-.05,1.95.86,0a10,10,0,0,1,1.66,1,4.39,4.39,0,0,1,.47-.27c.48-.08,1-.16,1.53-.22,1.08-.13,2.27-.23,3.55-.31,2.54-.15,5.42-.2,8.43-.22,6,0,12.54.11,17.88-.05v-.06l16.29,0q1.36.21,2.58.51c1.35-.27,2.78-.3,3.45-.43,4.38.17,8.07.48,11.78.78a15.52,15.52,0,0,1,3.37-.68c2.87,0,5.65,0,8.36-.06l9.65.12c10.94.18,21.71.47,32.38.83a1.12,1.12,0,0,1,.52.69c1.65-.33,4-.1,5.46-.28-.28.08-.46.18-.41.32,4.88-.46,5.8.14,10.18.31,1,0,1.91-.27,2.89-.35l1.45.06c5,1.07,9.91.66,15.44.65l16.56.73C197.35,45.75,199,46.46,202.06,46.9Z"/><path d="M41.17,43.2l15.44.66C51.08,43.87,46.15,44.28,41.17,43.2Z"/><path d="M80.43,21.13a52.67,52.67,0,0,0,6.83,1l-39.55.16,0-.06C58.38,21.89,73.78,22.74,80.43,21.13Z"/><path d="M27.07,42.86c.2-.06.46-.11.73-.17h0A3.68,3.68,0,0,1,27.07,42.86Z"/><path d="M105.53,11.4h1.27l-9.67.36C99.7,11.55,102.57,11.46,105.53,11.4Z"/><path d="M140.2,11.72l19.74-.42c8.47.12,16.79.35,24.72.93C169.92,12.13,155.14,11.91,140.2,11.72Z"/><path d="M105.77,21.55c2.71.18,5.46.43,8.22.65l-8.24-.06C106.26,22,105.82,21.73,105.77,21.55Z"/><path d="M78.51,12.17l2,0-5.06.53C76,12.55,77.49,12.36,78.51,12.17Z"/><path d="M135,22.54l-6-.13c1.2-.11,2.38-.26,3.57-.46A12.41,12.41,0,0,0,135,22.54Z"/><path d="M166.44,22.22c2.77,0,5.46,0,8,.06l-9.71.23A5.81,5.81,0,0,1,166.44,22.22Z"/></g></g></g></g></svg>