<svg xmlns="http://www.w3.org/2000/svg" viewBox="0 0 236.93 69.55"><defs><style>.cls-1{isolation:isolate;}.cls-2{mix-blend-mode:multiply;}.cls-3{fill:#525252;}.cls-4{fill:#f1f2f2;}.cls-5{fill:#fff;}</style></defs><title>Asset 9</title><g class="cls-1"><g id="Layer_2" data-name="Layer 2"><g id="Слой_1" data-name="Слой 1"><g class="cls-2"><path class="cls-3" d="M235.25,2.24c-.24,0-.22.17,0,.16-1.39.11-4.09.2-4.86.81-1.19-.41-5.64.41-7.2.1-3.19.43-5.46,1.17-9.44,1.06-.55.22-.24.27-.07.48a13,13,0,0,0-6.75.8c.12-.07.22-.14.23-.25-1.84.29-4.25,4.63-6,5.17-.75-.56-3-.08-4.1-.41-1,.62-5.09.88-7.31.74-.12.41-2.37.17-3.28.44a12.16,12.16,0,0,0-3.8.14c-.05-.14.17-.16.4-.18a40.66,40.66,0,0,0-5.29,0,.23.23,0,0,1,.14.31c-.18-.27-1.86-.33-1.7,0-.38,0-.21-.21-.73-.13-.36.25-1.12.34-1.42.61-.47,0-.63,0-1.31-.11-.49,0,.24.12,0,.31-1.77.07-3.78-.28-4.18.16a2.06,2.06,0,0,0-1.17.2c0-.08,0-.16,0-.24-1.06.67-2.77.46-4.63.56-.22,0-.18.15-.23.25-2.42,0-3.1-3.61-4.94-3.82-.25,0-.17.16.06.22h.28a.66.66,0,0,1-.28,0c-1.71,0-3.29.32-4.89.43-.09.23.39.23.3.46-.36.16-.55,0-.94,0a.45.45,0,0,0,.36.14c-.1.32-1.5-.09-1.57.38-1.44-.14-3.05-2.84-4.8-3.11a15.42,15.42,0,0,1-4.95.18,8.33,8.33,0,0,1-2.74.58c-.35.48-1.26.35-1.84.94-.25-.53-1.6,0-1.86-.25-.22,0-.18.15-.22.24-1.93-.26-3.67.12-5.46-.2-.93.53-1.77,4.27-3.09,4.43-.06.18.12-3.75.53-3.78-.51.26-2.48,4-.57,4a.27.27,0,0,1-.13-.39c-.35,0-.16.27-.43.33-.55-.44-2-.19-3.19-.12a2.15,2.15,0,0,0,.91.2,35.68,35.68,0,0,0-6.52.56c-.27-.06-.58-.1-.52-.3a1.35,1.35,0,0,1-1.19.36c.4.1-.27.2.15.23-1.12-.1-1.56.47-3.27.36-.3,0,0,.08.18.07-2.57.94-7.18-.55-10.68.55-1.42-.15-3-4.78-4.36-4.93.66.39-2.16-.16-3.09.43.17-.26-.36-.1-.39,0-.26,0,0-.14.22-.17A1.75,1.75,0,0,0,93,11c-.07.1-.29.3-1.18.28.21.09.18.28.12.48-.3.26-.14-.28-.13-.4-2.47-.23-3.33-4.49-4.85-4.53-.16.22.37.14.54.22a1.7,1.7,0,0,1-1.17.2c.09-.13.32.06.39-.09s-.37,0-.35-.15a6.35,6.35,0,0,1-2.5.25,1.19,1.19,0,0,0-.65.5c-.85,0,.21-.21.07-.4-.89.53-1.59.18-2.22.88-.24-.1-.34-.23-.57,0-.28,0,.09-.11,0-.24-.63,0-.27.4-1.18.28,0,.14.63,0,.73.13.39.24-1.1-.22-1.33,0-.25,0-.12-.2-.14-.32-.18.06-.32.24-.39.1-.29,0,.06.1,0,.24-.36,0-.1-.31-.72-.21-.46,0,.18.2.34.22-.32,0-1.3-.28-1.42-.58-.25.18-.92.19-1,.43-.29-.11.22-.4-.7-.37-.13.23-.2,0-.42.25-.18-.23-.75.05-.35-.22-.37,0-.59,0-.59.18a8.67,8.67,0,0,1-.9-.29,4.82,4.82,0,0,1-1.93.23c-.19.36.39-.08.36.15-.79.42-2,.2-2.38.72-2.15-.23-5.56,5.2-6.36,4.51-.27,0-.19.21-.24.33a4.94,4.94,0,0,0-1.65-.34c1,.23-1.4.16-1.51,0-.27,0-.19.2-.24.32a4.18,4.18,0,0,0-2.08,0c-.22,0-.14-.14-.15-.23-.35.24-2.51-.11-3.27.35a11.33,11.33,0,0,1-1.08-.36,1.12,1.12,0,0,0-.42.26c1.43-.06-.37.4.47.62A1.16,1.16,0,0,1,50.88,14a4.12,4.12,0,0,0-1.05.67,7.64,7.64,0,0,1-3.7-.5,10,10,0,0,1-2.3.16c-.28.34-.29.63.06.87.11.21-.59-.41-.87-.52-.26.23-1.05.2-1.18.28s-.14-.14-.15-.23c-.43,0-.72,0-.79.18-.25,0-.12-.19-.14-.31a1.2,1.2,0,0,0-.6.26c-.26-.15-1.22-.32-1,.12-.7.07-.17-.38-.7-.38-.63.15.63.28-.07.48-.19-.05,0-.24-.32-.38-.25,0-.32.15-.59.18-.11.19.87-.08.53.22-.37-.16-.63.09-.94-.05.49.27,0,.22-.09.56-.06-.45-2.2-.19-1.7,0-.29.15-.59-.32-.91-.2s.06.1,0,.24c-.41.05-.78-.46-.94,0-.22,0-.14-.14-.15-.23-.23,0-.18.15-.23.24a4.81,4.81,0,0,0-.9-.28c-.26,0-.19.21-.24.33-.22,0-.14-.14-.15-.24-.57.09-.23.13-.24.33-.67,0-.4-.38-1.28-.27.52.39,0,0-.8.26.51-.33-.3.1-.16-.23-.43.26-1.08,0-2.1.16-2.55-.41-5.27-.49-6.65-1-2.65.07-4,.12-6.64.08.06.17.94,0,1.32,0-3.27.2-6.24.08-10.29.53-.5,0,.23.13,0,.32a6,6,0,0,0-1.09-.28c-.1.21.72,0,.52.3a17.78,17.78,0,0,1-1.94,0l3.25,50c2-.18,2.81.35,4.72.4,0-.11.06-.23-.15-.23.2-.22.43.15.53.22.19-.09.71,0,.61-.26a1.25,1.25,0,0,0,.93.12c-.26-.34.38,4,.63,3.58.33.22,1,0,1.3.11.07-.17-.11-.25-.53-.22.33-.27.44.15.94,0-.11-.08-.43-.07-.35-.23a17,17,0,0,0,4.7.23c-.05-.09-.3-.19-.37-.06,0-.39,2,.26,2.64.06-.29-.82,3.49-.17,4.58-.24a1.13,1.13,0,0,1,.55.13S28.4,68.65,29,69c-.11-.26,2.56-.18,2.27,0,.6,0,.47-.26,1.17-.21a2.79,2.79,0,0,0-.93-.12,9,9,0,0,1,4.14.17c.24,0,.4-4.12.42-4.26.41,0,0,.28.12.4.56-.26,1-.16,1.39-.37,1.29.4,3.33,0,3.95.1-.14-.11.7-.2.42-.26.91-.22.76.18,1.88.09.42-.07-.32-.25-.52-.3,0-.19,1.07.32,1.85.25.47-.08-.39-.22-.12-.47,1,.23.36.3,1.06.52.26,0,.19-.21.24-.33a3.05,3.05,0,0,0,2.46,0c.14.47.86-.17.71.3.61-.28,1-.07,1.38-.37.56,0-.2.18,0,.32.79-.34,2-.21,2.21-.8-.09.32.31.68,1,.6.49,0-.24-.13,0-.32.42,0,.37.29.9.29A7.47,7.47,0,0,1,58,63.73c.48-.07-.32-.19-.13-.39.08.15.92.27.77-.1.45-.05.18.22.54.21s1-.56,1.15-.12c.35,0,.16-.27.43-.33.64,0-.36.45.13.39.77,0,.13-.17.24-.32.15.3,1.61-.17,1.1.2A3.92,3.92,0,0,1,63.94,63c-.44-.14-.17-.12-.32-.38.66.06.93-.21,1.7,0,.34-.17,0-.1.05-.31.86-.2,3.48.23,3.63-.22.88-.14,2.1.16,2.86-.18.62.31,1.65-.12,2.64.07.06-.14-.29-.2,0-.24.67,0,0,.11.33.3,1.4-.18.28.1,1.7,0,0-.09-.34-.06-.56-.06a8.89,8.89,0,0,1,2.65,0c.41,0,.13-.29.25-.41.4-.13,2.62,0,1.93-.23.43-.26,1.92.36,2.12-.24.41.27,1.32,0,.86-.18a.9.9,0,0,1-.25-.08,1.48,1.48,0,0,1,.25.08c.63.12,2,2.87,3.31,2.62-.11-.08-.43-.07-.35-.23a2,2,0,0,1,1.32,0c.28-.26-.6,0-.33-.3.72,0,1.71,0,1.75-.3.54.13.25.33.9.28.47-.06-.61-.13,0-.32.41.51,3,0,4.22-.39-.83-.37,1.31-.46,2.36-.56a.44.44,0,0,0-.35-.15c.47,0,1.22-.1,1.49.11.67-.05-.28,3.66.24,3.67.45.24,1.63-.11,1.4,0,.57,0,.47.23.67.09,1.18.35,3.41-.57,3.82-.22.29-.08.31-.27.44-.41a13.9,13.9,0,0,1,1.69.09c1-.58,3-.23,3.88-.61-.39-.15-.94-.23-.89-.37.34-.23.68.15,1.11.12-.06-.09-.21-.15-.54-.14a9.53,9.53,0,0,1,1.73-.22c0,.21.87.08.34.31.33,0,1.78-.1,1-.2.18-.19.89,0,.93.13a.54.54,0,0,0,.43-.34c.6.16,1.2-.19,1.71-.06.23,0,.69-.25.23-.24.29-.2.62.22.9.28.6,0,.56-.33,1.37-.29,0-.08-.23,0-.37-.06.64,0,1.45-.43,1.89,0,.6-.15-.2-.3.66-.58a3.54,3.54,0,0,1-1.15,0c1.74-.31,2.94.36,4.12.33.3,0,.06-.17-.24-.21,1.1,0,3.2,4.31,3,3.79,1.42.18,2.4-.23,4.15.09-.1-.23,1.05-.07,1.54-.21-.77-.13-.23-.2.08-.48,0,.28,1.25-.06,1.9-.07a42.7,42.7,0,0,0,4.54,0c.28-.09-.06-.13.42-.25,1.71.36,2.89-.32,4-.46-.12,0,.32.26,1.13,0a29.29,29.29,0,0,1,6.48-.31c.65,0,1.5-.4,2.11-.16-.19-.24.88,0,.59-.18.56-.1,1.72.27,1.92-.14.4.46,1.45.09,2.24.15-.84-.06.75-.34-.51-.3a48.48,48.48,0,0,1,4.88.23c.58-.25,1.37-.37,1.42-.61.39,0,0,.35.31.38.49.08.86-.27.75.06.22-.12,1.05-.32,0-.24.59-.26,1.64-4,2.11-4.16.09-.14-.13-.14-.36-.15,1.75.08,2.78-.55,5.76-.52.3,0-.2.16.16.15.74.08.43-.28,1.17-.2-.13-.23-.27-.08-.75,0,.64-.52,2.3,0,3.41,0,.85-.18.66-2.51,1.11-2.82a49.16,49.16,0,0,1,5.67,0c.22,0,.66-.11.78-.11.53,0,1.17.24.38,0,.86.14,2.46.22,3.7.5.71-.1,1.12-.33,1.95-.39-.65.15.49-.5.46-.49a2.32,2.32,0,0,1,.57,0l.22-.08c-.13-.1.27-.13,0,0a.5.5,0,0,0,.16.07c.31.08,1.9-.26,1.19-.37,2.42.1,3.91-.14,6.41.17.12-.12-.71-.17-.16-.23,1.31.6,3.35-.49,4.74,0,.22,0,.18-.16.22-.25.34.32.83.11,1.68.18.41,0-.23-.24-.33-.31.66-.07,1.08,4.23,1.85,4.25a22,22,0,0,1,4.41-.4c.08-.12.28-.15.62-.34,1,.19.92-.13,1.36-.2,2.5,0,8.36,0,10.91-.79.23,0,.89.2.93,0,.28,0,0,.07,0,.16,2.61-.3,5.45.36,7.56,0a4,4,0,0,0-1.32,0,.5.5,0,0,0-.35-.14c.34-.19,1,0,.61-.34,1.62.29,2.72-.38,4.18-.07"/><path class="cls-3" d="M169.3,59.78s0-.09-.17-.07c0,.43.75.06,1-.11C169.51,59.53,169.61,59.74,169.3,59.78Z"/><path class="cls-3" d="M122.64,63.06c-.88-.05-.4,0-.92-.21.12.29-.85,0-1.14,0-.2.26.26.24.32.39.59,0,.95-.22.56.06a3.76,3.76,0,0,1,.92.13C122.42,63.17,122.14,63.22,122.64,63.06Z"/></g><path class="cls-4" d="M236.93,0c-1.11.05-2.46.59-4,.38-.24,0-.21.17,0,.16-1.39.12-4.09.21-4.86.82-1.19-.42-5.64.41-7.2.1-3.19.42-5.46,1.17-9.44,1-.55.23-.24.28-.07.48-2.26-.34-5.37,4.05-6.74,4.8.11-.07.22-.14.22-.24a47.7,47.7,0,0,0-6,1.17c-.75-.56-3-.09-4.1-.41-1,.62-5.09.87-7.31.74-.12.4-2.37.16-3.28.44a12.39,12.39,0,0,0-3.8.13c0-.13.17-.15.4-.17a39,39,0,0,0-5.29,0,.24.24,0,0,1,.14.31c-.18-.27-1.85-.33-1.7,0-.38,0-.21-.21-.73-.14-.36.26-1.12.34-1.42.61-.47,0-.63,0-1.31-.11-.49,0,.24.13,0,.32-1.77.06-3.78-.28-4.18.15a2.06,2.06,0,0,0-1.17.2c0-.08,0-.16,0-.24-1.06.68-2.77-3.53-4.63-3.43-.22,0-.18.15-.23.24-2.42,0-3.1.39-4.94.18-.25,0-.16.17.06.22h.28a.65.65,0,0,1-.28,0c-1.71,0-3.29.32-4.89.43-.09.24.39.23.3.47-.36.16-.55,0-.94,0a.49.49,0,0,0,.36.15c-.1.31-1.5-.1-1.57.37-1.44-.14-3-2.83-4.8-3.1a15.43,15.43,0,0,1-5,.17,8.08,8.08,0,0,1-2.73.58c-.36.49-1.27.36-1.85.94-.25-.52-1.6,0-1.86-.25-.22,0-.18.15-.22.25-1.93-.27-3.67.11-5.46-.2-.93.52-1.77,4.26-3.09,4.43-.06.17.12.24.53.22-.51.25-2.48,0-.57,0a.28.28,0,0,1-.13-.4c-.35,0-.15.28-.43.34-.55-.45-2-.2-3.19-.13a2,2,0,0,0,.91.21,34.8,34.8,0,0,0-6.52.55c-.27-.06-.58-.1-.52-.3-.25.18-.71.54-1.19.36.4.1-.27.21.15.24-1.12-.11-1.55.46-3.27.35-.3.06,0,.09.18.08-2.57.94-7.18-5.56-10.68-4.46-1.42-.15-3,.23-4.36.08.66.39-2.16-.17-3.09.43.18-.27-.36-.11-.39,0-.26,0,0-.14.22-.16a1.75,1.75,0,0,0-.55-.14c-.07.1-.29.3-1.18.28.21.08.18.27.12.47-.3.26-.14-.28-.13-.39C87,9.32,86.13,5.05,84.61,5c-.16.22.37.15.54.22A1.7,1.7,0,0,1,84,5.44c.09-.13.32,0,.39-.1S84,5.3,84,5.2a6.54,6.54,0,0,1-2.5.24,1.18,1.18,0,0,0-.64.51c-.85,0,.2-.22.06-.41-.89.53-1.59.18-2.22.88-.24-.09-.34-.23-.57,0-.28,0,.09-.1,0-.24-.63,0-.27.4-1.18.28,0,.15.64,0,.73.13.39.24-1.1-.22-1.33,0-.25,0-.12-.19-.14-.31-.18.05-.32.23-.39.09-.29,0,.06.1,0,.24-.36,0-.1-.3-.72-.21-.46,0,.18.21.34.23-.32,0-1.3-.29-1.42-.59-.25.18-.92.19-1,.44-.29-.11.22-.41-.7-.38-.13.23-.2,0-.42.26-.18-.24-.75,0-.35-.23-.37,0-.59,0-.59.18a8.72,8.72,0,0,1-.9-.28,4.8,4.8,0,0,1-1.93.22c-.19.36.39-.07.36.15-.79.43-2,.21-2.38.72C64,7,60.56,12.4,59.76,11.71c-.26,0-.19.2-.24.32a4.73,4.73,0,0,0-1.65-.33c1,.22-1.4.16-1.51,0-.26,0-.19.21-.24.33A4.14,4.14,0,0,0,54,12c-.22,0-.14-.14-.15-.23-.35.25-2.51-.1-3.27.36-.47-.12-.52-.18-1.08-.36a1,1,0,0,0-.42.25c1.43-.06-.37.41.47.62-.37.13-1-.29-1.06-.52a4.14,4.14,0,0,0-1.05.68,7.63,7.63,0,0,1-3.7-.51,10,10,0,0,1-2.3.17c-.28.34-.29.62.06.87.11.2-.59-.41-.87-.53-.26.24-1.05.2-1.17.28s-.14-.14-.16-.23c-.43,0-.72.05-.79.19-.25,0-.12-.2-.14-.31a1.12,1.12,0,0,0-.6.26c-.26-.15-1.22-.33-1,.11-.7.08-.17-.37-.7-.37s.63.27-.07.48c-.19,0,0-.24-.32-.39-.25,0-.32.15-.59.18-.11.2.87-.07.53.22-.37-.16-.63.09-.94,0,.49.26,0,.21-.09.55-.06-.44-2.2-.18-1.7,0-.29.15-.59-.32-.91-.21s.06.1,0,.24c-.41,0-.78-.45-.94,0-.22,0-.14-.14-.15-.24-.22,0-.18.15-.23.25a4.14,4.14,0,0,0-.9-.29c-.26,0-.19.21-.24.33-.22,0-.14-.14-.15-.23-.57.09-.23.12-.24.32-.67,0-.4-.37-1.28-.27.52.39,0,0-.8.27.51-.33-.3.1-.15-.23-.44.25-1.09.05-2.11.15-2.55-.4-5.27-.48-6.65-1-2.65.08-4,.12-6.63.08.05.18.93,0,1.31,0-3.27.2-6.24.09-10.29.53-.5,0,.24.13-.05.32a6.94,6.94,0,0,0-1.09-.27c-.09.21.72,0,.52.29a15.81,15.81,0,0,1-1.94,0l3.25,50c2-.19,2.81.34,4.72.4,0-.12.07-.23-.15-.24.2-.22.43.16.53.22.19-.09.71,0,.61-.26a1.23,1.23,0,0,0,.93.13c-.26-.35.38,0,.63-.42.33.22,1,0,1.3.11.07-.18-.11-.25-.53-.22.33-.27.44.15.94,0-.11-.07-.43-.06-.34-.22,1.12.27,3.61,4.38,4.69,4.23,0-.09-.3-.19-.37-.07,0-.39,2,.26,2.64.06-.29-.82,3.49-.16,4.58-.24a1.08,1.08,0,0,1,.55.14s2.07-.63,2.68-.26c-.11-.25,2.56-.18,2.28,0,.59,0,.46-.26,1.16-.2a3,3,0,0,0-.93-.13,9.17,9.17,0,0,1,4.14.17c.24,0,.4-.11.42-.25.41,0,0,.28.13.39.56-.25,1-.16,1.38-.37,1.29.41,3.33-4,3.95-3.9-.14-.11.7-.19.42-.25.91-.23.76.17,1.88.09.42-.07-.32-.25-.52-.3,0-.2,1.07.31,1.85.25.47-.09-.39-.22-.11-.47,1,.22.35.29,1,.52.26,0,.19-.21.24-.33a3.09,3.09,0,0,0,2.46,0c.14.46.86-.17.71.29.61-.27,1-.06,1.38-.37.57,0-.2.18,0,.32.79-.34,2-.21,2.21-.79-.08.32.31.68,1,.6.49,0-.24-.13,0-.32.42,0,.37.29.9.28a7.46,7.46,0,0,1,2.92-.5c.48-.07-.32-.2-.13-.39.08.14.92.26.77-.11.45,0,.18.22.54.22s1-.56,1.15-.12c.35,0,.16-.28.43-.34.64,0-.36.45.13.4.77,0,.13-.17.24-.33.15.31,1.61-.16,1.1.2a3.91,3.91,0,0,1,1.74-.22c-.44-.15-.17-.12-.32-.39.66.06.93-.2,1.7,0,.34-.17,0-.1.05-.32.86-.2,3.48.23,3.63-.21.88-.15,2.1.16,2.86-.18.62.3,1.65-.13,2.64.06.06-.14-.29-.2,0-.24.67,0,0,.11.33.31,1.41-.18.28.1,1.7,0,0-.09-.34,0-.56-.06a8.88,8.88,0,0,1,2.65,0c.41,0,.13-.29.25-.41.4-.13,2.62,0,1.93-.23.44-.26,1.92.37,2.12-.23.41.26,1.32,0,.86-.19a1,1,0,0,1-.25-.07,1.64,1.64,0,0,1,.25.07,11,11,0,0,0,3.52,0c-.1-.08-.42-.07-.34-.23a1.94,1.94,0,0,1,1.32,0c.28-.27-.6,0-.33-.31.72,0,1.49,2.69,1.53,2.37.54.13.25.34.9.29.47-.07-.61-.13.05-.32.41.5,3,0,4.23-.39-.84-.37,1.3-.46,2.35-.57a.48.48,0,0,0-.35-.14c.47,0,1.22-.11,1.49.1.67,0-.28-.34.24-.32.45.24,1.63-.12,1.4,0,.57,0,.47.23.67.08,1.19.35,3.41,3.43,3.82,3.78.29-.07.31-.26.44-.41a12,12,0,0,1,1.69.1c1-.58,3-.23,3.88-.62-.39-.15-.94-.23-.89-.36.34-.24.68.15,1.11.11-.06-.09-.21-.15-.54-.13a8.65,8.65,0,0,1,1.74-.23c0,.21.86.09.33.31.33,0,1.78-.1,1-.19.18-.19.89,0,.93.12a.52.52,0,0,0,.43-.33c.6.15,1.2-.2,1.71-.06.23,0,.69-.26.23-.25.29-.19.62.23.9.29.6,0,.56-.34,1.37-.29,0-.08-.22-.06-.37-.07.64,0,1.45-.42,1.89,0,.6-.14-.19-.3.66-.58a3.22,3.22,0,0,1-1.14,0c1.73-.3,2.93.36,4.11.33.3,0,.06-.16-.24-.21,1.1,0,3.2.32,2.95-.2,1.42.18,2.4,3.77,4.15,4.09-.1-.23,1.05-.07,1.54-.22-.77-.12-.22-.19.08-.48,0,.28,1.25-.06,1.9-.07a42.87,42.87,0,0,0,4.54,0c.28-.09-.06-.13.42-.26,1.71.36,2.89-.31,4-.46-.12,0,.32.26,1.13,0a28.69,28.69,0,0,1,6.48-.31c.65,0,1.5-.41,2.11-.16-.19-.24.88,0,.6-.18.55-.1,1.71.26,1.91-.15.4.46,1.45.1,2.25.16-.85-.07.74-.35-.52-.3a45.62,45.62,0,0,1,4.88.22c.58-.24,1.37-.36,1.42-.61.39,0,0,.35.32.39.48.07.85-.28.74,0,.22-.12,1-.32,0-.24.59-.25,1.64,0,2.11-.15.09-.14-.13-.15-.36-.15,1.75.08,2.78-4.56,5.76-4.53.3,0-.2.16.16.16.74.07.43-.28,1.17-.2-.13-.23-.27-.08-.75-.06.65-.51,2.3,0,3.41,0,.85-.18.58-.28,1-.59,1.57-.14,3.56-2.27,5.74-2.2.22,0,.66-.11.78-.1.53,0,1.17.24.38,0,.86.14,2.46.22,3.7.51a16,16,0,0,1,1.95-.39c-.65.14.5-.51.46-.49a2.45,2.45,0,0,1,.57,0l.22-.08c-.13-.1.27-.13,0,0a.5.5,0,0,0,.16.07c.32.09,1.9-.25,1.19-.36a60.2,60.2,0,0,1,6.41.17c.12-.12-.71-.17-.16-.24,1.31.61,3.35-.48,4.74,0,.22,0,.18-.15.22-.25.34.32.83.11,1.68.18.41,0-.23-.24-.33-.3.66-.08,1.08.22,1.85.25,1.34-.36,2.75,3.68,4.41,3.6.08-.12.28-.15.62-.34,1,.18.92-.14,1.36-.21,2.5,0,8.36,0,10.91-.79.23,0,.89.2.93,0,.28,0,0,.07,0,.16,2.61-.3,5.45.35,7.56,0a4.21,4.21,0,0,0-1.32,0,.46.46,0,0,0-.35-.15c.34-.19,1,0,.61-.34,1.62.29,2.72-.37,4.18-.07.41,0,1.08-.28.62-.34"/><path class="cls-5" d="M167,57.93s0-.09-.17-.07c0,.43.75.06,1-.12C167.16,57.67,167.26,57.88,167,57.93Z"/><path class="cls-5" d="M120.29,61.2c-.88-.05-.4,0-.92-.2.12.29-.85,0-1.14,0-.2.26.26.24.32.39.59,0,1-.23.56,0a4.32,4.32,0,0,1,.92.13C120.07,61.31,119.79,61.36,120.29,61.2Z"/></g></g></g></svg>