<?xml version="1.0" encoding="utf-8"?>
<!-- Generator: Adobe Illustrator 22.0.1, SVG Export Plug-In . SVG Version: 6.00 Build 0)  -->
<svg version="1.1" id="Layer_1" xmlns="http://www.w3.org/2000/svg" xmlns:xlink="http://www.w3.org/1999/xlink" x="0px" y="0px"
	 viewBox="0 0 236.9 69.6" style="enable-background:new 0 0 236.9 69.6;" xml:space="preserve">
<style type="text/css">
	.st0{fill:#525252;}
	.st1{fill:#FFFFFF;}
</style>
<title>head-label</title>
<g>
	<g id="Layer_2_1_">
		<g id="Слой_1">
			<g>
				<path class="st0" d="M235.2,2.2c-0.2,0-0.2,0.2,0,0.2c-1.4,0.1-4.1,0.2-4.9,0.8c-1.2-0.4-5.6,0.4-7.2,0.1
					c-3.2,0.4-5.5,1.2-9.4,1.1c-0.6,0.2-0.2,0.3-0.1,0.5c-2.3-0.3-4.6-0.1-6.8,0.8c0.1-0.1,0.2-0.1,0.2-0.2c-1.8,0.3-4.2,4.6-6,5.2
					c-0.8-0.6-3-0.1-4.1-0.4c-1,0.6-5.1,0.9-7.3,0.7c-0.1,0.4-2.4,0.2-3.3,0.4c-1.3-0.2-2.5-0.1-3.8,0.1c-0.1-0.1,0.2-0.2,0.4-0.2
					c-1.8-0.1-3.5-0.1-5.3,0c0.1,0,0.2,0.2,0.1,0.3c0,0,0,0,0,0c-0.2-0.3-1.9-0.3-1.7,0c-0.4,0-0.2-0.2-0.7-0.1
					c-0.4,0.2-1.1,0.3-1.4,0.6c-0.5,0-0.6,0-1.3-0.1c-0.5,0,0.2,0.1,0,0.3c-1.8,0.1-3.8-0.3-4.2,0.2c-0.4,0-0.8,0-1.2,0.2
					c0-0.1,0-0.2,0-0.2c-1.1,0.7-2.8,0.5-4.6,0.6c-0.2,0-0.2,0.1-0.2,0.2c-2.4,0-3.1-3.6-4.9-3.8c-0.2,0-0.2,0.2,0.1,0.2h0.3
					c-0.1,0-0.2,0-0.3,0c-1.7,0-3.3,0.3-4.9,0.4c-0.1,0.2,0.4,0.2,0.3,0.5c-0.4,0.2-0.6,0-0.9,0c0.1,0.1,0.2,0.1,0.4,0.1
					c-0.1,0.3-1.5-0.1-1.6,0.4c-1.4-0.1-3.1-2.8-4.8-3.1c-1.6,0.3-3.3,0.4-4.9,0.2c-0.9,0.3-1.8,0.5-2.7,0.6
					c-0.4,0.5-1.3,0.4-1.8,0.9c-0.2-0.5-1.6,0-1.9-0.2c-0.2,0-0.2,0.1-0.2,0.2c-1.9-0.3-3.7,0.1-5.5-0.2c-0.9,0.5-1.8,4.3-3.1,4.4
					c-0.1,0.2,0.1-3.8,0.5-3.8c-0.5,0.3-2.5,4-0.6,4c-0.1-0.1-0.2-0.2-0.1-0.4c0,0,0,0,0,0c-0.3,0-0.2,0.3-0.4,0.3
					c-0.6-0.4-2-0.2-3.2-0.1c0.3,0.1,0.6,0.2,0.9,0.2c-2.2,0-4.4,0.2-6.5,0.6c-0.3-0.1-0.6-0.1-0.5-0.3c-0.3,0.3-0.8,0.4-1.2,0.4
					c0.4,0.1-0.3,0.2,0.2,0.2c-1.1-0.1-1.6,0.5-3.3,0.4c-0.3,0,0,0.1,0.2,0.1c-2.6,0.9-7.2-0.6-10.7,0.6c-1.4-0.1-3-4.8-4.4-4.9
					c0.7,0.4-2.2-0.2-3.1,0.4c0.2-0.3-0.4-0.1-0.4,0c-0.3,0,0-0.1,0.2-0.2C93.4,11.1,93.2,11,93,11c-0.1,0.1-0.3,0.3-1.2,0.3
					c0.2,0.1,0.2,0.3,0.1,0.5c-0.3,0.3-0.1-0.3-0.1-0.4c-2.5-0.2-3.3-4.5-4.8-4.5C86.8,7,87.3,7,87.5,7c-0.4,0.2-0.8,0.3-1.2,0.2
					c0.1-0.1,0.3,0.1,0.4-0.1s-0.4,0-0.3-0.2c-0.8,0.2-1.7,0.3-2.5,0.2c-0.3,0.1-0.5,0.3-0.7,0.5c-0.8,0,0.2-0.2,0.1-0.4
					c-0.9,0.5-1.6,0.2-2.2,0.9c-0.2-0.1-0.3-0.2-0.6,0c-0.3,0,0.1-0.1,0-0.2c-0.6,0-0.3,0.4-1.2,0.3c0,0.1,0.6,0,0.7,0.1
					c0.4,0.2-1.1-0.2-1.3,0c-0.2,0-0.1-0.2-0.1-0.3c-0.2,0.1-0.3,0.2-0.4,0.1c-0.3,0,0.1,0.1,0,0.2c-0.4,0-0.1-0.3-0.7-0.2
					c-0.5,0,0.2,0.2,0.3,0.2c-0.3,0-1.3-0.3-1.4-0.6c-0.2,0.2-0.9,0.2-1,0.4c-0.3-0.1,0.2-0.4-0.7-0.4c-0.1,0.2-0.2,0-0.4,0.2
					c-0.2-0.2-0.8,0.1-0.3-0.2c-0.4,0-0.6,0-0.6,0.2C73,8,72.7,8,72.4,7.8c-0.6,0.2-1.3,0.3-1.9,0.2c-0.2,0.4,0.4-0.1,0.4,0.1
					c-0.8,0.4-2,0.2-2.4,0.7c-2.2-0.2-5.6,5.2-6.4,4.5c-0.3,0-0.2,0.2-0.2,0.3c-0.5-0.2-1.1-0.3-1.7-0.3c1,0.2-1.4,0.2-1.5,0
					c-0.3,0-0.2,0.2-0.2,0.3c-0.7-0.2-1.4-0.2-2.1,0c-0.2,0-0.1-0.1-0.2-0.2c-0.3,0.2-2.5-0.1-3.3,0.4c-0.4-0.1-0.7-0.2-1.1-0.4
					c-0.2,0.1-0.3,0.1-0.4,0.3c1.4-0.1-0.4,0.4,0.5,0.6c-0.4,0.1-0.8-0.1-1.1-0.4c-0.4,0.2-0.7,0.4-1,0.7c-1.3,0.1-2.5,0-3.7-0.5
					c-0.8,0.1-1.5,0.2-2.3,0.2c-0.3,0.3-0.3,0.6,0.1,0.9c0.1,0.2-0.6-0.4-0.9-0.5c-0.3,0.2-1,0.2-1.2,0.3s-0.1-0.1-0.2-0.2
					c-0.4,0-0.7,0-0.8,0.2c-0.2,0-0.1-0.2-0.1-0.3c-0.2,0-0.4,0.1-0.6,0.3c-0.3-0.1-1.2-0.3-1,0.1c-0.7,0.1-0.2-0.4-0.7-0.4
					c-0.6,0.1,0.6,0.3-0.1,0.5c-0.2-0.1,0-0.2-0.3-0.4c-0.2,0-0.3,0.1-0.6,0.2c-0.1,0.2,0.9-0.1,0.5,0.2c-0.4-0.2-0.6,0.1-0.9-0.1
					c0.5,0.3,0,0.2-0.1,0.6c-0.1-0.4-2.2-0.2-1.7,0c-0.3,0.1-0.6-0.3-0.9-0.2s0.1,0.1,0,0.2c-0.4,0.1-0.8-0.5-0.9,0
					c-0.2,0-0.1-0.1-0.2-0.2c-0.2,0-0.2,0.1-0.2,0.2c-0.3-0.1-0.6-0.2-0.9-0.3c-0.3,0-0.2,0.2-0.2,0.3c-0.2,0-0.1-0.1-0.1-0.2
					c-0.6,0.1-0.2,0.1-0.2,0.3c-0.7,0-0.4-0.4-1.3-0.3c0.5,0.4,0,0-0.8,0.3c0.5-0.3-0.3,0.1-0.2-0.2c-0.4,0.3-1.1,0-2.1,0.2
					c-2.5-0.4-5.3-0.5-6.6-1c-2.6,0.1-4,0.1-6.6,0.1c0.1,0.2,0.9,0,1.3,0C11.9,15,9,14.9,4.9,15.3c-0.5,0,0.2,0.1,0,0.3
					c-0.4-0.1-0.7-0.2-1.1-0.3c-0.1,0.2,0.7,0,0.5,0.3c-0.6,0-1.3,0-1.9,0l3.2,50c2-0.2,2.8,0.3,4.7,0.4c0-0.1,0.1-0.2-0.1-0.2
					c0.2-0.2,0.4,0.2,0.5,0.2c0.2-0.1,0.7,0,0.6-0.3c0.3,0.2,0.6,0.2,0.9,0.1c-0.3-0.3,0.4,4,0.6,3.6c0.3,0.2,1,0,1.3,0.1
					c0.1-0.2-0.1-0.2-0.5-0.2c0.3-0.3,0.4,0.2,0.9,0c-0.1-0.1-0.4-0.1-0.4-0.2c1.5,0.3,3.1,0.4,4.7,0.2c0-0.1-0.3-0.2-0.4-0.1
					c0-0.4,2,0.3,2.6,0.1c-0.3-0.8,3.5-0.2,4.6-0.2c0.2,0,0.4,0,0.5,0.1c0,0,2-0.6,2.6-0.3c-0.1-0.3,2.6-0.2,2.3,0
					c0.6,0,0.5-0.3,1.2-0.2c-0.3-0.1-0.6-0.1-0.9-0.1c1.4-0.3,2.8-0.2,4.1,0.2c0.2,0,0.4-4.1,0.4-4.3c0.4,0,0,0.3,0.1,0.4
					c0.6-0.3,1-0.2,1.4-0.4c1.3,0.4,3.3,0,4,0.1c-0.1-0.1,0.7-0.2,0.4-0.3c0.9-0.2,0.8,0.2,1.9,0.1c0.4-0.1-0.3-0.2-0.5-0.3
					c0-0.2,1.1,0.3,1.8,0.2c0.5-0.1-0.4-0.2-0.1-0.5c1,0.2,0.4,0.3,1.1,0.5c0.3,0,0.2-0.2,0.2-0.3c0.8,0.3,1.7,0.3,2.5,0
					c0.1,0.5,0.9-0.2,0.7,0.3c0.6-0.3,1-0.1,1.4-0.4c0.6,0-0.2,0.2,0,0.3c0.8-0.3,2-0.2,2.2-0.8c-0.1,0.3,0.3,0.7,1,0.6
					c0.5,0-0.2-0.1,0-0.3c0.4,0,0.4,0.3,0.9,0.3c1-0.4,2-0.5,3-0.5c0.5-0.1-0.3-0.2-0.1-0.4c0.1,0.2,0.9,0.3,0.8-0.1
					c0.5,0,0.2,0.2,0.5,0.2s1-0.6,1.2-0.1c0.3,0,0.2-0.3,0.4-0.3c0.6,0-0.4,0.5,0.1,0.4c0.8,0,0.1-0.2,0.2-0.3
					c0.2,0.3,1.6-0.2,1.1,0.2c0.5-0.2,1.1-0.3,1.7-0.3c-0.4-0.1-0.2-0.1-0.3-0.4c0.7,0.1,0.9-0.2,1.7,0c0.3-0.2,0-0.1,0.1-0.3
					c0.9-0.2,3.5,0.2,3.6-0.2c0.9-0.1,2.1,0.2,2.9-0.2c0.6,0.3,1.7-0.1,2.6,0.1c0.1-0.1-0.3-0.2,0-0.2c0.7,0,0,0.1,0.3,0.3
					c1.4-0.2,0.3,0.1,1.7,0c0-0.1-0.3-0.1-0.6-0.1c0.9-0.1,1.8-0.1,2.7,0c0.4,0,0.1-0.3,0.2-0.4c0.4-0.1,2.6,0,1.9-0.2
					c0.4-0.3,1.9,0.4,2.1-0.2c0.4,0.3,1.3,0,0.9-0.2c-0.1,0-0.2,0-0.2-0.1c0.1,0,0.2,0,0.2,0.1c0.6,0.1,2,2.9,3.3,2.6
					c-0.1-0.1-0.4-0.1-0.3-0.2c0.4-0.1,0.9-0.1,1.3,0c0.3-0.3-0.6,0-0.3-0.3c0.7,0,1.7,0,1.8-0.3c0.5,0.1,0.2,0.3,0.9,0.3
					c0.5-0.1-0.6-0.1,0-0.3c0.4,0.5,3,0,4.2-0.4c-0.8-0.4,1.3-0.5,2.4-0.6c-0.1-0.1-0.2-0.2-0.3-0.2c0.5,0,1.2-0.1,1.5,0.1
					c0.7,0-0.3,3.7,0.2,3.7c0.4,0.2,1.6-0.1,1.4,0c0.6,0,0.5,0.2,0.7,0.1c1.2,0.3,3.4-0.6,3.8-0.2c0.3-0.1,0.3-0.3,0.4-0.4
					c0.6,0,1.1,0,1.7,0.1c1-0.6,3-0.2,3.9-0.6c-0.4-0.2-0.9-0.2-0.9-0.4c0.3-0.2,0.7,0.1,1.1,0.1c-0.1-0.1-0.2-0.2-0.5-0.1
					c0.6-0.1,1.1-0.2,1.7-0.2c0,0.2,0.9,0.1,0.3,0.3c0.3,0,1.8-0.1,1-0.2c0.2-0.2,0.9,0,0.9,0.1c0.2,0,0.4-0.2,0.4-0.3
					c0.6,0.2,1.2-0.2,1.7-0.1c0.2,0,0.7-0.2,0.2-0.2c0.3-0.2,0.6,0.2,0.9,0.3c0.6,0,0.6-0.3,1.4-0.3c0-0.1-0.2,0-0.4-0.1
					c0.6,0,1.4-0.4,1.9,0c0.6-0.2-0.2-0.3,0.7-0.6c-0.4,0.1-0.8,0.1-1.2,0c1.7-0.3,2.9,0.4,4.1,0.3c0.3,0,0.1-0.2-0.2-0.2
					c1.1,0,3.2,4.3,3,3.8c1.4,0.2,2.4-0.2,4.1,0.1c-0.1-0.2,1.1-0.1,1.5-0.2c-0.8-0.1-0.2-0.2,0.1-0.5c0,0.3,1.2-0.1,1.9-0.1
					c1.5,0.1,3,0.1,4.5,0c0.3-0.1-0.1-0.1,0.4-0.2c1.7,0.4,2.9-0.3,4-0.5c-0.1,0,0.3,0.3,1.1,0c2.1-0.3,4.3-0.4,6.5-0.3
					c0.6,0,1.5-0.4,2.1-0.2c-0.2-0.2,0.9,0,0.6-0.2c0.6-0.1,1.7,0.3,1.9-0.1c0.4,0.5,1.4,0.1,2.2,0.2c-0.8-0.1,0.8-0.3-0.5-0.3
					c1.6,0,3.3,0.1,4.9,0.2c0.6-0.2,1.4-0.4,1.4-0.6c0.4,0,0,0.3,0.3,0.4c0.5,0.1,0.9-0.3,0.8,0.1c0.2-0.1,1.1-0.3,0-0.2
					c0.6-0.3,1.6-4,2.1-4.2c0.1-0.1-0.1-0.1-0.4-0.2c1.8,0.1,2.8-0.5,5.8-0.5c0.3,0-0.2,0.2,0.2,0.2c0.7,0.1,0.4-0.3,1.2-0.2
					c-0.1-0.2-0.3-0.1-0.8,0c0.6-0.5,2.3,0,3.4,0c0.9-0.2,0.7-2.5,1.1-2.8c1.9-0.1,3.8-0.1,5.7,0c0.2,0,0.7-0.1,0.8-0.1
					c0.5,0,1.2,0.2,0.4,0c0.9,0.1,2.5,0.2,3.7,0.5c0.7-0.1,1.1-0.3,1.9-0.4c-0.6,0.2,0.5-0.5,0.5-0.5c0.2,0,0.4,0,0.6,0l0.2-0.1
					c-0.1-0.1,0.3-0.1,0,0c0,0,0.1,0.1,0.2,0.1c0.3,0.1,1.9-0.3,1.2-0.4c2.4,0.1,3.9-0.1,6.4,0.2c0.1-0.1-0.7-0.2-0.2-0.2
					c1.3,0.6,3.4-0.5,4.7,0c0.2,0,0.2-0.2,0.2-0.2c0.3,0.3,0.8,0.1,1.7,0.2c0.4,0-0.2-0.2-0.3-0.3c0.7-0.1,1.1,4.2,1.9,4.2
					c1.5-0.3,2.9-0.4,4.4-0.4c0.1-0.1,0.3-0.2,0.6-0.3c1,0.2,0.9-0.1,1.4-0.2c2.5,0,8.4,0,10.9-0.8c0.2,0,0.9,0.2,0.9,0
					c0.3,0,0,0.1,0,0.2c2.6-0.3,5.4,0.4,7.6,0c-0.4-0.1-0.9-0.1-1.3,0c-0.1-0.1-0.2-0.1-0.4-0.1c0.3-0.2,1,0,0.6-0.3
					c1.6,0.3,2.7-0.4,4.2-0.1"/>
				<path class="st0" d="M169.3,59.8c0,0,0-0.1-0.2-0.1c0,0.4,0.8,0.1,1-0.1C169.5,59.5,169.6,59.7,169.3,59.8z"/>
				<path class="st0" d="M122.6,63.1c-0.9,0-0.4,0-0.9-0.2c0.1,0.3-0.8,0-1.1,0c-0.2,0.3,0.3,0.2,0.3,0.4c0.6,0,0.9-0.2,0.6,0.1
					c0.3,0,0.6,0,0.9,0.1C122.4,63.2,122.1,63.2,122.6,63.1z"/>
			</g>
			<path class="st1" d="M236.9,0c-1.1,0.1-2.5,0.6-4,0.4c-0.2,0-0.2,0.2,0,0.2c-1.4,0.1-4.1,0.2-4.9,0.8c-1.2-0.4-5.6,0.4-7.2,0.1
				c-3.2,0.4-5.5,1.2-9.4,1c-0.6,0.2-0.2,0.3-0.1,0.5c-2.3-0.3-5.4,4.1-6.7,4.8c0.1-0.1,0.2-0.1,0.2-0.2c-2,0.3-4,0.7-6,1.2
				c-0.8-0.6-3-0.1-4.1-0.4c-1,0.6-5.1,0.9-7.3,0.7c-0.1,0.4-2.4,0.2-3.3,0.4c-1.3-0.2-2.5-0.1-3.8,0.1c0-0.1,0.2-0.1,0.4-0.2
				c-1.8-0.1-3.5-0.1-5.3,0c0.1,0,0.2,0.2,0.1,0.3c0,0,0,0,0,0c-0.2-0.3-1.9-0.3-1.7,0c-0.4,0-0.2-0.2-0.7-0.1
				c-0.4,0.3-1.1,0.3-1.4,0.6c-0.5,0-0.6,0-1.3-0.1c-0.5,0,0.2,0.1,0,0.3c-1.8,0.1-3.8-0.3-4.2,0.1c-0.4,0-0.8,0-1.2,0.2
				c0-0.1,0-0.2,0-0.2c-1.1,0.7-2.8-3.5-4.6-3.4c-0.2,0-0.2,0.2-0.2,0.2c-2.4,0-3.1,0.4-4.9,0.2c-0.2,0-0.2,0.2,0.1,0.2h0.3
				c-0.1,0-0.2,0-0.3,0c-1.7,0-3.3,0.3-4.9,0.4c-0.1,0.2,0.4,0.2,0.3,0.5c-0.4,0.2-0.6,0-0.9,0c0.1,0.1,0.2,0.2,0.4,0.1
				c-0.1,0.3-1.5-0.1-1.6,0.4c-1.4-0.1-3-2.8-4.8-3.1c-1.6,0.3-3.3,0.4-5,0.2c-0.9,0.4-1.8,0.5-2.7,0.6c-0.4,0.5-1.3,0.4-1.9,0.9
				c-0.2-0.5-1.6,0-1.9-0.2c-0.2,0-0.2,0.2-0.2,0.2c-1.9-0.3-3.7,0.1-5.5-0.2c-0.9,0.5-1.8,4.3-3.1,4.4c-0.1,0.2,0.1,0.2,0.5,0.2
				c-0.5,0.2-2.5,0-0.6,0c-0.1-0.1-0.2-0.2-0.1-0.4c0,0,0,0,0,0c-0.3,0-0.2,0.3-0.4,0.3c-0.6-0.4-2-0.2-3.2-0.1
				c0.3,0.1,0.6,0.2,0.9,0.2c-2.2,0-4.4,0.2-6.5,0.6c-0.3-0.1-0.6-0.1-0.5-0.3c-0.2,0.2-0.7,0.5-1.2,0.4c0.4,0.1-0.3,0.2,0.2,0.2
				c-1.1-0.1-1.6,0.5-3.3,0.4c-0.3,0.1,0,0.1,0.2,0.1c-2.6,0.9-7.2-5.6-10.7-4.5c-1.4-0.1-3,0.2-4.4,0.1c0.7,0.4-2.2-0.2-3.1,0.4
				c0.2-0.3-0.4-0.1-0.4,0c-0.3,0,0-0.1,0.2-0.2c-0.2-0.1-0.4-0.1-0.6-0.1c-0.1,0.1-0.3,0.3-1.2,0.3c0.2,0.1,0.2,0.3,0.1,0.5
				c-0.3,0.3-0.1-0.3-0.1-0.4C87,9.3,86.1,5.1,84.6,5c-0.2,0.2,0.4,0.2,0.5,0.2c-0.3,0.2-0.8,0.3-1.2,0.2c0.1-0.1,0.3,0,0.4-0.1
				S84,5.3,84,5.2c-0.8,0.2-1.7,0.3-2.5,0.2c-0.3,0.1-0.5,0.3-0.6,0.5c-0.8,0,0.2-0.2,0.1-0.4c-0.9,0.5-1.6,0.2-2.2,0.9
				c-0.2-0.1-0.3-0.2-0.6,0c-0.3,0,0.1-0.1,0-0.2c-0.6,0-0.3,0.4-1.2,0.3c0,0.2,0.6,0,0.7,0.1c0.4,0.2-1.1-0.2-1.3,0
				c-0.2,0-0.1-0.2-0.1-0.3c-0.2,0.1-0.3,0.2-0.4,0.1c-0.3,0,0.1,0.1,0,0.2c-0.4,0-0.1-0.3-0.7-0.2c-0.5,0,0.2,0.2,0.3,0.2
				c-0.3,0-1.3-0.3-1.4-0.6c-0.2,0.2-0.9,0.2-1,0.4c-0.3-0.1,0.2-0.4-0.7-0.4c-0.1,0.2-0.2,0-0.4,0.3c-0.2-0.2-0.8,0-0.3-0.2
				c-0.4,0-0.6,0-0.6,0.2c-0.3-0.1-0.6-0.2-0.9-0.3c-0.6,0.2-1.3,0.3-1.9,0.2c-0.2,0.4,0.4-0.1,0.4,0.2c-0.8,0.4-2,0.2-2.4,0.7
				c-2.1-0.1-5.6,5.3-6.4,4.6c-0.3,0-0.2,0.2-0.2,0.3c-0.5-0.2-1.1-0.3-1.7-0.3c1,0.2-1.4,0.2-1.5,0c-0.3,0-0.2,0.2-0.2,0.3
				c-0.7-0.2-1.4-0.2-2.1,0c-0.2,0-0.1-0.1-0.2-0.2c-0.3,0.2-2.5-0.1-3.3,0.4c-0.5-0.1-0.5-0.2-1.1-0.4c-0.2,0-0.3,0.1-0.4,0.2
				c1.4-0.1-0.4,0.4,0.5,0.6c-0.4,0.1-1-0.3-1.1-0.5c-0.4,0.2-0.7,0.4-1,0.7c-1.3,0.1-2.5,0-3.7-0.5c-0.8,0.1-1.5,0.2-2.3,0.2
				c-0.3,0.3-0.3,0.6,0.1,0.9c0.1,0.2-0.6-0.4-0.9-0.5c-0.3,0.2-1,0.2-1.2,0.3s-0.1-0.1-0.2-0.2c-0.4,0-0.7,0.1-0.8,0.2
				c-0.2,0-0.1-0.2-0.1-0.3c-0.2,0-0.4,0.1-0.6,0.3c-0.3-0.1-1.2-0.3-1,0.1c-0.7,0.1-0.2-0.4-0.7-0.4s0.6,0.3-0.1,0.5
				c-0.2,0,0-0.2-0.3-0.4c-0.2,0-0.3,0.1-0.6,0.2c-0.1,0.2,0.9-0.1,0.5,0.2c-0.4-0.2-0.6,0.1-0.9,0c0.5,0.3,0,0.2-0.1,0.6
				c-0.1-0.4-2.2-0.2-1.7,0c-0.3,0.1-0.6-0.3-0.9-0.2s0.1,0.1,0,0.2c-0.4,0-0.8-0.4-0.9,0c-0.2,0-0.1-0.1-0.1-0.2
				c-0.2,0-0.2,0.1-0.2,0.2c-0.3-0.1-0.6-0.2-0.9-0.3c-0.3,0-0.2,0.2-0.2,0.3c-0.2,0-0.1-0.1-0.1-0.2c-0.6,0.1-0.2,0.1-0.2,0.3
				c-0.7,0-0.4-0.4-1.3-0.3c0.5,0.4,0,0-0.8,0.3c0.5-0.3-0.3,0.1-0.1-0.2c-0.4,0.2-1.1,0.1-2.1,0.1c-2.5-0.4-5.3-0.5-6.6-1
				c-2.6,0.1-4,0.1-6.6,0.1c0.1,0.2,0.9,0,1.3,0C9.6,13.1,6.6,13,2.5,13.5c-0.5,0,0.2,0.1,0,0.3c-0.4-0.1-0.7-0.2-1.1-0.3
				c-0.1,0.2,0.7,0,0.5,0.3c-0.6,0-1.3,0-1.9,0l3.2,50c2-0.2,2.8,0.3,4.7,0.4C7.9,64.1,8,64,7.8,64c0.2-0.2,0.4,0.2,0.5,0.2
				c0.2-0.1,0.7,0,0.6-0.3c0.3,0.2,0.6,0.2,0.9,0.1c-0.3-0.3,0.4,0,0.6-0.4c0.3,0.2,1,0,1.3,0.1c0.1-0.2-0.1-0.2-0.5-0.2
				c0.3-0.3,0.4,0.2,0.9,0c-0.1-0.1-0.4-0.1-0.3-0.2c1.1,0.3,3.6,4.4,4.7,4.2c0-0.1-0.3-0.2-0.4-0.1c0-0.4,2,0.3,2.6,0.1
				c-0.3-0.8,3.5-0.2,4.6-0.2c0.2,0,0.4,0,0.5,0.1c0,0,2.1-0.6,2.7-0.3c-0.1-0.2,2.6-0.2,2.3,0c0.6,0,0.5-0.3,1.2-0.2
				c-0.3-0.1-0.6-0.1-0.9-0.1c1.4-0.3,2.8-0.2,4.1,0.2c0.2,0,0.4-0.1,0.4-0.2c0.4,0,0,0.3,0.1,0.4c0.6-0.2,1-0.2,1.4-0.4
				c1.3,0.4,3.3-4,4-3.9c-0.1-0.1,0.7-0.2,0.4-0.2c0.9-0.2,0.8,0.2,1.9,0.1c0.4-0.1-0.3-0.2-0.5-0.3c0-0.2,1.1,0.3,1.8,0.2
				c0.5-0.1-0.4-0.2-0.1-0.5c1,0.2,0.3,0.3,1,0.5c0.3,0,0.2-0.2,0.2-0.3c0.8,0.3,1.7,0.3,2.5,0c0.1,0.5,0.9-0.2,0.7,0.3
				c0.6-0.3,1-0.1,1.4-0.4c0.6,0-0.2,0.2,0,0.3c0.8-0.3,2-0.2,2.2-0.8c-0.1,0.3,0.3,0.7,1,0.6c0.5,0-0.2-0.1,0-0.3
				c0.4,0,0.4,0.3,0.9,0.3c0.9-0.4,1.9-0.5,2.9-0.5c0.5-0.1-0.3-0.2-0.1-0.4c0.1,0.1,0.9,0.3,0.8-0.1c0.5,0,0.2,0.2,0.5,0.2
				s1-0.6,1.2-0.1c0.3,0,0.2-0.3,0.4-0.3c0.6,0-0.4,0.5,0.1,0.4c0.8,0,0.1-0.2,0.2-0.3c0.2,0.3,1.6-0.2,1.1,0.2
				c0.6-0.2,1.2-0.3,1.7-0.2c-0.4-0.2-0.2-0.1-0.3-0.4c0.7,0.1,0.9-0.2,1.7,0c0.3-0.2,0-0.1,0-0.3c0.9-0.2,3.5,0.2,3.6-0.2
				c0.9-0.2,2.1,0.2,2.9-0.2C70,60.4,71,60,72,60.2c0.1-0.1-0.3-0.2,0-0.2c0.7,0,0,0.1,0.3,0.3c1.4-0.2,0.3,0.1,1.7,0
				c0-0.1-0.3,0-0.6-0.1c0.9-0.1,1.8-0.1,2.7,0c0.4,0,0.1-0.3,0.2-0.4c0.4-0.1,2.6,0,1.9-0.2c0.4-0.3,1.9,0.4,2.1-0.2
				c0.4,0.3,1.3,0,0.9-0.2c-0.1,0-0.2,0-0.2-0.1c0.1,0,0.2,0,0.2,0.1c1.2,0.2,2.4,0.2,3.5,0c-0.1-0.1-0.4-0.1-0.3-0.2
				c0.4-0.2,0.9-0.2,1.3,0c0.3-0.3-0.6,0-0.3-0.3c0.7,0,1.5,2.7,1.5,2.4c0.5,0.1,0.2,0.3,0.9,0.3c0.5-0.1-0.6-0.1,0.1-0.3
				c0.4,0.5,3,0,4.2-0.4c-0.8-0.4,1.3-0.5,2.3-0.6c-0.1-0.1-0.2-0.1-0.3-0.1c0.5,0,1.2-0.1,1.5,0.1c0.7,0-0.3-0.3,0.2-0.3
				c0.4,0.2,1.6-0.1,1.4,0c0.6,0,0.5,0.2,0.7,0.1c1.2,0.3,3.4,3.4,3.8,3.8c0.3-0.1,0.3-0.3,0.4-0.4c0.6,0,1.1,0,1.7,0.1
				c1-0.6,3-0.2,3.9-0.6c-0.4-0.2-0.9-0.2-0.9-0.4c0.3-0.2,0.7,0.2,1.1,0.1c-0.1-0.1-0.2-0.2-0.5-0.1c0.6-0.1,1.2-0.2,1.7-0.2
				c0,0.2,0.9,0.1,0.3,0.3c0.3,0,1.8-0.1,1-0.2c0.2-0.2,0.9,0,0.9,0.1c0.2,0,0.4-0.1,0.4-0.3c0.6,0.2,1.2-0.2,1.7-0.1
				c0.2,0,0.7-0.3,0.2-0.2c0.3-0.2,0.6,0.2,0.9,0.3c0.6,0,0.6-0.3,1.4-0.3c0-0.1-0.2-0.1-0.4-0.1c0.6,0,1.4-0.4,1.9,0
				c0.6-0.1-0.2-0.3,0.7-0.6c-0.4,0.1-0.8,0.1-1.1,0c1.7-0.3,2.9,0.4,4.1,0.3c0.3,0,0.1-0.2-0.2-0.2c1.1,0,3.2,0.3,2.9-0.2
				c1.4,0.2,2.4,3.8,4.2,4.1c-0.1-0.2,1.1-0.1,1.5-0.2c-0.8-0.1-0.2-0.2,0.1-0.5c0,0.3,1.2-0.1,1.9-0.1c1.5,0.1,3,0.1,4.5,0
				c0.3-0.1-0.1-0.1,0.4-0.3c1.7,0.4,2.9-0.3,4-0.5c-0.1,0,0.3,0.3,1.1,0c2.1-0.3,4.3-0.5,6.5-0.3c0.6,0,1.5-0.4,2.1-0.2
				c-0.2-0.2,0.9,0,0.6-0.2c0.6-0.1,1.7,0.3,1.9-0.2c0.4,0.5,1.4,0.1,2.2,0.2c-0.9-0.1,0.7-0.3-0.5-0.3c1.6,0,3.3,0.1,4.9,0.2
				c0.6-0.2,1.4-0.4,1.4-0.6c0.4,0,0,0.3,0.3,0.4c0.5,0.1,0.9-0.3,0.7,0c0.2-0.1,1-0.3,0-0.2c0.6-0.2,1.6,0,2.1-0.2
				c0.1-0.1-0.1-0.2-0.4-0.2c1.8,0.1,2.8-4.6,5.8-4.5c0.3,0-0.2,0.2,0.2,0.2c0.7,0.1,0.4-0.3,1.2-0.2c-0.1-0.2-0.3-0.1-0.8-0.1
				c0.6-0.5,2.3,0,3.4,0c0.9-0.2,0.6-0.3,1-0.6c1.6-0.1,3.6-2.3,5.7-2.2c0.2,0,0.7-0.1,0.8-0.1c0.5,0,1.2,0.2,0.4,0
				c0.9,0.1,2.5,0.2,3.7,0.5c0.6-0.2,1.3-0.3,1.9-0.4c-0.6,0.1,0.5-0.5,0.5-0.5c0.2,0,0.4,0,0.6,0l0.2-0.1c-0.1-0.1,0.3-0.1,0,0
				c0,0,0.1,0.1,0.2,0.1c0.3,0.1,1.9-0.2,1.2-0.4c2.1-0.1,4.3,0,6.4,0.2c0.1-0.1-0.7-0.2-0.2-0.2c1.3,0.6,3.4-0.5,4.7,0
				c0.2,0,0.2-0.2,0.2-0.2c0.3,0.3,0.8,0.1,1.7,0.2c0.4,0-0.2-0.2-0.3-0.3c0.7-0.1,1.1,0.2,1.9,0.2c1.3-0.4,2.8,3.7,4.4,3.6
				c0.1-0.1,0.3-0.2,0.6-0.3c1,0.2,0.9-0.1,1.4-0.2c2.5,0,8.4,0,10.9-0.8c0.2,0,0.9,0.2,0.9,0c0.3,0,0,0.1,0,0.2
				c2.6-0.3,5.4,0.3,7.6,0c-0.4-0.1-0.9-0.1-1.3,0c-0.1-0.1-0.2-0.2-0.4-0.2c0.3-0.2,1,0,0.6-0.3c1.6,0.3,2.7-0.4,4.2-0.1
				c0.4,0,1.1-0.3,0.6-0.3"/>
			<path class="st1" d="M167,57.9c0,0,0-0.1-0.2-0.1c0,0.4,0.8,0.1,1-0.1C167.2,57.7,167.3,57.9,167,57.9z"/>
			<path class="st1" d="M120.3,61.2c-0.9,0-0.4,0-0.9-0.2c0.1,0.3-0.8,0-1.1,0c-0.2,0.3,0.3,0.2,0.3,0.4c0.6,0,1-0.2,0.6,0
				c0.3,0,0.6,0.1,0.9,0.1C120.1,61.3,119.8,61.4,120.3,61.2z"/>
		</g>
	</g>
</g>
</svg>
