<svg xmlns="http://www.w3.org/2000/svg" viewBox="0 0 47.18 74.85"><defs><style>.cls-1{fill:#f6921e;}</style></defs><title>ic-left</title><g id="Layer_2" data-name="Layer 2"><g id="Слой_1" data-name="Слой 1"><path class="cls-1" d="M1.78,41.75,33.1,73a6,6,0,0,0,8.65,0l3.65-3.6a5.88,5.88,0,0,0,1.78-4.32,6.15,6.15,0,0,0-1.78-4.37L22.05,37.43,45.4,14.08a5.89,5.89,0,0,0,1.78-4.32A6.15,6.15,0,0,0,45.4,5.38l-3.65-3.6a6.15,6.15,0,0,0-8.65,0L1.78,33.06A6.15,6.15,0,0,0,0,37.43,5.88,5.88,0,0,0,1.78,41.75Z"/></g></g></svg>