<svg xmlns="http://www.w3.org/2000/svg" viewBox="0 0 47.18 74.85"><defs><style>.cls-1{fill:#f6921e;}</style></defs><title>ic-right</title><g id="Layer_2" data-name="Layer 2"><g id="Слой_1" data-name="Слой 1"><path class="cls-1" d="M45.4,33.1,14.08,1.83A5.71,5.71,0,0,0,9.75,0,5.71,5.71,0,0,0,5.43,1.83L1.78,5.43A5.88,5.88,0,0,0,0,9.75a6.15,6.15,0,0,0,1.78,4.37l23.35,23.3L1.78,60.78A5.89,5.89,0,0,0,0,65.1a6.15,6.15,0,0,0,1.78,4.37l3.65,3.6a5.89,5.89,0,0,0,4.32,1.78,5.89,5.89,0,0,0,4.32-1.78L45.4,41.8a6.15,6.15,0,0,0,1.78-4.37A5.88,5.88,0,0,0,45.4,33.1Z"/></g></g></svg>