<svg xmlns="http://www.w3.org/2000/svg" viewBox="0 0 256.36 57"><defs><style>.cls-1{fill:#1d1b3e;}.cls-2{fill:#fff;}</style></defs><title>itmo-violet</title><g id="Layer_2" data-name="Layer 2"><g id="Слой_1" data-name="Слой 1"><rect class="cls-1" width="256.36" height="57" rx="12" ry="12"/><circle class="cls-2" cx="36.12" cy="30.77" r="1.09"/><circle class="cls-2" cx="40.84" cy="23.71" r="1.64"/><circle class="cls-2" cx="45.55" cy="26.06" r="1.64"/><circle class="cls-2" cx="50.26" cy="28.42" r="1.64"/><circle class="cls-2" cx="45.55" cy="30.77" r="1.64"/><circle class="cls-2" cx="54.97" cy="30.77" r="1.64"/><circle class="cls-2" cx="54.97" cy="35.49" r="1.09"/><circle class="cls-2" cx="59.68" cy="33.13" r="1.09"/><circle class="cls-2" cx="59.68" cy="28.42" r="1.64"/><circle class="cls-2" cx="54.97" cy="26.06" r="1.64"/><circle class="cls-2" cx="50.26" cy="33.13" r="1.09"/><circle class="cls-2" cx="59.68" cy="23.71" r="1.64"/><circle class="cls-2" cx="64.39" cy="21.35" r="1.09"/><circle class="cls-2" cx="64.39" cy="30.77" r="1.09"/><circle class="cls-2" cx="50.26" cy="23.71" r="1.09"/><circle class="cls-2" cx="45.55" cy="35.49" r="1.09"/><circle class="cls-2" cx="40.84" cy="28.42" r="1.64"/><path class="cls-2" d="M36.12,24.59a1.48,1.48,0,1,0,1.48,1.48A1.48,1.48,0,0,0,36.12,24.59Zm.81,1.48a.81.81,0,1,1-.81-.81A.81.81,0,0,1,36.93,26.06Z"/><circle class="cls-2" cx="31.41" cy="33.13" r="0.64"/><circle class="cls-2" cx="31.41" cy="28.42" r="0.64"/><circle class="cls-2" cx="40.84" cy="33.1" r="0.64"/><circle class="cls-2" cx="40.84" cy="19" r="0.64"/><circle class="cls-2" cx="50.23" cy="37.84" r="0.64"/><circle class="cls-2" cx="36.12" cy="21.35" r="0.64"/><circle class="cls-2" cx="45.55" cy="21.35" r="0.64"/><circle class="cls-2" cx="50.23" cy="37.84" r="0.64"/><circle class="cls-2" cx="73.81" cy="26.06" r="0.64"/><circle class="cls-2" cx="64.39" cy="35.49" r="0.64"/><circle class="cls-2" cx="69.1" cy="23.71" r="1.64"/><circle class="cls-2" cx="64.39" cy="26.06" r="1.64"/><circle class="cls-2" cx="69.1" cy="33.13" r="0.64"/><circle class="cls-2" cx="69.1" cy="28.42" r="1.09"/><circle class="cls-2" cx="54.97" cy="21.35" r="0.64"/><circle class="cls-2" cx="69.1" cy="19" r="0.64"/><circle class="cls-2" cx="73.81" cy="21.35" r="0.64"/><path class="cls-2" d="M87.64,25a1.09,1.09,0,0,0,.08-.83.68.68,0,0,0-.4-.36c-.49-.18-.87.05-1.13.68l-1.82,4.41-2.51-4.51a1.2,1.2,0,0,0-.53-.56.75.75,0,0,0-.68,0,.69.69,0,0,0-.37.58,1.25,1.25,0,0,0,.2.74l3.08,5.36a2.69,2.69,0,0,1-.43.79.68.68,0,0,1-.53.25l-.26,0L82,31.53l-.24-.08a.65.65,0,0,0-.93.38.83.83,0,0,0,.49,1.09,2.69,2.69,0,0,0,1.3.27,1.88,1.88,0,0,0,1.48-.68,8.6,8.6,0,0,0,1.2-2.14Z"/><path class="cls-2" d="M90.14,33.06a.82.82,0,0,0,.62-.24A.87.87,0,0,0,91,32.2V29.08h4.12V32.2a.89.89,0,0,0,.22.62.93.93,0,0,0,1.26,0,.88.88,0,0,0,.23-.62V24.66a.9.9,0,0,0-.23-.63.91.91,0,0,0-1.26,0,.92.92,0,0,0-.22.63v2.9H91v-2.9a.9.9,0,0,0-.23-.63.91.91,0,0,0-1.26,0,.92.92,0,0,0-.22.63V32.2a.89.89,0,0,0,.22.62A.82.82,0,0,0,90.14,33.06Z"/><path class="cls-2" d="M100.05,33.06a1,1,0,0,0,.79-.49l4.22-5.77V32.2a.9.9,0,0,0,.22.61.82.82,0,0,0,.65.25.79.79,0,0,0,.63-.24.91.91,0,0,0,.21-.62V24.66c0-.58-.27-.88-.81-.88a1,1,0,0,0-.82.47l-4.2,5.81v-5.4a.92.92,0,0,0-.22-.63.93.93,0,0,0-1.27,0,.93.93,0,0,0-.21.63V32.2a.9.9,0,0,0,.21.64A.78.78,0,0,0,100.05,33.06Z"/><path class="cls-2" d="M114.43,28.09a2,2,0,0,0,.79-.75,2.22,2.22,0,0,0,.33-1.17c0-1.63-1.15-2.46-3.41-2.46a13,13,0,0,0-2.15.16.87.87,0,0,0-.8.94v7.26a.83.83,0,0,0,.79.9,15.14,15.14,0,0,0,2.27.15c2.48,0,3.74-1,3.74-2.87a2.2,2.2,0,0,0-.45-1.38A2.39,2.39,0,0,0,114.43,28.09Zm-2.3-.43h-1.3V25.21c.4,0,.8-.06,1.17-.06,1.22,0,1.81.39,1.81,1.18S113.25,27.66,112.13,27.66Zm1.64,3.72a2.65,2.65,0,0,1-1.45.32,12.94,12.94,0,0,1-1.49-.07V29h1.47c1.31,0,1.94.44,1.94,1.36A1.18,1.18,0,0,1,113.77,31.38Z"/><path class="cls-2" d="M124.09,32.85a.72.72,0,0,0,.22-.55.74.74,0,0,0-.22-.57.83.83,0,0,0-.59-.21h-3.79V29.06h2.91a.83.83,0,0,0,.6-.21.75.75,0,0,0,.22-.56.72.72,0,0,0-.22-.56.87.87,0,0,0-.6-.2h-2.91V25.31h3.66a.83.83,0,0,0,.59-.21.72.72,0,0,0,.22-.55A.74.74,0,0,0,124,24a.83.83,0,0,0-.59-.21h-4.5a.83.83,0,0,0-.64.25.9.9,0,0,0-.23.63v7.53a.88.88,0,0,0,.23.63.85.85,0,0,0,.64.25h4.62A.83.83,0,0,0,124.09,32.85Z"/><path class="cls-2" d="M132.41,26.7a2.68,2.68,0,0,0-1-2.27,4.24,4.24,0,0,0-2.61-.72,10.8,10.8,0,0,0-2.06.17.9.9,0,0,0-.79,1V32.2a.89.89,0,0,0,.22.62.93.93,0,0,0,1.26,0,.87.87,0,0,0,.23-.62V29.81a8.2,8.2,0,0,0,1.1.06,4.06,4.06,0,0,0,2.6-.8A2.86,2.86,0,0,0,132.41,26.7Zm-4.71-1.42a8.53,8.53,0,0,1,1.1-.07c1.23,0,1.82.5,1.82,1.53s-.63,1.63-1.91,1.63a8.68,8.68,0,0,1-1,0Z"/><path class="cls-2" d="M139.91,31.1a3.68,3.68,0,0,1-1.86.56,2.35,2.35,0,0,1-1.87-.87,3.6,3.6,0,0,1-.74-2.39,3.75,3.75,0,0,1,.69-2.35c.74-1,2-1.14,3.6-.51.55.21.92.12,1.08-.24a.76.76,0,0,0-.34-1,4.33,4.33,0,0,0-2.49-.62,4,4,0,0,0-3.18,1.3,5.09,5.09,0,0,0-1.14,3.47,5.28,5.28,0,0,0,1.08,3.49,4,4,0,0,0,3.19,1.29,4.53,4.53,0,0,0,2.75-.8,1.07,1.07,0,0,0,.43-.6.68.68,0,0,0-.11-.59C140.76,30.87,140.39,30.83,139.91,31.1Z"/><path class="cls-2" d="M149.67,23.78a1,1,0,0,0-.82.47l-4.2,5.81v-5.4a.92.92,0,0,0-.22-.63.93.93,0,0,0-1.27,0,.93.93,0,0,0-.21.63V32.2a.9.9,0,0,0,.21.64.78.78,0,0,0,.6.23,1,1,0,0,0,.79-.49l4.22-5.77V32.2a.9.9,0,0,0,.22.61.82.82,0,0,0,.65.25.79.79,0,0,0,.63-.24.91.91,0,0,0,.21-.62V24.66C150.48,24.07,150.21,23.78,149.67,23.78Z"/><path class="cls-2" d="M159.91,24.54a.72.72,0,0,0-.22-.56.87.87,0,0,0-.6-.2h-6.3a.85.85,0,0,0-.59.2.72.72,0,0,0-.22.56.75.75,0,0,0,.22.56.82.82,0,0,0,.59.21h2.3V32.2a.89.89,0,0,0,.22.62.94.94,0,0,0,1.26,0,.89.89,0,0,0,.22-.62V25.31h2.3a.83.83,0,0,0,.6-.21A.75.75,0,0,0,159.91,24.54Z"/><path class="cls-2" d="M166.9,31.53h-3.79V29.06H166a.83.83,0,0,0,.6-.21.75.75,0,0,0,.22-.56.72.72,0,0,0-.22-.56.87.87,0,0,0-.6-.2h-2.91V25.31h3.66a.83.83,0,0,0,.59-.21.72.72,0,0,0,.22-.55.74.74,0,0,0-.22-.57.83.83,0,0,0-.59-.21h-4.5a.83.83,0,0,0-.64.25.9.9,0,0,0-.23.63v7.53a.88.88,0,0,0,.23.63.85.85,0,0,0,.64.25h4.62a.83.83,0,0,0,.59-.21.72.72,0,0,0,.22-.55.74.74,0,0,0-.22-.57A.83.83,0,0,0,166.9,31.53Z"/><path class="cls-2" d="M176.27,24.54A.72.72,0,0,0,176,24a.87.87,0,0,0-.6-.2h-6.3a.85.85,0,0,0-.59.2.72.72,0,0,0-.22.56.75.75,0,0,0,.22.56.82.82,0,0,0,.59.21h2.3V32.2a.89.89,0,0,0,.22.62.94.94,0,0,0,1.26,0,.89.89,0,0,0,.22-.62V25.31h2.3a.83.83,0,0,0,.6-.21A.75.75,0,0,0,176.27,24.54Z"/><path class="cls-2" d="M189,32.2V24.66c0-.58-.27-.88-.81-.88a1,1,0,0,0-.82.47l-4.2,5.81v-5.4A.92.92,0,0,0,183,24a.93.93,0,0,0-1.27,0,.93.93,0,0,0-.21.63V32.2a.9.9,0,0,0,.21.64.78.78,0,0,0,.6.23,1,1,0,0,0,.79-.49l4.22-5.77V32.2a.9.9,0,0,0,.22.61.82.82,0,0,0,.65.25.79.79,0,0,0,.63-.24A.91.91,0,0,0,189,32.2Z"/><path class="cls-2" d="M197.62,23.78h-6.3a.85.85,0,0,0-.59.2.72.72,0,0,0-.22.56.75.75,0,0,0,.22.56.82.82,0,0,0,.59.21h2.3V32.2a.89.89,0,0,0,.22.62.94.94,0,0,0,1.26,0,.89.89,0,0,0,.22-.62V25.31h2.3a.83.83,0,0,0,.6-.21.75.75,0,0,0,.22-.56.72.72,0,0,0-.22-.56A.87.87,0,0,0,197.62,23.78Z"/><path class="cls-2" d="M207.6,23.78a1,1,0,0,0-.83.53l-2.61,4.22-2.67-4.21a1,1,0,0,0-.87-.54A.78.78,0,0,0,200,24a.92.92,0,0,0-.22.67V32.2c0,.57.27.87.8.87s.8-.29.8-.87V27L203.29,30a.92.92,0,0,0,.79.49.9.9,0,0,0,.78-.5l1.84-3V32.2a.88.88,0,0,0,.23.62.93.93,0,0,0,1.26,0,.89.89,0,0,0,.22-.62V24.66a1,1,0,0,0-.21-.63A.74.74,0,0,0,207.6,23.78Z"/><path class="cls-2" d="M218.11,25a4.64,4.64,0,0,0-6.54,0,5.11,5.11,0,0,0-1.15,3.43,5.1,5.1,0,0,0,1.15,3.43,4.65,4.65,0,0,0,6.54,0,5.08,5.08,0,0,0,1.16-3.43A5.09,5.09,0,0,0,218.11,25Zm-1.31,5.77a2.56,2.56,0,0,1-3.9,0,3.8,3.8,0,0,1-.69-2.34,3.8,3.8,0,0,1,.69-2.34,2.56,2.56,0,0,1,3.9,0,3.8,3.8,0,0,1,.69,2.34A3.8,3.8,0,0,1,216.8,30.76Z"/></g></g></svg>