<svg xmlns="http://www.w3.org/2000/svg" viewBox="0 0 188.5 20.12"><defs><style>.cls-1{fill:#fff;}</style></defs><title>itmo</title><g id="Layer_2" data-name="Layer 2"><g id="Слой_1" data-name="Слой 1"><path class="cls-1" d="M6.45,12.42a1.1,1.1,0,1,1-1.1-1.1A1.09,1.09,0,0,1,6.45,12.42Z"/><path class="cls-1" d="M11.7,5.35a1.64,1.64,0,1,1-1.64-1.64A1.63,1.63,0,0,1,11.7,5.35Z"/><path class="cls-1" d="M16.42,7.71a1.65,1.65,0,1,1-1.65-1.64A1.65,1.65,0,0,1,16.42,7.71Z"/><path class="cls-1" d="M21.13,10.06a1.65,1.65,0,1,1-1.65-1.64A1.64,1.64,0,0,1,21.13,10.06Z"/><path class="cls-1" d="M16.42,12.42a1.65,1.65,0,1,1-1.65-1.64A1.65,1.65,0,0,1,16.42,12.42Z"/><path class="cls-1" d="M25.84,12.42a1.65,1.65,0,1,1-1.64-1.64A1.65,1.65,0,0,1,25.84,12.42Z"/><path class="cls-1" d="M25.29,17.13A1.1,1.1,0,1,1,24.2,16,1.09,1.09,0,0,1,25.29,17.13Z"/><path class="cls-1" d="M30,14.77a1.1,1.1,0,1,1-1.09-1.09A1.09,1.09,0,0,1,30,14.77Z"/><path class="cls-1" d="M30.55,10.06a1.64,1.64,0,1,1-1.64-1.64A1.64,1.64,0,0,1,30.55,10.06Z"/><path class="cls-1" d="M25.84,7.71A1.65,1.65,0,1,1,24.2,6.07,1.65,1.65,0,0,1,25.84,7.71Z"/><path class="cls-1" d="M20.58,14.77a1.1,1.1,0,1,1-1.1-1.09A1.1,1.1,0,0,1,20.58,14.77Z"/><path class="cls-1" d="M30.55,5.35a1.64,1.64,0,1,1-1.64-1.64A1.64,1.64,0,0,1,30.55,5.35Z"/><path class="cls-1" d="M34.71,3a1.1,1.1,0,1,1-1.09-1.1A1.09,1.09,0,0,1,34.71,3Z"/><path class="cls-1" d="M34.71,12.42a1.1,1.1,0,1,1-1.09-1.1A1.09,1.09,0,0,1,34.71,12.42Z"/><path class="cls-1" d="M20.58,5.35a1.1,1.1,0,1,1-1.1-1.09A1.1,1.1,0,0,1,20.58,5.35Z"/><path class="cls-1" d="M15.87,17.13a1.1,1.1,0,1,1-1.1-1.1A1.09,1.09,0,0,1,15.87,17.13Z"/><path class="cls-1" d="M11.7,10.06a1.64,1.64,0,1,1-1.64-1.64A1.63,1.63,0,0,1,11.7,10.06Z"/><path class="cls-1" d="M5.35,6.23A1.48,1.48,0,1,0,6.83,7.71,1.48,1.48,0,0,0,5.35,6.23Zm.81,1.48a.81.81,0,1,1-.81-.81A.81.81,0,0,1,6.16,7.71Z"/><path class="cls-1" d="M1.28,14.77a.64.64,0,0,1-1.28,0,.64.64,0,0,1,.64-.64A.64.64,0,0,1,1.28,14.77Z"/><path class="cls-1" d="M1.28,10.06a.64.64,0,0,1-1.28,0,.64.64,0,0,1,.64-.64A.64.64,0,0,1,1.28,10.06Z"/><path class="cls-1" d="M10.7,14.74a.64.64,0,0,1-.64.64.64.64,0,0,1,0-1.28A.64.64,0,0,1,10.7,14.74Z"/><circle class="cls-1" cx="10.06" cy="0.64" r="0.64"/><path class="cls-1" d="M20.09,19.48a.64.64,0,1,1-.64-.63A.64.64,0,0,1,20.09,19.48Z"/><path class="cls-1" d="M6,3A.64.64,0,1,1,4.71,3,.64.64,0,0,1,6,3Z"/><path class="cls-1" d="M15.41,3a.64.64,0,0,1-.64.64A.64.64,0,0,1,14.13,3a.64.64,0,0,1,1.28,0Z"/><path class="cls-1" d="M20.09,19.48a.64.64,0,1,1-.64-.63A.64.64,0,0,1,20.09,19.48Z"/><path class="cls-1" d="M43.68,7.71a.64.64,0,1,1-1.28,0,.64.64,0,0,1,1.28,0Z"/><path class="cls-1" d="M34.26,17.13a.64.64,0,1,1-.64-.64A.64.64,0,0,1,34.26,17.13Z"/><path class="cls-1" d="M40,5.35a1.64,1.64,0,1,1-1.64-1.64A1.63,1.63,0,0,1,40,5.35Z"/><path class="cls-1" d="M35.26,7.71a1.64,1.64,0,1,1-1.64-1.64A1.64,1.64,0,0,1,35.26,7.71Z"/><path class="cls-1" d="M39,14.77a.64.64,0,0,1-1.28,0,.64.64,0,0,1,1.28,0Z"/><path class="cls-1" d="M39.42,10.06A1.09,1.09,0,1,1,38.33,9,1.09,1.09,0,0,1,39.42,10.06Z"/><path class="cls-1" d="M24.84,3a.64.64,0,0,1-.64.64A.64.64,0,1,1,24.84,3Z"/><path class="cls-1" d="M39,.64a.64.64,0,1,1-1.28,0A.64.64,0,0,1,39,.64Z"/><path class="cls-1" d="M43.68,3A.64.64,0,0,1,42.4,3a.64.64,0,0,1,1.28,0Z"/><path class="cls-1" d="M56.87,6.68A1.09,1.09,0,0,0,57,5.85a.71.71,0,0,0-.41-.36c-.48-.18-.87,0-1.13.68l-1.82,4.42L51.08,6.08a1.21,1.21,0,0,0-.53-.56.75.75,0,0,0-.68,0,.7.7,0,0,0-.37.58,1.23,1.23,0,0,0,.2.75l3.08,5.36a2.82,2.82,0,0,1-.43.79.69.69,0,0,1-.53.25l-.26,0-.29-.09A.77.77,0,0,0,51,13.1a.66.66,0,0,0-.94.37.83.83,0,0,0,.49,1.09,2.63,2.63,0,0,0,1.31.28,1.87,1.87,0,0,0,1.48-.68A8.69,8.69,0,0,0,54.58,12Z"/><path class="cls-1" d="M59.37,14.7a.85.85,0,0,0,.63-.24.87.87,0,0,0,.22-.62V10.73h4.12v3.11a.92.92,0,0,0,.22.62.83.83,0,0,0,.64.24.81.81,0,0,0,.62-.24.88.88,0,0,0,.23-.62V6.3a.9.9,0,0,0-.23-.63.79.79,0,0,0-.62-.25.8.8,0,0,0-.64.25,1,1,0,0,0-.22.63V9.2H60.22V6.3A.9.9,0,0,0,60,5.67a.82.82,0,0,0-.63-.25.79.79,0,0,0-.63.25.91.91,0,0,0-.22.63v7.54a.87.87,0,0,0,.22.62A.82.82,0,0,0,59.37,14.7Z"/><path class="cls-1" d="M69.28,14.7a1,1,0,0,0,.79-.48l4.22-5.77v5.39a.91.91,0,0,0,.22.61.82.82,0,0,0,.65.25.78.78,0,0,0,.62-.24.92.92,0,0,0,.22-.62V6.3c0-.58-.28-.88-.82-.88a1,1,0,0,0-.81.47l-4.2,5.81V6.3A.91.91,0,0,0,70,5.67a.93.93,0,0,0-1.27,0,1,1,0,0,0-.21.63v7.54a.89.89,0,0,0,.21.63A.75.75,0,0,0,69.28,14.7Z"/><path class="cls-1" d="M83.65,9.73A2,2,0,0,0,84.44,9a2.26,2.26,0,0,0,.33-1.18c0-1.63-1.14-2.46-3.4-2.46a13.77,13.77,0,0,0-2.15.16.88.88,0,0,0-.81,1v7.26a.82.82,0,0,0,.79.9,14.86,14.86,0,0,0,2.27.15c2.48,0,3.74-1,3.74-2.87a2.21,2.21,0,0,0-.45-1.39A2.39,2.39,0,0,0,83.65,9.73Zm-2.3-.43h-1.3V6.85q.61-.06,1.17-.06C82.44,6.79,83,7.18,83,8S82.48,9.3,81.35,9.3ZM83,13a2.59,2.59,0,0,1-1.45.33,12.49,12.49,0,0,1-1.49-.08V10.61h1.48c1.3,0,1.94.44,1.94,1.35A1.17,1.17,0,0,1,83,13Z"/><path class="cls-1" d="M93.31,14.5a.73.73,0,0,0,.23-.55.75.75,0,0,0-.23-.57.79.79,0,0,0-.58-.21H88.94V10.7h2.91a.84.84,0,0,0,.6-.21.75.75,0,0,0,.22-.56.7.7,0,0,0-.22-.56.89.89,0,0,0-.6-.2H88.94V7h3.65a.82.82,0,0,0,.59-.21.69.69,0,0,0,.22-.55.73.73,0,0,0-.22-.56.82.82,0,0,0-.59-.21H88.1a.81.81,0,0,0-.64.25.9.9,0,0,0-.23.63v7.53a.84.84,0,0,0,.24.62.81.81,0,0,0,.64.25h4.62A.83.83,0,0,0,93.31,14.5Z"/><path class="cls-1" d="M101.64,8.35a2.68,2.68,0,0,0-1-2.27,4.24,4.24,0,0,0-2.61-.73A10.46,10.46,0,0,0,96,5.53a.9.9,0,0,0-.79,1v7.33a.92.92,0,0,0,.22.62.83.83,0,0,0,.64.24.81.81,0,0,0,.62-.24.88.88,0,0,0,.23-.62V11.46a10,10,0,0,0,1.1,0,4.11,4.11,0,0,0,2.6-.79A2.87,2.87,0,0,0,101.64,8.35ZM96.93,6.93A8.23,8.23,0,0,1,98,6.86c1.23,0,1.82.5,1.82,1.53S99.23,10,97.94,10a7,7,0,0,1-1,0Z"/><path class="cls-1" d="M109.14,12.74a3.67,3.67,0,0,1-1.86.57,2.34,2.34,0,0,1-1.87-.87,3.6,3.6,0,0,1-.74-2.39,3.74,3.74,0,0,1,.69-2.36c.74-1,2-1.13,3.6-.5.55.2.92.12,1.08-.24a.77.77,0,0,0-.34-1,4.34,4.34,0,0,0-2.49-.62A4,4,0,0,0,104,6.59a5.07,5.07,0,0,0-1.14,3.47A5.31,5.31,0,0,0,104,13.55a4,4,0,0,0,3.2,1.29,4.5,4.5,0,0,0,2.74-.8,1.06,1.06,0,0,0,.43-.6.7.7,0,0,0-.11-.59C110,12.51,109.62,12.47,109.14,12.74Z"/><path class="cls-1" d="M118.9,5.42a1,1,0,0,0-.82.47l-4.19,5.81V6.3a1,1,0,0,0-.22-.63.94.94,0,0,0-1.28,0,1,1,0,0,0-.21.63v7.54a.85.85,0,0,0,.22.63.74.74,0,0,0,.59.23,1,1,0,0,0,.79-.48L118,8.45v5.39a.86.86,0,0,0,.22.61.79.79,0,0,0,.64.25.81.81,0,0,0,.63-.24.91.91,0,0,0,.21-.62V6.3C119.71,5.72,119.44,5.42,118.9,5.42Z"/><path class="cls-1" d="M129.14,6.18a.7.7,0,0,0-.22-.56.9.9,0,0,0-.61-.2H122a.88.88,0,0,0-.59.2.7.7,0,0,0-.22.56.75.75,0,0,0,.22.56A.84.84,0,0,0,122,7h2.3v6.89a.87.87,0,0,0,.22.62.82.82,0,0,0,.63.24.81.81,0,0,0,.63-.24.88.88,0,0,0,.23-.62V7h2.29a.85.85,0,0,0,.61-.21A.75.75,0,0,0,129.14,6.18Z"/><path class="cls-1" d="M136.12,13.17h-3.79V10.7h2.91a.85.85,0,0,0,.61-.21.79.79,0,0,0,.22-.56.74.74,0,0,0-.22-.56.9.9,0,0,0-.61-.2h-2.91V7H136a.84.84,0,0,0,.59-.21.69.69,0,0,0,.22-.55.73.73,0,0,0-.22-.56.84.84,0,0,0-.59-.21h-4.5a.83.83,0,0,0-.64.25.9.9,0,0,0-.22.63v7.53a.88.88,0,0,0,.23.62.84.84,0,0,0,.65.25h4.61a.86.86,0,0,0,.59-.2.72.72,0,0,0,.22-.55.74.74,0,0,0-.22-.57A.82.82,0,0,0,136.12,13.17Z"/><path class="cls-1" d="M145.5,6.18a.71.71,0,0,0-.23-.56.85.85,0,0,0-.6-.2h-6.3a.88.88,0,0,0-.59.2.7.7,0,0,0-.22.56.75.75,0,0,0,.22.56.84.84,0,0,0,.59.21h2.3v6.89a.87.87,0,0,0,.22.62.82.82,0,0,0,.63.24.81.81,0,0,0,.63-.24.87.87,0,0,0,.22-.62V7h2.3a.85.85,0,0,0,.61-.21A.79.79,0,0,0,145.5,6.18Z"/><path class="cls-1" d="M158.24,13.84V6.3c0-.58-.27-.88-.81-.88a1,1,0,0,0-.82.47l-4.2,5.81V6.3a.91.91,0,0,0-.22-.63.78.78,0,0,0-.63-.25.8.8,0,0,0-.64.25,1,1,0,0,0-.21.63v7.54a.89.89,0,0,0,.21.63.78.78,0,0,0,.6.23,1,1,0,0,0,.79-.48l4.23-5.77v5.39a.9.9,0,0,0,.21.61,1,1,0,0,0,1.28,0A.91.91,0,0,0,158.24,13.84Z"/><path class="cls-1" d="M166.84,5.42h-6.3a.88.88,0,0,0-.59.2.7.7,0,0,0-.22.56.75.75,0,0,0,.22.56.84.84,0,0,0,.59.21h2.3v6.89a.87.87,0,0,0,.22.62.82.82,0,0,0,.63.24.81.81,0,0,0,.63-.24.87.87,0,0,0,.22-.62V7h2.3a.85.85,0,0,0,.61-.21.79.79,0,0,0,.22-.56.71.71,0,0,0-.23-.56A.85.85,0,0,0,166.84,5.42Z"/><path class="cls-1" d="M176.83,5.42A1,1,0,0,0,176,6l-2.61,4.22L170.72,6a1,1,0,0,0-.87-.54.78.78,0,0,0-.58.22.9.9,0,0,0-.22.67v7.53c0,.57.27.86.8.86s.8-.29.8-.86V8.68l1.87,2.93a.92.92,0,0,0,.79.49.89.89,0,0,0,.77-.51l1.85-3v5.22a.87.87,0,0,0,.22.62.85.85,0,0,0,.63.24.82.82,0,0,0,.63-.24.87.87,0,0,0,.22-.62V6.3a1,1,0,0,0-.21-.64A.72.72,0,0,0,176.83,5.42Z"/><path class="cls-1" d="M187.34,6.64a4.64,4.64,0,0,0-6.54,0,5.11,5.11,0,0,0-1.15,3.42,5.14,5.14,0,0,0,1.15,3.44,4.66,4.66,0,0,0,6.54,0,5.1,5.1,0,0,0,1.16-3.44A5.06,5.06,0,0,0,187.34,6.64ZM186,12.4a2.54,2.54,0,0,1-3.9,0,3.82,3.82,0,0,1-.69-2.34,3.82,3.82,0,0,1,.69-2.34,2.56,2.56,0,0,1,3.9,0,3.76,3.76,0,0,1,.69,2.34A3.76,3.76,0,0,1,186,12.4Z"/></g></g></svg>