<svg xmlns="http://www.w3.org/2000/svg" viewBox="0 0 307.68 32.85"><defs><style>.cls-1{fill:#2151a2;}.cls-2{fill:#eb1946;}</style></defs><title>Asset 11</title><g id="Layer_2" data-name="Layer 2"><g id="Слой_1" data-name="Слой 1"><path class="cls-1" d="M10.52,20.27a1.79,1.79,0,1,1-1.79-1.79A1.79,1.79,0,0,1,10.52,20.27Z"/><path class="cls-1" d="M19.1,8.73a2.68,2.68,0,1,1-2.68-2.68A2.68,2.68,0,0,1,19.1,8.73Z"/><path class="cls-1" d="M26.79,12.58A2.68,2.68,0,1,1,24.11,9.9,2.68,2.68,0,0,1,26.79,12.58Z"/><path class="cls-1" d="M34.48,16.42a2.68,2.68,0,1,1-2.68-2.68A2.68,2.68,0,0,1,34.48,16.42Z"/><path class="cls-1" d="M26.79,20.27a2.68,2.68,0,1,1-2.68-2.68A2.68,2.68,0,0,1,26.79,20.27Z"/><path class="cls-1" d="M42.17,20.27a2.68,2.68,0,1,1-2.68-2.68A2.68,2.68,0,0,1,42.17,20.27Z"/><path class="cls-1" d="M41.28,28a1.79,1.79,0,1,1-1.79-1.79A1.79,1.79,0,0,1,41.28,28Z"/><path class="cls-1" d="M49,24.11a1.79,1.79,0,1,1-1.79-1.78A1.79,1.79,0,0,1,49,24.11Z"/><path class="cls-1" d="M49.86,16.42a2.68,2.68,0,1,1-2.68-2.67A2.68,2.68,0,0,1,49.86,16.42Z"/><path class="cls-1" d="M42.17,12.58A2.68,2.68,0,1,1,39.49,9.9,2.68,2.68,0,0,1,42.17,12.58Z"/><path class="cls-1" d="M33.59,24.11a1.79,1.79,0,1,1-1.79-1.78A1.79,1.79,0,0,1,33.59,24.11Z"/><path class="cls-1" d="M49.86,8.73a2.68,2.68,0,1,1-2.68-2.68A2.68,2.68,0,0,1,49.86,8.73Z"/><path class="cls-1" d="M56.66,4.89A1.79,1.79,0,1,1,54.87,3.1,1.79,1.79,0,0,1,56.66,4.89Z"/><path class="cls-1" d="M56.66,20.27a1.79,1.79,0,1,1-1.79-1.79A1.79,1.79,0,0,1,56.66,20.27Z"/><path class="cls-1" d="M33.59,8.73A1.79,1.79,0,1,1,31.8,7,1.79,1.79,0,0,1,33.59,8.73Z"/><path class="cls-1" d="M25.9,28a1.79,1.79,0,1,1-1.79-1.79A1.79,1.79,0,0,1,25.9,28Z"/><path class="cls-1" d="M19.1,16.42a2.68,2.68,0,1,1-2.68-2.68A2.68,2.68,0,0,1,19.1,16.42Z"/><path class="cls-2" d="M11.41,12.58A2.68,2.68,0,1,1,8.73,9.9,2.68,2.68,0,0,1,11.41,12.58Z"/><path class="cls-1" d="M2.09,24.11a1,1,0,1,1-1-1A1,1,0,0,1,2.09,24.11Z"/><path class="cls-1" d="M2.09,16.42a1,1,0,1,1-1-1A1,1,0,0,1,2.09,16.42Z"/><path class="cls-1" d="M17.47,24.06a1,1,0,1,1-1-1A1,1,0,0,1,17.47,24.06Z"/><circle class="cls-1" cx="16.42" cy="1.04" r="1.04"/><path class="cls-1" d="M32.79,31.8a1,1,0,1,1-1-1A1,1,0,0,1,32.79,31.8Z"/><path class="cls-1" d="M9.78,4.89a1,1,0,1,1-1-1A1,1,0,0,1,9.78,4.89Z"/><path class="cls-1" d="M25.16,4.89a1,1,0,1,1-1.05-1A1,1,0,0,1,25.16,4.89Z"/><path class="cls-1" d="M32.79,31.8a1,1,0,1,1-1-1A1,1,0,0,1,32.79,31.8Z"/><path class="cls-1" d="M71.3,12.58a1,1,0,1,1-1-1A1,1,0,0,1,71.3,12.58Z"/><path class="cls-1" d="M55.92,28a1,1,0,1,1-1.05-1A1,1,0,0,1,55.92,28Z"/><path class="cls-1" d="M65.24,8.73a2.68,2.68,0,1,1-2.68-2.67A2.68,2.68,0,0,1,65.24,8.73Z"/><path class="cls-1" d="M57.55,12.58A2.68,2.68,0,1,1,54.87,9.9,2.68,2.68,0,0,1,57.55,12.58Z"/><path class="cls-1" d="M63.61,24.11a1,1,0,1,1-1-1A1,1,0,0,1,63.61,24.11Z"/><path class="cls-1" d="M64.35,16.42a1.79,1.79,0,1,1-1.79-1.78A1.79,1.79,0,0,1,64.35,16.42Z"/><path class="cls-1" d="M40.54,4.89a1,1,0,1,1-1-1A1,1,0,0,1,40.54,4.89Z"/><path class="cls-1" d="M63.61,1a1,1,0,1,1-1-1A1,1,0,0,1,63.61,1Z"/><path class="cls-1" d="M71.3,4.89a1,1,0,1,1-1-1A1,1,0,0,1,71.3,4.89Z"/><path class="cls-1" d="M92.82,10.9A1.73,1.73,0,0,0,93,9.54,1.1,1.1,0,0,0,92.29,9c-.79-.29-1.42.09-1.85,1.11l-3,7.21L83.38,9.92A2,2,0,0,0,82.51,9a1.23,1.23,0,0,0-1.11.08,1.13,1.13,0,0,0-.6.95,2,2,0,0,0,.32,1.21l5,8.75a4.43,4.43,0,0,1-.7,1.29,1.12,1.12,0,0,1-.87.42,2.86,2.86,0,0,1-.43,0,3,3,0,0,1-.46-.15,1.86,1.86,0,0,0-.39-.13,1.06,1.06,0,0,0-1.52.61,1.34,1.34,0,0,0,.8,1.78,4.35,4.35,0,0,0,2.13.45,3,3,0,0,0,2.42-1.11,14,14,0,0,0,2-3.48Z"/><path class="cls-1" d="M96.91,24a1.35,1.35,0,0,0,1-.39,1.49,1.49,0,0,0,.37-1V17.51H105v5.08a1.44,1.44,0,0,0,.36,1,1.3,1.3,0,0,0,1,.4,1.35,1.35,0,0,0,1-.39,1.49,1.49,0,0,0,.37-1V10.28a1.51,1.51,0,0,0-.37-1,1.51,1.51,0,0,0-2.06,0,1.5,1.5,0,0,0-.35,1V15H98.3V10.28a1.46,1.46,0,0,0-.37-1,1.32,1.32,0,0,0-1-.4,1.27,1.27,0,0,0-1,.41,1.46,1.46,0,0,0-.36,1V22.59a1.44,1.44,0,0,0,.36,1A1.31,1.31,0,0,0,96.91,24Z"/><path class="cls-1" d="M113.08,24a1.68,1.68,0,0,0,1.29-.79l6.89-9.42v8.8a1.44,1.44,0,0,0,.36,1,1.36,1.36,0,0,0,1.06.41,1.29,1.29,0,0,0,1-.4,1.48,1.48,0,0,0,.35-1V10.28c0-.95-.45-1.43-1.33-1.43a1.64,1.64,0,0,0-1.33.77l-6.85,9.48V10.28a1.46,1.46,0,0,0-.36-1,1.29,1.29,0,0,0-1-.41,1.3,1.3,0,0,0-1.05.41,1.51,1.51,0,0,0-.34,1V22.59a1.48,1.48,0,0,0,.34,1A1.3,1.3,0,0,0,113.08,24Z"/><path class="cls-1" d="M136.54,15.89a3.29,3.29,0,0,0,1.29-1.22,3.64,3.64,0,0,0,.54-1.91c0-2.67-1.87-4-5.56-4A21.76,21.76,0,0,0,129.3,9,1.42,1.42,0,0,0,128,10.54V22.39a1.35,1.35,0,0,0,1.29,1.48,24.72,24.72,0,0,0,3.71.24c4,0,6.1-1.58,6.1-4.69a3.59,3.59,0,0,0-.74-2.26A3.87,3.87,0,0,0,136.54,15.89Zm-3.75-.71h-2.12v-4a18.13,18.13,0,0,1,1.91-.1c2,0,2.95.63,2.95,1.93C135.53,14.48,134.63,15.18,132.79,15.18Zm2.68,6.08a4.36,4.36,0,0,1-2.37.52,21,21,0,0,1-2.43-.12V17.32h2.4c2.14,0,3.17.72,3.17,2.21A2,2,0,0,1,135.47,21.26Z"/><path class="cls-1" d="M152.31,23.66a1.15,1.15,0,0,0,.37-.9,1.19,1.19,0,0,0-.37-.92,1.37,1.37,0,0,0-1-.34h-6.18v-4h4.75a1.37,1.37,0,0,0,1-.35,1.32,1.32,0,0,0,0-1.83,1.44,1.44,0,0,0-1-.32h-4.75V11.35h6a1.39,1.39,0,0,0,1-.34,1.19,1.19,0,0,0,.36-.9,1.23,1.23,0,0,0-.36-.93,1.38,1.38,0,0,0-1-.33H143.8a1.32,1.32,0,0,0-1,.4,1.46,1.46,0,0,0-.37,1V22.57a1.39,1.39,0,0,0,.38,1,1.34,1.34,0,0,0,1,.41h7.53A1.33,1.33,0,0,0,152.31,23.66Z"/><path class="cls-1" d="M165.9,13.62a4.36,4.36,0,0,0-1.57-3.7,6.85,6.85,0,0,0-4.25-1.18,17.51,17.51,0,0,0-3.36.28,1.47,1.47,0,0,0-1.29,1.61v12a1.44,1.44,0,0,0,.36,1,1.31,1.31,0,0,0,1,.4,1.35,1.35,0,0,0,1-.39,1.44,1.44,0,0,0,.37-1V18.7a14,14,0,0,0,1.8.09,6.65,6.65,0,0,0,4.25-1.3A4.67,4.67,0,0,0,165.9,13.62Zm-7.69-2.31a13.83,13.83,0,0,1,1.8-.12c2,0,3,.82,3,2.5s-1,2.67-3.13,2.67a14.11,14.11,0,0,1-1.65-.08Z"/><path class="cls-1" d="M178.14,20.8a6,6,0,0,1-3,.92,3.88,3.88,0,0,1-3-1.41,5.88,5.88,0,0,1-1.2-3.91A6.15,6.15,0,0,1,172,12.56c1.21-1.55,3.2-1.86,5.88-.83.9.34,1.5.2,1.76-.39a1.25,1.25,0,0,0-.55-1.7,7.1,7.1,0,0,0-4.07-1,6.59,6.59,0,0,0-5.19,2.12,8.31,8.31,0,0,0-1.86,5.67,8.64,8.64,0,0,0,1.75,5.69,6.45,6.45,0,0,0,5.22,2.11,7.41,7.41,0,0,0,4.48-1.3,1.72,1.72,0,0,0,.69-1,1.09,1.09,0,0,0-.17-1C179.52,20.42,178.92,20.35,178.14,20.8Z"/><path class="cls-1" d="M194.08,8.85a1.66,1.66,0,0,0-1.34.77l-6.85,9.48V10.28a1.46,1.46,0,0,0-.36-1,1.51,1.51,0,0,0-2.07,0,1.52,1.52,0,0,0-.35,1V22.59a1.49,1.49,0,0,0,.35,1,1.27,1.27,0,0,0,1,.37,1.67,1.67,0,0,0,1.28-.79l6.9-9.42v8.8a1.44,1.44,0,0,0,.36,1A1.33,1.33,0,0,0,194,24a1.26,1.26,0,0,0,1-.4,1.48,1.48,0,0,0,.35-1V10.28C195.4,9.33,195,8.85,194.08,8.85Z"/><path class="cls-1" d="M210.79,10.09a1.19,1.19,0,0,0-.36-.92,1.45,1.45,0,0,0-1-.32H199.15a1.43,1.43,0,0,0-1,.32,1.19,1.19,0,0,0-.36.92,1.23,1.23,0,0,0,.36.91,1.35,1.35,0,0,0,1,.35h3.76V22.59a1.44,1.44,0,0,0,.36,1,1.53,1.53,0,0,0,2.06,0,1.44,1.44,0,0,0,.36-1V11.35h3.75a1.37,1.37,0,0,0,1-.35A1.23,1.23,0,0,0,210.79,10.09Z"/><path class="cls-1" d="M222.19,21.5H216v-4h4.75a1.37,1.37,0,0,0,1-.35,1.23,1.23,0,0,0,.36-.91,1.19,1.19,0,0,0-.36-.92,1.45,1.45,0,0,0-1-.32H216V11.35h6a1.37,1.37,0,0,0,1-.34,1.2,1.2,0,0,0,.37-.9,1.23,1.23,0,0,0-.37-.93,1.37,1.37,0,0,0-1-.33h-7.34a1.35,1.35,0,0,0-1,.4,1.46,1.46,0,0,0-.37,1V22.57a1.43,1.43,0,0,0,.38,1,1.36,1.36,0,0,0,1.05.41h7.54a1.34,1.34,0,0,0,1-.34,1.18,1.18,0,0,0,.36-.9,1.22,1.22,0,0,0-.36-.92A1.39,1.39,0,0,0,222.19,21.5Z"/><path class="cls-1" d="M237.49,10.09a1.19,1.19,0,0,0-.36-.92,1.44,1.44,0,0,0-1-.32H225.86a1.41,1.41,0,0,0-1,.32,1.16,1.16,0,0,0-.37.92,1.23,1.23,0,0,0,.36.91,1.36,1.36,0,0,0,1,.35h3.75V22.59a1.44,1.44,0,0,0,.36,1,1.53,1.53,0,0,0,2.06,0,1.44,1.44,0,0,0,.36-1V11.35h3.76a1.37,1.37,0,0,0,1-.35A1.23,1.23,0,0,0,237.49,10.09Z"/><path class="cls-1" d="M258.29,22.59V10.28c0-.95-.45-1.43-1.33-1.43a1.66,1.66,0,0,0-1.33.77l-6.85,9.48V10.28a1.46,1.46,0,0,0-.36-1,1.29,1.29,0,0,0-1-.41,1.27,1.27,0,0,0-1,.41,1.52,1.52,0,0,0-.35,1V22.59a1.49,1.49,0,0,0,.35,1,1.27,1.27,0,0,0,1,.37,1.68,1.68,0,0,0,1.28-.79l6.9-9.42v8.8a1.44,1.44,0,0,0,.36,1,1.33,1.33,0,0,0,1.05.41,1.28,1.28,0,0,0,1-.4A1.48,1.48,0,0,0,258.29,22.59Z"/><path class="cls-1" d="M272.33,8.85H262a1.43,1.43,0,0,0-1,.32,1.19,1.19,0,0,0-.36.92,1.23,1.23,0,0,0,.36.91,1.35,1.35,0,0,0,1,.35h3.76V22.59a1.44,1.44,0,0,0,.36,1,1.3,1.3,0,0,0,1,.4,1.31,1.31,0,0,0,1-.4,1.44,1.44,0,0,0,.36-1V11.35h3.75a1.37,1.37,0,0,0,1-.35,1.23,1.23,0,0,0,.36-.91,1.19,1.19,0,0,0-.36-.92A1.49,1.49,0,0,0,272.33,8.85Z"/><path class="cls-1" d="M288.64,8.85a1.6,1.6,0,0,0-1.36.86L283,16.6l-4.35-6.86a1.61,1.61,0,0,0-1.42-.89,1.28,1.28,0,0,0-.94.36,1.49,1.49,0,0,0-.36,1.09V22.59c0,.94.43,1.41,1.3,1.41s1.3-.47,1.3-1.41V14.17l3,4.78a1.51,1.51,0,0,0,1.29.8,1.47,1.47,0,0,0,1.27-.83l3-4.85v8.52a1.44,1.44,0,0,0,.37,1,1.35,1.35,0,0,0,1,.39,1.31,1.31,0,0,0,1-.4,1.44,1.44,0,0,0,.36-1V10.28a1.51,1.51,0,0,0-.34-1A1.18,1.18,0,0,0,288.64,8.85Z"/><path class="cls-1" d="M305.79,10.83a7.58,7.58,0,0,0-10.68,0,8.37,8.37,0,0,0-1.87,5.59A8.37,8.37,0,0,0,295.11,22a7.61,7.61,0,0,0,10.68,0,8.33,8.33,0,0,0,1.89-5.61A8.33,8.33,0,0,0,305.79,10.83Zm-2.15,9.42a4.19,4.19,0,0,1-6.37,0,6.26,6.26,0,0,1-1.12-3.83,6.23,6.23,0,0,1,1.12-3.82,4.19,4.19,0,0,1,6.37,0,6.16,6.16,0,0,1,1.12,3.82A6.19,6.19,0,0,1,303.64,20.25Z"/></g></g></svg>