<svg width="290" height="65" viewBox="0 0 290 65" xmlns="http://www.w3.org/2000/svg"><g fill="none" fill-rule="evenodd"><path d="M275.74 64.32H13.54C6.095 64.32 0 58.225 0 50.777V13.54C0 6.094 6.095 0 13.54 0h262.2c7.448 0 13.54 6.093 13.54 13.54V50.78c0 7.448-6.092 13.54-13.54 13.54" fill="#1D1B3E"/><path d="M41.998 34.726c0 .682-.553 1.236-1.234 1.236-.683 0-1.235-.554-1.235-1.236 0-.682.55-1.234 1.234-1.234.68 0 1.234.552 1.234 1.234M47.932 26.752c0 1.023-.83 1.852-1.852 1.852-1.024 0-1.853-.83-1.853-1.852 0-1.024.83-1.853 1.853-1.853 1.022 0 1.852.828 1.852 1.852M53.248 29.41c0 1.023-.83 1.852-1.853 1.852-1.022 0-1.852-.83-1.852-1.852 0-1.023.83-1.853 1.852-1.853 1.024 0 1.853.83 1.853 1.853M58.564 32.068c0 1.023-.83 1.853-1.853 1.853-1.02 0-1.85-.83-1.85-1.852 0-1.023.83-1.853 1.85-1.853 1.025 0 1.854.83 1.854 1.853M53.248 34.726c0 1.023-.83 1.853-1.853 1.853-1.022 0-1.852-.83-1.852-1.854 0-1.022.83-1.853 1.852-1.853 1.024 0 1.853.83 1.853 1.853M63.88 34.726c0 1.023-.83 1.853-1.853 1.853-1.022 0-1.85-.83-1.85-1.854 0-1.022.828-1.853 1.85-1.853 1.024 0 1.853.83 1.853 1.853M63.263 40.042c0 .682-.553 1.235-1.235 1.235s-1.235-.553-1.235-1.235c0-.68.553-1.234 1.235-1.234s1.235.553 1.235 1.234M68.58 37.384c0 .68-.553 1.236-1.235 1.236-.683 0-1.236-.555-1.236-1.236 0-.682.552-1.235 1.235-1.235.682 0 1.234.552 1.234 1.234M69.197 32.068c0 1.022-.83 1.852-1.852 1.852-1.024 0-1.853-.83-1.853-1.852 0-1.022.83-1.853 1.853-1.853 1.022 0 1.852.83 1.852 1.853M63.88 29.41c0 1.023-.83 1.852-1.853 1.852-1.022 0-1.85-.83-1.85-1.852 0-1.023.828-1.853 1.85-1.853 1.024 0 1.853.83 1.853 1.853M57.947 37.384c0 .68-.554 1.236-1.235 1.236-.682 0-1.235-.555-1.235-1.236 0-.682.553-1.235 1.235-1.235.68 0 1.235.552 1.235 1.234M69.197 26.752c0 1.023-.83 1.852-1.853 1.852-1.023 0-1.852-.83-1.852-1.852 0-1.023.83-1.853 1.852-1.853 1.023 0 1.853.83 1.853 1.852M73.895 24.094c0 .68-.553 1.234-1.234 1.234-.682 0-1.234-.553-1.234-1.234 0-.682.552-1.235 1.235-1.235.682 0 1.235.552 1.235 1.234M73.895 34.726c0 .682-.553 1.234-1.234 1.234-.682 0-1.234-.552-1.234-1.234 0-.682.552-1.234 1.235-1.234.682 0 1.235.552 1.235 1.234M57.947 26.752c0 .68-.554 1.234-1.235 1.234-.682 0-1.235-.553-1.235-1.234 0-.682.553-1.235 1.235-1.235.68 0 1.235.553 1.235 1.235M52.63 40.042c0 .682-.552 1.235-1.235 1.235-.68 0-1.234-.553-1.234-1.235 0-.68.554-1.234 1.235-1.234.683 0 1.236.553 1.236 1.234M47.932 32.068c0 1.022-.83 1.853-1.852 1.853-1.024 0-1.853-.83-1.853-1.852 0-1.023.83-1.853 1.853-1.853 1.022 0 1.852.83 1.852 1.853M41.676 29.41c0 .503-.41.912-.913.912-.503 0-.912-.41-.912-.912 0-.504.41-.913.913-.913.504 0 .913.41.913.913m-.913-1.668c-.92 0-1.667.75-1.667 1.668 0 .92.748 1.667 1.667 1.667.92 0 1.668-.748 1.668-1.667 0-.92-.747-1.668-1.667-1.668M36.17 37.384c0 .4-.325.722-.723.722-.398 0-.722-.323-.722-.722 0-.398.324-.722.722-.722.398 0 .722.324.722.722M36.17 32.068c0 .398-.325.722-.723.722-.398 0-.722-.324-.722-.722 0-.4.324-.722.722-.722.398 0 .722.323.722.722M46.8 37.346c0 .4-.322.723-.72.723-.4 0-.722-.324-.722-.724 0-.398.323-.722.72-.722.4 0 .723.324.723.722M46.8 21.435c0 .4-.322.722-.72.722-.4 0-.722-.322-.722-.722 0-.398.323-.722.72-.722.4 0 .723.324.723.722M57.396 42.7c0 .4-.322.722-.722.722-.398 0-.722-.322-.722-.722 0-.398.324-.722.722-.722.4 0 .722.324.722.722M41.485 24.094c0 .398-.323.722-.722.722-.398 0-.72-.324-.72-.722 0-.4.322-.722.72-.722.4 0 .722.322.722.722M52.117 24.094c0 .398-.324.722-.722.722-.398 0-.72-.324-.72-.722 0-.4.322-.722.72-.722.398 0 .722.322.722.722" fill="#FFF"/><path d="M57.396 42.7c0 .4-.322.722-.722.722-.398 0-.722-.322-.722-.722 0-.398.324-.722.722-.722.4 0 .722.324.722.722M84.015 29.41c0 .4-.324.722-.722.722-.398 0-.722-.323-.722-.722 0-.4.325-.72.723-.72.398 0 .722.32.722.72M73.382 40.042c0 .4-.322.723-.722.723-.398 0-.72-.324-.72-.723 0-.4.322-.722.72-.722.4 0 .722.323.722.722M79.83 26.752c0 1.023-.83 1.852-1.854 1.852-1.022 0-1.85-.83-1.85-1.852 0-1.023.828-1.852 1.85-1.852 1.024 0 1.853.83 1.853 1.852M74.513 29.41c0 1.023-.83 1.852-1.853 1.852-1.022 0-1.852-.83-1.852-1.852 0-1.023.83-1.853 1.852-1.853 1.024 0 1.853.83 1.853 1.853M78.7 37.384c0 .4-.325.722-.723.722-.4 0-.72-.323-.72-.722 0-.398.32-.722.72-.722.398 0 .722.324.722.722M79.212 32.068c0 .682-.553 1.234-1.235 1.234s-1.234-.552-1.234-1.234c0-.682.552-1.234 1.234-1.234.682 0 1.235.552 1.235 1.234M62.75 24.094c0 .398-.323.722-.723.722-.398 0-.72-.324-.72-.722 0-.4.322-.722.72-.722.4 0 .723.322.723.722M78.7 21.436c0 .398-.325.722-.723.722-.4 0-.72-.324-.72-.722 0-.4.32-.722.72-.722.398 0 .722.322.722.722M84.015 24.094c0 .398-.324.722-.722.722-.398 0-.722-.324-.722-.722 0-.4.325-.722.723-.722.398 0 .722.322.722.722M98.894 28.25c.162-.387.19-.703.09-.94-.076-.178-.23-.315-.455-.402-.552-.2-.987.06-1.28.77l-2.052 4.98-2.834-5.086c-.167-.315-.368-.528-.598-.633-.234-.107-.493-.092-.768.05-.256.144-.396.365-.417.656-.018.283.057.565.224.84l3.48 6.048c-.155.398-.32.698-.49.892-.17.193-.364.287-.6.287-.104 0-.203-.01-.294-.028-.09-.02-.198-.053-.32-.102-.13-.052-.22-.082-.266-.092-.523-.17-.88-.023-1.052.428-.192.512-.006.926.553 1.23.368.205.862.308 1.47.308.676 0 1.24-.256 1.675-.763.428-.498.883-1.31 1.353-2.41l2.58-6.033zM101.72 37.307c.296 0 .533-.093.705-.274.17-.182.257-.418.257-.703v-3.51h4.65v3.51c0 .285.082.52.247.7.166.184.405.277.712.277.297 0 .534-.093.705-.274.17-.182.257-.418.257-.703v-8.51c0-.284-.086-.522-.255-.708-.174-.188-.41-.284-.708-.284-.307 0-.547.096-.713.285-.166.185-.25.423-.25.708v3.27h-4.648v-3.27c0-.284-.087-.522-.257-.708-.172-.188-.41-.284-.706-.284-.308 0-.548.096-.715.285-.164.185-.248.424-.248.708v8.51c0 .285.084.52.25.7.166.184.405.277.712.277M112.9 37.307c.31 0 .608-.185.89-.55l4.766-6.513v6.086c0 .275.083.507.248.694.167.188.41.283.728.283.307 0 .545-.093.707-.277.16-.18.24-.416.24-.7v-8.51c0-.658-.31-.992-.917-.992-.35 0-.66.18-.92.536l-4.737 6.555v-6.1c0-.283-.083-.522-.248-.707-.167-.19-.406-.285-.713-.285-.317 0-.56.096-.722.285-.16.186-.24.424-.24.708v8.51c0 .304.08.547.24.717.162.172.39.26.677.26M128.375 35.41c-.362.24-.915.363-1.638.363-.65 0-1.216-.028-1.68-.082v-3.005h1.664c1.474 0 2.19.5 2.19 1.53 0 .555-.18.957-.535 1.194m-1.85-4.2h-1.468v-2.764c.455-.045.9-.068 1.32-.068 1.37 0 2.04.436 2.04 1.334 0 1.01-.62 1.5-1.89 1.5m2.59.484c.367-.194.666-.477.89-.842.25-.408.377-.853.377-1.322 0-1.843-1.292-2.778-3.844-2.778-.898 0-1.715.06-2.426.18-.6.106-.906.465-.906 1.067v8.195c0 .593.3.937.893 1.02.71.11 1.57.167 2.56.167 2.8 0 4.22-1.09 4.22-3.243 0-.602-.173-1.128-.51-1.56-.308-.4-.73-.695-1.253-.884M140.022 37.073c.167-.157.252-.366.252-.623 0-.267-.085-.48-.252-.638-.166-.154-.39-.233-.665-.233h-4.276v-2.79h3.286c.286 0 .515-.082.68-.242.168-.162.25-.374.25-.63 0-.267-.083-.48-.25-.63-.167-.15-.395-.228-.68-.228h-3.285v-2.502h4.127c.274 0 .5-.08.665-.234.168-.157.252-.367.252-.623 0-.266-.084-.48-.252-.636-.166-.156-.39-.235-.665-.235h-5.072c-.307 0-.55.094-.72.28-.172.187-.257.426-.257.71v8.495c0 .285.09.524.264.71.177.188.42.282.727.282h5.207c.274 0 .5-.08.665-.234M144.1 28.535c.417-.055.836-.083 1.245-.083 1.382 0 2.054.564 2.054 1.726 0 1.24-.707 1.843-2.16 1.843-.475 0-.86-.017-1.14-.052v-3.433zm5.313 1.597c0-1.155-.364-2.018-1.083-2.562-.713-.542-1.702-.816-2.94-.816-.882 0-1.662.065-2.324.196-.59.117-.89.49-.89 1.11v8.27c0 .285.085.52.25.702.165.182.406.275.713.275.295 0 .532-.093.703-.274.17-.182.257-.418.257-.703v-2.69c.3.044.718.065 1.245.065 1.2 0 2.186-.302 2.935-.898.75-.6 1.133-1.5 1.133-2.675zM157.874 35.09c-.717.424-1.424.638-2.098.638-.848 0-1.558-.33-2.108-.976-.553-.65-.833-1.56-.833-2.7 0-1.1.26-1.993.775-2.656.835-1.073 2.21-1.284 4.065-.572.624.233 1.033.135 1.216-.272.216-.46.088-.854-.38-1.17-.666-.467-1.612-.703-2.81-.703-1.522 0-2.73.493-3.587 1.468-.857.972-1.29 2.29-1.29 3.92 0 1.648.406 2.97 1.213 3.934.81.966 2.02 1.454 3.604 1.454 1.248 0 2.29-.3 3.1-.897.26-.2.42-.428.478-.68.06-.26.018-.483-.122-.666-.266-.383-.68-.43-1.222-.123M168.892 26.83c-.35 0-.66.18-.92.535l-4.738 6.555v-6.1c0-.284-.082-.522-.247-.708-.167-.188-.407-.283-.713-.283-.317 0-.56.095-.722.283-.16.186-.24.423-.24.708v8.51c0 .305.08.546.24.718.163.17.39.26.677.26.307 0 .607-.186.888-.55l4.766-6.513v6.085c0 .275.085.508.248.694.167.187.41.283.73.283.306 0 .544-.092.706-.276.16-.18.24-.416.24-.7v-8.51c0-.657-.31-.99-.916-.99M180.448 27.686c0-.267-.085-.48-.254-.63-.165-.15-.394-.227-.678-.227h-7.113c-.275 0-.497.075-.665.225-.167.15-.252.364-.252.63 0 .257.085.47.25.63.168.16.39.242.667.242h2.595v7.773c0 .285.083.52.25.7.165.184.404.276.71.276.308 0 .55-.092.714-.274.166-.18.25-.417.25-.702v-7.773h2.594c.285 0 .515-.08.68-.242.167-.16.252-.373.252-.63M188.326 35.578h-4.277v-2.79h3.285c.286 0 .514-.08.68-.24.166-.162.25-.374.25-.63 0-.268-.084-.48-.25-.63-.168-.15-.395-.227-.68-.227h-3.286v-2.503h4.125c.275 0 .5-.08.664-.233.167-.157.252-.366.252-.623 0-.266-.085-.48-.253-.637-.165-.155-.39-.234-.665-.234h-5.072c-.306 0-.55.095-.722.282-.168.186-.254.424-.254.71v8.493c0 .285.088.524.264.71.177.187.42.282.728.282h5.208c.274 0 .498-.08.665-.235.166-.155.252-.365.252-.622 0-.267-.086-.48-.25-.637-.168-.156-.392-.235-.666-.235M198.907 27.686c0-.267-.085-.48-.254-.63-.165-.15-.394-.227-.678-.227h-7.114c-.273 0-.495.075-.663.225-.167.15-.252.364-.252.63 0 .257.085.47.25.63.168.16.39.242.666.242h2.597v7.773c0 .285.083.52.25.7.165.184.404.276.71.276.308 0 .548-.092.714-.274.167-.18.25-.417.25-.702v-7.773h2.595c.285 0 .514-.08.68-.242.167-.16.252-.373.252-.63M213.283 36.33v-8.51c0-.657-.308-.99-.916-.99-.35 0-.66.18-.92.535l-4.737 6.555v-6.1c0-.283-.082-.522-.248-.707-.166-.188-.406-.284-.713-.284-.318 0-.562.095-.722.283-.16.186-.24.424-.24.708v8.51c0 .305.08.546.24.718.162.17.39.26.676.26.31 0 .608-.186.89-.552l4.766-6.512v6.086c0 .275.084.508.248.694.166.187.41.283.728.283.308 0 .546-.092.707-.276.16-.18.24-.416.24-.7M222.992 26.83h-7.114c-.273 0-.497.074-.664.225-.167.15-.252.364-.252.63 0 .256.084.47.25.63.167.16.39.243.666.243h2.595v7.772c0 .284.084.52.25.702.165.183.406.275.713.275.305 0 .546-.092.712-.275.166-.182.25-.418.25-.702v-7.772h2.594c.286 0 .514-.083.68-.243.167-.16.25-.374.25-.63 0-.266-.083-.48-.25-.63-.167-.15-.395-.226-.68-.226M234.262 26.83c-.37 0-.686.2-.938.598l-2.948 4.764-3.01-4.748c-.25-.408-.582-.615-.982-.615-.267 0-.484.083-.653.25-.163.166-.248.42-.248.757v8.493c0 .648.302.977.902.977.598 0 .9-.33.9-.977v-5.823l2.11 3.304c.23.37.53.555.892.555.35 0 .646-.19.878-.57l2.077-3.358v5.893c0 .284.087.52.257.702.173.183.41.275.705.275.307 0 .548-.092.713-.275.166-.18.25-.418.25-.702v-8.51c0-.293-.08-.533-.233-.715-.156-.183-.382-.276-.67-.276M244.636 34.71c-.51.676-1.254 1.018-2.21 1.018-.945 0-1.683-.342-2.194-1.018-.515-.68-.777-1.57-.777-2.642 0-1.072.262-1.96.777-2.642.51-.676 1.25-1.018 2.195-1.018.955 0 1.7.342 2.21 1.018.514.68.774 1.57.774 2.642 0 1.07-.26 1.96-.774 2.642m1.483-6.51c-.87-1.008-2.11-1.52-3.693-1.52-1.582 0-2.824.512-3.687 1.52-.86 1.008-1.298 2.31-1.298 3.868 0 1.57.437 2.872 1.298 3.874.864 1.005 2.105 1.515 3.687 1.515 1.58 0 2.824-.51 3.692-1.515.865-1.002 1.305-2.305 1.305-3.874 0-1.56-.44-2.86-1.306-3.868" fill="#FFF"/></g></svg>