<svg xmlns="http://www.w3.org/2000/svg" viewBox="0 0 188.5 20.12">
  <defs>
    <style>
      .cls-1{fill:#fff;}
    </style>
  </defs>
  <title>
    Asset 2
  </title>
  <g id="Layer_2" data-name="Layer 2">
    <g id="Слой_1" data-name="Слой 1">
      <path class="cls-1" d="M6.45 12.42a1.09 1.09 0 0 1-1.1 1.09 1.09 1.09 0 0 1-1.09-1.09 1.09 1.09 0 0 1 1.09-1.1 1.1 1.1 0 0 1 1.1 1.1zm5.25-7.07a1.63 1.63 0 0 1-1.64 1.64 1.64 1.64 0 0 1-1.64-1.64 1.64 1.64 0 0 1 1.64-1.64 1.63 1.63 0 0 1 1.64 1.64zm4.72 2.36a1.65 1.65 0 0 1-1.65 1.64 1.65 1.65 0 0 1-1.64-1.64 1.64 1.64 0 0 1 1.64-1.64 1.64 1.64 0 0 1 1.65 1.64zm4.71 2.35a1.64 1.64 0 0 1-1.65 1.64 1.64 1.64 0 0 1-1.64-1.64 1.65 1.65 0 0 1 1.64-1.64 1.65 1.65 0 0 1 1.65 1.64zm-4.71 2.36a1.65 1.65 0 0 1-1.65 1.64 1.65 1.65 0 0 1-1.64-1.64 1.64 1.64 0 0 1 1.64-1.64 1.64 1.64 0 0 1 1.65 1.64zm9.42 0a1.65 1.65 0 0 1-1.64 1.64 1.65 1.65 0 0 1-1.65-1.64 1.64 1.64 0 0 1 1.65-1.64 1.64 1.64 0 0 1 1.64 1.64zm-.55 4.71a1.09 1.09 0 0 1-1.09 1.09 1.09 1.09 0 0 1-1.1-1.09 1.1 1.1 0 0 1 1.1-1.1 1.09 1.09 0 0 1 1.09 1.1zM30 14.77a1.09 1.09 0 0 1-1.09 1.1 1.1 1.1 0 0 1-1.1-1.1 1.09 1.09 0 0 1 1.1-1.09A1.09 1.09 0 0 1 30 14.77zm.55-4.71a1.64 1.64 0 0 1-1.64 1.64 1.63 1.63 0 0 1-1.64-1.64 1.64 1.64 0 0 1 1.64-1.64 1.65 1.65 0 0 1 1.64 1.64zm-4.71-2.35a1.65 1.65 0 0 1-1.64 1.64 1.65 1.65 0 0 1-1.65-1.64 1.64 1.64 0 0 1 1.65-1.64 1.64 1.64 0 0 1 1.64 1.64zm-5.26 7.06a1.1 1.1 0 0 1-1.1 1.1 1.09 1.09 0 0 1-1.09-1.1 1.09 1.09 0 0 1 1.09-1.09 1.09 1.09 0 0 1 1.1 1.09zm9.97-9.42a1.64 1.64 0 0 1-1.64 1.64 1.63 1.63 0 0 1-1.64-1.64 1.63 1.63 0 0 1 1.64-1.64 1.64 1.64 0 0 1 1.64 1.64zM34.71 3a1.09 1.09 0 0 1-1.09 1.09A1.09 1.09 0 0 1 32.52 3a1.1 1.1 0 0 1 1.1-1.1A1.09 1.09 0 0 1 34.71 3zm0 9.42a1.09 1.09 0 0 1-1.09 1.09 1.09 1.09 0 0 1-1.1-1.09 1.1 1.1 0 0 1 1.1-1.1 1.09 1.09 0 0 1 1.09 1.1zM20.58 5.35a1.1 1.1 0 0 1-1.1 1.1 1.09 1.09 0 0 1-1.09-1.1 1.09 1.09 0 0 1 1.09-1.09 1.09 1.09 0 0 1 1.1 1.09zm-4.71 11.78a1.09 1.09 0 0 1-1.1 1.09 1.09 1.09 0 0 1-1.09-1.09 1.09 1.09 0 0 1 1.09-1.1 1.1 1.1 0 0 1 1.1 1.1zm-4.17-7.07a1.63 1.63 0 0 1-1.64 1.64 1.64 1.64 0 0 1-1.64-1.64 1.65 1.65 0 0 1 1.64-1.64 1.64 1.64 0 0 1 1.64 1.64zM5.35 6.23a1.48 1.48 0 0 0-1.48 1.48 1.48 1.48 0 0 0 1.48 1.47 1.47 1.47 0 0 0 1.48-1.47 1.48 1.48 0 0 0-1.48-1.48zm.81 1.48a.81.81 0 0 1-.81.81.81.81 0 0 1-.81-.81.81.81 0 0 1 .81-.81.81.81 0 0 1 .81.81zm-4.88 7.06a.64.64 0 0 1-.64.64.64.64 0 0 1-.64-.64.64.64 0 0 1 .64-.64.64.64 0 0 1 .64.64zm0-4.71a.64.64 0 0 1-.64.64.64.64 0 0 1-.64-.64.64.64 0 0 1 .64-.64.64.64 0 0 1 .64.64zm9.42 4.68a.64.64 0 0 1-.64.64.64.64 0 0 1-.64-.64.64.64 0 0 1 .64-.64.64.64 0 0 1 .64.64z"/>
      <circle class="cls-1" cx="10.06" cy=".64" r=".64"/>
      <path class="cls-1" d="M20.09 19.48a.64.64 0 0 1-.64.64.64.64 0 0 1-.64-.64.64.64 0 0 1 .64-.63.64.64 0 0 1 .64.63zM6 3a.64.64 0 0 1-.64.64.64.64 0 0 1-.64-.64.64.64 0 0 1 .64-.64A.64.64 0 0 1 6 3zm9.41 0a.64.64 0 0 1-.64.64.64.64 0 0 1-.64-.64.64.64 0 0 1 .64-.64.63.63 0 0 1 .64.64z"/>
      <path class="cls-1" d="M20.09 19.48a.64.64 0 0 1-.64.64.64.64 0 0 1-.64-.64.64.64 0 0 1 .64-.63.64.64 0 0 1 .64.63zM43.68 7.71a.64.64 0 0 1-.64.64.64.64 0 0 1-.64-.64.64.64 0 0 1 .64-.64.64.64 0 0 1 .64.64zm-9.42 9.42a.64.64 0 0 1-.64.64.64.64 0 0 1-.64-.64.64.64 0 0 1 .64-.64.64.64 0 0 1 .64.64zM40 5.35a1.63 1.63 0 0 1-1.64 1.64 1.63 1.63 0 0 1-1.64-1.64 1.63 1.63 0 0 1 1.64-1.64A1.63 1.63 0 0 1 40 5.35zm-4.74 2.36a1.64 1.64 0 0 1-1.64 1.64 1.64 1.64 0 0 1-1.64-1.64 1.63 1.63 0 0 1 1.64-1.64 1.63 1.63 0 0 1 1.64 1.64zM39 14.77a.64.64 0 0 1-.64.64.64.64 0 0 1-.64-.64.64.64 0 0 1 .64-.64.64.64 0 0 1 .64.64zm.42-4.71a1.09 1.09 0 0 1-1.09 1.1 1.09 1.09 0 0 1-1.09-1.1 1.09 1.09 0 0 1 1.09-1.09 1.09 1.09 0 0 1 1.09 1.09zM24.84 3a.64.64 0 0 1-.64.64.64.64 0 0 1-.64-.64.63.63 0 0 1 .64-.64.64.64 0 0 1 .64.64zM39 .64a.64.64 0 0 1-.64.64.64.64 0 0 1-.64-.64.64.64 0 0 1 .64-.64.64.64 0 0 1 .64.64zM43.68 3a.64.64 0 0 1-.64.64.64.64 0 0 1-.64-.64.64.64 0 0 1 .64-.64.64.64 0 0 1 .64.64zm13.19 3.68a1.09 1.09 0 0 0 .08-.83.71.71 0 0 0-.41-.36c-.48-.18-.87 0-1.13.68l-1.82 4.42-2.51-4.51a1.21 1.21 0 0 0-.53-.56.75.75 0 0 0-.68 0 .7.7 0 0 0-.37.58 1.23 1.23 0 0 0 .2.75l3.08 5.36a2.82 2.82 0 0 1-.43.79.69.69 0 0 1-.53.25h-.26l-.29-.09a.77.77 0 0 0-.23-.08.66.66 0 0 0-.94.37.83.83 0 0 0 .49 1.09 2.63 2.63 0 0 0 1.31.28 1.87 1.87 0 0 0 1.48-.68 8.69 8.69 0 0 0 1.2-2.13zm2.5 8.02a.85.85 0 0 0 .63-.24.87.87 0 0 0 .22-.62v-3.11h4.12v3.11a.92.92 0 0 0 .22.62.83.83 0 0 0 .64.24.81.81 0 0 0 .62-.24.88.88 0 0 0 .23-.62V6.3a.9.9 0 0 0-.23-.63.79.79 0 0 0-.62-.25.8.8 0 0 0-.64.25 1 1 0 0 0-.22.63v2.9h-4.12V6.3a.9.9 0 0 0-.22-.63.82.82 0 0 0-.63-.25.79.79 0 0 0-.63.25.91.91 0 0 0-.22.63v7.54a.87.87 0 0 0 .22.62.82.82 0 0 0 .63.24zm9.91 0a1 1 0 0 0 .79-.48l4.22-5.77v5.39a.91.91 0 0 0 .22.61.82.82 0 0 0 .65.25.78.78 0 0 0 .62-.24.92.92 0 0 0 .22-.62V6.3c0-.58-.28-.88-.82-.88a1 1 0 0 0-.81.47l-4.2 5.81V6.3a.91.91 0 0 0-.22-.63.79.79 0 0 0-.63-.25.79.79 0 0 0-.64.25 1 1 0 0 0-.21.63v7.54a.89.89 0 0 0 .21.63.75.75 0 0 0 .6.23zm14.37-4.97a2 2 0 0 0 .79-.74 2.26 2.26 0 0 0 .33-1.18c0-1.63-1.14-2.46-3.4-2.46a13.77 13.77 0 0 0-2.15.16.88.88 0 0 0-.81 1v7.26a.82.82 0 0 0 .79.9 14.86 14.86 0 0 0 2.27.15c2.48 0 3.74-1 3.74-2.87a2.21 2.21 0 0 0-.45-1.39 2.39 2.39 0 0 0-1.11-.83zm-2.3-.43h-1.3V6.85q.62-.06 1.17-.06c1.22 0 1.81.39 1.81 1.18s-.55 1.33-1.68 1.33zM83 13a2.59 2.59 0 0 1-1.45.33 12.49 12.49 0 0 1-1.49-.08v-2.66h1.48c1.3 0 1.94.44 1.94 1.35A1.17 1.17 0 0 1 83 13zm10.31 1.5a.73.73 0 0 0 .23-.55.75.75 0 0 0-.23-.57.79.79 0 0 0-.58-.21h-3.79V10.7h2.91a.84.84 0 0 0 .6-.21.75.75 0 0 0 .22-.56.7.7 0 0 0-.22-.56.89.89 0 0 0-.6-.2h-2.91V7h3.65a.82.82 0 0 0 .59-.21.69.69 0 0 0 .22-.55.73.73 0 0 0-.22-.56.82.82 0 0 0-.59-.21H88.1a.81.81 0 0 0-.64.25.9.9 0 0 0-.23.63v7.53a.84.84 0 0 0 .24.62.81.81 0 0 0 .64.25h4.62a.83.83 0 0 0 .58-.25zm8.33-6.15a2.68 2.68 0 0 0-1-2.27 4.24 4.24 0 0 0-2.61-.73 10.46 10.46 0 0 0-2.06.18.9.9 0 0 0-.79 1v7.33a.92.92 0 0 0 .22.62.83.83 0 0 0 .64.24.81.81 0 0 0 .62-.24.88.88 0 0 0 .23-.62v-2.38a10 10 0 0 0 1.1 0 4.11 4.11 0 0 0 2.6-.79 2.87 2.87 0 0 0 1.05-2.34zm-4.71-1.42a8.23 8.23 0 0 1 1.1-.07c1.23 0 1.82.5 1.82 1.53s-.62 1.63-1.91 1.63a7 7 0 0 1-1 0zm12.21 5.81a3.67 3.67 0 0 1-1.86.57 2.34 2.34 0 0 1-1.87-.87 3.6 3.6 0 0 1-.74-2.39 3.74 3.74 0 0 1 .69-2.36c.74-1 2-1.13 3.6-.5.55.2.92.12 1.08-.24a.77.77 0 0 0-.34-1 4.34 4.34 0 0 0-2.49-.62 4 4 0 0 0-3.18 1.3 5.07 5.07 0 0 0-1.14 3.47 5.31 5.31 0 0 0 1.07 3.49 4 4 0 0 0 3.2 1.29 4.5 4.5 0 0 0 2.74-.8 1.06 1.06 0 0 0 .43-.6.7.7 0 0 0-.11-.59c-.22-.38-.6-.42-1.08-.15zm9.76-7.32a1 1 0 0 0-.82.47l-4.19 5.81V6.3a1 1 0 0 0-.22-.63.8.8 0 0 0-.64-.25.8.8 0 0 0-.64.25 1 1 0 0 0-.21.63v7.54a.85.85 0 0 0 .22.63.74.74 0 0 0 .59.23 1 1 0 0 0 .79-.48l4.23-5.77v5.39a.86.86 0 0 0 .22.61.79.79 0 0 0 .64.25.81.81 0 0 0 .63-.24.91.91 0 0 0 .21-.62V6.3c0-.58-.27-.88-.81-.88zm10.24.76a.7.7 0 0 0-.22-.56.9.9 0 0 0-.61-.2H122a.88.88 0 0 0-.59.2.7.7 0 0 0-.22.56.75.75 0 0 0 .22.56.84.84 0 0 0 .59.21h2.3v6.89a.87.87 0 0 0 .22.62.82.82 0 0 0 .63.24.81.81 0 0 0 .63-.24.88.88 0 0 0 .23-.62V7h2.29a.85.85 0 0 0 .61-.21.75.75 0 0 0 .23-.61zm6.98 6.99h-3.79V10.7h2.91a.85.85 0 0 0 .61-.21.79.79 0 0 0 .22-.56.74.74 0 0 0-.22-.56.9.9 0 0 0-.61-.2h-2.91V7H136a.84.84 0 0 0 .59-.21.69.69 0 0 0 .22-.55.73.73 0 0 0-.22-.56.84.84 0 0 0-.59-.21h-4.5a.83.83 0 0 0-.64.25.9.9 0 0 0-.22.63v7.53a.88.88 0 0 0 .23.62.84.84 0 0 0 .65.25h4.61a.86.86 0 0 0 .59-.2.72.72 0 0 0 .22-.55.74.74 0 0 0-.22-.57.82.82 0 0 0-.6-.26zm9.38-6.99a.71.71 0 0 0-.23-.56.85.85 0 0 0-.6-.2h-6.3a.88.88 0 0 0-.59.2.7.7 0 0 0-.22.56.75.75 0 0 0 .22.56.84.84 0 0 0 .59.21h2.3v6.89a.87.87 0 0 0 .22.62.82.82 0 0 0 .63.24.81.81 0 0 0 .63-.24.87.87 0 0 0 .22-.62V7h2.3a.85.85 0 0 0 .61-.21.79.79 0 0 0 .22-.61zm12.74 7.66V6.3c0-.58-.27-.88-.81-.88a1 1 0 0 0-.82.47l-4.2 5.81V6.3a.91.91 0 0 0-.22-.63.78.78 0 0 0-.63-.25.8.8 0 0 0-.64.25 1 1 0 0 0-.21.63v7.54a.89.89 0 0 0 .21.63.78.78 0 0 0 .6.23 1 1 0 0 0 .79-.48l4.23-5.77v5.39a.9.9 0 0 0 .21.61.82.82 0 0 0 .65.25.82.82 0 0 0 .63-.24.91.91 0 0 0 .21-.62zm8.6-8.42h-6.3a.88.88 0 0 0-.59.2.7.7 0 0 0-.22.56.75.75 0 0 0 .22.56.84.84 0 0 0 .59.21h2.3v6.89a.87.87 0 0 0 .22.62.82.82 0 0 0 .63.24.81.81 0 0 0 .63-.24.87.87 0 0 0 .22-.62V7h2.3a.85.85 0 0 0 .61-.21.79.79 0 0 0 .22-.56.71.71 0 0 0-.23-.56.85.85 0 0 0-.6-.25zm9.99 0a1 1 0 0 0-.83.53l-2.61 4.22-2.67-4.21a1 1 0 0 0-.87-.54.78.78 0 0 0-.58.22.9.9 0 0 0-.22.67v7.53c0 .57.27.86.8.86s.8-.29.8-.86V8.68l1.87 2.93a.92.92 0 0 0 .79.49.89.89 0 0 0 .77-.51l1.85-3v5.22a.87.87 0 0 0 .22.62.85.85 0 0 0 .63.24.82.82 0 0 0 .63-.24.87.87 0 0 0 .22-.62V6.27a1 1 0 0 0-.21-.64.72.72 0 0 0-.59-.21zm10.51 1.22a4.08 4.08 0 0 0-3.27-1.35 4.06 4.06 0 0 0-3.27 1.35 5.11 5.11 0 0 0-1.15 3.42 5.14 5.14 0 0 0 1.15 3.44 4.09 4.09 0 0 0 3.27 1.34 4.11 4.11 0 0 0 3.27-1.34 5.1 5.1 0 0 0 1.16-3.44 5.06 5.06 0 0 0-1.16-3.42zM186 12.4a2.31 2.31 0 0 1-2 .91 2.31 2.31 0 0 1-2-.91 3.82 3.82 0 0 1-.69-2.34 3.82 3.82 0 0 1 .69-2.34 2.3 2.3 0 0 1 2-.9 2.3 2.3 0 0 1 2 .9 3.76 3.76 0 0 1 .69 2.34 3.76 3.76 0 0 1-.69 2.34z"/>
    </g>
  </g>
</svg>
