<svg xmlns="http://www.w3.org/2000/svg" viewBox="0 0 165.51 60.06"><defs><style>.cls-1{isolation:isolate;}.cls-2{mix-blend-mode:multiply;}.cls-3{fill:#525252;}.cls-4{fill:#fff;}</style></defs><title>Asset 1</title><g class="cls-1"><g id="Layer_2" data-name="Layer 2"><g id="Слой_1" data-name="Слой 1"><g class="cls-2"><path class="cls-3" d="M164.26,2.2c-.17,0-.15.16,0,.16-1,.08-2.86.11-3.38.69-.84-.43-3.93.29-5-.06-2.22.35-3.79,1-6.57.84-.38.21-.16.27,0,.48a6.46,6.46,0,0,0-4.7.64c.08-.07.15-.13.15-.24a23.73,23.73,0,0,0-4.19,1c-.54-.58-2.12-.16-2.88-.5-.67.59-3.54.76-5.09.57-.07.4-1.65.11-2.28.36a5.94,5.94,0,0,0-2.66,0c0-.13.12-.15.28-.16a18.46,18.46,0,0,0-3.7-.17.29.29,0,0,1,.11.31c-.14-.27-1.31-.37-1.19,0-.26,0-.15-.22-.52-.15-.24.24-.77.31-1,.57l-.91-.14c-.34,0,.17.13,0,.32-1.23,0-2.65-.37-2.92,0a1.06,1.06,0,0,0-.81.18c0-.08,0-.16,0-.24-.72.65-1.92.4-3.22.45-.16,0-.13.15-.15.24-1.7-.08-2.16.32-3.46.07-.17,0-.11.16.05.22h.2a.34.34,0,0,1-.2,0,26.82,26.82,0,0,0-3.41.32c0,.23.28.24.23.47-.25.15-.39,0-.66-.07a.32.32,0,0,0,.25.16c-.06.31-1-.13-1.09.34-1-.18-2.19-2.9-3.43-3.22a7.56,7.56,0,0,1-3.45.07,4.15,4.15,0,0,1-1.9.51c-.24.48-.88.33-1.27.9-.19-.53-1.12,0-1.3-.29-.16,0-.12.14-.15.24-1.35-.31-2.56,0-3.82-.33-.64.5-1.23.23-2.15.36,0,.17.09.25.38.23-.36.25-1.74,0-.4,0a.33.33,0,0,1-.1-.4c-.25,0-.11.27-.29.33-.4-.46-1.44-.25-2.24-.2a1.26,1.26,0,0,0,.64.23,16.83,16.83,0,0,0-4.54.4c-.19-.07-.41-.11-.37-.31-.17.17-.48.51-.83.33.29.11-.18.2.12.24-.79-.13-1.08.42-2.28.28-.21,0,0,.08.12.07-1.77.88-5-.71-7.45.3-1-.18-2.07.16-3.05,0,.47.4-1.51-.21-2.15.36.12-.26-.25-.12-.26,0-.19,0,0-.14.14-.16a1.12,1.12,0,0,0-.38-.15c0,.1-.2.29-.82.25.15.1.13.28.09.48-.2.26-.1-.28-.1-.4-1.73-.28-2.43-4.56-3.49-4.63-.11.21.26.15.38.23a.83.83,0,0,1-.81.17c.06-.12.23.07.27-.08s-.26,0-.25-.16a3.14,3.14,0,0,1-1.74.2.89.89,0,0,0-.44.48c-.59,0,.14-.21,0-.4-.6.51-1.1.14-1.53.83-.17-.1-.24-.24-.39,0-.2,0,.06-.1,0-.24-.44,0-.18.4-.82.26,0,.14.44,0,.52.15.27.24-.78-.25-.93,0-.18,0-.1-.2-.11-.32-.13.05-.22.22-.27.08-.2,0,0,.1,0,.24-.26,0-.08-.3-.51-.23s.13.22.24.24a1.46,1.46,0,0,1-1-.62c-.17.17-.63.17-.69.41-.21-.11.14-.4-.5-.39-.09.23-.14,0-.29.25-.13-.24-.52,0-.24-.24-.27,0-.42,0-.41.17a4.76,4.76,0,0,1-.64-.31c-.54.11-.7.33-1.34.19-.13.35.27-.07.25.15-.54.41-1.42.16-1.65.67-1.51-.28-3.88.08-4.45-.63-.19,0-.13.2-.16.32a2.78,2.78,0,0,0-1.16-.38c.72.25-1,.13-1.06-.06-.18,0-.13.2-.16.32a2.1,2.1,0,0,0-1.45,0c-.16,0-.1-.14-.12-.23-.23.24-1.75-.17-2.27.28a8,8,0,0,1-.77-.39A.69.69,0,0,0,36,5.6c1,0-.25.39.34.63-.25.11-.67-.31-.75-.55a3,3,0,0,0-.72.65,4.08,4.08,0,0,1-2.6-.58c-.6,0-.92.29-1.6.11a.65.65,0,0,0,.06.87c.08.2-.42-.43-.62-.55-.18.23-.73.18-.81.26s-.11-.15-.12-.24c-.3,0-.5,0-.54.17-.18,0-.1-.2-.11-.31a.72.72,0,0,0-.42.24c-.18-.15-.86-.35-.67.09-.49.06-.13-.37-.5-.39-.43.14.45.29,0,.48-.13-.05,0-.24-.23-.39-.17,0-.22.14-.41.17-.07.19.61-.06.38.23-.26-.17-.44.07-.66-.07.35.28,0,.22-.05.56-.05-.45-1.54-.24-1.19-.06-.19.14-.42-.33-.64-.23s.05.1,0,.24c-.29.05-.55-.47-.66-.07-.15,0-.1-.14-.11-.23s-.12.15-.15.24a2.54,2.54,0,0,0-.64-.31c-.18,0-.13.21-.16.32s-.1-.14-.11-.23c-.39.08-.16.12-.16.32-.47,0-.29-.39-.9-.3.37.4,0,0-.56.25.36-.32-.2.09-.11-.24-.3.25-.75,0-1.47.11-1.79-.46-3.69-.61-4.67-1.18-1.85,0-2.81,0-4.63-.08,0,.18.65,0,.92.07-2.29.12-4.36-.06-7.19.29-.34,0,.17.13,0,.32C3.15,6.12,3,6,2.67,5.9c-.06.21.51.06.37.32a8.09,8.09,0,0,1-1.36,0l3.42,50c1.4-.14,2,.41,3.31.51,0-.12,0-.23-.11-.24.14-.22.31.16.38.23.13-.08.49,0,.42-.24a.68.68,0,0,0,.65.14c-.19-.35.27,0,.43-.4.24.23.67,0,.91.14,0-.17-.08-.25-.37-.23.22-.27.31.16.65.07-.08-.08-.29-.08-.24-.24a8.66,8.66,0,0,0,3.29.34c0-.09-.22-.2-.26-.08,0-.39,1.39.31,1.84.13-.22-.83,2.44-.09,3.2-.14a.56.56,0,0,1,.38.15s1.44-.58,1.88-.2c-.09-.25,1.78-.11,1.58,0,.42,0,.32-.25.81-.17-.1-.12-.42-.11-.65-.15a4.6,4.6,0,0,1,2.9.27c.16,0,.28-.11.28-.25.29,0,0,.28.1.4.39-.24.71-.14,1-.34.91.43,2.33,0,2.77.19-.11-.11.48-.18.28-.24.63-.21.54.19,1.32.13.29-.06-.23-.26-.37-.31s.75.34,1.3.29c.33-.08-.28-.23-.09-.47.69.25.25.3.74.54.19,0,.13-.2.16-.32a1.6,1.6,0,0,0,1.73.05c.1.46.59-.15.5.31.42-.27.68,0,.95-.34.4,0-.14.17,0,.32.54-.33,1.39-.17,1.52-.75A.6.6,0,0,0,39,56c.35,0-.17-.14,0-.32.3.05.26.3.64.3a3.58,3.58,0,0,1,2-.43c.34-.06-.22-.21-.1-.4.07.15.66.29.54-.09.31,0,.13.23.38.23s.69-.53.8-.09c.25,0,.11-.27.3-.32.45,0-.24.44.1.39.54,0,.08-.17.16-.32.11.31,1.12-.12.77.23.43-.11.73-.34,1.21-.19-.31-.15-.12-.12-.23-.39.46.08.65-.18,1.19.06.23-.16,0-.1,0-.32.59-.18,2.43.31,2.53-.13.61-.12,1.47.21,2-.11.45.31,1.16-.09,1.85.12,0-.14-.21-.2,0-.24.47,0,0,.12.24.32,1-.15.2.1,1.19,0,0-.09-.24-.06-.39-.07a4.5,4.5,0,0,1,1.85.05c.29,0,.08-.29.17-.41.27-.11,1.82.08,1.34-.18.29-.25,1.35.41,1.47-.19.29.28.93,0,.6-.16l-.18-.08a.51.51,0,0,1,.18.08c.44.14,1.55,6.9,2.46,6.68-.08-.08-.3-.07-.24-.23a1,1,0,0,1,.92.06c.19-.26-.42-.05-.24-.31.51,0,1.19.06,1.22-.26.38.14.18.34.63.3s-.43-.14,0-.31c.3.51,2.11,0,2.94-.3-.59-.38.91-.43,1.64-.5a.32.32,0,0,0-.25-.16c.33,0,.85-.07,1,.14.46,0-.21-.35.16-.32.32.25,1.13-.08,1,0,.4,0,.34.24.47.1.84.38,2.37-.49,2.67-.13.2-.07.21-.26.3-.4a5.7,5.7,0,0,1,1.18.14c.71-.56,2.08-.17,2.69-.53-.27-.16-.65-.25-.62-.39.23-.22.48.17.78.15C78.38,57,78.27,57,78,57a4.12,4.12,0,0,1,1.21-.18c0,.2.61.1.24.31.23,0,1.24-.06.68-.17.12-.19.62,0,.65.14a.38.38,0,0,0,.29-.32c.42.17.84-.17,1.2,0,.16,0,.47-.24.15-.24.2-.19.44.24.64.3.42,0,.38-.32,1-.25,0-.08-.16-.06-.26-.08.45,0,1-.39,1.32.06.42-.13-.14-.31.45-.57-.47,0-.45.1-.8,0,1.21-.27,2.06.42,2.88.42.21,0,0-.16-.17-.22.77.07,2.24.39,2.06-.13,1,.21,1.67-.18,2.9.18-.07-.23.73,0,1.07-.18-.54-.14-.16-.2,0-.48,0,.28.88,0,1.33,0a21.94,21.94,0,0,0,3.18.1c.19-.08,0-.13.28-.24,1.21.39,2-.25,2.82-.37-.09,0,.23.26.79.06a13.91,13.91,0,0,1,4.52-.16c.46,0,1-.37,1.47-.11-.14-.25.62,0,.41-.17.39-.09,1.21.31,1.34-.1.28.47,1,.13,1.57.21-.6-.09.51-.33-.37-.32a24.44,24.44,0,0,1,3.42.34c.4-.23,1-.33,1-.58.28,0,0,.35.24.4s.59-.26.52.07c.15-.12.73-.3,0-.24.41-.24,1.15,0,1.47-.11.06-.13-.09-.15-.25-.15,1.22.12,1.93-.49,4-.4.21,0-.13.16.12.16.52.09.29-.27.81-.17-.1-.23-.19-.09-.53-.07.44-.5,1.61,0,2.39,0,.59-.16.4-2.49.71-2.79a24.65,24.65,0,0,1,4,.17c.16,0,.46-.1.54-.09.38,0,.83.27.27,0a26.54,26.54,0,0,1,2.6.59,8.06,8.06,0,0,1,1.35-.34c-.45.13.34-.5.31-.48a1.09,1.09,0,0,1,.4,0l.15-.08c-.09-.1.19-.12,0,0l.11.07c.23.1,1.33-.21.83-.33a31.25,31.25,0,0,1,4.48.31c.08-.11-.5-.18-.11-.23.92.63,2.33-.41,3.31.09.15,0,.12-.15.15-.24.24.33.58.13,1.17.22.29,0-.17-.24-.23-.31.45-.06.76.24,1.3.29a10.2,10.2,0,0,1,3.07-.3c.05-.12.19-.14.43-.32.67.2.63-.12.94-.18,1.75.09,5.85.22,7.6-.54.17,0,.64.22.66.07.19,0,0,.07,0,.16,1.82-.24,3.82.48,5.28.22a2.1,2.1,0,0,0-.92-.07.29.29,0,0,0-.25-.15c.23-.18.71,0,.42-.33,1.14.33,1.9-.31,2.92,0"/><path class="cls-3" d="M119.39,54.14s0-.1-.12-.08c0,.43.53.08.67-.09C119.53,53.89,119.6,54.1,119.39,54.14Z"/><path class="cls-3" d="M86.85,56.34c-.62-.08-.28,0-.64-.23.08.29-.6,0-.8,0-.14.26.19.25.23.4.41,0,.66-.2.39.07.33,0,.4.12.65.14C86.7,56.44,86.51,56.48,86.85,56.34Z"/></g><path class="cls-4" d="M165.38,0c-.78,0-1.71.54-2.81.29-.16,0-.14.16,0,.16-1,.08-2.85.11-3.37.7-.85-.44-3.94.28-5-.07-2.21.35-3.78,1-6.57.84-.38.21-.16.27,0,.48a6.48,6.48,0,0,0-4.69.64A.33.33,0,0,0,143,2.8a24.75,24.75,0,0,0-4.2,1c-.53-.57-2.11-.15-2.87-.5-.67.59-3.54.76-5.09.57-.08.4-1.66.11-2.29.36a6.21,6.21,0,0,0-2.65,0c0-.13.11-.15.28-.16a20.1,20.1,0,0,0-3.7-.17.28.28,0,0,1,.1.32c-.13-.28-1.3-.38-1.18-.06-.27,0-.15-.21-.52-.15-.24.24-.77.31-1,.57-.33,0-.44,0-.92-.14s.18.14,0,.32c-1.24,0-2.65-.37-2.92,0a1.09,1.09,0,0,0-.82.18l0-.24c-.73.65-1.93.4-3.23.46-.15,0-.12.15-.15.24-1.7-.08-2.16.32-3.45.06-.18,0-.11.17,0,.23h.19a.3.3,0,0,1-.19,0,26.67,26.67,0,0,0-3.41.31c-.06.24.28.24.22.48-.25.15-.38,0-.66-.07a.32.32,0,0,0,.26.15c-.07.31-1.06-.13-1.09.34-1-.17-2.2-2.9-3.43-3.21a7.43,7.43,0,0,1-3.45.06A4.21,4.21,0,0,1,95,4.4c-.24.47-.88.32-1.27.89-.19-.53-1.12,0-1.3-.29-.16,0-.13.15-.16.24-1.35-.31-2.56,0-3.81-.33-.65.51-1.24.23-2.16.36,0,.18.09.25.38.23-.35.25-1.73,0-.4,0a.35.35,0,0,1-.1-.39c-.24,0-.1.27-.29.32-.4-.46-1.44-.24-2.24-.2a1.18,1.18,0,0,0,.65.23,16.76,16.76,0,0,0-4.54.4c-.19-.06-.42-.11-.38-.31-.17.18-.48.52-.82.33.28.11-.18.2.11.24-.79-.13-1.08.43-2.28.28-.2,0,0,.08.13.08-1.77.88-5-.72-7.45.3-1-.18-2.08.15-3,0,.47.41-1.51-.21-2.15.36.12-.26-.25-.11-.27,0-.18,0,0-.14.15-.16a.94.94,0,0,0-.39-.16c0,.11-.19.3-.81.26.14.09.12.28.09.47-.21.26-.11-.28-.1-.39-1.74-.29-2.44-4.56-3.49-4.64-.11.22.26.15.37.23a.86.86,0,0,1-.81.18c.06-.13.23.06.28-.09s-.26-.05-.26-.15a3.13,3.13,0,0,1-1.74.19.91.91,0,0,0-.44.49c-.59,0,.14-.21,0-.4-.61.5-1.11.14-1.53.82-.17-.1-.25-.24-.4,0-.19,0,.06-.11,0-.24-.44,0-.18.39-.81.25,0,.15.44,0,.51.15.27.25-.77-.24-.93,0-.18,0-.09-.2-.1-.32-.13.05-.22.23-.28.09-.2,0,.05.1,0,.24-.25,0-.07-.31-.51-.23s.13.21.25.23a1.4,1.4,0,0,1-1-.61c-.17.17-.64.16-.7.41-.2-.12.15-.41-.5-.39-.08.22-.13,0-.28.24-.13-.24-.52,0-.25-.23-.26,0-.41,0-.41.16a6.27,6.27,0,0,1-.64-.3c-.54.11-.69.33-1.34.18-.12.35.27-.07.25.16-.53.41-1.41.16-1.64.66-1.51-.28-3.88.08-4.46-.63-.18,0-.12.2-.16.32a2.6,2.6,0,0,0-1.16-.37c.72.25-1,.13-1.06-.06-.18,0-.12.2-.16.32a2,2,0,0,0-1.45,0c-.15,0-.1-.15-.11-.24-.24.24-1.75-.16-2.28.28-.32-.13-.36-.19-.76-.38a.78.78,0,0,0-.29.24c1,0-.25.4.34.63-.25.12-.66-.31-.74-.54a2.67,2.67,0,0,0-.72.65,4,4,0,0,1-2.6-.59c-.6,0-.93.3-1.61.11a.66.66,0,0,0,.06.87c.09.21-.42-.42-.61-.54-.18.23-.73.17-.82.25s-.1-.14-.11-.23c-.3,0-.5,0-.55.16-.18,0-.09-.19-.1-.31a.71.71,0,0,0-.42.24c-.18-.15-.86-.34-.67.1-.49.06-.13-.38-.5-.39-.44.14.44.29,0,.48-.14-.06,0-.24-.23-.4-.18,0-.22.15-.41.17-.07.19.6-.06.37.23-.26-.17-.43.08-.65-.07.34.28,0,.22-.05.56C24.17,4.62,22.68,4.83,23,5c-.2.15-.42-.33-.64-.22s0,.1,0,.24c-.29,0-.56-.47-.66-.07-.16,0-.1-.14-.11-.24s-.13.15-.16.24a2.63,2.63,0,0,0-.63-.3c-.19,0-.13.2-.16.32s-.11-.14-.12-.24c-.39.08-.15.12-.16.32-.46,0-.28-.38-.9-.3.37.4,0,0-.55.25.35-.32-.21.09-.11-.23-.3.24-.76,0-1.47.1-1.79-.46-3.7-.6-4.67-1.18-1.85,0-2.82,0-4.64-.07,0,.17.65,0,.92.06C6.68,3.81,4.6,3.63,1.78,4c-.35,0,.17.14,0,.32C1.47,4.22,1.33,4,1,4c-.06.21.51,0,.37.31A9.39,9.39,0,0,1,0,4.27l3.42,50c1.39-.15,2,.41,3.31.5,0-.11,0-.22-.11-.24.13-.21.3.17.37.24.13-.09.49,0,.42-.25a.68.68,0,0,0,.65.15c-.19-.35.27,0,.43-.41.24.23.67.05.92.14,0-.17-.09-.25-.38-.23.22-.26.31.16.66.07-.08-.08-.3-.08-.25-.23a8.9,8.9,0,0,0,3.29.33c0-.09-.22-.2-.26-.07,0-.39,1.39.3,1.85.12-.22-.83,2.43-.09,3.19-.14a.66.66,0,0,1,.39.15s1.43-.57,1.87-.19c-.09-.26,1.79-.12,1.59,0,.41,0,.32-.25.81-.18-.1-.11-.42-.1-.65-.14a4.58,4.58,0,0,1,2.89.26c.17,0,.28-.11.29-.24.29,0,0,.28.1.39.38-.24.71-.13.95-.33.92.43,2.33,0,2.77.18-.1-.11.49-.17.29-.24.63-.2.53.2,1.31.13.3,0-.23-.26-.37-.31s.76.34,1.3.3c.33-.08-.28-.23-.09-.48.7.25.26.31.75.54.18,0,.13-.2.16-.32a1.58,1.58,0,0,0,1.72,0c.11.47.59-.15.5.31.42-.26.68,0,1-.34.39.05-.14.18,0,.32.54-.32,1.4-.16,1.53-.74-.06.32.23.68.74.62.34,0-.17-.13,0-.32.3,0,.27.3.64.31a3.73,3.73,0,0,1,2-.44c.34-.06-.23-.21-.1-.39.06.14.65.28.54-.09.31,0,.13.22.38.23s.68-.54.8-.1c.25,0,.1-.27.29-.32.45,0-.24.44.1.4.54,0,.09-.17.16-.32.12.3,1.13-.13.78.22.42-.11.73-.33,1.21-.18-.31-.15-.13-.13-.24-.4.47.08.65-.18,1.19.06.24-.16,0-.1,0-.32.6-.17,2.44.31,2.53-.12.62-.13,1.48.2,2-.12.44.32,1.15-.09,1.85.12,0-.13-.21-.2,0-.23.46,0,0,.11.23.31,1-.15.2.11,1.19.06,0-.1-.23-.07-.39-.08a4.48,4.48,0,0,1,1.85,0c.29,0,.09-.28.17-.4.28-.12,1.83.08,1.34-.19.3-.25,1.35.41,1.48-.18.29.27.92,0,.6-.17a.38.38,0,0,1-.18-.08l.18.08a5.48,5.48,0,0,0,2.46,0c-.08-.08-.3-.07-.25-.23a1,1,0,0,1,.93.06c.18-.26-.43,0-.24-.31.5,0,1.19,6.71,1.21,6.39.38.15.18.34.64.31s-.43-.15,0-.32c.29.51,2.1,0,2.94-.29-.59-.39.9-.43,1.63-.51a.29.29,0,0,0-.25-.15c.34,0,.85-.08,1,.13.47,0-.21-.34.16-.32.32.25,1.14-.07,1,0,.4,0,.33.24.47.1.83.37,2.37-.49,2.66-.13.2-.08.22-.26.3-.41a6.47,6.47,0,0,1,1.18.14c.71-.55,2.09-.16,2.7-.53-.27-.15-.66-.24-.63-.38.23-.23.48.16.78.14,0-.09-.15-.16-.38-.15a4.48,4.48,0,0,1,1.21-.18c0,.2.61.1.24.31.23,0,1.24-.05.67-.17.12-.18.62,0,.65.15a.4.4,0,0,0,.3-.33c.42.17.83-.16,1.19,0,.16,0,.48-.24.15-.24.2-.18.44.24.64.31.42,0,.39-.32,1-.26,0-.08-.15-.06-.26-.07.45,0,1-.39,1.32,0,.42-.13-.14-.31.45-.56-.47,0-.44.1-.8,0,1.21-.27,2.06.43,2.89.42.21,0,0-.16-.17-.21.77.07,2.24.39,2-.14,1,.21,1.67-.17,2.9.18-.07-.22.73,0,1.08-.17-.55-.14-.17-.2,0-.48,0,.28.87,0,1.33,0a19.33,19.33,0,0,0,3.17.1c.19-.08,0-.13.29-.24,1.2.4,2-.25,2.81-.37-.08,0,.23.27.79.06a14.26,14.26,0,0,1,4.53-.16c.45,0,1-.37,1.46-.11-.13-.24.62,0,.42-.16.38-.09,1.2.3,1.33-.11.29.47,1,.13,1.57.21-.59-.08.52-.33-.36-.31a23,23,0,0,1,3.41.33c.4-.23,1-.33,1-.57.27,0,0,.35.23.39s.59-.25.53.07c.14-.11.72-.29,0-.24.4-.24,1.14,0,1.46-.1.07-.14-.09-.15-.25-.16,1.23.12,1.93-.49,4-.39.21,0-.13.15.12.15.52.1.3-.26.81-.17-.09-.23-.19-.09-.52-.07.44-.5,1.61,0,2.38,0,.59-.16.4-.27.71-.57,1.1-.1,2.44-2.19,4-2.06.15,0,.46-.1.54-.09.37,0,.82.27.26,0a24.26,24.26,0,0,1,2.61.58,9.17,9.17,0,0,1,1.35-.34c-.46.13.33-.49.31-.48a1.1,1.1,0,0,1,.4,0l.14-.08c-.09-.1.19-.12,0,0a.34.34,0,0,0,.12.08c.22.09,1.32-.21.82-.34a31.42,31.42,0,0,1,4.49.32c.08-.12-.5-.19-.12-.24.93.63,2.33-.41,3.31.1.16,0,.12-.15.15-.24.25.32.58.12,1.18.21.28,0-.17-.24-.24-.31.46-.06.76.25,1.3.29a10.28,10.28,0,0,1,3.08-.29c0-.12.19-.15.42-.33.67.2.64-.11.95-.18,1.74.09,5.84.22,7.6-.54.17,0,.63.22.66.07.19,0,0,.07,0,.16,1.82-.24,3.82.48,5.29.22a2,2,0,0,0-.92-.06.36.36,0,0,0-.25-.16c.23-.18.71,0,.42-.32,1.14.32,1.89-.32,2.91,0,.29,0,.76-.25.43-.32"/><path class="cls-4" d="M117.71,52.23s0-.09-.13-.08c0,.43.53.08.67-.09C117.84,52,117.92,52.19,117.71,52.23Z"/><path class="cls-4" d="M85.16,54.43c-.61-.07-.28,0-.64-.23.09.3-.59,0-.8,0-.13.25.19.24.24.39.41,0,.66-.2.39.07.33,0,.4.12.65.15C85,54.53,84.82,54.58,85.16,54.43Z"/></g></g></g></svg>