<svg xmlns="http://www.w3.org/2000/svg" viewBox="0 0 1190.27 2772.91"><defs><style>.cls-1{fill:none;stroke:#666;stroke-miterlimit:10;stroke-width:9px;}.cls-2{fill:#d1d3d4;}.cls-3{fill:#666;}.cls-4{fill:#5e5e5e;}.cls-5{fill:#f6921e;}.cls-14,.cls-6{fill:#fff;}.cls-10,.cls-11,.cls-12,.cls-13,.cls-14,.cls-6,.cls-7,.cls-8,.cls-9{fill-rule:evenodd;}.cls-7{fill:#ffde00;}.cls-8{fill:#f9b233;opacity:0.6;}.cls-9{fill:#9d9d9c;}.cls-10{fill:#878787;}.cls-11{fill:#b2b2b2;}.cls-12{fill:#dadada;}.cls-13{fill:#f39200;}.cls-14{opacity:0.8;}</style></defs><title>Asset 16</title><g id="Layer_2" data-name="Layer 2"><g id="Слой_1" data-name="Слой 1"><path class="cls-1" d="M1026.54,247s-6.07,30.66,0,38,147.4-2.66,155.4,0,1.09,100.31.42,107.65,3.33,16.66-23.33,14-969.5,0-985.12,8-9.84,296.16-9.84,296.16-14.93,37-1,53.49,103.24,6,103.24,6,81-1.5,100.83-6,57.31-6,57.31-6,169.78-5.09,221.59-13.6c33.82-5.55,87.57.66,120.82,5.64a276.9,276.9,0,0,0,61.09,2.37c27.78-2,68.88-4.31,102-3.41,55.49,1.5,172.49-10.9,190.49-.2s30.76,324.13,0,380.17c-30.57,55.68-346.94,0-376.71,0s-130.86-16.5-130.86,98.16v701.07s-1.82,158.7.59,220.7,53.45,481.56,28.92,490a116.8,116.8,0,0,1-31,6.17"/><path class="cls-2" d="M506,2621.64a3.85,3.85,0,0,0-3.89-3.83L473,2618l0,7.72,29.18-.22A3.85,3.85,0,0,0,506,2621.64Z"/><path class="cls-2" d="M506.35,2662.55a3.87,3.87,0,0,0-3.89-3.84l-29.17.22,0,7.72,29.18-.21A3.86,3.86,0,0,0,506.35,2662.55Z"/><polygon class="cls-3" points="392.16 2636.74 0 2638.82 1.81 2647.61 392.24 2647.46 392.16 2636.74"/><polygon class="cls-4" points="415.17 2652.82 415.02 2632.73 436.66 2612.5 437.11 2672.72 415.17 2652.82"/><rect class="cls-3" x="436.88" y="2612.39" width="29.98" height="60.22" transform="translate(-19.74 3.45) rotate(-0.43)"/><rect class="cls-3" x="460.57" y="2606.24" width="12.59" height="72.29" transform="translate(-19.63 3.54) rotate(-0.43)"/><polygon class="cls-3" points="392.27 2651.63 392.14 2634.26 415.02 2632.73 415.17 2652.82 392.27 2651.63"/><polygon class="cls-4" points="392.16 2636.74 392.24 2647.46 385.77 2647.46 392.16 2636.74"/><polygon class="cls-4" points="460.57 2642.43 460.8 2672.54 454.41 2672.59 460.57 2642.43"/><polygon class="cls-5" points="449.59 2730.09 444.7 2772.91 466.01 2716.81 456.57 2716.57 461.47 2673.74 440.16 2729.84 449.59 2730.09"/><polygon class="cls-5" points="516.01 2725.32 534.33 2762.21 522.29 2706.14 514.59 2710.84 496.27 2673.95 508.31 2730.02 516.01 2725.32"/><polygon class="cls-3" points="617.9 2641.24 571.5 2639.79 571.59 2648.1 618.11 2650.2 617.9 2641.24"/><polygon class="cls-4" points="548.58 2634.3 548.73 2654.4 527.09 2674.62 526.64 2614.41 548.58 2634.3"/><rect class="cls-3" x="496.88" y="2614.52" width="29.98" height="60.22" transform="translate(-19.74 3.9) rotate(-0.43)"/><polygon class="cls-4" points="503.18 2644.69 502.95 2614.58 509.34 2614.53 503.18 2644.69"/><rect class="cls-3" x="490.59" y="2608.59" width="12.59" height="72.29" transform="translate(-19.75 3.79) rotate(-0.43)"/><polygon class="cls-3" points="571.48 2635.49 571.61 2652.86 548.73 2654.4 548.58 2634.3 571.48 2635.49"/><path class="cls-6" d="M1050,209.63c4,6.52,3.9,7.8-1,14.7.39.85.85,1.71,1.2,2.62,2.11,5.53.79,9.82-4.62,12.2-2.87,1.27-3.93,3.22-4.64,5.74a12.7,12.7,0,0,1-10.09,9.57c-7.39,1.71-14.42,1.17-20.52-3.72a19,19,0,0,1-4.53-5.7,6.62,6.62,0,0,0-4.85-3.67c-5.82-1.12-8.33-5.25-9.77-10.47-.73-2.64-1.67-5.23-2.54-7.82a22.19,22.19,0,0,1-1.47-4.13,21.37,21.37,0,0,0-2.27-7.87c-1.64-3.11-1.37-6.34,1.14-8.59-4.93-4.2-9.72-8.37-14.61-12.42a23.28,23.28,0,0,1-6.51-9.69c-4.51-11.21-8.06-22.69-6.62-34.92,1.26-10.72,3-21.4,5.12-32a147.51,147.51,0,0,1,5.72-20.85,176.8,176.8,0,0,1,8.32-18.88c2.88-5.88,6-11.67,9.41-17.26,1.84-3,4.45-5.6,6.8-8.3a36.68,36.68,0,0,1,5.08-5.26c8.62-6.58,22.52-7.42,33.43.93,7.61,5.83,12.17,13.67,16.35,21.86a128.68,128.68,0,0,1,9.54,25.76c2,7.75,5.11,15.24,7.17,23,3.9,14.63,6.54,29.46,5.27,44.73-.8,9.58-2.74,19-7.45,27.32-2.82,5-7.56,8.85-11.86,13.7C1052.5,202.94,1054.19,206.66,1050,209.63Zm-47.62-10a1.55,1.55,0,0,0,0-.22c3.29,0,6.58.16,9.85,0,9.33-.54,18.66-1.78,28-1.65,6.88.1,11.65-2.93,15.75-7.52a40.24,40.24,0,0,0,9.86-21.14,100.67,100.67,0,0,0,1.05-25c-1.05-10.63-2.39-21.19-5.69-31.41-1.91-5.92-4.22-11.74-5.76-17.76a135.06,135.06,0,0,0-14.07-34.49,45.92,45.92,0,0,0-11.82-13.64c-8.83-6.86-21.49-7.11-30.06,0a47.69,47.69,0,0,0-9.77,10.93,176.17,176.17,0,0,0-11.17,20.8A183,183,0,0,0,962,147.4a65.1,65.1,0,0,0,2.08,20.46c4.13,14.79,12.56,25.81,27.36,31.25,1,.38,2.06,1.12,3.08,1.11C997.17,200.2,999.78,199.84,1002.39,199.62Zm-12.16,15.84c-.75,4.82.15,6.94,3.92,8.16a32.87,32.87,0,0,0,9.16,1.65c8.36.23,16.74.35,25.1,0,5.87-.23,11.83-.73,17.34-3.15,3.27-1.43,4.77-4.39,3.88-7.05-.83-2.48-3.53-3.94-6.84-3.54-9.59,1.13-19.16,2.43-28.76,3.43C1006.22,215.8,998.41,217.39,990.23,215.46ZM994,227.33c.28,4.13.9,7.83,4.16,9.91a15.25,15.25,0,0,0,7.78,2.58c10.67,0,21.35-.34,32-1.15,3-.23,6.13-2.19,8.82-3.94,2.08-1.34,2.25-3.81,1.19-6.19s-2.9-2.86-5.27-2.25a25,25,0,0,1-5.28,1.08c-11,.35-22,.66-33,.79C1001,228.2,997.64,227.64,994,227.33Zm38.22-27v.32c-7.84.49-15.69.9-23.53,1.5-5.88.46-11.75,1-17.59,1.79-3,.39-3.56,1.52-3.55,4.34,0,2.52,1.07,4.1,3.66,4.35,3.41.31,6.87,1,10.25.73q15.93-1.19,31.8-3a115.74,115.74,0,0,0,13.42-2.86c1.43-.34,2.82-1,2.77-2.92a3.79,3.79,0,0,0-3-3.94,9.57,9.57,0,0,0-2.44-.28C1040.05,200.32,1036.13,200.34,1032.21,200.34Zm-24,42.84a28.38,28.38,0,0,0,1.54,3c5.3,7.56,18.34,7.85,24.14,4.19,3-1.9,5.28-4.67,5.25-9Z"/><path class="cls-7" d="M1002.39,199.62c-2.61.22-5.22.58-7.84.6-1,0-2-.73-3.08-1.11-14.8-5.44-23.23-16.46-27.36-31.25A65.1,65.1,0,0,1,962,147.4a183,183,0,0,1,16.51-68.89,176.17,176.17,0,0,1,11.17-20.8,47.69,47.69,0,0,1,9.77-10.93c8.57-7.13,21.23-6.88,30.06,0a45.92,45.92,0,0,1,11.82,13.64,135.06,135.06,0,0,1,14.07,34.49c1.54,6,3.85,11.84,5.76,17.76,3.3,10.22,4.64,20.78,5.69,31.41a100.67,100.67,0,0,1-1.05,25,40.24,40.24,0,0,1-9.86,21.14c-4.1,4.59-8.87,7.62-15.75,7.52-9.31-.13-18.64,1.11-28,1.65-3.27.18-6.56,0-9.85,0A1.55,1.55,0,0,1,1002.39,199.62Z"/><path class="cls-8" d="M1066.88,144.06c-1.05-10.63-2.39-21.19-5.69-31.41-1.91-5.92-4.22-11.74-5.76-17.76a135.06,135.06,0,0,0-14.07-34.49,45.92,45.92,0,0,0-11.82-13.64c-.13-.11-.28-.19-.41-.3-7.44,3.77,3.28,22.95,5.64,27.6,6.28,12.36,12.9,24.48,16.28,38,4.4,17.61,7.68,38.71,4.44,56.73-.8,4.43-1.82,9-4.25,12.82-2.1,3.33-4.77,6.49-6.43,10.06-1.08,2.32-1.15,4.17-.55,5.66,4.79-.91,8.47-3.53,11.71-7.16a40.24,40.24,0,0,0,9.86-21.14A100.67,100.67,0,0,0,1066.88,144.06Z"/><path class="cls-9" d="M990.23,215.46c8.18,1.93,16,.34,23.8-.47,9.6-1,19.17-2.3,28.76-3.43,3.31-.4,6,1.06,6.84,3.54.89,2.66-.61,5.62-3.88,7.05-5.51,2.42-11.47,2.92-17.34,3.15-8.36.32-16.74.2-25.1,0a32.87,32.87,0,0,1-9.16-1.65C990.38,222.4,989.48,220.28,990.23,215.46Z"/><path class="cls-10" d="M994,227.33c3.65.31,7,.87,10.39.83,11-.13,22-.44,33-.79a25,25,0,0,0,5.28-1.08c2.37-.61,4.19-.17,5.27,2.25s.89,4.85-1.19,6.19c-2.69,1.75-5.78,3.71-8.82,3.94-10.63.81-21.31,1.1-32,1.15a15.25,15.25,0,0,1-7.78-2.58C994.89,235.16,994.27,231.46,994,227.33Z"/><path class="cls-11" d="M1032.21,200.34c3.92,0,7.84,0,11.77,0a9.57,9.57,0,0,1,2.44.28,3.79,3.79,0,0,1,3,3.94c0,1.91-1.34,2.58-2.77,2.92a115.74,115.74,0,0,1-13.42,2.86q-15.86,1.86-31.8,3c-3.38.25-6.84-.42-10.25-.73-2.59-.25-3.66-1.83-3.66-4.35,0-2.82.58-3.95,3.55-4.34,5.84-.79,11.71-1.33,17.59-1.79,7.84-.6,15.69-1,23.53-1.5Z"/><path class="cls-12" d="M1008.22,243.18l30.93-1.85c0,4.37-2.22,7.14-5.25,9-5.8,3.66-18.84,3.37-24.14-4.19A28.38,28.38,0,0,1,1008.22,243.18Z"/><path class="cls-13" d="M1019.86,121.57c-3.88-1.74-7-1.51-10.13,1a52,52,0,0,1,2.3,7,23,23,0,0,1,.22,6.83c-.37,3.25-2,4.77-4.48,5a6.44,6.44,0,0,1-6.46-3.58,12.69,12.69,0,0,1,.33-11.77l2.39-4.26c-2.12-2.76-4.81-3.39-7.93-2.56-3.85,1-5.18,3.14-4.12,7,2.81,10.11,6.08,20.11,8.49,30.31,2.19,9.24,3.5,18.69,5.17,28a21.06,21.06,0,0,1,.48,4.38,1.66,1.66,0,0,1-3.26.35,34.69,34.69,0,0,1-.92-5.83c-1.46-17.79-6.36-34.79-11.66-51.71-.58-1.87-1.18-3.75-1.71-5.64a7.8,7.8,0,0,1,4.76-9.8c4.61-1.86,7.88-1.25,13.68,2.54,9.24-2.63,9.24-2.63,15.07-.53,11.06-7.6,15.83-5.61,20.13.51-1.76,4.53-4,8.59-4.9,12.93-3.54,16.54-6.63,33.16-6.22,50.2,0,1.64.16,3.28.21,4.92s-.26,3-2.65,3.43a8.3,8.3,0,0,1-1-2.75c0-12.44.39-24.84,3-37.09,1.41-6.74,2.31-13.58,3.57-20.35.61-3.33,1.54-6.59,2.38-10.09-4.1-1.19-7.17.49-10.66,1.34.72,2.54,1.41,4.84,2,7.16a11.23,11.23,0,0,1-1.09,8.11c-1,1.9-2.64,3.45-4.65,2.94a6.68,6.68,0,0,1-3.78-3.41,13,13,0,0,1-.31-10.08C1018.55,124.68,1019.14,123.33,1019.86,121.57Zm-12,16.47c3-4.49,1-8.42-1.09-12.67C1002,131.65,1002.41,136.29,1007.87,138Zm14.29-2c3.48-3.8,3.43-7.43.27-10.74A12.08,12.08,0,0,0,1022.16,136.06Z"/><path class="cls-14" d="M990.17,101.15c-5.56-.05-8.69-3.77-8.09-9.28a53,53,0,0,1,6.75-21.47c4.77-8,11.75-13.22,21.68-13,3.26.07,6.43.86,7.52,4.35a8.37,8.37,0,0,1-2.76,9.35c-1.74,1.46-3.68,3-5.8,3.63-5.54,1.52-7,5.61-8.22,10.53-1,4.08-2.78,8-4.35,11.91C995.62,100.39,992.91,101.29,990.17,101.15Z"/><path class="cls-6" d="M982.32,103.62a5.58,5.58,0,1,1-.71,11.14c-3.76-.1-6.05-2.37-5.83-5.8C976,105.88,978.84,103.54,982.32,103.62Z"/><path class="cls-5" d="M1009.46,2c.8,7.47,3.28,16.87-.47,23.86l2.91-.77c-7-5.17-15.14-10.92-23.93-12.3a2.16,2.16,0,0,0-2.69,2c.34,6.27,3.09,11.45,5.37,17.19l2.61-2.62c-7.94-1.78-15.68-5.83-24-5.36a2.17,2.17,0,0,0-2,2.69c1.44,9.58,10.15,15.78,14.57,23.92l2.4-3.12c-11.69-2.33-23.42-4.48-35.32-5.36-1.78-.14-2.4,1.86-1.83,3.19,3.83,9,14.49,11.89,18.88,20.4.43-1,.85-2.08,1.27-3.12-7.8,1.36-15.73.73-23.6.68-1.51,0-2.79,1.85-1.84,3.19,4.5,6.37,11.81,8.57,17.71,13.28.31-1.19.62-2.37.94-3.55-9.6,1.43-19.59.77-28.71,4.53-1.39.57-2.22,2.34-.94,3.55,6.82,6.42,15.56,9.85,23.85,13.93l.51-3.89c-7.32,2.95-15.35,3.11-22.66,6-1.47.58-2.42,3.06-.51,3.88,6.58,2.83,13.88,4.68,19.64,9.06v-3.67c-7.93,4-15.48,8.8-23.42,12.85-1.52.77-1.23,2.83,0,3.67a50.64,50.64,0,0,0,22.22,8.59c2.72.36,2.68-3.9,0-4.24a46.33,46.33,0,0,1-20.07-8v3.67c7.93-4,15.48-8.8,23.41-12.85,1.57-.8,1.17-2.78,0-3.67-5.76-4.38-13.07-6.24-19.64-9.06-.17,1.3-.33,2.59-.5,3.88,7.31-2.94,15.34-3.1,22.66-6,1.53-.61,2.34-3,.51-3.88-7.93-3.9-16.47-7.12-23-13.27-.31,1.19-.63,2.37-.94,3.55,9.09-3.74,19.13-3.09,28.71-4.53a2.13,2.13,0,0,0,.93-3.55c-5.43-4.34-12.93-6.59-17-12.41l-1.83,3.2c8.28,0,16.53.6,24.73-.84,1.43-.24,1.85-2,1.27-3.12-4.41-8.53-15.11-11.56-18.88-20.39l-1.84,3.2c11.53.85,22.87,3,34.19,5.21a2.15,2.15,0,0,0,2.4-3.12c-4.23-7.79-12.77-13.81-14.14-22.91l-2.05,2.69c7.85-.45,15.32,3.52,22.85,5.21,1.42.32,3.25-1,2.61-2.61-2.09-5.29-4.89-10.27-5.21-16.06-.89.69-1.79,1.37-2.69,2.05,8.43,1.33,16.19,6.91,22.91,11.87a2.13,2.13,0,0,0,2.91-.76c4.24-7.91,2-17.54,1-26-.29-2.69-4.54-2.72-4.24,0Z"/><path class="cls-5" d="M1029.9,7.32V32.25A2.84,2.84,0,0,0,1032,35c10.11,2.09,20.06-1.19,30.21-.66l-2.73-3.58c-1.75,7.55-5.58,14.23-8.78,21.23-.69,1.5-.27,3.83,1.69,4.16,7.77,1.3,15.67.21,23.42,1.51l-2-3.49c-2.73,7.52-10.72,11.67-14.06,19a2.9,2.9,0,0,0,1.69,4.16c6.4,2.66,13.85,3.55,19.14,8.33v-4c-4.83,4.76-10,9.18-15.11,13.6-1.73,1.48-.6,4.09,1.25,4.73,6.83,2.36,14,3.09,21.15,3.88,3.63.4,3.59-5.27,0-5.67-6.66-.73-13.28-1.48-19.64-3.67l1.25,4.73c5.15-4.41,10.27-8.84,15.11-13.6a2.84,2.84,0,0,0,0-4c-6.16-5.58-14.21-6.7-21.65-9.79.57,1.38,1.13,2.77,1.7,4.16,3.57-7.79,11.65-12.11,14.63-20.32a2.83,2.83,0,0,0-2-3.49c-7.78-1.29-15.67-.21-23.42-1.51l1.69,4.17c3.4-7.44,7.49-14.56,9.35-22.59a2.87,2.87,0,0,0-2.73-3.58c-9.58-.51-19.2,2.82-28.71.85.7.91,1.39,1.82,2.08,2.74V7.32c0-3.66-5.66-3.66-5.66,0Z"/><path class="cls-5" d="M950.39,142a39.26,39.26,0,0,0-15.86,1.61c-2.52.78-2.59,3.75-.67,5.18,4.19,3.13,8.92,5.26,13.59,7.56v-4.89c-5.58,2.4-10.78,5-14.92,9.5-1.29,1.42-1,4.37,1.25,4.74a111.14,111.14,0,0,0,15.86,1.61L947.19,163c-5.23,8.09-11.13,15.75-15.86,24.17-1.13,2,.76,5.06,3.2,4.16a88.46,88.46,0,0,1,18.89-5.19l-2.84-2.83c-.25,7.93-2.81,15.56-3.77,23.42-.28,2.28,2.57,3.32,4.26,2.44,4.28-2.22,8.38-4.82,12.92-6.51l-3.49-2c2,6.7,1.47,13.51,1.41,20.4,0,2.64,3,3.53,4.84,2,3.69-3.1,6.89-6.71,10.57-9.82,2.8-2.36-1.23-6.34-4-4-3.69,3.1-6.89,6.71-10.58,9.82l4.84,2c.06-7.41.49-14.71-1.61-21.91a2.84,2.84,0,0,0-3.49-2c-5,1.86-9.54,4.63-14.27,7.08l4.26,2.45c1-7.88,3.53-15.44,3.78-23.42,0-1.39-1.33-3-2.83-2.83a93.72,93.72,0,0,0-20.4,5.39q1.61,2.07,3.2,4.16c4.73-8.42,10.63-16.08,15.87-24.17a2.87,2.87,0,0,0-2.45-4.27,98.65,98.65,0,0,1-14.35-1.41c.41,1.58.83,3.16,1.24,4.74,3.82-4.2,8.66-6.42,13.78-8.62,1.93-.83,1.78-4,0-4.89-4.67-2.3-9.4-4.43-13.59-7.56-.23,1.73-.45,3.45-.68,5.18a34.87,34.87,0,0,1,14.35-1.41c3.63.39,3.6-5.28,0-5.67Z"/><path class="cls-5" d="M1093.92,117c-6.81.07-13.59.68-20.4.75a2.14,2.14,0,0,0-1.83,3.2c4.76,7.5,14,9.33,20,15.54v-3c-4,3.56-9.15,4.83-14.17,6.26a2.14,2.14,0,0,0-.51,3.88c7.82,4.63,15.94,8.82,22.23,15.53.15-1.11.29-2.23.43-3.34-4.93,2.92-10.65,3.62-16.11,5.08a2.14,2.14,0,0,0-.94,3.55c5.32,4.57,10.62,9.2,14,15.43.43-1,.85-2.08,1.27-3.12-6.65,2.16-13.7,1.49-20.58,1.43a2.15,2.15,0,0,0-2,2.69c1.93,9.44,8,17.24,10.57,26.44l2.62-2.61a251.18,251.18,0,0,0-24.93-8.31,2.12,2.12,0,0,0-2.61,1.48,80.13,80.13,0,0,0-.83,13.41c0,2.74,4.24,2.74,4.25,0A74.14,74.14,0,0,1,1065,199l-2.61,1.49a251.12,251.12,0,0,1,24.93,8.3c1.55.62,3-1.17,2.61-2.61-2.61-9.2-8.64-17-10.58-26.44l-2,2.69c7.27.06,14.69.7,21.71-1.58a2.15,2.15,0,0,0,1.27-3.12c-3.57-6.55-9.09-11.49-14.68-16.3-.32,1.19-.63,2.37-.94,3.55,5.84-1.55,11.85-2.38,17.13-5.5a2.16,2.16,0,0,0,.43-3.34c-6.54-7-15-11.37-23.09-16.19l-.51,3.88c5.8-1.64,11.45-3.25,16-7.34a2.14,2.14,0,0,0,0-3c-5.6-5.84-14.9-7.74-19.3-14.67-.62,1.06-1.23,2.13-1.84,3.19,6.81-.07,13.59-.68,20.4-.75,2.73,0,2.74-4.28,0-4.25Z"/><polygon class="cls-5" points="512.02 2561.46 516.91 2518.64 495.6 2574.74 505.04 2574.98 500.14 2617.81 521.46 2561.71 512.02 2561.46"/><polygon class="cls-5" points="444.15 2563.07 425.4 2525.32 437.73 2582.69 445.61 2577.88 464.35 2615.63 452.03 2558.26 444.15 2563.07"/></g></g></svg>