<svg xmlns="http://www.w3.org/2000/svg" viewBox="0 0 175.68 255.34"><defs><style>.cls-1,.cls-9{fill:#fff;}.cls-1,.cls-2,.cls-3,.cls-4,.cls-5,.cls-6,.cls-7,.cls-8,.cls-9{fill-rule:evenodd;}.cls-2{fill:#ffde00;}.cls-3{fill:#f9b233;opacity:0.6;}.cls-4{fill:#9d9d9c;}.cls-5{fill:#878787;}.cls-6{fill:#b2b2b2;}.cls-7{fill:#dadada;}.cls-8{fill:#f39200;}.cls-9{opacity:0.8;}.cls-10{fill:#f6921e;}</style></defs><title>Asset 30</title><g id="Layer_2" data-name="Layer 2"><g id="Слой_1" data-name="Слой 1"><path class="cls-1" d="M122.87,209.63c4,6.52,3.9,7.8-1,14.7.39.85.85,1.71,1.2,2.62,2.11,5.53.79,9.82-4.62,12.2-2.87,1.27-3.93,3.22-4.63,5.74a12.73,12.73,0,0,1-10.1,9.57c-7.39,1.71-14.42,1.17-20.52-3.72a19,19,0,0,1-4.53-5.7,6.62,6.62,0,0,0-4.85-3.67c-5.82-1.12-8.33-5.25-9.77-10.47-.73-2.64-1.66-5.23-2.54-7.82A22.19,22.19,0,0,1,60.08,219a21.37,21.37,0,0,0-2.27-7.87c-1.64-3.11-1.37-6.34,1.14-8.59-4.93-4.2-9.72-8.37-14.61-12.42a23.28,23.28,0,0,1-6.51-9.69c-4.51-11.21-8.06-22.69-6.62-34.92,1.26-10.72,3-21.4,5.12-32a147.51,147.51,0,0,1,5.72-20.85,176.8,176.8,0,0,1,8.32-18.88c2.89-5.88,6-11.67,9.41-17.26,1.84-3,4.45-5.6,6.8-8.3a37.22,37.22,0,0,1,5.08-5.26c8.62-6.58,22.52-7.42,33.43.93,7.61,5.83,12.17,13.67,16.35,21.86A128.68,128.68,0,0,1,131,91.47c2,7.75,5.11,15.24,7.17,23,3.9,14.63,6.54,29.46,5.27,44.73-.8,9.58-2.74,19-7.45,27.32-2.82,5-7.56,8.85-11.86,13.7C125.36,202.94,127.05,206.66,122.87,209.63Zm-47.62-10a1.55,1.55,0,0,0,0-.22c3.29,0,6.58.16,9.85,0,9.33-.54,18.66-1.78,28-1.65,6.88.1,11.65-2.93,15.75-7.52a40.24,40.24,0,0,0,9.86-21.14,100.67,100.67,0,0,0,1.05-25c-1.05-10.63-2.39-21.19-5.69-31.41-1.91-5.92-4.22-11.74-5.76-17.76A135.06,135.06,0,0,0,114.22,60.4,45.92,45.92,0,0,0,102.4,46.76c-8.82-6.86-21.49-7.11-30.06,0a47.69,47.69,0,0,0-9.77,10.93A176.17,176.17,0,0,0,51.4,78.51,183,183,0,0,0,34.89,147.4,65.1,65.1,0,0,0,37,167.86c4.14,14.79,12.56,25.81,27.36,31.25,1,.38,2.06,1.12,3.08,1.11C70,200.2,72.64,199.84,75.25,199.62ZM63.09,215.46c-.75,4.82.15,6.94,3.92,8.16a32.87,32.87,0,0,0,9.16,1.65c8.36.23,16.74.35,25.1,0,5.87-.23,11.83-.73,17.34-3.15,3.27-1.43,4.77-4.39,3.88-7.05-.83-2.48-3.53-3.94-6.84-3.54-9.58,1.13-19.16,2.43-28.76,3.43C79.08,215.8,71.27,217.39,63.09,215.46Zm3.76,11.87c.28,4.13.91,7.83,4.16,9.91a15.25,15.25,0,0,0,7.79,2.58c10.66,0,21.34-.34,32-1.15,3-.23,6.13-2.19,8.82-3.94,2.08-1.34,2.25-3.81,1.19-6.19s-2.89-2.86-5.27-2.25a25,25,0,0,1-5.28,1.08c-11,.35-22,.66-33,.79C73.88,228.2,70.5,227.64,66.85,227.33Zm38.22-27v.32c-7.84.49-15.69.9-23.53,1.5-5.87.46-11.75,1-17.59,1.79-3,.39-3.56,1.52-3.55,4.34,0,2.52,1.07,4.1,3.66,4.35,3.41.31,6.87,1,10.25.73q15.93-1.19,31.8-3a115.74,115.74,0,0,0,13.42-2.86c1.43-.34,2.82-1,2.77-2.92a3.79,3.79,0,0,0-3-3.94,9.57,9.57,0,0,0-2.44-.28C112.91,200.32,109,200.34,105.07,200.34Zm-24,42.84a28.38,28.38,0,0,0,1.54,3c5.3,7.56,18.34,7.85,24.14,4.19,3-1.9,5.28-4.67,5.25-9Z"/><path class="cls-2" d="M75.25,199.62c-2.61.22-5.22.58-7.84.6-1,0-2-.73-3.08-1.11-14.8-5.44-23.22-16.46-27.36-31.25a65.1,65.1,0,0,1-2.08-20.46A183,183,0,0,1,51.4,78.51a176.17,176.17,0,0,1,11.17-20.8,47.69,47.69,0,0,1,9.77-10.93c8.57-7.13,21.24-6.88,30.06,0A45.92,45.92,0,0,1,114.22,60.4a135.06,135.06,0,0,1,14.07,34.49c1.54,6,3.85,11.84,5.76,17.76,3.3,10.22,4.64,20.78,5.69,31.41a100.67,100.67,0,0,1-1.05,25,40.24,40.24,0,0,1-9.86,21.14c-4.1,4.59-8.87,7.62-15.75,7.52-9.31-.13-18.64,1.11-28,1.65-3.27.18-6.56,0-9.85,0A1.55,1.55,0,0,1,75.25,199.62Z"/><path class="cls-3" d="M139.74,144.06c-1.05-10.63-2.39-21.19-5.69-31.41-1.91-5.92-4.22-11.74-5.76-17.76A135.06,135.06,0,0,0,114.22,60.4,45.92,45.92,0,0,0,102.4,46.76c-.13-.11-.28-.19-.41-.3-7.44,3.77,3.28,22.95,5.64,27.6,6.29,12.36,12.9,24.48,16.28,38,4.4,17.61,7.68,38.71,4.44,56.73-.8,4.43-1.82,9-4.25,12.82-2.09,3.33-4.77,6.49-6.43,10.06-1.08,2.32-1.15,4.17-.55,5.66,4.79-.91,8.47-3.53,11.71-7.16a40.24,40.24,0,0,0,9.86-21.14A100.67,100.67,0,0,0,139.74,144.06Z"/><path class="cls-4" d="M63.09,215.46c8.18,1.93,16,.34,23.8-.47,9.6-1,19.18-2.3,28.76-3.43,3.31-.4,6,1.06,6.84,3.54.89,2.66-.61,5.62-3.88,7.05-5.51,2.42-11.47,2.92-17.34,3.15-8.36.32-16.74.2-25.1,0A32.87,32.87,0,0,1,67,223.62C63.24,222.4,62.34,220.28,63.09,215.46Z"/><path class="cls-5" d="M66.85,227.33c3.65.31,7,.87,10.39.83,11-.13,22-.44,33-.79a25,25,0,0,0,5.28-1.08c2.38-.61,4.19-.17,5.27,2.25s.89,4.85-1.19,6.19c-2.69,1.75-5.78,3.71-8.82,3.94-10.63.81-21.31,1.1-32,1.15A15.25,15.25,0,0,1,71,237.24C67.76,235.16,67.13,231.46,66.85,227.33Z"/><path class="cls-6" d="M105.07,200.34c3.92,0,7.84,0,11.77,0a9.57,9.57,0,0,1,2.44.28,3.79,3.79,0,0,1,3,3.94c0,1.91-1.34,2.58-2.77,2.92a115.74,115.74,0,0,1-13.42,2.86q-15.85,1.86-31.8,3c-3.38.25-6.84-.42-10.25-.73-2.59-.25-3.66-1.83-3.66-4.35,0-2.82.58-3.95,3.55-4.34,5.84-.79,11.72-1.33,17.59-1.79,7.84-.6,15.69-1,23.53-1.5Z"/><path class="cls-7" d="M81.08,243.18,112,241.33c0,4.37-2.22,7.14-5.25,9-5.8,3.66-18.84,3.37-24.14-4.19A28.38,28.38,0,0,1,81.08,243.18Z"/><path class="cls-8" d="M92.72,121.57c-3.88-1.74-7-1.51-10.13,1a53.53,53.53,0,0,1,2.31,7,23.67,23.67,0,0,1,.22,6.83c-.38,3.25-2,4.77-4.49,5a6.44,6.44,0,0,1-6.46-3.58A12.67,12.67,0,0,1,74.51,126l2.38-4.26c-2.12-2.76-4.81-3.39-7.93-2.56-3.85,1-5.18,3.14-4.12,7,2.81,10.11,6.08,20.11,8.49,30.31,2.19,9.24,3.5,18.69,5.17,28a21.06,21.06,0,0,1,.48,4.38,2.18,2.18,0,0,1-1.48,1.55,2.2,2.2,0,0,1-1.78-1.2,35.74,35.74,0,0,1-.92-5.83c-1.46-17.79-6.36-34.79-11.65-51.71-.59-1.87-1.19-3.75-1.72-5.64a7.79,7.79,0,0,1,4.77-9.8c4.6-1.86,7.87-1.25,13.67,2.54,9.24-2.63,9.24-2.63,15.07-.53,11.06-7.6,15.83-5.61,20.13.51-1.76,4.53-4,8.59-4.9,12.93-3.54,16.54-6.63,33.16-6.22,50.2,0,1.64.16,3.28.21,4.92s-.25,3-2.65,3.43a8.3,8.3,0,0,1-1-2.75c0-12.44.39-24.84,3-37.09,1.41-6.74,2.3-13.58,3.56-20.35.62-3.33,1.54-6.59,2.38-10.09-4.09-1.19-7.17.49-10.66,1.34.72,2.54,1.41,4.84,2,7.16a11.18,11.18,0,0,1-1.09,8.11c-1,1.9-2.64,3.45-4.65,2.94a6.68,6.68,0,0,1-3.78-3.41,13,13,0,0,1-.31-10.08C91.41,124.68,92,123.33,92.72,121.57ZM80.73,138c3-4.49,1-8.42-1.09-12.67C74.82,131.65,75.27,136.29,80.73,138Zm14.29-2c3.48-3.8,3.43-7.43.27-10.74A12.08,12.08,0,0,0,95,136.06Z"/><path class="cls-9" d="M63,101.15c-5.56-.05-8.69-3.77-8.09-9.28A53,53,0,0,1,61.69,70.4c4.78-8,11.75-13.22,21.68-13,3.26.07,6.43.86,7.52,4.35a8.37,8.37,0,0,1-2.76,9.35c-1.74,1.46-3.68,3-5.8,3.63-5.54,1.52-7,5.61-8.22,10.53-1,4.08-2.78,8-4.35,11.91C68.48,100.39,65.77,101.29,63,101.15Z"/><path class="cls-1" d="M55.18,103.62a5.58,5.58,0,1,1-.71,11.14c-3.76-.1-6-2.37-5.83-5.8C48.83,105.88,51.7,103.54,55.18,103.62Z"/><path class="cls-10" d="M82.32,2c.8,7.47,3.28,16.87-.47,23.86l2.91-.77c-7-5.17-15.14-10.92-23.93-12.3a2.16,2.16,0,0,0-2.69,2c.35,6.27,3.1,11.45,5.37,17.19l2.61-2.62c-7.94-1.78-15.68-5.83-24-5.36a2.17,2.17,0,0,0-2,2.69c1.44,9.58,10.15,15.78,14.57,23.92l2.4-3.12c-11.69-2.33-23.42-4.48-35.31-5.36-1.79-.14-2.41,1.86-1.84,3.19,3.83,9,14.49,11.89,18.88,20.4.43-1,.85-2.08,1.27-3.12-7.8,1.36-15.73.73-23.6.68-1.51,0-2.79,1.85-1.84,3.19,4.51,6.37,11.81,8.57,17.71,13.28.31-1.19.62-2.37.94-3.55-9.6,1.43-19.59.77-28.71,4.53-1.39.57-2.22,2.34-.94,3.55,6.83,6.42,15.56,9.85,23.85,13.93L28,94.4c-7.31,2.95-15.35,3.11-22.66,6-1.46.58-2.41,3.06-.51,3.88,6.58,2.83,13.88,4.68,19.64,9.06v-3.67c-7.93,4-15.48,8.8-23.42,12.85-1.51.77-1.23,2.83,0,3.67a50.63,50.63,0,0,0,22.23,8.59c2.71.36,2.67-3.9,0-4.24a46.32,46.32,0,0,1-20.08-8v3.67c7.93-4,15.48-8.8,23.41-12.85,1.57-.8,1.17-2.78,0-3.67-5.75-4.38-13.07-6.24-19.64-9.06-.16,1.3-.33,2.59-.5,3.88,7.31-2.94,15.35-3.1,22.66-6,1.53-.61,2.34-3,.51-3.88-7.93-3.9-16.47-7.12-23-13.27-.31,1.19-.63,2.37-.94,3.55,9.09-3.74,19.13-3.09,28.71-4.53a2.13,2.13,0,0,0,.93-3.55c-5.43-4.34-12.93-6.59-17-12.41l-1.83,3.2c8.28,0,16.53.6,24.73-.84,1.43-.24,1.85-2,1.27-3.12-4.41-8.53-15.11-11.56-18.88-20.39l-1.83,3.2c11.52.85,22.86,3,34.18,5.21a2.15,2.15,0,0,0,2.4-3.12C54.1,40.76,45.56,34.74,44.19,25.64l-2,2.69C50,27.88,57.46,31.85,65,33.54c1.42.32,3.25-1,2.62-2.61-2.1-5.29-4.9-10.27-5.22-16.06-.89.69-1.79,1.37-2.69,2.05,8.43,1.33,16.19,6.91,22.91,11.87A2.13,2.13,0,0,0,85.52,28c4.24-7.91,2-17.54,1-26C86.27-.66,82-.69,82.32,2Z"/><path class="cls-10" d="M102.76,7.32V32.25A2.85,2.85,0,0,0,104.84,35c10.11,2.09,20.06-1.19,30.21-.66l-2.73-3.58C130.57,38.29,126.74,45,123.54,52c-.68,1.5-.27,3.83,1.69,4.16,7.78,1.3,15.67.21,23.42,1.51l-2-3.49c-2.73,7.52-10.72,11.67-14.06,19a2.9,2.9,0,0,0,1.69,4.16c6.4,2.66,13.85,3.55,19.14,8.33v-4c-4.83,4.76-10,9.18-15.1,13.6-1.74,1.48-.61,4.09,1.24,4.73,6.83,2.36,14,3.09,21.15,3.88,3.63.4,3.59-5.27,0-5.67-6.66-.73-13.28-1.48-19.64-3.67.42,1.58.84,3.15,1.25,4.73,5.15-4.41,10.27-8.84,15.11-13.6a2.84,2.84,0,0,0,0-4c-6.16-5.58-14.21-6.7-21.65-9.79.57,1.38,1.13,2.77,1.7,4.16,3.57-7.79,11.65-12.11,14.63-20.32a2.83,2.83,0,0,0-2-3.49c-7.78-1.29-15.67-.21-23.42-1.51l1.69,4.17c3.4-7.44,7.49-14.56,9.35-22.59a2.87,2.87,0,0,0-2.73-3.58c-9.58-.51-19.2,2.82-28.7.85l2.07,2.74V7.32c0-3.66-5.66-3.66-5.66,0Z"/><path class="cls-10" d="M23.26,142A39.25,39.25,0,0,0,7.4,143.57c-2.53.78-2.6,3.75-.68,5.18,4.19,3.13,8.93,5.26,13.6,7.56v-4.89c-5.58,2.4-10.79,5-14.93,9.5-1.29,1.42-1,4.37,1.25,4.74a111.14,111.14,0,0,0,15.86,1.61q-1.21-2.13-2.45-4.26c-5.23,8.09-11.13,15.75-15.86,24.17-1.13,2,.76,5.06,3.2,4.16a88.46,88.46,0,0,1,18.89-5.19l-2.84-2.83c-.24,7.93-2.81,15.56-3.77,23.42-.28,2.28,2.57,3.32,4.26,2.44,4.28-2.22,8.38-4.82,12.92-6.51l-3.48-2c2,6.7,1.46,13.51,1.41,20.4,0,2.64,3,3.53,4.83,2,3.69-3.1,6.89-6.71,10.58-9.82,2.79-2.36-1.24-6.34-4-4-3.69,3.1-6.89,6.71-10.57,9.82l4.83,2c.06-7.41.49-14.71-1.61-21.91a2.84,2.84,0,0,0-3.49-2c-5,1.86-9.53,4.63-14.27,7.08l4.26,2.45c1-7.88,3.53-15.44,3.78-23.42,0-1.39-1.33-3-2.83-2.83a93.72,93.72,0,0,0-20.4,5.39Q7.49,188,9.08,190C13.81,181.62,19.71,174,25,165.87a2.87,2.87,0,0,0-2.45-4.27,98.65,98.65,0,0,1-14.35-1.41c.41,1.58.83,3.16,1.25,4.74,3.81-4.2,8.66-6.42,13.77-8.62,1.93-.83,1.78-4,0-4.89-4.67-2.3-9.4-4.43-13.59-7.56-.23,1.73-.45,3.45-.68,5.18a34.9,34.9,0,0,1,14.36-1.41c3.63.39,3.59-5.28,0-5.67Z"/><path class="cls-10" d="M166.78,117c-6.81.07-13.59.68-20.4.75a2.14,2.14,0,0,0-1.83,3.2c4.77,7.5,14,9.33,20,15.54v-3c-4,3.56-9.15,4.83-14.17,6.26a2.14,2.14,0,0,0-.51,3.88c7.82,4.63,15.94,8.82,22.23,15.53.15-1.11.29-2.23.43-3.34-4.93,2.92-10.65,3.62-16.11,5.08a2.14,2.14,0,0,0-.94,3.55c5.32,4.57,10.62,9.2,14,15.43.43-1,.85-2.08,1.27-3.12-6.65,2.16-13.7,1.49-20.58,1.43a2.16,2.16,0,0,0-2,2.69c1.93,9.44,8,17.24,10.58,26.44l2.61-2.61a251.18,251.18,0,0,0-24.93-8.31,2.12,2.12,0,0,0-2.61,1.48,80.13,80.13,0,0,0-.83,13.41c0,2.74,4.24,2.74,4.25,0a74.14,74.14,0,0,1,.67-12.28l-2.61,1.49a251.12,251.12,0,0,1,24.93,8.3c1.55.62,3-1.17,2.61-2.61-2.6-9.2-8.64-17-10.57-26.44l-2.05,2.69c7.27.06,14.69.7,21.71-1.58a2.15,2.15,0,0,0,1.27-3.12c-3.57-6.55-9.09-11.49-14.68-16.3-.31,1.19-.63,2.37-.94,3.55,5.84-1.55,11.85-2.38,17.13-5.5a2.16,2.16,0,0,0,.43-3.34c-6.54-7-15-11.37-23.09-16.19l-.51,3.88c5.8-1.64,11.46-3.25,16-7.34a2.14,2.14,0,0,0,0-3c-5.6-5.84-14.9-7.74-19.3-14.67-.62,1.06-1.23,2.13-1.84,3.19,6.81-.07,13.59-.68,20.4-.75,2.74,0,2.74-4.28,0-4.25Z"/></g></g></svg>