<svg xmlns="http://www.w3.org/2000/svg" viewBox="0 0 1037.66 2649.88"><defs><style>.cls-1{fill:none;stroke:#666;stroke-miterlimit:10;stroke-width:9px;}.cls-10,.cls-2{fill:#fff;}.cls-10,.cls-2,.cls-3,.cls-4,.cls-5,.cls-6,.cls-7,.cls-8,.cls-9{fill-rule:evenodd;}.cls-3{fill:#ffde00;}.cls-4{fill:#f9b233;opacity:0.6;}.cls-5{fill:#9d9d9c;}.cls-6{fill:#878787;}.cls-7{fill:#b2b2b2;}.cls-8{fill:#dadada;}.cls-9{fill:#f39200;}.cls-10{opacity:0.8;}.cls-11{fill:#f6921e;}</style></defs><title>lamp-plus-line</title><g id="Layer_2" data-name="Layer 2"><g id="Слой_1" data-name="Слой 1"><path class="cls-1" d="M873.93,247s-6.07,30.66,0,38,147.4-2.66,155.4,0,1.08,100.31.42,107.65,3.33,16.66-23.34,14-969.5,0-985.11,8-9.84,296.16-9.84,296.16-14.94,37-1,53.49,103.24,6,103.24,6,81-1.5,100.83-6,57.31-6,57.31-6,169.77-5.09,221.59-13.6c33.82-5.55,87.57.66,120.82,5.64a276.78,276.78,0,0,0,61.08,2.37c27.79-2,68.89-4.31,102-3.41,55.5,1.5,172.49-10.9,190.49-.2s30.77,324.13,0,380.17c-30.56,55.68-346.94,0-376.71,0s-130.86-16.5-130.86,98.16v701.07s-1.81,158.7.6,220.7,53.44,481.56,28.92,490a116.8,116.8,0,0,1-31,6.17"/><path class="cls-2" d="M897.39,209.63c4,6.52,3.9,7.8-1,14.7.39.85.86,1.71,1.2,2.62,2.11,5.53.79,9.82-4.61,12.2-2.87,1.27-3.93,3.22-4.64,5.74a12.72,12.72,0,0,1-10.1,9.57c-7.38,1.71-14.41,1.17-20.51-3.72a18.67,18.67,0,0,1-4.53-5.7,6.61,6.61,0,0,0-4.86-3.67c-5.81-1.12-8.33-5.25-9.77-10.47-.72-2.64-1.66-5.23-2.54-7.82a22.14,22.14,0,0,1-1.46-4.13,21.76,21.76,0,0,0-2.27-7.87c-1.64-3.11-1.38-6.34,1.14-8.59-4.93-4.2-9.73-8.37-14.61-12.42-3.15-2.61-5-6-6.52-9.69-4.51-11.21-8.05-22.69-6.62-34.92,1.26-10.72,3-21.4,5.12-32a150.24,150.24,0,0,1,5.72-20.85,178.9,178.9,0,0,1,8.33-18.88c2.88-5.88,6-11.67,9.41-17.26,1.84-3,4.44-5.6,6.79-8.3a37.79,37.79,0,0,1,5.08-5.26c8.63-6.58,22.53-7.42,33.43.93,7.61,5.83,12.17,13.67,16.35,21.86a128.68,128.68,0,0,1,9.54,25.76c2,7.75,5.11,15.24,7.17,23,3.91,14.63,6.54,29.46,5.27,44.73-.79,9.58-2.73,19-7.45,27.32-2.81,5-7.56,8.85-11.85,13.7C899.88,202.94,901.58,206.66,897.39,209.63Zm-47.61-10a1.7,1.7,0,0,1,0-.22c3.28,0,6.57.16,9.85,0,9.32-.54,18.65-1.78,28-1.65,6.89.1,11.65-2.93,15.75-7.52a40.16,40.16,0,0,0,9.86-21.14,100.2,100.2,0,0,0,1.06-25c-1.06-10.63-2.39-21.19-5.69-31.41-1.91-5.92-4.22-11.74-5.76-17.76A135.09,135.09,0,0,0,888.74,60.4a46,46,0,0,0-11.81-13.64c-8.83-6.86-21.49-7.11-30.07,0a48.16,48.16,0,0,0-9.77,10.93,179.15,179.15,0,0,0-11.17,20.8,183,183,0,0,0-16.51,68.89,65.7,65.7,0,0,0,2.08,20.46c4.14,14.79,12.56,25.81,27.36,31.25,1,.38,2.06,1.12,3.09,1.11C844.55,200.2,847.16,199.84,849.78,199.62Zm-12.16,15.84c-.75,4.82.14,6.94,3.92,8.16a32.87,32.87,0,0,0,9.15,1.65c8.36.23,16.75.35,25.1,0,5.88-.23,11.83-.73,17.34-3.15,3.27-1.43,4.77-4.39,3.89-7.05-.84-2.48-3.53-3.94-6.84-3.54C880.59,212.69,871,214,861.41,215,853.61,215.8,845.8,217.39,837.62,215.46Zm3.75,11.87c.28,4.13.91,7.83,4.17,9.91a15.22,15.22,0,0,0,7.78,2.58c10.66,0,21.34-.34,32-1.15,3-.23,6.13-2.19,8.82-3.94,2.08-1.34,2.25-3.81,1.19-6.19s-2.89-2.86-5.27-2.25a25,25,0,0,1-5.28,1.08c-11,.35-22,.66-33,.79C848.4,228.2,845,227.64,841.37,227.33Zm38.22-27v.32c-7.84.49-15.69.9-23.52,1.5-5.88.46-11.76,1-17.6,1.79-3,.39-3.55,1.52-3.55,4.34,0,2.52,1.07,4.1,3.66,4.35,3.42.31,6.87,1,10.26.73q15.92-1.19,31.79-3a115.29,115.29,0,0,0,13.42-2.86c1.43-.34,2.83-1,2.77-2.92a3.79,3.79,0,0,0-3-3.94,9.47,9.47,0,0,0-2.44-.28C887.44,200.32,883.51,200.34,879.59,200.34Zm-24,42.84a26.38,26.38,0,0,0,1.55,3c5.3,7.56,18.34,7.85,24.13,4.19,3-1.9,5.28-4.67,5.26-9Z"/><path class="cls-3" d="M849.78,199.62c-2.62.22-5.23.58-7.84.6-1,0-2.05-.73-3.09-1.11-14.8-5.44-23.22-16.46-27.36-31.25a65.7,65.7,0,0,1-2.08-20.46,183,183,0,0,1,16.51-68.89,179.15,179.15,0,0,1,11.17-20.8,48.16,48.16,0,0,1,9.77-10.93c8.58-7.13,21.24-6.88,30.07,0A46,46,0,0,1,888.74,60.4a135.09,135.09,0,0,1,14.08,34.49c1.54,6,3.85,11.84,5.76,17.76,3.3,10.22,4.63,20.78,5.69,31.41a100.2,100.2,0,0,1-1.06,25,40.16,40.16,0,0,1-9.86,21.14c-4.1,4.59-8.86,7.62-15.75,7.52-9.31-.13-18.64,1.11-28,1.65-3.28.18-6.57,0-9.85,0A1.7,1.7,0,0,0,849.78,199.62Z"/><path class="cls-4" d="M914.27,144.06c-1.06-10.63-2.39-21.19-5.69-31.41-1.91-5.92-4.22-11.74-5.76-17.76A135.09,135.09,0,0,0,888.74,60.4a46,46,0,0,0-11.81-13.64l-.42-.3c-7.43,3.77,3.28,22.95,5.65,27.6,6.28,12.36,12.89,24.48,16.28,38,4.39,17.61,7.67,38.71,4.43,56.73-.79,4.43-1.81,9-4.24,12.82-2.1,3.33-4.77,6.49-6.44,10.06-1.08,2.32-1.15,4.17-.55,5.66,4.79-.91,8.47-3.53,11.71-7.16a40.16,40.16,0,0,0,9.86-21.14A100.2,100.2,0,0,0,914.27,144.06Z"/><path class="cls-5" d="M837.62,215.46c8.18,1.93,16,.34,23.79-.47,9.61-1,19.18-2.3,28.77-3.43,3.31-.4,6,1.06,6.84,3.54.88,2.66-.62,5.62-3.89,7.05-5.51,2.42-11.46,2.92-17.34,3.15-8.35.32-16.74.2-25.1,0a32.87,32.87,0,0,1-9.15-1.65C837.76,222.4,836.87,220.28,837.62,215.46Z"/><path class="cls-6" d="M841.37,227.33c3.66.31,7,.87,10.4.83,11-.13,22-.44,33-.79a25,25,0,0,0,5.28-1.08c2.38-.61,4.19-.17,5.27,2.25s.89,4.85-1.19,6.19c-2.69,1.75-5.78,3.71-8.82,3.94-10.63.81-21.31,1.1-32,1.15a15.22,15.22,0,0,1-7.78-2.58C842.28,235.16,841.65,231.46,841.37,227.33Z"/><path class="cls-7" d="M879.59,200.34c3.92,0,7.85,0,11.77,0a9.47,9.47,0,0,1,2.44.28,3.79,3.79,0,0,1,3,3.94c.06,1.91-1.34,2.58-2.77,2.92a115.29,115.29,0,0,1-13.42,2.86q-15.86,1.86-31.79,3c-3.39.25-6.84-.42-10.26-.73-2.59-.25-3.65-1.83-3.66-4.35,0-2.82.58-3.95,3.55-4.34,5.84-.79,11.72-1.33,17.6-1.79,7.83-.6,15.68-1,23.52-1.5Z"/><path class="cls-8" d="M855.6,243.18l30.94-1.85c0,4.37-2.23,7.14-5.26,9-5.79,3.66-18.83,3.37-24.13-4.19A26.38,26.38,0,0,1,855.6,243.18Z"/><path class="cls-9" d="M867.24,121.57c-3.88-1.74-7-1.51-10.13,1a52.07,52.07,0,0,1,2.31,7,23,23,0,0,1,.22,6.83c-.37,3.25-1.95,4.77-4.48,5a6.43,6.43,0,0,1-6.46-3.58c-1.7-3.94-1.84-7.9.33-11.77.79-1.4,1.57-2.81,2.39-4.26-2.13-2.76-4.81-3.39-7.94-2.56-3.84,1-5.18,3.14-4.11,7,2.8,10.11,6.07,20.11,8.49,30.31,2.18,9.24,3.49,18.69,5.16,28a21.07,21.07,0,0,1,.49,4.38,1.67,1.67,0,0,1-3.27.35,35.74,35.74,0,0,1-.92-5.83c-1.45-17.79-6.36-34.79-11.65-51.71-.59-1.87-1.18-3.75-1.72-5.64a7.8,7.8,0,0,1,4.77-9.8c4.6-1.86,7.88-1.25,13.67,2.54,9.24-2.63,9.24-2.63,15.08-.53,11-7.6,15.82-5.61,20.13.51-1.76,4.53-4,8.59-4.91,12.93-3.53,16.54-6.63,33.16-6.21,50.2,0,1.64.16,3.28.21,4.92s-.26,3-2.65,3.43a8.11,8.11,0,0,1-1-2.75c0-12.44.4-24.84,3-37.09,1.41-6.74,2.3-13.58,3.56-20.35.62-3.33,1.55-6.59,2.39-10.09-4.1-1.19-7.17.49-10.67,1.34.73,2.54,1.41,4.84,2,7.16a11.23,11.23,0,0,1-1.08,8.11c-1,1.9-2.64,3.45-4.66,2.94a6.66,6.66,0,0,1-3.77-3.41,13,13,0,0,1-.32-10.08C865.93,124.68,866.53,123.33,867.24,121.57Zm-12,16.47c3-4.49,1-8.42-1.09-12.67C849.35,131.65,849.79,136.29,855.26,138Zm14.28-2c3.48-3.8,3.43-7.43.28-10.74A12,12,0,0,0,869.54,136.06Z"/><path class="cls-10" d="M837.55,101.15c-5.55-.05-8.68-3.77-8.08-9.28a52.82,52.82,0,0,1,6.75-21.47c4.77-8,11.74-13.22,21.67-13,3.26.07,6.43.86,7.53,4.35a8.41,8.41,0,0,1-2.76,9.35c-1.74,1.46-3.69,3-5.8,3.63-5.55,1.52-7,5.61-8.22,10.53-1,4.08-2.79,8-4.35,11.91C843,100.39,840.29,101.29,837.55,101.15Z"/><path class="cls-2" d="M829.7,103.62a5.58,5.58,0,1,1-.71,11.14c-3.76-.1-6-2.37-5.83-5.8C823.35,105.88,826.22,103.54,829.7,103.62Z"/><path class="cls-11" d="M856.84,2c.81,7.47,3.28,16.87-.46,23.86l2.9-.77c-7-5.17-15.13-10.92-23.92-12.3a2.16,2.16,0,0,0-2.69,2c.34,6.27,3.09,11.45,5.36,17.19l2.62-2.62c-7.95-1.78-15.69-5.83-24-5.36a2.16,2.16,0,0,0-2,2.69c1.44,9.58,10.15,15.78,14.56,23.92l2.4-3.12c-11.69-2.33-23.41-4.48-35.31-5.36-1.79-.14-2.41,1.86-1.84,3.19,3.84,9,14.49,11.89,18.89,20.4l1.27-3.12c-7.8,1.36-15.73.73-23.61.68a2.13,2.13,0,0,0-1.83,3.19c4.5,6.37,11.8,8.57,17.7,13.28.32-1.19.63-2.37.94-3.55-9.59,1.43-19.58.77-28.7,4.53-1.39.57-2.22,2.34-.94,3.55C785,90.78,793.71,94.21,802,98.29c.17-1.3.33-2.59.5-3.89-7.31,2.95-15.34,3.11-22.66,6-1.46.58-2.41,3.06-.51,3.88,6.58,2.83,13.89,4.68,19.64,9.06v-3.67c-7.93,4-15.48,8.8-23.41,12.85-1.52.77-1.23,2.83,0,3.67a50.64,50.64,0,0,0,22.22,8.59c2.71.36,2.68-3.9,0-4.24a46.42,46.42,0,0,1-20.08-8v3.67c7.94-4,15.48-8.8,23.42-12.85,1.57-.8,1.16-2.78,0-3.67-5.76-4.38-13.07-6.24-19.64-9.06l-.51,3.88c7.32-2.94,15.35-3.1,22.66-6,1.53-.61,2.34-3,.51-3.88-7.92-3.9-16.46-7.12-23-13.27l-.93,3.55c9.08-3.74,19.13-3.09,28.7-4.53a2.14,2.14,0,0,0,.94-3.55c-5.44-4.34-12.93-6.59-17-12.41L791,67.61c8.29,0,16.53.6,24.74-.84,1.42-.24,1.85-2,1.27-3.12-4.41-8.53-15.11-11.56-18.89-20.39l-1.83,3.2c11.52.85,22.86,3,34.18,5.21a2.15,2.15,0,0,0,2.4-3.12c-4.22-7.79-12.77-13.81-14.14-22.91l-2.05,2.69c7.86-.45,15.32,3.52,22.86,5.21,1.42.32,3.25-1,2.61-2.61-2.1-5.29-4.9-10.27-5.21-16.06l-2.69,2.05c8.42,1.33,16.19,6.91,22.91,11.87A2.11,2.11,0,0,0,860,28c4.24-7.91,2-17.54,1.05-26-.29-2.69-4.54-2.72-4.25,0Z"/><path class="cls-11" d="M877.28,7.32V32.25A2.85,2.85,0,0,0,879.36,35c10.12,2.09,20.06-1.19,30.22-.66l-2.74-3.58C905.09,38.29,901.26,45,898.07,52c-.69,1.5-.27,3.83,1.69,4.16,7.77,1.3,15.66.21,23.41,1.51-.66-1.16-1.32-2.32-2-3.49-2.73,7.52-10.72,11.67-14.07,19a2.91,2.91,0,0,0,1.69,4.16c6.4,2.66,13.86,3.55,19.15,8.33v-4c-4.84,4.76-10,9.18-15.11,13.6-1.73,1.48-.61,4.09,1.25,4.73,6.83,2.36,14,3.09,21.15,3.88,3.63.4,3.59-5.27,0-5.67-6.66-.73-13.28-1.48-19.64-3.67.41,1.58.83,3.15,1.25,4.73,5.14-4.41,10.27-8.84,15.1-13.6a2.84,2.84,0,0,0,0-4c-6.15-5.58-14.2-6.7-21.64-9.79.56,1.38,1.13,2.77,1.69,4.16,3.57-7.79,11.66-12.11,14.64-20.32a2.83,2.83,0,0,0-2-3.49c-7.77-1.29-15.66-.21-23.42-1.51l1.7,4.17c3.4-7.44,7.48-14.56,9.35-22.59a2.87,2.87,0,0,0-2.73-3.58c-9.58-.51-19.2,2.82-28.71.85.69.91,1.39,1.82,2.08,2.74V7.32c0-3.66-5.67-3.66-5.67,0Z"/><path class="cls-11" d="M797.78,142a39.25,39.25,0,0,0-15.86,1.61c-2.52.78-2.59,3.75-.68,5.18,4.19,3.13,8.93,5.26,13.6,7.56v-4.89c-5.58,2.4-10.78,5-14.93,9.5-1.29,1.42-1,4.37,1.25,4.74A111.14,111.14,0,0,0,797,167.27L794.58,163c-5.24,8.09-11.14,15.75-15.86,24.17-1.14,2,.75,5.06,3.19,4.16a88.62,88.62,0,0,1,18.89-5.19L798,183.32c-.25,7.93-2.82,15.56-3.78,23.42-.28,2.28,2.57,3.32,4.26,2.44,4.29-2.22,8.39-4.82,12.92-6.51l-3.48-2c2,6.7,1.47,13.51,1.41,20.4,0,2.64,3,3.53,4.84,2,3.68-3.1,6.88-6.71,10.57-9.82,2.8-2.36-1.23-6.34-4-4-3.68,3.1-6.88,6.71-10.57,9.82l4.84,2c.06-7.41.48-14.71-1.62-21.91a2.83,2.83,0,0,0-3.48-2c-5,1.86-9.54,4.63-14.27,7.08l4.26,2.45c1-7.88,3.52-15.44,3.77-23.42a2.82,2.82,0,0,0-2.83-2.83,93.63,93.63,0,0,0-20.39,5.39c1.07,1.38,2.13,2.77,3.2,4.16,4.73-8.42,10.63-16.08,15.86-24.17A2.86,2.86,0,0,0,797,161.6a98.78,98.78,0,0,1-14.35-1.41c.42,1.58.83,3.16,1.25,4.74,3.82-4.2,8.66-6.42,13.78-8.62,1.92-.83,1.78-4,0-4.89-4.67-2.3-9.41-4.43-13.6-7.56-.22,1.73-.45,3.45-.67,5.18a34.86,34.86,0,0,1,14.35-1.41c3.63.39,3.59-5.28,0-5.67Z"/><path class="cls-11" d="M941.3,117c-6.8.07-13.59.68-20.39.75a2.15,2.15,0,0,0-1.84,3.2c4.77,7.5,14,9.33,20,15.54v-3c-4,3.56-9.14,4.83-14.17,6.26a2.14,2.14,0,0,0-.5,3.88c7.81,4.63,15.94,8.82,22.23,15.53.14-1.11.28-2.23.43-3.34-4.93,2.92-10.66,3.62-16.11,5.08a2.14,2.14,0,0,0-.94,3.55c5.31,4.57,10.62,9.2,14,15.43l1.27-3.12c-6.65,2.16-13.7,1.49-20.59,1.43a2.16,2.16,0,0,0-2,2.69c1.94,9.44,8,17.24,10.58,26.44l2.61-2.61a251.18,251.18,0,0,0-24.93-8.31,2.12,2.12,0,0,0-2.61,1.48,81.2,81.2,0,0,0-.83,13.41c0,2.74,4.25,2.74,4.25,0a74.15,74.15,0,0,1,.68-12.28l-2.61,1.49a250.94,250.94,0,0,1,24.92,8.3c1.55.62,3-1.17,2.62-2.61-2.61-9.2-8.65-17-10.58-26.44l-2.05,2.69c7.27.06,14.7.7,21.72-1.58a2.16,2.16,0,0,0,1.27-3.12c-3.58-6.55-9.1-11.49-14.69-16.3-.31,1.19-.62,2.37-.94,3.55,5.84-1.55,11.86-2.38,17.13-5.5a2.15,2.15,0,0,0,.43-3.34c-6.53-7-15-11.37-23.09-16.19l-.51,3.88c5.8-1.64,11.46-3.25,16-7.34a2.16,2.16,0,0,0,0-3c-5.61-5.84-14.9-7.74-19.31-14.67L920.91,122c6.8-.07,13.59-.68,20.39-.75,2.74,0,2.74-4.28,0-4.25Z"/></g></g></svg>