<svg width="1139" height="2277" xmlns="http://www.w3.org/2000/svg"><g fill="none" fill-rule="evenodd"><path d="M984.002 1s-5.718 69.552 0 78.022c5.718 8.47 138.854-3.081 146.39 0 7.536 3.08 1.027 115.75.396 124.208-.631 8.458 12.594 49.155-12.52 46.074-4.713-.578-47.533.144-101.543 0-233.843-.625-823.966-28.187-835.912-20.688-14.705 9.232-9.27 341.745-9.27 341.745s-14.073 42.695-.941 61.723c13.132 19.029 97.254 6.924 97.254 6.924s76.304-1.73 94.985-6.924c18.68-5.192 53.987-6.923 53.987-6.923s159.89-5.839 208.658-15.647c31.86-6.404 82.493.761 113.816 6.508a213.842 213.842 0 0 0 57.538 2.735c26.18-2.308 64.887-4.974 96.087-3.947 52.282 1.731 162.49-12.577 179.446-.23 16.956 12.346 65.414 1101.75 36.438 1166.415-28.798 64.25-316.699 0-344.743 0-9.886 0-108.836-24.867-118.551 45.47-.612 4.427-.134 124.536 0 128.772 2.26 71.544 19.726 177.404-3.382 187.143-9.426 3.983-19.25 6.378-29.203 7.12" stroke="#666" stroke-width="9"/><g fill-rule="nonzero"><path d="M506 2125.7a3.86 3.86 0 0 0-3.89-3.83l-29.18.22.06 7.72 29.18-.22a3.86 3.86 0 0 0 3.83-3.89zM506.35 2166.61a3.86 3.86 0 0 0-3.89-3.83l-29.17.22.06 7.72 29.18-.22a3.86 3.86 0 0 0 3.82-3.89z" fill="#D1D3D4"/><path fill="#666" d="M392.16 2140.8L0 2142.88l1.81 8.79 390.43-.15z"/><path fill="#5E5E5E" d="M415.17 2156.88l-.15-20.09 21.64-20.23.45 60.22z"/><path fill="#666" d="M436.7 2116.552l29.979-.225.452 60.219-29.98.225z"/><path fill="#666" d="M460.423 2110.315l12.59-.094.542 72.288-12.59.094zM392.27 2155.69l-.13-17.37 22.88-1.53.15 20.09z"/><path fill="#5E5E5E" d="M392.16 2140.8l.08 10.72h-6.47zM460.57 2146.49l.23 30.11-6.39.05z"/><path fill="#F6921E" d="M449.59 2234.14l-4.89 42.83 21.31-56.1-9.44-.25 4.9-42.82-21.31 56.1zM516.01 2229.38l18.32 36.89-12.04-56.07-7.7 4.7-18.32-36.89 12.04 56.07z"/><path fill="#666" d="M617.9 2145.3l-46.4-1.45.09 8.31 46.52 2.09z"/><path fill="#5E5E5E" d="M548.58 2138.36l.15 20.1-21.64 20.22-.45-60.22z"/><path fill="#666" d="M496.723 2118.672l29.98-.225.452 60.219-29.98.225z"/><path fill="#5E5E5E" d="M503.18 2148.75l-.23-30.11 6.39-.05z"/><path fill="#666" d="M490.38 2112.68l12.59-.095.542 72.288-12.59.094zM571.48 2139.55l.13 17.37-22.88 1.54-.15-20.1z"/><path fill="#F6921E" d="M512.02 2065.52l4.89-42.83-21.31 56.11 9.44.24-4.9 42.83 21.32-56.1zM444.15 2067.13l-18.75-37.75 12.33 57.37 7.88-4.81 18.74 37.75-12.32-57.38z"/></g></g></svg>