<svg xmlns="http://www.w3.org/2000/svg" viewBox="0 0 261.49 73.43"><defs><style>.cls-1{isolation:isolate;}.cls-2{mix-blend-mode:multiply;}.cls-3{fill:#525252;}.cls-4{fill:#f1f2f2;}.cls-5{fill:#fff;}</style></defs><title>Asset 10</title><g class="cls-1"><g id="Layer_2" data-name="Layer 2"><g id="Слой_1" data-name="Слой 1"><g class="cls-2"><path class="cls-3" d="M261.49,65.65,259.8,4.94c-.71-.13-1.11-.74-1.9-.94,0,.15,0,.3.08.33-.1.28-.21-.24-.26-.34-.09.1-.34,0-.29.29-.11-.13-.15-.32-.45-.25.12.49-.19,0-.31.51-.16-.33-.46-.13-.63-.27,0,.23,0,.35.26.35-.16.34-.22-.24-.46-.15,0,.12.21.13.17.34a3.59,3.59,0,0,0-2.28-.73c0,.13.15.28.18.12,0,.53-1-.53-1.28-.32-.08-.69-1.52-.08-2.22-.08-.13,0-.27-.23-.26-.23s-1,.65-1.31.1c.06.36-1.24,0-1.1-.2-.28-.07-.22.31-.56.17.07.16.29.18.45.25-.85.37-1.45-.2-2-.59-.11,0-.19.11-.2.3-.2,0,0-.38-.06-.54-.27.29-.5.12-.67.37-.63-.66-1.62-.23-1.92-.48.07.16-.34.2-.2.3-.44.22-.37-.31-.91-.29-.21.06.15.37.25.45,0,.27-.52-.51-.9-.5-.23.08.2.33.06.65-.48-.4-.17-.44-.51-.8-.13,0-.09.26-.12.42-.41-.44-.82-.69-1.19-.2-.07-.64-.4.83-.33.22-.29.32-.49-.69-.68-.31-.28-.09.11.46,0,.26-.38.39-1-.58-1.09.19,0-.42-.13-.26-.49-.22s.1-.49,0-.25c-.2-.1-.16.26-.42.21-.46.34-1-.05-1.43-.26-.23.05.16.3.06.54,0-.2-.44-.44-.37.08-.21,0-.09-.32-.26-.35s-.48.67-.56.06c-.17,0-.08.36-.21.42-.31-.08.18-.58-.06-.55s-.06.22-.12.42c-.07-.42-.78.08-.53-.37-.3.11-.51.4-.84.15.21.23.08.18.15.55-.32-.14-.45.19-.82-.18-.17.2,0,.14,0,.43-.41.19-1.68-.62-1.75,0-.43.12-1-.4-1.39,0-.3-.47-.8,0-1.28-.32,0,.18.14.29,0,.32-.32,0,0-.16-.16-.44-.68.11-.13-.16-.82-.18,0,.13.16.11.27.13-.77.16-.81-.08-1.29-.21-.2,0-.06.37-.12.52s-1.27-.26-.93.14c-.21.32-.93-.66-1,.13-.2-.4-.64-.14-.42.17a.52.52,0,0,1,.13.12.51.51,0,0,1-.13-.12A2.08,2.08,0,0,0,220.57,4c.06.11.21.12.17.33-.21.22-.52,0-.64-.16-.13.34.3.11.16.44-.35,0-.82-.18-.85.25-.26-.22-.12-.47-.43-.46s.29.23,0,.42c-.19-.71-1.46-.2-2,.16.4.57-.62,1.18-1.13,1.23,0,.1.06-.49.16-.46-.23,0-.57.72-.71.41-.32,0,.12-.2-.13-.26-.22-.37-.79,0-.68-.13-.28-.06-.23-.35-.33-.17-.57-.58-1.63,1.14-1.83.63-.14.08-.17-.35-.23-.16-.39,0-.5-.23-.82-.28-.5.68-1.45,0-1.88.48.19.24.45.39.43.57s-.33-.26-.54-.26a.28.28,0,0,0,.27.24,1.59,1.59,0,0,1-.84.14c0-.27-.43-.18-.17-.44-.16,0-.86,0-.47.18-.08.24-.43-.1-.45-.25-.13,0-.18.21-.2.41-.3-.27-.59.15-.84-.07-.1,0-.33.28-.11.31-.14.23-.29-.36-.43-.47s-.28.41-.67.27c0,.1.11.09.18.12-.31,0-.7.44-.91-.18-.29.14.09.42-.32.72.33,0,.31-.1.55,0-.84.26-1.42-.75-2-.81-.15,0,0,.22.11.3-.53-.15-1.55-.71-1.43,0-.68-.38-1.16.09-2-.49,0,.31-.51,0-.75.15.38.23.12.28,0,.64,0-.38-.61,0-.92-.08-.76-.1-1.59-.54-2.2-.4-.14.1,0,.18-.21.31-.83-.64-1.4.17-2,.26.06,0-.15-.38-.54-.15-.72.41-2,.11-3.14-.16-.32,0-.73.41-1,0,.1.34-.42,0-.28.19-.27.08-.84-.51-.93,0-.19-.66-.71-.26-1.09-.42.41.17-.36.4.25.45a9.11,9.11,0,0,1-2.36-.73c-.29.27-.67.36-.69.69-.19,0,0-.47-.16-.55s-.41.3-.36-.13c-.1.14-.51.33,0,.32-.28.29-.79-.16-1,0,0,.18.06.2.17.23-.84-.27-1.34.5-2.78.19-.15,0,.09-.19-.08-.22-.36-.17-.21.34-.57.17.06.31.13.13.36.13-.31.64-1.11-.17-1.65-.24-.41.16-.28.33-.5.71a9.51,9.51,0,0,1-2.75-.55c-.11,0-.32.09-.38.07-.26-.09-.56-.43-.18,0a12.52,12.52,0,0,1-1.8-1c-.34.08-.54.35-.94.35.32-.14-.24.64-.22.62s-.28,0-.28,0l-.1.09c.06.14-.14.15,0,0l-.08-.11c-.16-.15-.92.17-.58.38-1.18-.34-1.89-.15-3.11-.79-.05.15.35.29.08.33-.63-.93-1.62.36-2.29-.41-.12,0-.09.19-.12.31-.16-.45-.4-.22-.81-.39-.19,0,.12.35.16.45-.32,0-.52-.4-.89-.51a3.73,3.73,0,0,1-2.14.14c0,.16-.14.19-.3.41-.47-.33-.45.1-.66.16-1.21-.26-4.06-.78-5.29.09-.11,0-.43-.35-.45-.14-.13-.06,0-.1,0-.22-1.27.17-2.64-1-3.66-.73a.84.84,0,0,0,.64.16c0,.1.07.2.17.23-.17.22-.5-.07-.3.4-.79-.53-1.32.27-2-.28-.21-.06-.53.28-.3.41-.42.11-.93-.54-1.35-.76-.17.08-.14.42-.48.28a.67.67,0,0,0,.26.24c-.06.06-.92-.35-.7-.6a.51.51,0,0,1-.65-.05c-.16.39.41.06.25.45-.1-.13-.69-.33-.56.17-.41-.39-1.5-.44-1.82-.58-.67-.33-1.23,0-2,.47,0,.11.1.1.17.13-.85.24-1-.46-1.92-.38a.41.41,0,0,0,.36.25c.14.26-.56-.11-.64-.27-.17.21-.33.16-.21.52-.19-.05-.17-.31-.35-.35s0,.13,0,.31c-.77,0-2.74-.77-2.61.32-.92-.11-1.44.32-2.15.36a.2.2,0,0,1,.18-.19c-.52-.09-1-.78-1.7-.9s-2,.76-2.38-.42a.47.47,0,0,1-.38.08c-.05-.21-.27-.1-.07-.33-.33,0-.88.26-1.3,0-.31.75-1.58,0-1.79.6-.16-.22-.88-.87-1-.19-.09-.49-1.52-.25-.66.27-.16,0-.61-.46-.8-.71-.31.06,0,.23-.2.41-.14-.47-.22.19-.73-.28,0,.24-.45.26-.5.71-.43-.45-.48-.18-1.09-.41-.15.35-1.23,1-1.68.28a4.2,4.2,0,0,1-3.81.22c-.55,0-1.2.58-2,.16-.12,0-.1.21,0,.21-.67,0-2-.09-2.35.66-.58-.66-2.74.05-3.49-.5-1.55.28-2.65,1.09-4.58.58-.26.26-.11.35,0,.64a2.58,2.58,0,0,0-3.27.48.55.55,0,0,0,.11-.31,9.54,9.54,0,0,0-2.93,1c-.36-.83-1.46-.39-2-.92-.47.74-2.46.73-3.54.35,0,.53-1.15,0-1.59.29.06-.2-1.42-.42-1.84-.15,0-.19.08-.2.2-.2a7.54,7.54,0,0,0-2.57-.54.65.65,0,0,1,.07.44c-.09-.38-.9-.61-.82-.18-.19,0-.11-.3-.36-.24-.17.31-.54.35-.69.69a4.51,4.51,0,0,1-.63-.27c-.24,0,.11.2,0,.43-.85-.07-1.83-.71-2-.17-.18,0-.31-.14-.57.17,0-.11,0-.22,0-.32-.51.82-1.34.38-2.24.35-.11,0-.09.18-.11.31-1.18-.25-1.51.25-2.4-.2-.12,0-.08.21,0,.3l.14,0a.12.12,0,0,1-.14,0,9.79,9.79,0,0,0-2.37.14c0,.32.19.35.15.66s-.27-.07-.46-.15c0,.1.07.2.18.23-.05.41-.73-.26-.77.37-.69-.32-1.52-.1-2.37-.63a2.84,2.84,0,0,1-2.4-.2,1.69,1.69,0,0,1-1.32.53c-.18.62-.62.37-.9,1.11-.12-.73-.77-.1-.9-.51-.11,0-.08.19-.11.32-.93-.53-1.77-.18-2.64-.76-.45.62-.86.2-1.5.3,0,.23.06.35.26.35-.25.3-1.21-.18-.28,0a.81.81,0,0,1-.06-.54c-.17,0-.08.36-.21.41-.27-.64-1-.44-1.55-.45.13.14.21.33.45.36a6.19,6.19,0,0,0-3.16.16c-.13-.1-.29-.18-.26-.45-.12.23-.34.66-.57.39.19.17-.13.25.07.32-.54-.24-.75.49-1.58.19-.15,0,0,.11.08.12-1.24,1-3.48-1.39-5.17-.22-.69-.33-1.45,0-2.12-.29.32.58-1-.41-1.5.31.09-.35-.17-.18-.18,0-.13,0,0-.19.1-.2a.67.67,0,0,0-.26-.24c0,.13-.14.38-.57.27a1,1,0,0,1,0,.65c-.14.33-.07-.38-.06-.54-1.2-.53-1.7.63-2.43.44-.08.28.18.22.26.34-.08.23-.45.32-.57.17,0-.16.16.11.19-.09s-.18-.09-.17-.23a1.17,1.17,0,0,1-1.21.11,1,1,0,0,0-.31.62c-.41,0,.1-.27,0-.54-.43.64-.77.1-1.08,1-.11-.15-.16-.34-.27,0-.14-.06,0-.14,0-.33-.3-.06-.12.52-.57.28,0,.2.31.09.36.24.19.36-.53-.39-.65,0-.12-.05-.06-.27-.06-.44-.09.06-.16.29-.19.1-.14,0,0,.13,0,.32-.18-.06,0-.42-.35-.36s.08.3.16.34c-.15,0-.63-.5-.69-.92-.12.22-.44.18-.49.5-.14-.17.11-.53-.34-.57-.06.3-.09,0-.2.31-.09-.33-.36,0-.16-.34-.19-.05-.29,0-.29.19a3.19,3.19,0,0,1-.44-.46c-.38.1-.49.38-.93.14-.1.46.18-.08.17.22-.38.51-1,.1-1.15.77-1-.51-2.7-.22-3.09-1.23-.12,0-.09.26-.11.42a1.67,1.67,0,0,0-.8-.6c.49.4-.68.09-.74-.17-.12,0-.09.26-.11.42-.22-.07-.46-.5-1-.19-.11,0-.07-.2-.07-.33-.17.3-1.22-.36-1.59.19-.22-.2-.25-.29-.52-.58a.72.72,0,0,0-.2.3c.69.05-.18.52.22.88-.17.14-.45-.47-.51-.79a2.87,2.87,0,0,0-.51.81,2.07,2.07,0,0,1-1.79-1c-.42-.07-.65.32-1.11,0a1.55,1.55,0,0,0,0,1.18c.06.28-.28-.61-.42-.78-.13.29-.51.17-.57.27s-.07-.2-.07-.33c-.21-.05-.35,0-.38.18-.13,0-.06-.27-.07-.43a.5.5,0,0,0-.3.3c-.12-.23-.59-.55-.46.06-.34,0-.09-.51-.34-.56-.31.15.3.43,0,.64-.09-.09,0-.32-.15-.55-.13,0-.16.18-.29.19-.05.25.42,0,.26.34-.18-.25-.31.07-.46-.14.24.4,0,.3,0,.75,0-.61-1.07-.45-.82-.18-.14.18-.29-.48-.45-.36s0,.14,0,.32c-.2,0-.38-.68-.46-.14-.11,0-.07-.21-.07-.33s-.09.19-.11.31a1.92,1.92,0,0,0-.44-.46c-.13,0-.09.26-.12.41-.1,0-.06-.2-.07-.32-.27.07-.11.15-.12.42-.32,0-.19-.55-.62-.49.25.58,0,.05-.38.29.24-.4-.15.11-.08-.32-.21.3-.52,0-1,0-1.24-.78-2.56-1.13-3.23-2a21.81,21.81,0,0,1-3.21-.48c0,.24.45.08.64.16a30.24,30.24,0,0,0-5-.2c-.24,0,.11.19,0,.42-.19-.13-.28-.38-.52-.47-.05.28.35.11.25.45a3.1,3.1,0,0,1-.94-.17l1.69,60.8c1-.08,1.37.71,2.29,1,0-.15,0-.3-.07-.32.1-.29.21.24.26.34.09-.11.34,0,.29-.3.11.13.15.32.45.25-.13-.48.19,0,.31-.51.16.33.46.13.63.27,0-.23-.06-.35-.26-.34.16-.34.21.24.46.14C7.13,71.25,7,71.23,7,71a3.52,3.52,0,0,0,2.28.72c0-.12-.15-.28-.18-.12,0-.53,1,.53,1.28.32-.14-1.13,1.69.09,2.21.08.14,0,.27.24.27.24s1-.66,1.3-.11c0-.36,1.24,0,1.1.2.29.08.23-.31.57-.17-.07-.16-.29-.18-.45-.25.85-.36,1.45.2,2,.6a.3.3,0,0,0,.21-.31c.2,0,0,.39.06.55.27-.3.49-.13.67-.38.63.66,1.61.24,1.92.49-.08-.17.33-.2.2-.31.44-.22.37.31.91.29.2-.05-.16-.37-.26-.45,0-.27.52.52.9.5.23-.07-.19-.33-.05-.64.48.39.17.43.51.79.13,0,.09-.26.11-.42.41.44.83.69,1.2.21.06.64.41-.15.34.46.3-.32.47,0,.67-.38.27.1-.1.22,0,.43.38-.39,1-.11,1.07-.88,0,.43.15,1,.5.9s-.12-.19,0-.42c.21.09.18.42.44.46.46-.33.95-.62,1.41-.42.24-.05-.15-.29-.06-.54,0,.21.45.44.38-.07.21,0,.08.31.26.34s.48-.67.55-.06c.18,0,.08-.36.21-.41.31.07-.17.57.07.54s.06-.22.11-.42c.08.43.78-.07.54.37.29-.11.51-.39.84-.14-.21-.24-.08-.18-.16-.56.33.15.46-.19.83.18.16-.2,0-.14,0-.42.42-.2,1.69.62,1.76,0,.43-.12,1,.4,1.39,0,.3.47.8,0,1.28.33,0-.19-.14-.3,0-.33.33,0,0,.16.17.45.68-.12.13.16.82.17,0-.12-.16-.1-.27-.13.76-.15.8.08,1.28.22.2,0,.07-.38.13-.53s1.26.26.93-.13c.21-.32.93.65,1-.13.19.39.64.13.41-.18a.45.45,0,0,1-.12-.12.45.45,0,0,1,.12.12,2.13,2.13,0,0,0,1.71.25c-.05-.12-.2-.13-.16-.34.21-.21.51,0,.64.16.13-.33-.3-.1-.17-.44.35,0,.83.18.85-.25.26.23.12.47.44.47s-.3-.24,0-.43c.2.71,1.46.2,2-.15-.41-.57.63-.5,1.14-.55,0-.1-.07-.2-.17-.23.23,0,.59,0,.72.28.33,0-.14-.49.12-.42.22.36.79,0,.68.12.27.07.23.35.32.18.58.57,1.65-.46,1.85,0,.14-.08.16-.33.22-.51.39,0,.5.23.81.28.51-.69,1.45,0,1.88-.49-.18-.23-.45-.39-.43-.57.17-.29.33.26.54.26a.27.27,0,0,0-.26-.24,1.69,1.69,0,0,1,.84-.14c0,.28.42.19.16.44.16,0,.86,0,.47-.17.09-.24.44.09.45.25.13-.06.19-.21.21-.41.29.26.58-.16.83.07.11,0,.34-.28.11-.31.14-.24.3.36.44.46.29,0,.27-.4.66-.27,0-.1-.11-.09-.18-.12.32,0,.71-.44.92.19.29-.15-.1-.43.32-.73-.33,0-.31.1-.56,0,.85-.26,1.43.74,2,.81.15,0,0-.22-.12-.31.54.16,1.55.71,1.43,0,.69.37,1.16-.1,2,.49,0-.32.51,0,.75-.15-.37-.24-.11-.29,0-.64,0,.37.6,0,.92.07.76.1,1.58.55,2.2.4.13-.1,0-.18.2-.3.83.63,1.4-.17,2-.27-.06,0,.16.38.55.15.72-.41,2-.1,3.14.16.32,0,.72-.41,1,0-.09-.34.43,0,.29-.19.27-.09.83.51.93,0,.19.66.7.26,1.09.41-.42-.16.36-.4-.26-.45a9.62,9.62,0,0,1,2.37.74c.28-.28.67-.37.69-.7.19,0,0,.47.15.55s.42-.29.37.14c.1-.14.5-.34,0-.32.29-.29.8.15,1,0,0-.18-.06-.21-.17-.23.85.26,1.35-.5,2.79-.2.15,0-.09.2.08.22.36.17.21-.33.57-.16-.07-.32-.13-.13-.37-.14.32-.64,1.12.18,1.66.25.41-.17.28-.34.5-.71a9.19,9.19,0,0,1,2.75.55c.1,0,.32-.1.37-.08.26.09.57.43.19,0a11.58,11.58,0,0,1,1.79,1c.35-.08.55-.35,1-.35-.32.13.24-.64.22-.63s.27,0,.28,0a.45.45,0,0,0,.1-.09c-.06-.14.13-.15,0,0a.33.33,0,0,0,.08.11c.15.15.92-.17.58-.38,1.17.34,1.89.15,3.1.8.06-.15-.34-.29-.07-.33.63.93,1.62-.36,2.29.4.11,0,.09-.19.11-.31.17.46.4.22.81.39.2,0-.11-.34-.16-.44.32,0,.53.4.9.5a3.73,3.73,0,0,1,2.14-.14c0-.16.13-.18.3-.4.46.33.44-.1.66-.16,1.21.26,4,.78,5.28-.1.12,0,.44.35.46.15.13.06,0,.09,0,.21,1.26-.17,2.64,1,3.66.74a.81.81,0,0,0-.64-.16c0-.1-.07-.2-.17-.23.16-.23.49.06.3-.41.78.54,1.32-.26,2,.28.2.06.53-.28.3-.4.42-.12.93.54,1.35.75.17-.08.14-.42.48-.28a.79.79,0,0,0-.27-.24c.07,0,.93.36.71.6a.53.53,0,0,1,.65,0c.15-.39-.41,0-.26-.45.1.14.69.34.57-.16.4.39,1.49.44,1.82.58.66.32,1.22,0,2-.48,0-.1-.11-.09-.18-.12.86-.25,1,.45,1.93.37a.42.42,0,0,0-.36-.24c-.15-.26.56.11.63.27.18-.21.33-.16.22-.52.18,0,.16.3.35.35s0-.14,0-.32c.77,0,2.74.77,2.61-.32.92.12,1.44-.32,2.15-.36a.2.2,0,0,1-.18.19c.51.1,1,.78,1.69.91s2-.76,2.39.41a.41.41,0,0,1,.37-.07c.06.2.27.09.08.32.33,0,.87-.26,1.29,0,.31-.74,1.59,0,1.8-.6.15.22.88.87,1,.2.08.49,1.51.24.66-.27.15,0,.61.46.79.71.32-.07,0-.24.21-.41.13.46.22-.2.73.27,0-.24.44-.26.5-.71.43.46.48.18,1.09.42.14-.36,1.23-1,1.68-.29a4.2,4.2,0,0,1,3.81-.22c.54,0,1.2-.58,1.95-.16.12,0,.11-.2,0-.21.67,0,2,.09,2.35-.66.58.66,2.73,0,3.49.51,1.54-.29,2.64-1.09,4.57-.59.27-.25.12-.35,0-.64a2.58,2.58,0,0,0,3.27-.47.46.46,0,0,0-.11.31,9.91,9.91,0,0,0,2.93-1c.36.82,1.46.38,2,.92.48-.75,2.47-.73,3.54-.35.06-.54,1.15,0,1.59-.3-.06.2,1.43.42,1.85.16,0,.18-.09.19-.2.19a7.27,7.27,0,0,0,2.57.54.63.63,0,0,1-.07-.43c.09.38.9.61.82.17.18,0,.1.3.36.25.17-.31.54-.36.69-.7.22.09.3.11.63.27.24,0-.12-.19,0-.43.86.08,1.83.72,2,.18.18,0,.3.13.56-.17,0,.1,0,.21,0,.32.51-.82,1.34-.39,2.24-.35.11,0,.09-.19.11-.31,1.18.25,1.5-.25,2.4.2.12,0,.08-.21,0-.31l-.14,0a.14.14,0,0,1,.14,0,9.34,9.34,0,0,0,2.37-.14c0-.31-.19-.35-.15-.66s.27.07.45.15c0-.1-.07-.2-.17-.23,0-.41.73.26.76-.36.7.31,1.49-1.27,2.34-.74a2.77,2.77,0,0,1,2.4.2,1.7,1.7,0,0,1,1.32-.54c.17-.62.65,1,.93.27.13.73.78.09.9.5.11,0,.09-.19.11-.31.94.53,1.74-1.2,2.61-.61.45-.63.9,1.16,1.54,1.06,0-.23-.06-.34-.26-.34.25-.3,1.2.18.27,0a.81.81,0,0,1,.07.54c.17,0,.07-.35.2-.41.27.65,1-.92,1.52-.91-.13-.14-.17,1-.41,1a6.2,6.2,0,0,0,3.16-.17c.13.1.25-1.18.22-.92.12-.22.38.71.61,1-.2-.17.13-.25-.08-.33.55.24.76-.49,1.59-.19.15,0,0-.11-.08-.11,1.24-1,3.48,1.39,5.17.22.69.32,1.44,0,2.11.28-.31-.58,1,.42,1.5-.3-.08.34.18.18.19,0,.13,0,0,.19-.11.21a.75.75,0,0,0,.27.23c0-.13.14-.37.57-.27a1.08,1.08,0,0,1-.06-.65c.15-.33.07.39.07.55,1.19.52,1.69-.63,2.43-.44.08-.29-.18-.23-.26-.35.08-.23.45-.32.56-.17,0,.17-.15-.1-.19.1s.18.08.18.23a1.17,1.17,0,0,1,1.21-.12,1.17,1.17,0,0,0,.31-.62c.41,0-.1.27,0,.54.43-.63.77-.1,1.07-1,.12.14.17.34.28,0,.13.06,0,.13,0,.32.31.06.13-.52.57-.27,0-.2-.31-.1-.35-.25-.19-.35.53.4.64.06.12,0,.06.27.07.43.09,0,.16-.29.19-.09.14,0,0-.14,0-.32.17.06.05.42.35.35s-.09-.3-.17-.34c.16,0,.63.51.69.92.12-.22.45-.17.49-.5.14.18-.11.53.34.57.07-.3.1.05.2-.31.09.34.37,0,.17.34.18.05.29,0,.29-.19a4.78,4.78,0,0,1,.44.46c.38-.1.49-.38.93-.13.09-.46-.19.07-.17-.23.38-.51,1-.1,1.15-.76,1,.5,2.69.22,3.08,1.22.13,0,.09-.26.12-.42a1.53,1.53,0,0,0,.8.6c-.5-.39.68-.09.73.17.13,0,.09-.26.12-.42.21.08.46.51,1,.2.1,0,.06.2.07.32.17-.3,1.21.37,1.58-.18a5.46,5.46,0,0,1,.53.58.83.83,0,0,0,.2-.31c-.69-.05.18-.52-.23-.88.18-.14.46.48.51.8a2.92,2.92,0,0,0,.51-.82,2.1,2.1,0,0,1,1.8,1c.41.07.64-.32,1.11,0a1.57,1.57,0,0,0,0-1.19c-.05-.28.29.61.42.79.13-.3.51-.17.57-.27s.07.2.08.32c.21,0,.35,0,.38-.18.12,0,.06.27.07.44a.51.51,0,0,0,.29-.3c.13.22.59.54.47-.07.34,0,.08.52.34.56.3-.14-.3-.42,0-.64.09.09,0,.33.15.55.12,0,.15-.17.29-.19.05-.25-.43,0-.26-.34.18.25.3-.07.45.14-.23-.4,0-.29.05-.74,0,.61,1.07.45.82.17.14-.17.29.49.44.36s0-.14,0-.32.38.68.46.15c.1,0,.06.2.07.33s.09-.19.11-.32a1.8,1.8,0,0,0,.44.47c.12,0,.09-.26.11-.42.11,0,.07.2.08.33.27-.07.11-.15.11-.42.33,0,.19.54.62.48-.25-.57,0-.05.39-.29-.25.4.15-.11.08.33.21-.31.52,0,1,0,1.23.77,2.55,1.12,3.22,2a23.61,23.61,0,0,1,3.22.48c0-.24-.46-.08-.64-.16a29,29,0,0,0,5,.21c.24,0-.12-.2,0-.43.2.14.29.38.53.47,0-.28-.35-.11-.25-.45A2.14,2.14,0,0,1,261.49,65.65Z"/><path class="cls-3" d="M82.28,68.64c0-.06,0-.13-.09-.11,0,.57.37.15.47-.07C82.37,68.31,82.42,68.61,82.28,68.64Z"/><path class="cls-3" d="M180.75,7.19c0,.07,0,.13.09.12,0-.58-.37-.15-.47.07C180.65,7.52,180.6,7.23,180.75,7.19Z"/><path class="cls-3" d="M203.37,6.94c.42.15.19,0,.44.36-.06-.4.41,0,.55,0,.1-.34-.12-.35-.15-.55-.29-.08-.46.21-.27-.13-.23,0-.28-.19-.45-.25C203.47,6.81,203.61,6.77,203.37,6.94Z"/><path class="cls-3" d="M59.66,68.89c-.43-.14-.19,0-.44-.36.05.41-.42,0-.56,0-.09.33.13.34.16.55.28.07.46-.22.27.13.23,0,.28.19.45.25C59.55,69,59.42,69.06,59.66,68.89Z"/></g><path class="cls-4" d="M260.35,62.94,258.66,2.23c-.71-.13-1.11-.74-1.9-.94,0,.15,0,.3.08.33-.1.28-.21-.25-.26-.35-.09.11-.34,0-.29.3-.11-.13-.15-.32-.45-.25.12.49-.19-.05-.31.51-.16-.33-.46-.13-.63-.27,0,.23,0,.35.26.35-.16.34-.22-.25-.46-.15.05.11.21.13.17.34a3.53,3.53,0,0,0-2.28-.73c0,.12.15.28.18.12,0,.53-1-.53-1.28-.32-.08-.69-1.52-.09-2.22-.08-.13,0-.27-.24-.26-.24s-1,.66-1.31.11c.06.36-1.24,0-1.1-.2-.28-.07-.22.31-.56.17.07.16.29.18.45.25-.86.36-1.45-.2-2-.6a.3.3,0,0,0-.2.31c-.2,0,0-.38-.06-.54-.27.29-.5.12-.67.37-.63-.66-1.62-.23-1.92-.48.07.16-.34.19-.2.3-.44.22-.37-.31-.91-.29-.21.06.15.37.25.45,0,.27-.52-.51-.9-.5s.2.33.06.65c-.48-.4-.17-.44-.51-.8-.13,0-.09.26-.12.42-.41-.44-.82-.69-1.19-.21-.07-.64-.4.84-.33.23-.29.32-.49-.69-.68-.31-.28-.09.11.46,0,.26-.38.39-1-.58-1.09.19,0-.43-.13-.26-.49-.22s.1-.49,0-.26c-.2-.09-.16.26-.42.22-.46.34-1,0-1.43-.26-.23.05.16.29.06.54,0-.2-.44-.44-.37.07-.21,0-.09-.31-.26-.34s-.48.67-.56.06c-.17,0-.08.36-.21.41-.31-.07.18-.57-.06-.54s-.06.22-.12.42c-.07-.43-.78.07-.53-.37-.3.11-.51.39-.84.15.21.23.08.17.15.55-.32-.14-.45.19-.82-.18-.17.2,0,.14,0,.43-.41.19-1.68-.62-1.75,0-.43.12-1-.4-1.39,0-.3-.47-.8,0-1.28-.32,0,.18.14.29,0,.32-.32,0,0-.16-.16-.45-.68.12-.14-.16-.82-.17,0,.13.16.1.27.13-.77.16-.81-.08-1.29-.22-.2,0-.06.38-.12.53s-1.27-.26-.93.14c-.21.31-.93-.66-1,.12-.2-.39-.64-.13-.42.18a.38.38,0,0,1,.13.12.51.51,0,0,1-.13-.12,2.12,2.12,0,0,0-1.71-.25c.06.12.21.13.17.34-.21.21-.52,0-.64-.16-.13.33.3.11.16.44-.35,0-.82-.18-.85.25-.26-.22-.12-.47-.43-.46s.29.23,0,.42c-.19-.71-1.46-.2-2,.15.4.57-.62,1.19-1.13,1.24,0,.09.06-.49.16-.46-.23,0-.57.72-.71.41-.32,0,.12-.2-.13-.27-.22-.36-.79,0-.68-.12-.28-.06-.23-.35-.33-.18-.57-.57-1.63,1.15-1.83.64-.14.08-.17-.35-.23-.16-.39,0-.5-.23-.82-.29-.5.69-1.45,0-1.88.49.19.23.45.39.43.57s-.33-.26-.54-.26a.28.28,0,0,0,.27.24,1.59,1.59,0,0,1-.84.14c0-.27-.43-.19-.17-.44-.16,0-.86,0-.47.18-.09.23-.43-.1-.45-.26-.13.06-.18.22-.21.41-.29-.26-.58.16-.83-.07-.1,0-.33.29-.11.32-.14.23-.29-.36-.43-.47-.29,0-.28.4-.67.27,0,.1.11.09.18.12-.31,0-.7.44-.91-.18-.29.14.09.42-.32.72.33,0,.31-.1.55,0-.84.26-1.42-.75-2-.81-.15,0,0,.21.11.3-.53-.15-1.55-.71-1.43,0-.68-.37-1.16.1-2-.48.05.31-.51,0-.75.15.38.23.12.28,0,.64,0-.38-.61,0-.92-.08-.76-.1-1.59-.55-2.21-.4-.13.1,0,.18-.2.31-.83-.64-1.4.16-2,.26.06,0-.15-.38-.54-.15-.72.41-2.05.1-3.15-.16-.31,0-.72.41-1,0,.1.34-.42,0-.28.19-.27.09-.84-.51-.93,0-.19-.65-.71-.26-1.09-.41.41.16-.36.4.25.45A10,10,0,0,1,183.16,4c-.29.27-.67.36-.69.69-.19,0,0-.47-.16-.55s-.41.3-.36-.14c-.1.14-.51.34,0,.32-.28.3-.79-.15-1,0,0,.17.06.2.17.22-.84-.26-1.34.5-2.78.2-.15,0,.09-.2-.08-.22-.36-.17-.21.33-.57.16.06.32.13.14.36.14-.31.64-1.11-.17-1.65-.24-.41.16-.28.33-.5.71a9.24,9.24,0,0,1-2.75-.56c-.11,0-.32.1-.38.08-.26-.09-.56-.43-.18,0a12.34,12.34,0,0,1-1.8-1c-.34.07-.54.35-.94.35.32-.14-.24.64-.22.62s-.28,0-.28,0a.47.47,0,0,0-.1.09c.06.14-.14.15,0,0l-.08-.11c-.16-.15-.92.17-.58.38-1.18-.34-1.89-.15-3.11-.79-.05.15.35.29.08.32-.63-.92-1.62.36-2.3-.4-.11,0-.08.19-.11.31-.16-.46-.4-.22-.81-.39-.19,0,.12.34.16.44-.32,0-.52-.4-.9-.5a3.69,3.69,0,0,1-2.13.14c0,.16-.14.18-.3.41-.47-.33-.45.1-.66.15-1.21-.25-4.06-.77-5.29.1-.11,0-.43-.35-.45-.15-.13,0,0-.09,0-.21-1.27.17-2.64-1-3.66-.74.08.15.58.22.63.17s.08.19.18.22c-.17.23-.5-.06-.3.41-.79-.54-1.32.26-2-.28-.2-.06-.52.28-.29.41-.42.11-.93-.55-1.35-.76-.17.08-.14.42-.48.28a.67.67,0,0,0,.26.24c-.06.06-.92-.36-.7-.6a.53.53,0,0,1-.65,0c-.16.39.41,0,.25.45-.1-.13-.69-.34-.56.16-.41-.39-1.5-.44-1.82-.58-.67-.32-1.23,0-2,.48,0,.11.1.09.17.12-.85.25-1-.45-1.92-.37.05.15.19.21.36.24.14.27-.56-.1-.64-.26-.17.21-.33.15-.21.51-.19,0-.17-.3-.35-.35s0,.14,0,.32c-.77,0-2.74-.77-2.61.32-.92-.12-1.44.32-2.15.36a.2.2,0,0,1,.18-.19c-.52-.09-1-.78-1.7-.9s-2,.76-2.38-.42a.47.47,0,0,1-.38.08c0-.21-.27-.1-.07-.33-.33,0-.88.26-1.3,0-.31.75-1.58,0-1.79.6-.16-.22-.88-.87-1-.19-.09-.5-1.52-.25-.66.26-.16,0-.61-.46-.8-.71-.31.07,0,.24-.2.41-.14-.46-.22.2-.73-.27,0,.24-.45.26-.5.71-.43-.46-.48-.18-1.09-.42-.15.36-1.23,1-1.69.29a4.2,4.2,0,0,1-3.81.22c-.54,0-1.19.58-2,.16-.12,0-.1.2,0,.21-.67,0-2-.09-2.35.66-.58-.66-2.74,0-3.5-.51-1.54.29-2.64,1.1-4.57.59-.26.25-.11.35,0,.64a2.56,2.56,0,0,0-3.27.48.58.58,0,0,0,.11-.32,9.57,9.57,0,0,0-2.93,1c-.36-.83-1.46-.39-2-.92-.47.74-2.46.72-3.54.35,0,.53-1.15,0-1.59.29.06-.2-1.42-.42-1.84-.15,0-.19.08-.2.2-.2a7.54,7.54,0,0,0-2.57-.54.65.65,0,0,1,.07.44c-.09-.39-.9-.62-.82-.18-.19,0-.11-.3-.36-.24-.17.3-.54.35-.69.69a4.51,4.51,0,0,1-.63-.27c-.24,0,.11.2,0,.43-.85-.08-1.83-.72-2-.17-.18,0-.31-.14-.57.17,0-.11,0-.22,0-.33-.51.82-1.34.39-2.24.35-.11,0-.09.19-.11.32-1.18-.25-1.51.24-2.4-.2-.12,0-.08.2,0,.3l.14,0a.14.14,0,0,1-.14,0A9.79,9.79,0,0,0,73,7.67c0,.31.19.35.15.66s-.27-.07-.46-.15c0,.1.07.2.17.23,0,.41-.72-.26-.76.37-.69-.32-1.52-.11-2.37-.63a2.84,2.84,0,0,1-2.4-.2A1.73,1.73,0,0,1,66,8.48c-.18.62-.62.37-.9,1.11-.12-.74-.77-.1-.9-.51-.11,0-.08.19-.11.31-.93-.52-1.77-.17-2.64-.75-.45.62-.86.2-1.5.3,0,.23.06.35.26.34-.25.31-1.21-.17-.28,0a.82.82,0,0,1-.06-.54c-.17,0-.08.36-.21.41-.27-.65-1-.45-1.55-.45.13.13.21.33.45.36a6.19,6.19,0,0,0-3.16.16c-.13-.1-.29-.18-.26-.45-.12.22-.34.66-.57.38.19.17-.13.25.07.33-.54-.24-.75.49-1.58.19-.15,0,0,.11.08.11-1.24,1-3.48-1.38-5.17-.22-.69-.32-1.45,0-2.12-.28.32.58-1-.41-1.5.3.09-.34-.17-.17-.18,0-.13-.05,0-.19.1-.21A.72.72,0,0,0,44,9.11c0,.13-.14.38-.57.27a1,1,0,0,1,0,.65c-.14.33-.07-.39-.06-.54-1.2-.53-1.7.62-2.43.44-.08.28.18.22.26.34-.08.23-.46.32-.57.17s.16.1.19-.09-.18-.09-.17-.23a1.19,1.19,0,0,1-1.21.11,1,1,0,0,0-.31.62c-.41,0,.09-.27,0-.54-.43.64-.77.1-1.08,1-.11-.15-.16-.34-.27,0-.14-.06,0-.13,0-.32-.3-.06-.12.52-.57.28,0,.19.31.09.36.24.19.35-.53-.39-.65-.05-.12-.05-.06-.28-.06-.44-.09.06-.16.29-.19.09-.14,0,0,.14,0,.32-.18-.05,0-.42-.35-.35s.08.3.16.34c-.15,0-.63-.5-.69-.92-.12.22-.44.18-.49.5-.14-.18.11-.53-.34-.57-.06.3-.09,0-.2.31-.09-.33-.36,0-.17-.34-.18,0-.28,0-.28.19a3.81,3.81,0,0,1-.44-.46c-.38.1-.49.38-.93.13-.1.47.18-.07.17.23-.38.51-1,.1-1.15.76C31,10.71,29.35,11,29,10c-.12,0-.09.26-.11.42a1.61,1.61,0,0,0-.8-.6c.49.39-.68.09-.74-.17-.12,0-.09.26-.11.42-.22-.07-.46-.5-1-.19-.11,0-.07-.21-.07-.33-.17.3-1.22-.36-1.59.19-.22-.2-.25-.29-.52-.58a.72.72,0,0,0-.2.3c.69.05-.18.52.22.88-.17.14-.46-.47-.51-.79a2.73,2.73,0,0,0-.51.81,2.08,2.08,0,0,1-1.79-1c-.42-.07-.65.33-1.12,0a1.59,1.59,0,0,0,0,1.18c.06.28-.28-.61-.42-.79-.13.3-.51.18-.57.28s-.07-.2-.07-.33c-.21,0-.35,0-.38.18-.13,0-.06-.27-.07-.43a.48.48,0,0,0-.3.29c-.12-.22-.59-.54-.46.07-.34,0-.09-.52-.34-.56-.31.14.3.42,0,.64-.09-.09,0-.32-.15-.55-.13,0-.16.17-.29.19-.05.25.42,0,.26.34-.18-.25-.31.07-.46-.14.24.4,0,.29,0,.74,0-.61-1.07-.45-.82-.17-.14.18-.29-.48-.45-.36s0,.14,0,.32c-.21,0-.38-.68-.46-.15-.11,0-.07-.2-.07-.32s-.09.18-.11.31a2.18,2.18,0,0,0-.44-.47c-.13,0-.09.26-.12.42-.1,0-.06-.2-.07-.33-.28.07-.11.15-.12.42-.32,0-.19-.54-.62-.48.25.57,0,.05-.38.29.24-.4-.15.11-.08-.33-.21.31-.52,0-1,0-1.24-.78-2.56-1.13-3.23-2a21.81,21.81,0,0,1-3.21-.48c0,.24.45.08.64.16a28.19,28.19,0,0,0-5-.2c-.24,0,.11.19,0,.42C1,7.42.93,7.18.69,7.09c0,.28.35.11.25.45A3.1,3.1,0,0,1,0,7.37L1.69,68.16c1-.07,1.37.72,2.29,1,0-.15,0-.3-.07-.33.1-.28.21.25.26.35.09-.11.34,0,.29-.3.1.13.15.32.45.25-.13-.48.19,0,.31-.51.16.33.46.13.63.27,0-.23-.06-.35-.26-.35.16-.34.21.25.46.15-.06-.11-.21-.13-.17-.34A3.52,3.52,0,0,0,8.15,69c0-.12-.14-.28-.17-.12,0-.53,1,.53,1.28.32-.14-1.13,1.69.08,2.21.08.14,0,.27.24.27.24s1-.66,1.3-.11c0-.36,1.24,0,1.1.2.29.07.23-.31.57-.17-.07-.16-.29-.18-.45-.25.85-.36,1.45.2,2,.6a.3.3,0,0,0,.21-.31c.2,0,0,.38.06.54.27-.29.49-.12.67-.37.63.66,1.61.23,1.91.48-.07-.16.34-.19.21-.3.44-.22.37.31.91.29.2-.06-.16-.37-.26-.45,0-.27.52.51.9.5.23-.08-.19-.33-.05-.65.48.4.17.44.51.8.13,0,.09-.26.11-.42.41.44.83.69,1.2.21.06.64.41-.16.34.46.3-.32.47,0,.67-.38.27.1-.1.22,0,.43.38-.39,1-.11,1.07-.88,0,.43.15,1,.5.9s-.12-.19,0-.42c.21.09.18.42.44.46.46-.34.95-.63,1.41-.42.24,0-.15-.3-.06-.54,0,.21.45.44.38-.07.21,0,.08.31.26.34s.48-.67.55-.06c.18,0,.08-.36.21-.41.31.07-.17.57.07.54s.06-.22.11-.42c.08.43.78-.07.54.37.29-.11.51-.39.84-.15-.21-.23-.08-.17-.16-.55.33.14.45-.19.83.18.16-.2,0-.14,0-.43.42-.19,1.69.62,1.76,0,.43-.12,1,.4,1.39,0,.3.47.8,0,1.28.32,0-.18-.15-.29,0-.32.33,0,0,.16.17.45.68-.12.13.16.82.17,0-.12-.16-.1-.27-.13.76-.16.8.08,1.28.22.2,0,.07-.38.13-.53s1.26.26.93-.14c.21-.31.93.66,1-.13.2.4.65.14.42-.17a.45.45,0,0,1-.12-.12.45.45,0,0,1,.12.12,2.13,2.13,0,0,0,1.71.25c-.05-.12-.2-.13-.16-.34.21-.21.51,0,.63.16.14-.33-.29-.1-.16-.44.35,0,.83.18.85-.25.26.22.12.47.44.46s-.3-.23,0-.42c.2.71,1.46.2,2-.15-.41-.57.63-.5,1.14-.55,0-.1-.07-.2-.17-.23.23.05.59,0,.72.27.33,0-.14-.48.12-.41.22.36.79,0,.68.12.27.06.23.35.32.18.58.57,1.65-.47,1.85,0,.14-.08.16-.33.22-.52.39,0,.5.23.81.29.51-.69,1.45,0,1.88-.49-.18-.23-.45-.39-.43-.57.17-.29.33.26.54.26a.26.26,0,0,0-.26-.24,1.59,1.59,0,0,1,.84-.14c0,.27.42.19.16.44.16,0,.86,0,.47-.18.09-.23.43.1.45.26a.48.48,0,0,0,.21-.41c.29.26.58-.16.83.07.11,0,.34-.29.11-.32.14-.23.3.36.44.47.29,0,.27-.4.66-.27,0-.1-.11-.09-.18-.12.31,0,.71-.44.92.18.29-.14-.1-.42.32-.72-.33,0-.31.1-.56,0,.85-.26,1.43.75,2,.81.14,0,0-.21-.12-.3.54.15,1.55.71,1.43,0,.69.37,1.16-.1,2,.49,0-.32.51,0,.75-.16-.37-.23-.11-.28,0-.64,0,.38.6,0,.92.08.76.1,1.58.54,2.2.4.13-.1,0-.18.2-.31.83.64,1.4-.16,2-.26-.06,0,.16.38.55.15.72-.41,2-.1,3.14.16.32,0,.72-.41,1,0-.09-.35.43,0,.29-.19.27-.09.83.51.93,0,.19.65.7.26,1.09.41-.42-.16.36-.4-.26-.45a10,10,0,0,1,2.37.73c.28-.27.67-.36.69-.69.19,0,0,.47.15.55s.42-.3.36.14c.11-.14.51-.34,0-.32.29-.3.8.15,1,0,0-.18-.06-.21-.17-.23.85.26,1.35-.5,2.79-.2.15,0-.09.2.08.22.36.17.21-.33.57-.16-.07-.32-.14-.14-.37-.14.32-.64,1.12.17,1.66.24.41-.16.28-.33.5-.71a9.24,9.24,0,0,1,2.75.56c.1,0,.32-.1.37-.08.26.09.57.43.19,0a12.3,12.3,0,0,1,1.79,1c.35-.07.55-.35,1-.35-.32.14.24-.64.22-.62s.27,0,.28,0l.1-.09c-.06-.14.13-.15,0,0a.48.48,0,0,0,.08.11c.15.15.92-.17.58-.38,1.17.34,1.89.15,3.1.79.06-.15-.34-.29-.07-.32.63.92,1.62-.36,2.29.4.11,0,.09-.19.11-.31.17.46.4.22.81.39.2,0-.11-.34-.16-.44.32-.05.53.4.9.5a3.73,3.73,0,0,1,2.14-.14c0-.16.13-.18.3-.41.46.33.44-.1.66-.15,1.21.26,4,.77,5.28-.1.12,0,.44.35.46.15.13,0,0,.09,0,.21,1.26-.17,2.64,1,3.66.74a.82.82,0,0,0-.64-.17c0-.09-.07-.19-.17-.22.16-.23.49.06.3-.41.78.54,1.32-.26,2,.28.2.06.53-.28.3-.41.42-.11.93.55,1.35.76.17-.08.14-.42.48-.28a.63.63,0,0,0-.27-.24c.07-.06.93.36.71.6a.53.53,0,0,1,.65,0c.15-.39-.41,0-.26-.45.1.14.69.34.57-.16.4.39,1.49.44,1.82.58.66.32,1.22,0,2-.48,0-.11-.11-.09-.18-.12.86-.25,1,.45,1.93.37a.42.42,0,0,0-.36-.24c-.15-.27.56.1.63.26.18-.21.33-.15.22-.51.18,0,.16.3.35.35s0-.14,0-.32c.77,0,2.74.77,2.61-.32.92.12,1.44-.32,2.15-.36a.21.21,0,0,1-.18.19c.51.09,1,.78,1.69.9s2-.76,2.39.42a.44.44,0,0,1,.37-.08c.06.21.27.1.08.33.33.05.87-.26,1.29,0,.31-.75,1.59,0,1.8-.6.15.22.88.87,1,.19.08.5,1.51.25.66-.26.15,0,.61.46.79.71.32-.07,0-.24.21-.41.13.46.22-.2.73.27,0-.24.44-.26.5-.71.43.46.48.18,1.09.42.14-.36,1.23-1,1.68-.29a4.2,4.2,0,0,1,3.81-.22c.54,0,1.2-.58,2-.16.12,0,.11-.2,0-.21.67,0,2,.09,2.35-.66.58.66,2.73,0,3.49.51,1.54-.29,2.64-1.1,4.57-.59.27-.25.12-.35,0-.64a2.57,2.57,0,0,0,3.27-.48.51.51,0,0,0-.11.32,9.91,9.91,0,0,0,2.93-1c.36.82,1.46.38,2,.91.47-.74,2.47-.72,3.54-.35.06-.53,1.15,0,1.59-.29-.06.2,1.43.42,1.85.16,0,.18-.09.19-.2.19a7.49,7.49,0,0,0,2.57.54.65.65,0,0,1-.07-.44c.08.39.9.62.82.18.18,0,.1.3.36.24.17-.3.54-.35.69-.69a5.08,5.08,0,0,1,.63.27c.24,0-.12-.2,0-.43.86.08,1.83.72,2,.17.18,0,.3.14.56-.17,0,.11,0,.22,0,.32.51-.81,1.34-.38,2.24-.34.11,0,.09-.19.11-.32,1.18.25,1.5-.24,2.4.2.12,0,.07-.2,0-.3l-.14,0a.12.12,0,0,1,.14,0,9.34,9.34,0,0,0,2.37-.14c0-.31-.19-.35-.15-.66s.26.07.45.15c0-.1-.07-.2-.17-.23.05-.41.73.26.76-.37.7.32,1.49-1.26,2.34-.74a2.84,2.84,0,0,1,2.4.2,1.72,1.72,0,0,1,1.32-.53c.17-.62.65,1,.93.26.13.74.78.1.9.51.11,0,.09-.19.11-.31.94.52,1.74-1.2,2.61-.61.45-.63.9,1.16,1.54,1.06,0-.23-.06-.35-.26-.34.25-.31,1.2.17.27,0a.81.81,0,0,1,.07.54c.17,0,.07-.35.2-.41.27.65,1-.92,1.52-.92-.13-.13-.17,1-.41,1a6.2,6.2,0,0,0,3.16-.16c.13.1.25-1.19.21-.92.13-.22.39.71.62,1-.2-.17.13-.25-.08-.33.55.24.76-.49,1.59-.19.15,0,0-.11-.09-.11,1.25-1,3.49,1.38,5.18.22.69.32,1.44,0,2.11.28-.31-.58,1.05.41,1.5-.3-.08.34.18.17.19,0,.13,0,0,.19-.11.21a.75.75,0,0,0,.27.23c0-.13.14-.38.57-.27a1.1,1.1,0,0,1-.06-.65c.15-.33.07.39.06.54,1.2.53,1.7-.62,2.44-.44.08-.28-.18-.22-.26-.34.08-.23.45-.32.56-.17s-.15-.1-.19.09.18.09.18.23a1.19,1.19,0,0,1,1.21-.11,1.17,1.17,0,0,0,.31-.62c.41,0-.1.27,0,.54.43-.64.77-.1,1.07-1,.12.15.17.34.28,0,.13.06,0,.13,0,.32.3.06.13-.52.57-.28,0-.19-.31-.09-.35-.24-.19-.35.53.39.64.05.12,0,.06.28.07.44.09-.06.16-.29.19-.09.14,0,0-.14,0-.32.17,0,0,.42.35.35s-.09-.3-.17-.34c.16,0,.63.51.69.92.12-.22.45-.17.49-.5.14.18-.11.53.34.57.06-.3.1,0,.2-.31.09.33.37,0,.17.34.18.05.29,0,.29-.19a4.78,4.78,0,0,1,.44.46c.38-.1.49-.38.93-.13.09-.46-.19.07-.17-.23.38-.51,1-.1,1.15-.76,1,.5,2.69.21,3.08,1.22.13,0,.09-.26.12-.42a1.53,1.53,0,0,0,.8.6c-.5-.39.68-.09.73.17.13,0,.09-.26.12-.42.21.07.46.5,1,.19.1,0,.06.21.07.33.17-.3,1.21.36,1.58-.19.23.2.25.29.53.58a.72.72,0,0,0,.2-.3c-.69-.05.18-.52-.23-.88.18-.14.46.47.51.79a2.87,2.87,0,0,0,.51-.81,2.1,2.1,0,0,1,1.8,1c.41.06.64-.33,1.11,0a1.55,1.55,0,0,0,0-1.18c-.05-.28.29.61.42.79.13-.3.51-.17.57-.28s.07.2.08.33c.21,0,.35,0,.38-.18.12,0,.06.27.07.43a.46.46,0,0,0,.29-.29c.13.22.59.54.47-.07.34,0,.08.52.34.56.3-.14-.3-.42,0-.64.1.09,0,.32.16.55.12,0,.15-.17.29-.19,0-.25-.43,0-.26-.34.18.25.3-.07.45.14-.24-.4,0-.3,0-.74,0,.6,1.08.45.83.17.14-.18.29.49.44.36s0-.14,0-.32c.2,0,.38.68.45.15.11,0,.07.2.08.32s.09-.18.11-.31a2.18,2.18,0,0,0,.44.47c.12,0,.09-.26.11-.42.11,0,.07.2.08.33.27-.07.11-.15.11-.42.33,0,.19.54.62.48-.25-.57,0,0,.39-.29-.25.4.15-.11.08.33.21-.31.52,0,1,0,1.23.78,2.55,1.13,3.22,2a22.15,22.15,0,0,1,3.22.48c0-.24-.46-.08-.64-.16a29,29,0,0,0,5,.21c.24,0-.12-.2,0-.43.2.14.29.38.53.47,0-.28-.35-.11-.25-.45A2.14,2.14,0,0,1,260.35,62.94Z"/><path class="cls-5" d="M81.14,65.93c0-.07,0-.13-.09-.12,0,.58.37.16.47-.06C81.23,65.6,81.28,65.9,81.14,65.93Z"/><path class="cls-5" d="M179.61,4.48c0,.07,0,.13.09.12,0-.58-.37-.16-.47.06C179.51,4.81,179.46,4.51,179.61,4.48Z"/><path class="cls-5" d="M202.23,4.23c.42.15.19,0,.44.36-.06-.4.41,0,.55,0,.1-.33-.12-.34-.15-.55-.29-.07-.46.22-.27-.13-.23,0-.28-.19-.45-.25C202.33,4.1,202.47,4.06,202.23,4.23Z"/><path class="cls-5" d="M58.52,66.18c-.43-.15-.2,0-.44-.36.05.4-.42,0-.56,0-.09.33.13.34.16.55.28.07.46-.22.27.12.23,0,.27.2.45.26C58.41,66.31,58.28,66.35,58.52,66.18Z"/></g></g></g></svg>