<svg xmlns="http://www.w3.org/2000/svg" viewBox="0 0 210.76 59.62"><defs><style>.cls-1{isolation:isolate;}.cls-2{mix-blend-mode:multiply;}</style></defs><title>Asset 31</title><g class="cls-1"><g id="Layer_2" data-name="Layer 2"><g id="Слой_1" data-name="Слой 1"><g class="cls-2"><rect x="-230.04" y="-1188.56" width="193.87" height="38.98" transform="translate(249.21 1198.91) rotate(-0.45)"/><path d="M-73.81-1195.63c6.33-.21,12.7-.34,19-.44l25.42-.3c.06,4.59.12,9,.17,13.39l-.19-13.36-14.12.19c4.9-.06,9.53-.1,14-.1,0,4.13,0,8.21-.08,12.33,0,2-.06,4.09-.09,6.19,0,1.34-.1,2.71-.15,4.12a18.48,18.48,0,0,1-.26-2.43l-.06-1.43c0-.68,0-1.36-.05-2-.08-2.91-.17-5.57-.51-6.42l-.06-9h-10.5l-5.28,0-4,0-14.14-.25-28-.77C-84.58-1197.67-79.54-1195.53-73.81-1195.63Z" transform="translate(240 1200)"/><path d="M-30.42-1150.39c0-2.1-.06-4.15-.08-6.18C-30.41-1154.41-30.34-1152.29-30.42-1150.39Z" transform="translate(240 1200)"/><path d="M-212.3-1188.1c-2.4.11-4.81.21-7.14.25C-217.1-1188-214.7-1188.06-212.3-1188.1Z" transform="translate(240 1200)"/><path d="M-101.27-1191.67c-1.25.13-2.52.24-3.81.32l-29.31-.38C-123.59-1191.64-112.07-1192.39-101.27-1191.67Z" transform="translate(240 1200)"/><path d="M-90.84-1190.31c9.82-.14,19.79,0,29.11.67C-71-1190.11-80.86-1190.27-90.84-1190.31Z" transform="translate(240 1200)"/><path d="M-213.35-1156.82c0-.13.14-.23.42-.32a3.68,3.68,0,0,0,.77-.17l11.89.46c-1,.07-1.9.33-2.9.35C-207.54-1156.67-208.46-1157.27-213.35-1156.82Z" transform="translate(240 1200)"/><path d="M-209.63-1188.17l.25-.07,2.44-.12.29,0C-207.64-1188.25-208.63-1188.2-209.63-1188.17Z" transform="translate(240 1200)"/><path d="M-218.38-1156.85a2.9,2.9,0,0,0-.13-.7l.1,0h.34l.84,0,1.68.06,3.35.12c-.27.06-.53.11-.73.17C-214.41-1156.95-216.76-1157.19-218.38-1156.85Z" transform="translate(240 1200)"/><path d="M-220.14-1177.95c.17,0,0-.53,0-.65a11.74,11.74,0,0,1,1.22.47l.24.11.11,0,.76,0,3.17.15c.68-.14,2.11-.16,3.46-.43q1.2.29,2.58.51h-10.05l-1.44-.12-.12,1a4.94,4.94,0,0,1,0-1.15Z" transform="translate(240 1200)"/><path d="M-37.94-1153.1c-12.8.48-27.6-.75-40.06.71,14.64.73,34.84.87,37,3.07s-20,.35-31.48.55l3,.44a13.33,13.33,0,0,0-4.38-.17c3,.45,8.92.84,10.6,1.55l-2.69.54c7.73,1.6,22.21,1.84,29.94,3.44-37.68-5-90-2.37-135.82-1.57-10.24.38-20.18,1-29.85,1.66q-7.25.53-14.29,1.14c-1.68.2-6.34.43-10.13.66l-12.13.7q-.36-5.79-.72-11.5-.19-3-.37-5.95l-.1-1.51c0-.49-.06-1.09-.09-1.27l-.18-1.67c-.16-2.1-.22-5.68-.23-9.64,0-6.07,0-12.73,0-18.28-.06-2.42-.11-4.83-.17-7.25l15.79-.39,4-.11,1.77,0,1.08,0,4.3-.2c5.72-.28,11.43-.61,17.1-1,26.94-1.21,53-.19,81.8-.7,5.73-.1,13.63,2-.51,2.74-11.7.83-23.55,1.21-35.42,1.32,1.37-.69,7-.34,9.66-.87-8.75-.34-16-.46-24.57-.31l17.17-.3c-14.31.25-30.13.29-45.78.81-5.74.1-10.77-2-18.86-.41,20.41.59,41.44,1.26,62.38,1.08l-.1,0c9.34-.16,17.79-.15,26.81-.25-2.8.12-5.66.27-8.13.17,13.13.51,26.08.53,39,.55-36.53,2.62-77.26,1.36-114.29,2.51,10.42,1.06,24.24-.67,33.32.65-8.49.08-17,.1-25.55.09l-28.3-.14c1.75-.09,3.47-.2,5.23-.34-4.31-.19-8.83-.26-13.35-.27,0,2.86,0,5.78,0,8.69s.09,5.69.13,8.53c.07,4,.15,8,.12,11.89,0,1,0,1.92,0,2.9,0-1,0-1.93,0-2.9q.09-6.07.18-12.07.06-8.31.11-16.47l7.54,0c-2.34.12-4.71.2-7.24.26.08,4,.08,8.11,0,12.8.35-3.32.52-7.66.66-12.12l3.27.09,11.2,0,8.72,0-5,.1-5.47.16c-4.16.13-8.16.29-11.88.49.13,2.56.26,5,.41,7.4q.07-3.4.15-6.85l32.58.31-19.86.41-12.1-.11q-.09,12-.18,24.38c0-.43,0-.86-.05-1.29,0,.86,0,1.71.05,2.57q0,7.48,0,15.06l.05,1.93c4.12-.12,8.22-.4,12-.74l2.15,0c-.59.12-1.18.23-1.18.32s.57.18,1.73.22c10.27.57,21.39-.62,33.16.16a114,114,0,0,0,11.75-.16,5.62,5.62,0,0,0,2.43-.12l2.93-.14c2.39,0,4.79-.08,7.13-.25-2.33,0-4.73.14-7.13.25l-2.68.06a7.72,7.72,0,0,1,2.58-.43c-16.47,0-33.55-.14-50.72.09,1-.18,2.48-.37,3.08-.49l-2.52.27-1.29.13-1.42.12-11.49.21-.19-7.33a37.09,37.09,0,0,0,.6,4.72c0-3.37,0-6.74,0-10.11,0-3.09-.07-6.18-.1-9.28q-.15-9.87-.31-19.78l11.76-.23,22.42.29,22.15.22c-7.94-.58-16.25-.81-24.71-.92,22.49-.46,45-.8,67.47-.33-4,.82-9.6,1.41-12.13,2.45.16.49,7.4.61,3.19.93-15.32,1.51-26.33.36-32.57,3.2-1.17.76,16,3.29,10.49,3.89-4.65.28-13,.59-21.92.84-2.59-.06-5.27-.07-8.05-.07a5.56,5.56,0,0,0-1.66.3c-4.85.1-9.59.17-13.76.2H-217l-1.1,0h-.46l-.08,0-1.08-.17a8.27,8.27,0,0,1-.93-.6,2.13,2.13,0,0,1-.32.38l.07.2c-.06.45-.12,1-.17,1.48l0,.41v.71c0,1.25,0,2.49,0,3.72-.22,2.76-.47,5.5-.65,8.23.18-.06.41-.5.59,0,0,1.18,0,2.37,0,3.55l0,1,0,2,.86,0a10,10,0,0,1,1.66,1,4.39,4.39,0,0,1,.47-.27c.48-.08,1-.16,1.53-.22,1.08-.13,2.27-.23,3.55-.31,2.54-.15,5.42-.2,8.43-.22,6,0,12.54.11,17.88,0v-.06l16.29,0q1.37.21,2.58.51c1.35-.27,2.78-.3,3.45-.43,4.38.17,8.07.48,11.78.78a15.52,15.52,0,0,1,3.37-.68c2.87,0,5.65,0,8.36-.06l9.65.12c10.94.18,21.71.47,32.38.83a1.12,1.12,0,0,1,.52.69c1.65-.33,4-.1,5.46-.28-.28.08-.46.18-.41.32,4.88-.46,5.8.14,10.18.31,1,0,1.91-.27,2.89-.35l1.45.06c5,1.07,9.91.66,15.44.65l16.56.73C-42.65-1154.25-41-1153.54-37.94-1153.1Z" transform="translate(240 1200)"/><path d="M-198.83-1156.8l15.44.66C-188.92-1156.13-193.85-1155.72-198.83-1156.8Z" transform="translate(240 1200)"/><path d="M-159.57-1178.87a52.67,52.67,0,0,0,6.83,1l-39.55.16,0-.06C-181.62-1178.11-166.22-1177.26-159.57-1178.87Z" transform="translate(240 1200)"/><path d="M-212.93-1157.14c.2-.06.46-.11.73-.17h0A3.68,3.68,0,0,1-212.93-1157.14Z" transform="translate(240 1200)"/><path d="M-134.47-1188.6h1.27l-9.67.36C-140.3-1188.45-137.43-1188.54-134.47-1188.6Z" transform="translate(240 1200)"/><path d="M-99.8-1188.28l19.74-.42c8.47.12,16.79.35,24.72.93C-70.08-1187.87-84.86-1188.09-99.8-1188.28Z" transform="translate(240 1200)"/><path d="M-134.23-1178.45c2.71.18,5.46.43,8.22.65l-8.24-.06C-133.74-1178-134.18-1178.27-134.23-1178.45Z" transform="translate(240 1200)"/><path d="M-161.49-1187.83l2,0-5.06.53C-164-1187.45-162.51-1187.64-161.49-1187.83Z" transform="translate(240 1200)"/><path d="M-105-1177.46l-6.05-.13c1.2-.11,2.38-.26,3.57-.46A12.41,12.41,0,0,0-105-1177.46Z" transform="translate(240 1200)"/><path d="M-73.56-1177.78c2.77,0,5.46,0,8,.06l-9.71.23A5.81,5.81,0,0,1-73.56-1177.78Z" transform="translate(240 1200)"/></g></g></g></g></svg>