<svg xmlns="http://www.w3.org/2000/svg" viewBox="0 0 1216.5 495.19"><defs><style>.cls-1{fill:#f6921e;}</style></defs><title>Asset 13</title><g id="Layer_2" data-name="Layer 2"><g id="Слой_1" data-name="Слой 1"><polygon class="cls-1" points="0 0 63.78 455.46 1182.71 455.46 1216.46 98.57 0 0"/><path class="cls-1" d="M1028.7,432.94q14.43-.87,28.87-1.45l14.37-.56,14.24-.71c18.9-1,37.39-1.78,54.94-2.76L1099,429.82c10.52-.59,20.23-.92,30-1,4.89-.06,9.79-.07,14.82,0l15.55-.06c-3.18,1.07-8.26,1.48-13,1.95s-9,.8-10.63,2.05q-19.3.84-38.64,1.18-9.66.18-19.3.28c-3.22.05-6.43,0-9.65,0l-9.63-.13q-19.26-.32-38.35-.82l-19-.5-18.91-.8a55.26,55.26,0,0,1,13.64-2.06c2.09,0,4.1,0,6,.18s3.83.33,5.67.58C1015,431.55,1021.66,433.21,1028.7,432.94Z"/><path class="cls-1" d="M1216.5,427.67c-5.16.4-10.18.75-15.15,1.08A140.66,140.66,0,0,1,1216.5,427.67Z"/><path class="cls-1" d="M686.63,453.18c-5.94.19-11.9.33-17.67.28C674.77,453,680.7,453.14,686.63,453.18Z"/><path class="cls-1" d="M961.16,446.72c-3.1.46-6.22.81-9.4,1.1l-17.89-.3c-6-.09-12-.34-18-.52l-36.45-1.25c13.32.35,27.1,0,40.88-.13,3.44,0,6.88,0,10.32,0s6.87,0,10.28.05C947.71,445.79,954.49,446.1,961.16,446.72Z"/><path class="cls-1" d="M986.94,451.41c6.07-.13,12.16-.11,18.24-.16s12.15,0,18.18.07c12.08.2,24,.74,35.55,1.64-11.54-.64-23.36-1-35.39-1.21Z"/><path class="cls-1" d="M504.5,476.76c.09.45-.38.79-1.07,1.06a7.14,7.14,0,0,0-1.92.53l-29.27-2.3c2.43-.21,4.69-1,7.16-1C490.18,475.89,492.4,478,504.5,476.76Z"/><path class="cls-1" d="M693.24,453.16l.63-.23,6-.21.72.16C698.18,453.05,695.72,453.13,693.24,453.16Z"/><path class="cls-1" d="M517,477.26a3.84,3.84,0,0,0,1.2,2.41l-16.53-1.31a15.93,15.93,0,0,0,1.81-.54C507.11,477.29,512.84,478.27,517,477.26Z"/><path class="cls-1" d="M642.51,486.65c3.55,0,6.72-1.64,8.39-2,9.14,1.34,18.27,2.68,29.08,3.62,1.68-.41,5.22-.38,8.58-1.2a60.63,60.63,0,0,0,6.34,2c-23.77-.74-48.06-1.62-73-2.8C628.57,486.2,635.41,486.31,642.51,486.65Z"/><path class="cls-1" d="M72.1,466.34c31.46-3,68-.94,98.63-6.43-9-.38-19-.61-28.82-.86-2.47-.08-4.93-.09-7.37-.11l-7.26-.06c-4.79-.06-9.46-.14-13.88-.27-17.71-.53-31.64-1.87-34.56-5.47s9.46-4.5,26.1-4.74c8.32-.12,17.7-.07,26.77-.13l6.72-.06h6.48c4.21,0,8.17-.11,11.71-.29l-7.57-1.31c3.78.66,7.57,1.31,10.86.29-3.77-.65-9.32-1.21-14.46-1.9-2.56-.35-5-.72-7.12-1.16a18.93,18.93,0,0,1-4.88-1.42c2.2-.71,4.4-1.47,6.6-2.12-19.4-4.62-55.41-3.69-75-8.23,11.86,1.59,24.24,2.74,37.05,3.52q9.62.6,19.54.92l10,.26c3.36.07,6.73.1,10.13.23,13.59.39,27.52.49,41.7.37q10.63-.09,21.45-.35l5.41-.13,5.43,0,10.91-.17c14.58-.25,29.32-.67,44.11-1.17l11.1-.4,11.12-.27,22.21-.59c14.8-.39,29.55-.92,44.15-1.21s29-.45,43.22-.57q11.9-.41,23.58-1t23.17-1.18q22.95-1.33,45.14-3.25c29.56-2.4,58.13-5.4,85.74-8.58,10.43-.76,35.41.31,53.28,1.3,31.68-.6,63.31-1.13,94.56-3.49,16.63-.55,33.12-.63,49.61-.43l24.72.39,24.82.59c33.23,1.05,66.92,1.76,102.29,1.44,14-.32,33.48,6.88-1.3,9.32-14.41,1.22-28.91,2.05-43.47,2.58q-10.92.39-21.87.56c-7.31.12-14.63,0-22,0,3.42-2.31,17.35-.69,23.85-2.46-21.55-1.55-39.37-2.45-60.53-2.4l42.32-.05c-17.63,0-36.2-.17-55.18-.25s-38.43-.28-57.76.06c-14.15,0-26.37-7.76-46.5-2.85,50.34,3.64,102.15,7.49,153.8,7.95a2,2,0,0,0-.26.17l66.07.23c-6.9.3-13.94.71-20,.29q24.24,1.62,48.24,2.19c16,.27,32,.33,47.91.39q-16.85,1.65-34.18,2.72-8.65.56-17.39,1c-5.83.23-11.69.4-17.57.55q-17.64.44-35.5.55l-17.87.08c-6,0-11.95-.1-17.92-.16l-35.86-.51-17.88-.26-17.82-.32c-23.71-.43-47.14-.58-70-.36,25.67,4.45,59.91-.53,82.25,4.67-21-.36-42-.89-63.11-1.56s-42.44-1.61-64-2.6c3.2-.19,6.33-.45,9.46-.8-26.63-3.32-55.2-1.71-81.88-2.9l-7.16-.4c2.37.16,4.76.28,7.16.4q36.76,2,72.42,3.7a311.45,311.45,0,0,1-36.38-.34c7.45,1.75,18.25,2.7,29,3.63,14.19.42,28.38.85,42.43,1.39-21.75-.27-43.21.38-62.93,1.82,29.45,2.23,59.81,3,89.43,4.53l-48.82-.16c-27.27-1.36-54.75-2.69-82.55-3.78l3.18-.08L583,444.7q-16.29-.63-32.78-1.08a261.13,261.13,0,0,0-29.19,1.73l-4.87-.05c3.09-.68,4.6-1.39-1.34-1.89-12.67-1.37-25.91-1.17-39.61-1.06s-27.86.09-42.41-1.61c-7.63-.93-17.95-.5-29.07,0a10,10,0,0,0-6,.31l-7.25.36c-5.91.05-11.85.05-17.66.57,5.76,0,11.72-.29,17.66-.57,2.22,0,4.43-.05,6.63-.11a14.71,14.71,0,0,1-6.39,1.38l30.83.6,31.26.8c21,.56,42.15.87,63.39,1.18-2.55.55-6.17,1.08-7.68,1.45q6.27-.74,12.55-1.4c13.72.12,27.45.13,41.17-.05A73.8,73.8,0,0,0,551,447c39.08,1.13,78.37,1.5,117.77,1.6l55.08,2.75q27.45,1.27,54.75,2.37c-19.59-2.55-40.11-3.94-61-5,55.62.1,111.3.57,166.75,2.94-10,2.62-23.79,4.52-30.09,7.89.38,1.74,18.28,2.38,7.85,3.34-19,2.2-35.29,2.09-48.79,2.66s-24.2,1.78-32,6.38c-3,2.6,39.52,12.18,25.71,13.9-5.77.35-13.82.69-23.19.94s-20.07.37-31.19.46c-6.4-.37-13.05-.61-19.93-.79-.86-.2-2.31.31-4.14.88-24.09,0-46.95-.52-59.63-1.34l-14-.93a23.87,23.87,0,0,1-6.11-2.2,86.82,86.82,0,0,1-8.84,1.3q-18.68-1.11-37-1.94c-6.78-1-13.54-2.05-20.26-2.89.13.61,1.2,1.44-.1,2-15.31-.64-30.47-1.1-45.62-1.55A95.29,95.29,0,0,1,520.2,476c-16.57,4.9-54.44,1.13-80.82,1.53l0,.2c-13.27-.31-26.62-.4-40.14-.62a62.15,62.15,0,0,1-6.33-1.85c-3.35.87-6.86.9-8.53,1.34-10.77-.76-19.87-2-29-3.15-1.66.43-4.78,2.2-8.31,2.26-7.07-.14-13.89-.05-20.57.13l-23.74-.53-20.13-.63-20-.47q-19.9-.53-39.6-1.27a4,4,0,0,1-1.32-2.35c-4,1.19-9.79.37-13.43,1.15.69-.32,1.12-.67,1-1.12-12,1.88-14.27-.11-25.08-.41-2.43.13-4.67,1.06-7.06,1.4l-3.57-.11a67.17,67.17,0,0,0-18.57-2c-3.14,0-6.31.18-9.56.35l-9.94.53-40.85-.58C83.93,469.73,79.66,467.5,72.1,466.34Z"/><path class="cls-1" d="M468.69,475.76l-38.05-3.17C444.27,472.89,456.49,471.79,468.69,475.76Z"/><path class="cls-1" d="M816.42,488.41a96.21,96.21,0,0,0,16.88,3.69l-48.89-.91-49.19-1.11,0-.2c13.25-.14,29.39.78,44.3,1.12S808.12,490.94,816.42,488.41Z"/><path class="cls-1" d="M503.43,477.82a15.93,15.93,0,0,1-1.81.54h-.11A7.14,7.14,0,0,1,503.43,477.82Z"/><path class="cls-1" d="M879.07,456.43l3.14.06q-11.94.56-23.92.9C864.67,456.75,871.77,456.53,879.07,456.43Z"/><path class="cls-1" d="M964.83,458.3l24.41-.68,12.21-.34,12.2-.5c20.95.12,41.53.65,61.23,2.35C1038.38,459.23,1001.78,459.25,964.83,458.3Z"/><path class="cls-1" d="M879.29,491.09c6.74.71,13.57,1.67,20.43,2.5l-20.5-.5C880.51,492.5,879.43,491.7,879.29,491.09Z"/><path class="cls-1" d="M812.22,457.73h4.89l-12.55,1.5C806.08,458.86,809.7,458.3,812.22,457.73Z"/><path class="cls-1" d="M952,495.19,937,494.75a85.32,85.32,0,0,0,8.89-1.57A23.23,23.23,0,0,0,952,495.19Z"/><path class="cls-1" d="M1030.34,493.82c6.92-.11,13.63-.16,20.07-.06-8,.4-16.14.78-24.21,1.12C1028,494.23,1029.47,493.66,1030.34,493.82Z"/></g></g></svg>