<svg xmlns="http://www.w3.org/2000/svg" viewBox="0 0 282.34 79.54"><defs><style>.cls-1{isolation:isolate;}.cls-2{mix-blend-mode:multiply;}.cls-3{fill:#525252;}.cls-4{fill:#fff;}</style></defs><title>Asset 12</title><g class="cls-1"><g id="Layer_2" data-name="Layer 2"><g id="Слой_1" data-name="Слой 1"><g class="cls-2"><path class="cls-3" d="M15.49,79.17,13.8,18.46c.69-.17,1.06-.79,1.83-1,0,.15,0,.3-.05.33.11.28.2-.25.24-.36.1.11.34,0,.31.28.1-.13.13-.32.43-.27-.1.49.19-.06.34.49.14-.33.45-.15.62-.3q.06.35-.24.36c.17.33.2-.26.44-.17,0,.11-.2.13-.15.34a3.52,3.52,0,0,1,2.24-.85c0,.12-.13.29-.17.13,0,.53.92-.58,1.25-.39.05-.69,1.51-.17,2.22-.2.13,0,.25-.26.25-.26s1,.61,1.3,0c0,.36,1.24-.06,1.09-.26.28-.09.24.29.57.13-.06.17-.27.2-.43.28.87.32,1.44-.28,2-.71.12,0,.2.11.22.3.2,0,0-.39,0-.55.29.28.5.1.69.34.59-.7,1.6-.33,1.89-.59-.07.16.35.18.22.29.45.2.35-.33.89-.34.21,0-.14.38-.23.46,0,.27.49-.54.87-.55s-.17.34,0,.65c.46-.42.15-.44.47-.82.12,0,.1.26.14.41.38-.46.78-.73,1.18-.27,0-.64.44.81.33.21.32.3.45-.72.67-.35.27-.11-.09.47,0,.26.41.36,1-.64,1.1.13-.06-.42.12-.27.47-.24s-.12-.49,0-.26c.2-.11.18.25.43.19.48.31,1-.11,1.42-.34.23,0-.14.3,0,.54,0-.21.43-.46.38.05.22,0,.07-.32.24-.35s.52.64.56,0c.17,0,.1.35.23.4.31-.09-.2-.57,0-.55s.07.22.14.41c0-.43.78,0,.51-.39.3.09.53.36.85.09-.2.25-.07.19-.13.56.32-.16.47.17.82-.22.17.19,0,.14,0,.42.43.17,1.65-10.71,1.76-10.13.43.09,1-.46,1.38-.09.28-.48.8,0,1.26-.39,0,.18-.12.3,0,.32.32-.06,0-.16.13-.45.69.07.13-.17.82-.22,0,.12-.16.11-.27.14.77.12.8-.12,1.27-.29.2,0,.09.38.16.52s1.25-.32.93.09c.23.3.9-.71,1,.07.17-.41.63-.17.42.15a.42.42,0,0,0-.11.13.58.58,0,0,0,.11-.13,2.15,2.15,0,0,1,1.7-.34c0,.12-.2.14-.15.34.22.2.52,0,.63-.19.15.32-.29.12-.14.45.35,0,.82-.23.86.2.25-.24.1-.48.41-.49s-.28.25,0,.43c.16-.73,1.45-.29,2,0-.37.6.68,1.15,1.19,1.17,0,.1-.08-.48-.18-.45.23-.06.61.69.73.37.33,0-.13-.19.12-.27.2-.37.79,0,.67-.16.27-.08.21-.36.32-.19.54-.61,1.69,1,1.86.53.15.07.15-.36.22-.18.39,0,.49-.25.8-.32.54.65,1.46,0,1.91.38-.18.24-.43.41-.4.59.18.28.32-.28.53-.29a.27.27,0,0,1-.26.25,1.65,1.65,0,0,0,.85.1c0-.28.41-.21.14-.45.16,0,.86-.08.48.15.1.23.42-.12.43-.28.14,0,.2.2.23.4.28-.28.59.12.83-.12.11,0,.35.27.13.31.15.22.28-.38.41-.49.29,0,.29.39.68.23,0,.1-.11.1-.18.13.31,0,.73.4.91-.23.3.12-.07.43.36.7-.33,0-.32-.08-.55.08.85.21,1.37-.82,1.94-.92.15,0,0,.22-.09.31.52-.18,1.5-.8,1.42-.07.67-.41,1.17,0,2-.6,0,.32.51,0,.76.11-.37.26-.1.29.07.64,0-.38.6-.07.91-.13.76-.14,1.56-.63,2.18-.52.14.09,0,.18.22.3.79-.69,1.41.08,2,.15-.06,0,.13-.39.54-.18.74.37,2,0,3.13-.33.31-.05.74.36,1,0-.08.35.42,0,.29.18.28.07.81-.56.93,0,.16-.66.69-.29,1.07-.47-.41.19.38.38-.23.47.63-.1,1.65-6.53,2.32-6.87.3.26.69.33.73.65.18,0,0-.47.12-.55s.43.27.36-.16c.11.13.52.31,0,.32.3.27.79-.2,1,0,.06.18-.05.21-.16.24.83-.31,1.37,10.43,2.8,10,.14,0-.11-.19.07-.22.34-.19.22.32.57.13,0,.32-.12.14-.35.16.34.62,1.1-.24,1.63-.34.42.14.3.32.54.68a9.4,9.4,0,0,0,2.72-.7c.1,0,.32.08.38.05.25-.1.54-.46.18,0a14.5,14.5,0,0,0,1.74-1.11c.34.06.56.32,1,.3-.33-.12.27.62.25.61s.28,0,.28,0a.53.53,0,0,1,.11.09c-.05.14.14.14,0,0a.4.4,0,0,1,.07-.12c.15-.15.93.12.6.35,1.15-.41,1.88-.25,3.06-1,.06.15-.33.31-.06.34.58-1,1.64.26,2.27-.54.11,0,.1.18.12.31.14-.47.39-.24.79-.44.2,0-.09.35-.13.45.32,0,.5-.42.87-.55A3.69,3.69,0,0,0,113,9c0,.15.14.17.32.38.44-.35.45.08.67.12,1.19-.32,4,5,5.28,5.8.11,0,.41-.37.45-.17.12-.06,0-.09,0-.21,1.28.1,2.59-1.11,3.62-.94a.82.82,0,0,1-.63.2c0,.1-.06.2-.16.24.18.21.49-.09.32.38.76-.57,1.33.19,2-.38.19-.08.54.24.32.38.42.1.89-.59,1.3-.83.18.07.17.42.5.26a.78.78,0,0,1-.26.25c.07,0,.91-.41.68-.64a.51.51,0,0,0,.64-.09c.18.39-.41.08-.23.47.09-.14.67-.38.58.13.38-.41,1.46-.52,1.78-.68.65-.36,1.22-.12,2,.37,0,.1-.11.1-.17.13.86.2.94-.51,1.9-.48a.43.43,0,0,1-.35.26c-.13.27.56-.14.62-.3.19.2.34.14.24.5.19-.05.15-.31.34-.36s0,.14,0,.31c.77-.08,2.69-.92,2.62.18.92-.17,1.46.23,2.17.23a.22.22,0,0,0-.19-.18c.51-.12.92-.82,1.64-1s2,.65,2.36-.55c.09.07.22-4.91.38-4.94,0-.21.27-.12.06-.34.33-.07.88.22,1.29-.07.35.73,1.58-.12,1.82.5.15-.23.84-.91,1-.25.06-.49,1.5-.32.68.23.15,0,.58-.49.75-.75.32.05,0,.24.23.4.11-.47.23.18.71-.32,0,.24.46.24.54.68.4-.47.47-.2,1.07-.47.16.35,1.28.88,1.69.19a4.19,4.19,0,0,0,3.82,0c.54-.06,1.22.51,2,0,.12,0,.12.2,0,.21.68,0,2-.2,2.39.53.54-.69,2.73-.1,3.46-.7,1.55.2,2.7.94,4.59.33.28.24.14.34.07.63a2.58,2.58,0,0,1,3.29.3.59.59,0,0,1-.12-.31,9.65,9.65,0,0,1,3,.88c.32-.84,1.44-.47,1.93-1,.52.72,2.51,5.59,3.56,5.15.08.53,1.15-.05,1.6.21-.07-.2,1.4-.5,1.83-.26,0-.18-.09-.19-.2-.18a7.46,7.46,0,0,1,2.53-.68.73.73,0,0,0,0,.44c.07-.39.87-.67.82-.23.18,0,.08-.3.34-.26.19.3.56.33.72.65a3.73,3.73,0,0,0,.62-.3c.24,0-.1.2,0,.43.85-.12,1.79-.82,2-.29.18,0,.3-.15.58.14,0-.11,0-.21,0-.32.56.79,1.36.31,2.26.23.11,0,.1.18.13.3,1.16-.31,1.51.16,2.38-.33.12,0,.09.2,0,.3l-.13,0a.11.11,0,0,0,.13,0,9.47,9.47,0,0,1,2.38,0c.06.31-.17.36-.11.67s.26-.09.45-.17c0,.1-.06.2-.16.23.07.41.71-.3.78.33.68-.36,1.51-.19,2.33-.76a2.8,2.8,0,0,0,2.38-.34,1.71,1.71,0,0,0,1.36.46c.2.61.63.34.95,1.06.08-.74.77-.14.87-.56.11,0,.1.18.13.31.9-.58,1.76-.27,2.6-.91.48.6.87.16,1.51.22q.06.35-.24.36c.27.29,1.19-.24.28,0a.85.85,0,0,0,0-.54c.17,0,.09.35.23.4.23-.66,1-.5,1.52-.54-.12.14-.19.34-.42.38a6.26,6.26,0,0,1,3.16,0c.13-.11.27-.2.23-.46.13.21.38.64.6.35-.19.18.14.24-.06.33.53-.27.78.44,1.59.1.15,0,0,.11-.08.12,1.3,1,3.4-1.58,5.16-.51.67-.36,1.44,0,2.09-.4-.28.6,1-.47,1.52.22-.11-.34.16-.19.18,0,.13-.05,0-.18-.11-.2a.67.67,0,0,1,.25-.25c0,.13.16.38.58.25a1.06,1.06,0,0,0,0,.65c.17.32,0-.39,0-.55,1.17-.59,1.74.53,2.46.3.09.28-.17.24-.24.36.09.23.47.3.57.14-.05-.16-.15.11-.19-.08s.17-.1.16-.24a1.19,1.19,0,0,0,1.21,0,1.08,1.08,0,0,1,.35.59c.41,0-.12-.26-.06-.53.46.61.77.06,1.12.92.11-.15.15-.35.28,0,.13-.07-.05-.14,0-.32.3-.08.16.5.59.24,0,.2-.3.11-.34.26-.17.36.51-.42.64-.09.12-.05,0-.27,0-.44.09.05.17.28.2.09.14,0,0,.14,0,.31.17-.06,0-.42.33-.37s-.07.3-.14.35c.15,0,.6-.54.63-.95.14.21.46.14.52.46.13-.18-.14-.52.31-.58.08.29.09,0,.22.29.07-.33.36,0,.15-.34.18-.06.28,0,.29.17a4,4,0,0,0,.42-.49c.38.08.5.36.93.09.12.45-.19-.06-.16.23.41.49,1,0,1.2.7,1-.56,2.67-.37,3-1.39.13,0,.1.25.14.41a1.62,1.62,0,0,1,.76-.65c-.47.43.69.06.72-.2.13,0,.11.25.14.41.21-.09.43-.53,1-.25.1,0,0-.2,0-.33.19.29,1.2-.43,1.6.1.21-.21.23-.3.49-.61a.82.82,0,0,1,.22.29c-.69.09.2.51-.18.89.18.13.43-.5.46-.82a2.74,2.74,0,0,1,.56.79,2.07,2.07,0,0,0,1.73-1.11c.41-.09.67.29,1.12,0a1.61,1.61,0,0,1,0,1.18c0,.29.25-.62.37-.8.14.28.52.14.59.24s.05-.21.05-.33c.21-.06.35,0,.39.16.12,0,.05-.28.05-.44a.53.53,0,0,1,.31.28c.11-.23.56-.57.47,0,.34,0,0-.52.3-.58.32.13-.27.44.08.64.08-.09,0-.32.12-.56.12,0,.16.17.3.18.06.24-.43,0-.24.35.16-.26.3.05.44-.17-.21.42,0,.3.09.74,0-.61,1-.5.81-.22.15.17.26-.49.42-.38s0,.14,0,.32c.2,0,10.34-.7,10.44-.17.11,0,.06-.21.06-.33s.1.18.13.3a2.14,2.14,0,0,1,.41-.49c.13,0,.1.26.14.42.1,0,.05-.21.05-.34.28.06.12.15.14.42.32-.06.16-.56.6-.52-.22.59,0,.05.4.27-.27-.39.15.1.06-.33.22.29.52-.06,1,0,1.19-.84,2.49-1.26,3.11-2.16a21.91,21.91,0,0,0,3.18-.66c0,.24-.45.11-.63.2a27.93,27.93,0,0,1,5-.48c.24,0-.1.2.05.42.19-.15.26-.4.5-.5.06.27-.35.13-.23.46a3.18,3.18,0,0,0,.93-.22L274,70c-1,0-1.32.79-2.23,1.08,0-.15-.05-.3.05-.33-.11-.28-.19.25-.23.35-.1-.1-.35,0-.32-.28-.09.14-.13.33-.43.28.1-.49-.19.06-.33-.49-.15.33-.46.15-.62.3q-.06-.35.24-.36c-.18-.33-.2.26-.45.17.05-.11.2-.14.15-.34a3.51,3.51,0,0,1-2.23.85c0-.13.13-.29.17-.13,0-.53-.93.58-1.26.39.08-1.14-1.68.18-2.21.2-.14,0-.25.25-.25.25s-1-.6-1.31,0c0-.36-1.24.06-1.09.26-.28.09-.24-.3-.57-.13.06-.17.28-.2.44-.28-.88-.32-1.44.28-2,.71a.28.28,0,0,1-.22-.3c-.2,0,0,.39,0,.55-.28-.28-.5-.1-.68-.34-.6.69-1.6.32-1.89.59.06-.16-.35-.18-.22-.29-.45-.2-.35.33-.89.34-.21,0,3.84-.47,3.94-.55,0-.27-4.21.63-4.59.64s.18-.34,0-.65c-.46.42-.15.44-.47.82-.13,0-.11-.26-.14-.41-.38.46-.78.73-1.18.27,0,.64-.42-.13-.32.48-.31-.3-.47,0-.69-.34-.26.11.11.22.05.43-.4-.37-1-.06-1.12-.82.07.42-.09.95-.45.93s.11-.2,0-.43c-.2.11-.15.44-.41.49-.47-.31-1-.57-1.43-.34-.24,0,.14-.3,0-.54,0,.21-.42.46-.38-.06-.21,0-.07.33-.24.36s-.52-.64-.56,0c-.17,0-.1-.35-.23-.4-.31.09.2.57,0,.55s-.08-.22-.14-.41c0,.42-.79,0-.52.39-.3-.09-.53-.36-.84-.09.19-.25.07-.19.12-.56-.31.16-.46-.17-.81.22-.18-.19,0-.14-.05-.43-.43-.16-1.65.72-1.75.14-.44-.1-1,.46-1.39.09-.27.48-.8,0-1.26.39,0-.18.13-.3,0-.32-.33.06,0,.16-.14.45-.69-.08-.13.17-.81.22,0-.12.15-.11.26-.14-.77-.12-.8.12-1.27.29-.2,0-.08-.38-.15-.52s-1.25.32-.94-.09c-.23-.3-.89.71-1-.07-.18.4-.64.17-.43-.15a.68.68,0,0,0,.12-.13.47.47,0,0,0-.12.13,2.13,2.13,0,0,1-1.69.34c0-.12.2-.14.15-.34-.23-.21-.52,0-.63.19-.16-.33.28-.12.13-.45-.35,0-.81.22-.86-.2-.25.24-.09.48-.41.49s.28-.25,0-.43c-.15.73-1.44.28-2.05,0,.37-.6-.66-.47-1.17-.49,0-.1.06-.2.16-.24-.23.07-.59,0-.71.32-.32,0,.11-.49-.14-.41-.2.37-.79,0-.67.16-.27.08-.21.36-.31.19-.54.61-1.68-.37-1.85.15-.14-.07-.17-.32-.24-.5-.39,0-.49.25-.8.32-.54-.66-1.45,0-1.9-.38.17-.24.43-.41.39-.59s-.31.28-.52.29a.25.25,0,0,1,.25-.25,1.56,1.56,0,0,0-.85-.1c0,.27-.41.21-.13.45-.17,0-.86.07-.49-.15-.1-.23-.42.12-.43.28-.13,0-.2-.2-.23-.4-.28.28-.59-.12-.83.12-.1,0-.35-.27-.12-.31-.16-.23-.28.38-.41.49-.29,0-.3-.39-.68-.23,0-.11.1-.1.17-.13-.31,0-.72-.4-.9.23-.3-.12.07-.43-.36-.7.33,0,.31.08.55-.08-.86-.21-1.38.82-2,.92-.14,0,0-.22.1-.31-.52.18-1.51.8-1.43.07-.66.4-1.16,0-2,.6,0-.32-.5,0-.75-.11.36-.26.09-.29-.07-.64,0,.37-.61.07-.92.13-.75.14-1.55.63-2.18.52-.13-.09,0-.18-.22-.3-.79.69-1.4-.09-2-.15.06,0-.13.39-.53.18-.74-.37-2.05,3-3.13,3.33-.31,0-.75-.36-1,0,.07-.35-.43,0-.3-.18-.27-.07-.8.56-.93,0-.15.67-.69.3-1.06.48.4-.19-.39-.38.22-.47a9.74,9.74,0,0,0-2.32.87c-.29-.26-.68-.33-.72-.66-.19.06,0,.47-.13.56s-.43-.27-.35.16c-.11-.13-.53-.31,0-.32-.3-.28-.78.2-1,0,0-.18.05-.22.16-.24-.83.31-1.37-.43-2.79,0-.15,0,.1.19-.07.22-.35.19-.23-.32-.57-.13,0-.32.12-.14.35-.16-.35-.62-1.11.24-1.64.34-.42-.14-.3-.32-.54-.68a9,9,0,0,0-2.71.7c-.11,0-.33-.08-.38,0-.25.1-.54.46-.18,0a12.12,12.12,0,0,0-1.74,1.11c-.35-.06-.56-.32-1-.3.33.12-.27-.62-.25-.61s-.27,0-.28,0a.45.45,0,0,1-.1-.09c0-.14-.15-.14,0,0l-.08.12c-.14.15-.93-.12-.6-.35-1.15.4-1.88.25-3.05,1-.07-.14.33-.3.05-.33-.58,1-1.63-.27-2.26.54-.11,0-.1-.19-.13-.31-.14.47-.39.24-.79.43-.2,0,.1-.34.14-.45-.32,0-.51.43-.87.56a3.69,3.69,0,0,0-2.14,0c0-.15-.15-.17-.33-.38-.44.35-.45-.08-.66-.12-1.2.32-4,1-5.28.19-.12,0-.42.38-.45.18-.13.06,0,.09,0,.21-1.27-.1-2.58,1.11-3.62.94a.83.83,0,0,1,.63-.2c0-.1.06-.2.16-.24-.17-.21-.49.09-.32-.38-.75.57-1.33-.2-2,.38-.2.08-.54-.24-.32-.38-.43-.1-.9.59-1.31.83-.17-.08-.16-.42-.49-.26a.67.67,0,0,1,.25-.25c-.07,0-.91.41-.67.64a.52.52,0,0,0-.65.09c-.18-.39.41-.08.23-.47-.09.14-.67.37-.57-.13-.39.41-1.47.52-1.79.68-.64.36-1.22.11-2-.37,0-.1.1-.1.17-.13-.87-.2-.94.51-1.9.48,0-.15.17-.22.34-.26.13-.27-.55.13-.62.3-.18-.2-.34-.14-.24-.51-.18.06-.15.32-.33.37s0-.14,0-.32c-.77.09-2.69.93-2.62-.17-.92.17-1.46-.24-2.17-.23a.23.23,0,0,0,.19.18c-.51.12-.92.82-1.64,1s-2-.65-2.36.55a.47.47,0,0,0-.38-.06c0,.21-.26.11-.05.33-.33.07-.89-.21-1.3.08-.35-.73-1.58.12-1.82-.5-.14.23-.83.91-1,.24-.06.5-1.5.33-.67-.22-.16,0-.58.49-.76.75-.32,0,0-.24-.23-.4-.1.47-.22-.18-.71.32,0-.24-.46-.24-.54-.69-.4.48-.47-2.79-1.06-2.52-.17-.35-1.28-.88-1.7-.2a4.22,4.22,0,0,0-3.82,0c-.54.06-1.22-.51-1.95,0-.12,0-.12-.2,0-.21-.67,0-2,.2-2.38-.53-.55.69-2.74.1-3.46.7-1.56-.2-2.7-.94-4.6-.33-.28-.24-.13-.34-.07-.64a2.58,2.58,0,0,1-3.29-.29.59.59,0,0,1,.13.31,10.19,10.19,0,0,1-3-.88c-.31.84-1.44.47-1.93,1-.51-.72-2.5-.59-3.55-.16-.09-.53-1.15,2.06-1.61,1.8.07.2-1.4.5-1.83.26,0,.18.09.19.21.18a7.52,7.52,0,0,1-2.53.68.67.67,0,0,0,0-.44c-.07.39-.86.66-.81.22-.18,0-.09.31-.35.27-.18-.3-.55-.33-.72-.66a5.86,5.86,0,0,0-.62.31c-.23,0,.11-.2,0-.43-.86.12-1.79.82-2,.28-.18,0-.3.16-.57-.13l0,.32c-.55-.79-1.36-.31-2.26-.23-.11,0-.1-.18-.12-.3-1.16.31-1.52-.17-2.39.33-.11,0-.09-.2,0-.31l.13,0a.13.13,0,0,0-.13,0,8.62,8.62,0,0,1-2.38,0c-.06-.3.17-.35.11-.66s-.26.09-.44.17c0-.1.06-.2.16-.23-.07-.41-.71.3-.78-.33-.68.36-1.56-1.18-2.38-.61a2.81,2.81,0,0,0-2.38.34,1.73,1.73,0,0,0-1.35-.46c-.21-.61-.6,1-.92.31-.08.74-.77.14-.87.56-.11,0-.1-.19-.13-.31-.9.58-1.8-1.1-2.63-.46-.49-.6-.83,1.21-1.48,1.15q-.06-.34.24-.36c-.26-.29-1.19.24-.27,0a.73.73,0,0,0,0,.54c-.17,0-.1-.35-.23-.4-.24.66-1-.87-1.57-.83.13-.14.23,1,.47,1a6.3,6.3,0,0,1-3.17,0c-.12.11-.31-1.17-.26-.91-.14-.21-.34.73-.56,1,.18-.18-.15-.24.06-.33-.54.27-.79-.44-1.6-.1-.15,0,0-.11.08-.12-1.3-1-3.4,1.58-5.15.51-.68.36-1.45,0-2.1.4.29-.6-1,.47-1.51-.22.1.34-.17.19-.19,0-.12.06,0,.19.12.2a.67.67,0,0,1-.25.25c-.05-.13-.16-.37-.59-.24a1.06,1.06,0,0,0,0-.65c-.16-.32-.05.39,0,.55-1.17.59-1.73-.53-2.45-.31-.1-.27.16-.23.24-.35-.09-.23-.47-.3-.58-.14,0,.16.15-.11.2.08s-.18.1-.16.24a1.21,1.21,0,0,0-1.22-.05,1.07,1.07,0,0,1-.34-.59c-.41,0,.11.26.06.53-.47-.61-.78-.06-1.13-.92-.11.15-.15.34-.27,0-.14.07,0,.13,0,.32-.3.08-.16-.51-.58-.24,0-.2.3-.11.34-.26.16-.37-.51.42-.64.09-.12,0-.05.27-.05.44-.09,0-.17-.28-.19-.09-.14,0,0-.14,0-.32-.17.07,0,.43-.33.38s.07-.31.15-.35c-.16,0-.6.54-.64.95-.13-.21-.45-2.14-.52-2.46-.13.18.14.52-.31.58-.07-.29-.09,0-.21-.29-.07.33-.37,0-.15.34-.18.06-.29,0-.3-.17a3.94,3.94,0,0,0-.41.49c-.38-.09-.51-.36-.94-.09-.12-.45.19.06.16-.24-.41-.48-1,0-1.19-.69-1,.56-2.68.36-3,1.39-.13,0-.11-.25-.14-.41a1.58,1.58,0,0,1-.77.64c.48-.42-.68,0-.72.21-.13,0-.11-.25-.14-.41-.21.08-.43.53-1,.25-.11,0-.06.2-.06.33-.19-.29-1.19.43-1.59-.1a5.16,5.16,0,0,0-.49.61.62.62,0,0,1-.22-.3c.69-.08-.21-.5.18-.88-.19-.13-.44.49-.47.82a2.92,2.92,0,0,1-.55-.79,2.08,2.08,0,0,0-1.74,1.11c-.41.09-.66-.29-1.11,0A1.59,1.59,0,0,1,35,75c0-.28-.25.63-.38.81-.14-.29-.51-.14-.58-.24s-.06.2-.06.33c-.2.06-.35,0-.39-.16-.12,0,0,.28,0,.44a.5.5,0,0,1-.31-.28c-.11.23-.56.57-.47,0-.34,0-.06.52-.31.58-.31-.13.28-.44-.07-.64-.09.09,0,.32-.13.56-.12,0-.16-.17-.29-.18-.07-.25.42,0,.24-.35-.17.26-.31-.06-.45.17.21-.42,0-.3-.08-.75,0,.61-1.05.51-.82.23-.15-.18-.26.49-.42.38s0-.14,0-.32c-.21,0-.35.7-.45.17-.11,0-.06.2-.06.33s-.1-.18-.12-.3a2.09,2.09,0,0,1-.41.48c-.13,0-.11-.25-.14-.41-.11,0-.06.21-.06.33-.28-.05-.12-.14-.14-.41-.32.06-.16.56-.59.52.22-.59,0-.05-.4-.27.27.39-.16-.1-.06.33-.23-.3-.52.06-1,0-1.19.84-2.49,1.26-3.11,2.16a21.63,21.63,0,0,0-3.18.66c0-.24.44-.11.63-.2a30.16,30.16,0,0,1-5,.48c-.24,0,.11-.2,0-.42-.19.15-.27.4-.51.5,0-.28.35-.13.23-.46A1.63,1.63,0,0,0,15.49,79.17Z"/><path class="cls-3" d="M194.59,75.19c0-.06,0-.12.08-.12.05.58-.36.17-.47,0C194.47,74.87,194.44,75.17,194.59,75.19Z"/><path class="cls-3" d="M92.85,10.32c0,.06,0,.12-.08.12,0-.58.36-.18.47,0C93,10.64,93,10.34,92.85,10.32Z"/><path class="cls-3" d="M70.25,7.32c-.41.17-.19,0-.42.39,0-.41-.41,0-.55.07-.12-.32.11-.35.12-.55.28-.1.48.18.27-.15.23,0,.26-.21.43-.28C70.14,7.2,70,7.17,70.25,7.32Z"/><path class="cls-3" d="M217.18,71.19c.42-.17.19,0,.42-.39,0,.41.42,0,.55-.07.12.32-.1.35-.12.55-.28.1-.47-.18-.26.15-.23,0-.27.2-.44.27C217.3,71.31,217.43,71.34,217.18,71.19Z"/></g><path class="cls-4" d="M12.69,74.79,0,15.08c.69-.16,12.06-1.79,12.84-2,0,.15.05.3-.06.33.11.28.2-.25.24-.35.1.1.34,0,.31.28.1-.14.13-.33.44-.28-.1.49.18-.06.33.49.14-.33.45-.15.62-.3q.06.34-.24.36c.17.33.2-.25.44-.17,0,.11-.19.14-.14.34A3.51,3.51,0,0,1,17,12.89c0,.13-.13.29-.17.13,0,.53.92-.58,1.26-.39,0-.69,1.51-.17,2.21-.2.13,0,.25-.25.25-.25s1,.6,1.3,0c0,.36,1.24-.06,1.09-.26.29-.09.25.3.58.13-.06.17-.28.2-.44.28.87.32,1.44-.28,2-.71a.3.3,0,0,1,.22.3c.2,0,0-.39,0-.55.29.28.5.1.69.34.59-.69,1.6-.32,1.89-.59-.06.16.35.18.22.29.45.2.35-.33.89-.34.21.05-.13.38-.23.47,0,.26.49-.55.87-.56s-.17.34,0,.65c.46-.42.15-.44.47-.82.13,0,.1.26.14.41.38-.46.78-.73,1.18-.27,0-.64.44.81.33.21.32.3.46-.72.67-.35.27-.11-.09.47,0,.26.4.37,1-.63,1.09.13-.06-.42.12-.27.48-.24s-.13-.49,0-.26c.2-.11.18.25.43.19.48.31,1-.11,1.42-.34.24,0-.14.3,0,.54,0-.2.42-.46.37.06.22,0,.07-.32.24-.36s.52.64.56,0c.18,0,.1.35.24.4.3-.09-.21-.57,0-.55s.07.22.14.41c0-.42.78,0,.51-.39.3.09.53.36.85.1-.2.24-.07.18-.13.55.32-.15.47.17.82-.22.17.19,0,.14,0,.43.42.16,1.64-.72,1.75-.14.43.1,1-.46,1.39-.09.27-.48.79-10,1.25-10.39,0,.18-.12.3,0,.32.32-.06,0-.16.14-.45.68.08.12-.17.81-.22,0,.12-.16.11-.26.14.77.12.79-.12,1.27-.29.19,0,.08.38.15.52s1.25-.32.94.09c.23.3.89-.71,1,.07.18-.4.63-.17.43.15a.46.46,0,0,0-.12.13.71.71,0,0,0,.12-.13A2.12,2.12,0,0,1,50.11,1c0,.12-.2.14-.15.34.22.21.52,0,.63-.19.15.33-.29.12-.14.45.35,0,.82-.22.87.2.24-.24.09-.48.41-.49s-.29.25,0,.43c.16-.73,1.45-.28,2,0-.37.6.68,1.15,1.19,1.17,0,.1-.07-.48-.17-.44.22-.07.61.68.72.36.33,0-.13-.19.12-.27.2-.37.79,0,.67-.16.28-.08.21-.36.32-.19.54-.61,1.69,1.05,1.86.53.15.07.15-.36.22-.18.4,0,.5-.25.81-.32.54.66,1.45,0,1.9.38-.17.24-.43.41-.4.59s.32-.28.53-.29c0,.14-.1.24-.25.25a1.51,1.51,0,0,0,.84.1c0-.27.41-.21.14-.45.16,0,.86-.07.48.15.1.23.43-.12.44-.28.13.05.19.2.23.4.27-.28.59.12.82-.11.11,0,.35.26.13.3.15.23.28-.38.41-.49.29,0,.29.39.68.23,0,.11-.11.1-.18.13.31,0,.73.4.91-.23.3.12-.07.43.36.7-.33,0-.32-.08-.55.08.85.21,1.38-.82,1.94-.92.15,0,.05.22-.09.31.52-.18,1.5-.8,1.42-.07.67-.4,1.17,0,2-.59,0,.31.51,0,.76.11-.36.25-.1.28.07.63,0-.37.6-.07.92-.13.75-.14,1.55-.63,2.17-.52.14.09,0,.18.22.3.79-.69,1.41.09,2,.15-.06,0,.13-.39.54-.18.74.37,2,0,3.13-.33.31,0,.74.37,1,0-.07.35.42,0,.3.18.27.07.8-.56.93,0,.15-.67.68-.3,1.06-.48-.4.19.38.38-.23.47a9.58,9.58,0,0,0,2.32-.87c.3.26.69.33.73.66.19-.06,0-.48.12-.56s.43.27.36-.16c.11.13.52.31,0,.32.3.28.79-.2,1,0,.06.18,0,.22-.16.24a24.72,24.72,0,0,1,2.8-1c.14,0-.1-.19.07-.22.35-.19.22,5.32.57,5.13,0,.32-.12-4.86-.35-4.84C92,1.87,92.77,6,93.3,5.91c.42.14.3.32.54.68a9.32,9.32,0,0,0,2.72-.7c.1,0,.32.08.38.05.25-.1.54-.46.18,0a12.12,12.12,0,0,0,1.74-1.11c.35.06.56.32,1,.3-.32-.12.27.62.26.61s.27,0,.27,0a.53.53,0,0,1,.11.09c0,.14.14.14,0,0a.28.28,0,0,1,.07-.11c.15-.16.93.11.6.34,1.15-.4,1.88-.25,3.06-1,.06.14-.33.3-.06.33.58-1,1.64.27,2.27-.54.11,0,.1.19.13.31.14-.47.38-.24.79-.43.19,0-.1.34-.14.45.32,0,.5-.43.87-.56a3.69,3.69,0,0,0,2.14,0c0,.15.15.17.32.38.45-.35.45.08.67.13,1.19-.33,4,5,5.28,5.8.11,0,.41-.38.45-.18.12-.06,0-.09,0-.21,1.28.1,2.59-1.11,3.62-.94a.82.82,0,0,1-.63.2c0,.1-.06.2-.16.24.18.21.5-.09.32.38.76-.57,1.34.2,2-.38.2-.08.54.24.32.38.42.1.89-.59,1.3-.83.18.08.17.42.5.26a.75.75,0,0,1-.25.25c.07.05.9-.41.67-.64a.5.5,0,0,0,.64-.09c.18.39-.41.08-.23.47.09-.14.68-.37.58.13.38-.41,1.47-.52,1.78-.68.65-.36,1.22-.11,2,.37,0,.1-.1.1-.17.13.86.2.94-.51,1.9-.48a.43.43,0,0,1-.35.26c-.13.27.56-.13.62-.3.19.2.34.14.24.51.19-.06.15-.32.34-.37s0,.14,0,.32c.77-.09,2.7-.93,2.63.17.91-.17,1.45.24,2.16.23a.21.21,0,0,0-.19-.18c.51-.12.93-.82,1.65-1s2,.65,2.35-.55a.47.47,0,0,0,.38.06c.05-.21.27-.11.06-.33.33-.07.89.21,1.29-.08.35.73,1.58-5.12,1.83-4.5.14-.23.83-.91,1-.24.06-.5,1.51-.33.68.22.16.05.58-.49.75-.75.32.05,0,.24.23.4.11-.47.23.18.71-.31,0,.23.46.23.54.67.4-.47.47-.2,1.07-.47.16.35,1.28.88,1.7.2a4.19,4.19,0,0,0,3.81,0c.54-.06,1.23.51,2,0,.12,0,.12.2,0,.21.68,0,2-.2,2.39.53.54-.69,2.73-.1,3.46-.7,1.56.2,2.7.94,4.6.33.28.24.13.34.07.64a2.58,2.58,0,0,1,3.29.29.52.52,0,0,1-.13-.31,9.93,9.93,0,0,1,3,.88c.32-.84,1.44-.47,1.93-1,.52.71,2.51,5.58,3.56,5.15.09.53,1.15-.06,1.6.2-.07-.2,1.4-.5,1.84-.26,0-.18-.1-.18-.21-.18a7.46,7.46,0,0,1,2.53-.68.73.73,0,0,0-.05.44c.07-.39.87-.66.82-.22.18,0,.08-.31.34-.27.19.3.56.33.72.66a5,5,0,0,0,.62-.31c.24,0-.1.2.05.43.85-.12,1.79-.82,2-.28.17,0,.29-.16.57.13,0-.1,0-.21,0-.32.56.79,1.36.31,2.26.23.11,0,.1.18.13.3,1.16-.31,1.51.17,2.38-.33.12,0,.09.2,0,.31l-.14,0a.14.14,0,0,0,.14,0,9,9,0,0,1,2.37,0c.06.3-.17.35-.11.66s.26-.09.45-.17c0,.1-.06.2-.16.23.07.41.71-.3.78.33.68-.36,1.51-.19,2.33-.76a2.86,2.86,0,0,0,2.39-.33,1.7,1.7,0,0,0,1.35.45c.21.61.63.34,1,1.06.09-.74.77-.14.87-.56.11,0,.1.19.13.31.9-.58,1.77-.27,2.6-.9.49.59.87.15,1.51.22,0,.22,0,.34-.24.35.27.29,1.2-.24.28,0a.82.82,0,0,0,0-.55c.17,0,.1.35.23.4.23-.66,1-.5,1.52-.54-.12.15-.19.34-.42.38a6.26,6.26,0,0,1,3.16,0c.13-.11.28-.2.23-.46.14.21.38.64.6.35-.19.18.14.24-.06.33a14.28,14.28,0,0,1,1.59-.9c.15,0,0,.11-.08.12,1.31,1,3.4-1.58,5.16-.51.67-.36,1.44,0,2.1-.4-.29.6,1-.47,1.51.22-.11-.34.16-.19.18,0,.13-.06,0-.19-.11-.2a.69.69,0,0,1,.25-.26c0,.14.16.38.58.25a1.06,1.06,0,0,0,0,.65c.17.32.05-.39,0-.55,1.16-.59,1.73.53,2.45.31.09.27-.17.23-.24.35.09.23.47.3.57.14s-.15.11-.19-.08.17-.1.16-.24a1.19,1.19,0,0,0,1.21.05,1,1,0,0,1,.35.6c.41-.05-.11-.27-.06-.54a7.78,7.78,0,0,1,1.13,1.92c.1-.15.14-.34.27,0,.13-.07-.05-1.13,0-1.32.3-.08.15,1.51.58,1.24,0,.2-.3.11-.34.26-.17.37.51-.42.64-.09a5.14,5.14,0,0,0,0-1.43c.1,0,.18.27.2.08.14,0,0,1.14,0,1.32.18-.07,0-1.43.34-1.38s-.07,1.31-.15,1.35a5.9,5.9,0,0,0,.64-1.95c.13.21.45.14.51.46.13-.18-.13-.52.31-.58.08.29.09-.05.22.29.07-.33.36,0,.15-.34.18-.06.29,0,.3.17.15-.14.27-.32.41-.48.38.08.51.35.94.08.12.45-.2-.06-.16.24.4.48,1,0,1.19.69,1-.56,2.68.64,3-.39.13,0,.11.25.14.41a1.55,1.55,0,0,1,.76-.64c-.47.42.69.05.73-.21.12,0,.1.25.14.41.21-.08.42-.53,1-.25.11,0,.06-.2.06-.33.18.29,1.19-.43,1.59.1.21-.21.23-.3.49-.61a.76.76,0,0,1,.22.3c-.69.08.21.5-.18.88.18.13.43-.49.47-.82a2.92,2.92,0,0,1,.55.79A2.1,2.1,0,0,0,248.47,8c.41-.09.66.29,1.11-.05a1.59,1.59,0,0,1,0,1.19c0,.28.25-.63.37-.81.15.29.52.14.59.24s0-.2,0-.33c.21-.06.35,0,.39.16.12-.05,0-.28,0-.44a.5.5,0,0,1,.31.28c.11-.23.56-.57.47,0,.34,0,.06-.52.31-.58.31.13-.28.44.07.64.09-.09,0-.32.12-.56.13,0,.17.17.3.18.06.25-.42,0-.24.35.16-.26.31.05.45-.17-.22.42,0,.3.08.75,0-.61,1-.51.81-.22.15.17.26-.5.42-.39s0,.14,0,.32c.2,0,.34-.7.45-.17.1,0,.05-.2.05-.33s.1.18.13.3a2.09,2.09,0,0,1,.41-.48c.13,0,.11.25.14.41.11,0,.06-.21.06-.33.27,0,.12.14.14.41.32-.06.16-.56.59-.52-.22.59,0,0,.4.27-.27-.39.15.1.06-.33.22.3,10.52-.06,11,0,1.19-.84,2.49-1.26,3.11-2.16A21.63,21.63,0,0,0,274,5c0,.24-.45.11-.63.2a30.14,30.14,0,0,1,5-.48c.24,0-.1.2,0,.42.19-.15.26-.4.5-.5.06.28-.34.13-.23.46a3.1,3.1,0,0,0,.93-.22l-8.31,60.8c-1,0-1.32.79-2.23,1.08,0-.15-.05-.3.06-.33-.12-.28-.2.25-.24.36-.1-.11-.34,0-.31-.28-.1.13-.14.32-.44.27.1-.49-.18.06-.33-.49-.14.33-.46.15-.62.3q-.06-.35.24-.36c-.18-.33-.2.26-.45.17,0-.11.2-.13.15-.34a3.51,3.51,0,0,1-2.23.85c0-.12.13-.29.17-.13,0-.53-.93.58-1.26.39.08-1.14-1.68.18-2.21.21-.13,0-.25.25-.25.25s-1-.61-1.31,0c0-.36-1.24.06-1.09.26-.28.09-.24-.29-.57-.13.06-.17.28-.2.44-.28-.88-.31-1.44.28-2,.71-.12,0-.2-.11-.22-.3-.2,0,0,.39,0,.55-.29-.28-.5-.1-.69-.34-.59.7-1.6.33-1.89.59.06-.16-.35-.18-.22-.29-.45-.2-.35.33-.89.34-.21,0,.13-.38.23-.46,0-.27-.49.54-.87.55s.17-.34,0-.65c-.46.42-.15.44-.47.82-.13,0-.11-.25-.14-.41-.38.46-.78.73-1.18.27,0,.64-.42-.13-.32.48-.31-.3-.47,0-.69-.34-.26.11.12.22.05.43-.4-.37-1,0-1.11-.82.06.42-.1,1-.46.93s.11-.2-.05-.43c-.19.11-.15.44-.41.49-.47-.31-1-.57-1.43-.34-.24,0,.14-.3,0-.54,0,.21-.42.46-.38,0-.21,0-.06.32-.24.35s-.52-.64-.56,0c-.17,0-.09-.35-.23-.4-.31.09.21.57,0,.55s-.07-.22-.14-.41c-.05.43-.78,0-.51.39-.31-.09-.54-.36-.85-.09.2-.25.07-.19.12-.56-.31.16-.46-.17-.81.22-.18-.19,0-.14,0-.42-.42-.17-1.65.71-1.75.13-.44-.09-1,.46-1.39.09-.27.48-.8,0-1.26.39,0-.18.13-.3,0-.32-.32.06,0,.16-.14.45-.68-.07-.13.17-.81.22,0-.12.16-.11.26-.14-.77-.11-.8.12-1.27.29-.2,0-.08-.38-.15-.52s-1.25.33-.94-.09c-.23-.3-.89.71-1-.07-.18.41-.64.17-.43-.15a.36.36,0,0,0,.12-.13.68.68,0,0,0-.12.13,2.12,2.12,0,0,1-1.69.34c.05-.12.2-.14.15-.34-.23-.2-.52,0-.63.19-.15-.33.29-.12.13-.45-.35,0-.81.23-.86-.2-.25.24-.09.48-.41.49s.29-.25,0-.43c-.16.73-1.45.29-2.06,0,.38-.59-.66-.47-1.17-.49,0-.1.06-.2.16-.23-.23.06-.59,0-.71.31-.32,0,.12-.49-.14-.41-.19.37-.78,0-.66.16-.28.08-.22.36-.32.19-.54.61-1.68-.37-1.85.15-.14-.07-.17-.32-.24-.5-.39,0-.49.25-.8.33-.54-.66-1.45,0-1.9-.39.17-.24.43-.41.4-.59-.18-.28-.32.28-.53.29,0-.14.09-.24.25-.25a1.63,1.63,0,0,0-.85-.1c0,.28-.41.21-.13.45-.17,0-.86.08-.48-.15-.1-.23-.43.12-.44.28-.13,0-.2-.2-.23-.4-.27.28-.59-.12-.82.12-.11,0-.35-.27-.13-.31-.15-.22-.28.38-.41.49-.29,0-.3-.39-.68-.23,0-.1.1-.1.17-.13-.31,0-.72-.4-.9.23-.3-.12.07-.43-.36-.7.33,0,.32.08.55-.08-.86-.21-1.38.82-1.95.92-.14,0,0-.22.1-.31-.52.18-1.51.8-1.42.07-.67.41-1.17,0-2,.6,0-.32-.51,0-.76-.11.36-.26.09-.29-.07-.64,0,.38-.61.07-.92.13-.75.14-1.55.63-2.17.52-.14-.09,0-.18-.22-.29-.8.68-1.41,2.9-2,2.84.06,0-.13.39-.53.18-.74-.37-2,0-3.13.33-.31,0-.75-.36-1,0,.07-.35-.43,0-.3-.18-.27-.07-.8.56-.93,0-.15.66-.69.29-1.06.47.4-.19-.38-.38.23-.46a9.35,9.35,0,0,0-2.33.86c-.29-.26-.68-.33-.72-.65-.19,0,0,.47-.13.55s-.43-.27-.35.16c-.11-.13-.53-.31,0-.32-.31-.27-.79.2-1,0-.05-.18,0-.21.16-.24-.83.31-1.37-.43-2.79,0-.15,0,.1.19-.07.22-.35.19-.23-.32-.57-.13,0-.32.12-.14.35-.16-.35-.62-1.1.24-1.64.34-.42-.14-.3-.32-.54-.68a9.34,9.34,0,0,0-2.71.7c-.11,0-.32-.07-.38,0-.25.1-.54.46-.18,0A13.07,13.07,0,0,0,183,71.94c-.35-.06-.56-.32-1-.3.32.12-.28-.62-.26-.61s-.27,0-.27,0a.35.35,0,0,1-.11-.09c.05-.14-.14-.14,0,0a.3.3,0,0,1-.08.12c-.14.15-.92-.12-.59-.35-1.16.41-1.88.25-3.06,1-.07-.15.33-.31.06-.34-.58,1-1.64-.26-2.27.54-.11,0-.1-.19-.13-.31-.14.47-.39.24-.79.44-.2,0,.1-.35.14-.45-.32,0-.5.42-.87.55a3.69,3.69,0,0,0-2.14,0c-.05-.15-.15-.17-.33-.38-.44.35-.44-.08-.66-.12-1.2.32-4,1-5.28.2-.12,0-.42.37-.45.17-.13.06,0,.09,0,.21-1.27-.1-2.58,1.11-3.61.94a.82.82,0,0,1,.63-.2c0-.1.06-.2.15-.24-.17-.21-.49.09-.32-.38-.75.57-1.33-.2-2,.39-.2.07-.54-.25-.32-.39-.43-.1-.9.59-1.31.83-.17-.07-.16-.42-.49-.26a.85.85,0,0,1,.25-.25c-.07,0-.9.41-.67.64a.5.5,0,0,0-.64.09c-.18-.39.4-.08.22-.47-.09.14-.67.38-.57-.13-.38.41-1.47.52-1.79.68-.64.36-1.22.12-2-.37,0-.1.1-.1.17-.13-.87-.2-.94.51-1.9.48,0-.15.17-.22.34-.26.14-.27-.55.14-.61.3-.19-.2-.34-.14-.25-.5-.18,0-.14.31-.33.36s0-.14,0-.31c-.78.08-2.7.92-2.63-.18-.91.17-1.46-.23-2.17-.23a.23.23,0,0,0,.19.18c-.5.12-.92.83-1.64,1s-2-.65-2.36.55a.45.45,0,0,0-.37-.06c-.05.21-.27.12-.06.33-.33.08-.89-.21-1.3.08-.34-.73-1.58.12-1.82-.5-.14.23-.83.91-1,.25-.06.49-1.5-2.67-.67-3.23-.16,0-.58.49-.76.75-.31,0,0-.24-.23-.4-.1.47-.22-.18-.71.32,0-.24-.45-.24-.54-.68-.4.47-.46.2-1.06.47-.17-.35-1.28-.88-1.7-.19a4.16,4.16,0,0,0-3.81,0c-.54.06-1.23-.51-2,0-.12,0-.12-.2,0-.21-.67,0-2,.2-2.38-.53-.54.69-2.74.1-3.46.7-1.56-.2-2.7-.94-4.6-.33-.28-.24-.13-.34-.07-.63a2.58,2.58,0,0,1-3.29-.3.52.52,0,0,1,.13.31,9.57,9.57,0,0,1-3-.88c-.32.84-1.44.47-1.94,1-.51-.72-2.5,1.41-3.55,1.85-.09-.53-1.15,0-1.61-.21.08.2-1.4.5-1.83.26,0,.18.1.19.21.18a7.52,7.52,0,0,1-2.53.68.67.67,0,0,0,0-.44c-.06.39-.86.67-.81.23-.18,0-.08.3-.34.26-.19-.3-.56-.32-.73-.65a4.13,4.13,0,0,0-.61.3c-.24,0,.1-.2-.05-.43-.85.12-1.79.82-2,.29-.18,0-.29.15-.57-.14l0,.32c-.55-.79-1.35-.31-2.25-.23-.11,0-.1-.18-.13-.3-1.16.31-1.52-.16-2.38.33-.12,0-.09-.2,0-.3l.13,0a.11.11,0,0,0-.13,0,9.39,9.39,0,0,1-2.37,0c-.06-.31.17-.36.11-.67s-.27.09-.45.17c0-.1.06-.2.16-.23-.07-.41-.71.3-.78-.33-.68.36-1.55-1.18-2.37-.6a2.83,2.83,0,0,0-2.39.33,1.72,1.72,0,0,0-1.35-.46c-.21-.61-.6,1-.92.32-.08.73-.77.13-.87.55-.1,0-.09-.18-.12-.31-.91.58-1.81-1.1-2.64-.46-.49-.6-.83,1.21-1.47,1.15,0-.23,0-.35.23-.36-.26-.29-1.19.24-.27,0a.78.78,0,0,0,0,.54c-.17,0-.1-.35-.23-.4-.24.66-1-.86-1.56-.83.12-.14.23,1,.46,1a6.3,6.3,0,0,1-3.17,0c-.12.11-.31-1.17-.26-.91-.14-.21-.34.73-.56,1,.19-.18-.14-.24.06-.33-.53.27-.78-.44-1.6-.1-.15,0,0-.11.08-.12-1.3-1-3.4,1.58-5.15.51-.67.36-1.45,0-2.1.4.29-.6-1,.47-1.51-.22.1.34-.17.19-.18,0-.13,0,0,.18.11.2a.85.85,0,0,1-.25.25c0-.13-.16-.37-.59-.25a.91.91,0,0,0,0-.64c-.16-.33,0,.38,0,.54-1.17.59-1.73-.53-2.45-.3-.1-.28.16-.24.24-.36-.09-.23-.47-.3-.58-.14.06.16.15-.11.2.08s-.18.1-.16.24a1.21,1.21,0,0,0-1.22,0,1.07,1.07,0,0,1-.34-.59c-.41,0,.11.26.06.53a17,17,0,0,1-1.13-2.92c-.11.15-.15.35-.27,0-.13.07.05.14,0,.32-.3.08-.16-.5-.58-.24,0-.2.3-.11.34-.26.16-.36-.51.42-.64.09-.12.05,0,.27,0,.44-.09-.05-.17-.28-.19-.09-.14,0,0-.13,0-.31-.17.06,0,.42-.33.37s.07-.3.15-.35c-.16,0-.6.54-.64,1-.13-.21-.45-.14-.52-.46-.12.18.14.52-.3.58-.08-.29-.1,0-.22-.29-.07.33-.36,0-.15.34-.18.06-.29,0-.3-.17a3.94,3.94,0,0,0-.41.49c-.38-.08-.51-.36-.94-.09-.12-.45.19.06.16-.23-.41-.49-1,0-1.19-.7-1,.56-2.68.37-3,1.39-.13,0-.11-.25-.14-.41a1.65,1.65,0,0,1-.77.65c.48-.43-.68-.06-.72.2-.13,0-.1-.25-.14-.41-.21.09-.43.53-1,.25-.11,0-.06.2-.06.33-.18-.29-1.19.43-1.59-.1-.21.21-.23.3-.49.61a.72.72,0,0,1-.22-.29c.69-.09-.21-.51.18-.89-.19-.13-.43.5-.47.82a2.92,2.92,0,0,1-.55-.79,2.1,2.1,0,0,0-1.74,1.11c-.41.09-.66-.29-1.11,0a1.57,1.57,0,0,1,0-1.18c0-.29-.25.62-.37.8-.15-.28-.52-.14-.59-.24s-.06.21-.06.33c-.2.06-.34,0-.39-.16-.12,0,0,.28,0,.44a.5.5,0,0,1-.31-.28c-.11.23-.56.57-.47,0-.34,0-.06.52-.31.58-.31-.13.28-.44-.07-.64-.09.09,0,.32-.12.56-.13,0-.17-.17-.3-.18-.07-.24.42,0,.24-.35-.17.26-.31,0-.45.17.22-.42,0-.3-.08-.75,0,.61-1,.51-.81.23-.15-.17-.26.49-.43.38s0-.14,0-.32c-.21,0-.34.7-.45.17-.1,0-.06.21-.05.33s-.1-.18-.13-.3a2.14,2.14,0,0,1-.41.49c-.13,0-.11-.26-.14-.42-.11,0-.06.21-.06.34-.27-.06-.12-.15-.14-.42-.32.07-.16.56-.59.52.22-.59,0,0-.4-.27.27.39-.15-.1-.06.33-.23-.29-.52.06-1,0-1.19.84-2.49,1.26-3.11,2.16a21.63,21.63,0,0,0-3.18.66c0-.24.44-.11.63-.2a28.14,28.14,0,0,1-5,.48c-.23,0,.11-.2,0-.42-.19.15-.27.4-.5.5-.06-.27.34-.13.22-.46A1.68,1.68,0,0,0,12.69,74.79Z"/><path class="cls-4" d="M191.79,70.81c0-.06,0-.12.08-.11,0,.57-.36.17-.47,0C191.67,70.49,191.64,70.79,191.79,70.81Z"/><path class="cls-4" d="M90.05.94c0,.06,0,.12-.08.12,0-.58.36-.17.47,0C90.16,1.26,90.2,1,90.05.94Z"/><path class="cls-4" d="M67.45,2.94c-.41.18-.19.05-.42.39,0-.41-.41,0-.55.07-.11-.32.11-.35.13-.55.28-.1.47.18.26-.15.23,0,.26-.2.43-.27C67.34,2.82,67.2,2.79,67.45,2.94Z"/><path class="cls-4" d="M214.38,66.81c.42-.17.2,0,.43-.38,0,.4.41-.05.55-.08.11.32-.11.35-.13.55-.28.1-.47-.18-.26.15-.23,0-.27.21-.43.28C214.5,66.93,214.63,67,214.38,66.81Z"/></g></g></g></svg>