<svg xmlns="http://www.w3.org/2000/svg" viewBox="0 0 510.06 100.87"><defs><style>.cls-1{isolation:isolate;}.cls-2{mix-blend-mode:multiply;}.cls-3{fill:#525252;}.cls-4{fill:#fff;}</style></defs><title>science</title><g class="cls-1"><g id="Layer_2" data-name="Layer 2"><g id="Слой_1" data-name="Слой 1"><g class="cls-2"><path class="cls-3" d="M510.06,63.85,505.45,3.29c-1.37,0-2.17-.6-3.71-.71,0,.15-.05.3.16.32-.19.29-.42-.22-.52-.32-.17.12-.66,0-.56.34a.92.92,0,0,0-.88-.2c.25.47-.37,0-.58.55-.33-.31-.91-.08-1.24-.19-.06.23.11.34.51.31-.3.36-.42-.22-.89-.09.11.1.4.1.33.31a11.71,11.71,0,0,0-4.44-.45c.05.12.29.27.35.1,0,.53-1.88-.41-2.5-.17-.18-.68-3,.1-4.32.19a.79.79,0,0,1-.52-.21s-1.94.79-2.53.27c.11.35-2.42.16-2.15-.07-.56,0-.43.34-1.09.24.14.15.56.14.88.19a6.2,6.2,0,0,1-3.92-.35c-.22,0-.38.14-.38.33-.39,0-.05-.38-.14-.54-.52.33-1,.19-1.29.46-1.24-.59-3.15,0-3.75-.25.15.15-.65.23-.38.32-.85.28-.73-.26-1.78-.18-.4.08.31.35.5.42,0,.27-1-.45-1.76-.39-.44.1.39.31.13.64-1-.34-.35-.41-1-.73-.25,0-.18.27-.22.43a2.14,2.14,0,0,0-2.33-.06c-.14-.64-.75.88-.62.26-.57.35-1-.63-1.35-.23-.53-.06.24.45.09.25-.73.44-1.94-.45-2.11.33.07-.43-.27-.25-1-.16-.46,0,.19-.5-.08-.25-.4-.07-.31.28-.81.27a4.83,4.83,0,0,1-2.79-.1c-.46.09.3.28.13.54-.08-.2-.88-.39-.73.12-.41,0-.17-.31-.51-.32s-.92.73-1.08.13c-.34,0-.15.37-.4.44-.61,0,.32-.6-.14-.54-.73,0-.11.23-.21.44-.16-.42-1.52.17-1.05-.3-.58.14-1,.45-1.64.24.42.21.17.17.32.53-.63-.1-.88.25-1.61-.07-.32.21,0,.13,0,.43-.8.24-3.29-.42-3.42.17-.83.17-2-.28-2.7.16-.6-.44-1.56.11-2.5-.17,0,.18.29.27,0,.32-.63,0,0-.16-.33-.42-1.32.19-.26-.15-1.6-.08,0,.12.32.08.53.1a6,6,0,0,1-2.51-.06c-.39,0-.11.38-.22.54-.37.16-2.47-.11-1.82.25-.4.34-1.82-.55-2,.25-.4-.37-1.25-.06-.81.22a.78.78,0,0,1,.24.11.77.77,0,0,1-.24-.11,7.53,7.53,0,0,0-3.33,0c.1.11.4.11.33.32a1.38,1.38,0,0,1-1.25-.08c-.25.35.58.07.32.42-.68,0-1.61-.08-1.64.35-.51-.19-.24-.46-.86-.41-.44.07.58.19,0,.43-.39-.69-2.84,0-4,.39.79.53-1.17,1.26-2.16,1.37.07.1.09-.49.29-.47-.46,0-1.1.78-1.37.49-.63,0,.23-.21-.27-.25-.43-.33-1.53.1-1.32,0-.54,0-.45-.32-.63-.14-1.14-.5-3.16,1.35-3.55.86-.28.1-.35-.33-.46-.14a7.43,7.43,0,0,1-1.6-.18c-1,.75-2.82.22-3.65.71.37.22.89.34.86.52-.32.31-.66-.22-1.06-.19.07.13.21.21.52.2a6.15,6.15,0,0,1-1.64.25c0-.28-.82-.14-.32-.42-.31.05-1.68.07-.92.23-.16.25-.84,0-.87-.2a.52.52,0,0,0-.4.44c-.57-.23-1.13.22-1.62,0-.21,0-.64.32-.2.32-.27.25-.59-.32-.87-.41-.56,0-.52.43-1.28.34,0,.11.21.08.35.11-.61,0-1.36.52-1.79-.08-.56.18.2.42-.6.76.64-.06.6-.13,1.08,0-1.63.37-2.78-.57-3.9-.57-.28,0-.06.23.23.3-1-.1-3-.53-2.78.18-1.35-.29-2.26.24-3.92-.25.1.31-1,.06-1.46.24.74.19.23.27-.05.65,0-.38-1.18,0-1.8,0a29,29,0,0,0-4.29-.13c-.25.11.06.17-.39.33-1.62-.54-2.72.33-3.8.5.11,0-.31-.36-1.07-.09-1.38.5-4,.35-6.12.22-.61,0-1.39.5-2,.15.19.33-.83,0-.56.22-.52.12-1.63-.41-1.8.15-.39-.64-1.38-.18-2.13-.29.8.11-.69.45.5.42a31.5,31.5,0,0,1-4.62-.45c-.54.31-1.29.45-1.32.78-.37,0,0-.47-.32-.53s-.8.34-.7-.1c-.2.16-1,.4,0,.33-.55.32-1.55-.06-2,.14-.08.18.12.2.34.21-1.65-.16-2.6.66-5.42.53-.28,0,.18-.21-.16-.21-.7-.13-.4.36-1.1.23.13.31.26.12.71.1-.59.67-2.17-.05-3.22-.05-.8.21-.54.37-1,.77a33.37,33.37,0,0,1-5.36-.22,6.93,6.93,0,0,0-.73.12c-.51-.06-1.12-.36-.36,0a34.54,34.54,0,0,1-3.52-.8,12.51,12.51,0,0,1-1.83.47c.62-.18-.45.67-.41.65a1.65,1.65,0,0,1-.54,0l-.2.11c.12.13-.26.16,0,0a.36.36,0,0,0-.16-.1c-.3-.14-1.79.28-1.12.45-2.29-.21-3.68.07-6.06-.43-.1.16.68.25.16.32-1.25-.85-3.15.56-4.47-.13-.22,0-.17.2-.21.33-.34-.44-.79-.17-1.59-.29-.38,0,.23.32.32.42-.62.08-1-.34-1.76-.4a13.91,13.91,0,0,1-4.16.4c-.06.17-.25.2-.57.44-.91-.27-.86.16-1.28.24-2.36-.11-7.9-.29-10.28.73-.22,0-.85-.3-.89-.09-.25,0,0-.1,0-.21-2.46.32-5.16-.66-7.15-.3a2.72,2.72,0,0,0,1.25.08.43.43,0,0,0,.34.21c-.31.24-1,0-.57.44-1.54-.44-2.56.43-3.94,0-.39,0-1,.34-.58.44-.81.17-1.81-.43-2.64-.59-.32.1-.26.44-.92.33a1.31,1.31,0,0,0,.52.21c-.13.07-1.81-.24-1.39-.51a1.77,1.77,0,0,1-1.26,0c-.3.42.8,0,.5.42-.19-.12-1.35-.25-1.09.24a18.41,18.41,0,0,0-3.56-.37,6.28,6.28,0,0,0-3.82.72c0,.1.21.08.35.1-1.66.35-1.9-.34-3.76-.14a1,1,0,0,0,.7.2c.29.24-1.09,0-1.23-.19-.34.23-.64.19-.41.54-.36,0-.33-.28-.69-.31s.06.14,0,.32c-1.51.06-5.35-.44-5.07.64a31.3,31.3,0,0,0-4.18.61c0-.12.16-.18.35-.21-1,0-1.9-.66-3.32-.7s-3.84,1-4.65-.13a1.5,1.5,0,0,1-.73.12c-.11-.2-.53-.06-.15-.32a10.12,10.12,0,0,1-2.52.16c-.59.79-3.09.15-3.48.82-.31-.21-1.74-.77-2-.07-.18-.49-3-.07-1.28.34a3.71,3.71,0,0,1-1.56-.61c-.61.1,0,.24-.4.43-.26-.45-.41.23-1.41-.18.05.23-.87.31-1,.77-.84-.41-.93-.12-2.12-.29-.28.38-2.38,1.1-3.27.49a15.32,15.32,0,0,1-7.41.68c-1.06,0-2.31.72-3.8.39-.23,0-.2.22,0,.22-1.31.11-3.86.15-4.56.94-1.14-.59-5.32.38-6.81-.09-3,.48-5.11,1.41-8.88,1.14-.51.29-.22.36,0,.64-2.15-.53-5.07-.1-6.35.87.1-.09.2-.17.2-.32A33.27,33.27,0,0,0,190,28c-.73-.78-2.86-.21-3.89-.68-.9.81-4.78,1-6.88.78-.1.54-2.24.14-3.09.48.11-.21-2.79-.25-3.59.07-.05-.18.16-.2.38-.22a26.41,26.41,0,0,0-5-.23.4.4,0,0,1,.14.43c-.18-.37-1.77-.51-1.61-.08-.35,0-.2-.29-.7-.2-.32.33-1,.42-1.32.78-.44-.06-.59-.08-1.24-.2-.46,0,.23.18,0,.43-1.68,0-3.58-.49-4,.08a1.42,1.42,0,0,0-1.1.23l0-.32c-1,.88-2.6.55-4.36.62-.21,0-.17.2-.2.32-2.3-.1-2.92.43-4.67.09-.24,0-.15.22.07.3l.26,0a.44.44,0,0,1-.26,0,38.1,38.1,0,0,0-4.62.43c-.07.32.38.32.31.64-.34.21-.52,0-.89-.09a.43.43,0,0,0,.34.21c-.09.41-1.43-.18-1.48.45-1.36-.23-3,.09-4.63-.34a10.2,10.2,0,0,1-4.67.09,5.48,5.48,0,0,1-2.57.69c-.32.64-1.18.45-1.71,1.21-.26-.71-1.52,0-1.76-.39-.21,0-.17.2-.21.32-1.83-.41-3.46,0-5.16-.44-.87.68-1.67.31-2.91.49,0,.23.12.34.51.31-.48.33-2.35,0-.54,0a.45.45,0,0,1-.13-.53c-.33,0-.14.36-.4.43-.53-.61-2-.32-3-.26a1.56,1.56,0,0,0,.87.3,23,23,0,0,0-6.14.55c-.26-.09-.56-.15-.51-.42-.23.23-.65.7-1.11.45.38.15-.25.27.15.32-1.06-.18-1.46.58-3.08.38-.28.06,0,.11.17.1-2.4,1.19-6.8-1-10.07.41-1.35-.25-2.81.21-4.13,0,.64.54-2-.29-2.9.48.16-.36-.35-.16-.36,0-.25,0,0-.19.19-.22A1.31,1.31,0,0,0,88,36c-.07.14-.26.4-1.1.35.2.12.17.37.12.64-.27.34-.14-.38-.13-.54-2.35-.38-3.29.83-4.72.74-.15.29.35.2.51.31a1.16,1.16,0,0,1-1.1.23c.08-.17.31.09.37-.11s-.35-.07-.34-.21a4.18,4.18,0,0,1-2.35.26,1.24,1.24,0,0,0-.6.66c-.8,0,.19-.28,0-.54-.82.68-1.5.19-2.07,1.11-.23-.13-.33-.32-.54,0-.26,0,.08-.14,0-.32-.59,0-.24.53-1.1.34,0,.2.6,0,.69.2.37.33-1-.33-1.26,0-.23,0-.12-.27-.14-.43-.17.06-.29.3-.36.11-.28.05,0,.14,0,.33-.34,0-.11-.42-.69-.31s.17.28.33.31a1.89,1.89,0,0,1-1.36-.83c-.24.23-.87.22-1,.55-.27-.15.2-.54-.67-.52-.12.3-.19,0-.39.33-.18-.32-.7,0-.33-.32-.36,0-.56,0-.56.23a7.62,7.62,0,0,1-.86-.42c-.73.15-.94.45-1.81.25-.17.48.36-.09.34.21-.73.55-1.92.22-2.23.9-2-.38-5.24.11-6-.85-.25,0-.17.27-.22.43a3.46,3.46,0,0,0-1.57-.5c1,.33-1.32.17-1.43-.09-.24,0-.17.28-.21.44a2.79,2.79,0,0,0-2-.07c-.21,0-.13-.2-.15-.32-.32.32-2.37-.22-3.08.38-.44-.17-.49-.26-1-.52a1,1,0,0,0-.39.33c1.35,0-.33.54.47.85-.34.16-.91-.42-1-.73a3.89,3.89,0,0,0-1,.87A5.4,5.4,0,0,1,43.61,39c-.81,0-1.25.4-2.17.15a.89.89,0,0,0,.08,1.18c.12.28-.57-.57-.83-.74-.25.31-1,.24-1.11.35s-.13-.2-.15-.32c-.41,0-.68,0-.74.23-.24,0-.12-.27-.14-.43a1,1,0,0,0-.57.33c-.24-.21-1.16-.47-.9.13-.66.08-.18-.51-.68-.53-.59.19.6.39,0,.65-.18-.08,0-.33-.31-.53-.24,0-.3.19-.56.22-.09.26.82-.07.51.31-.35-.23-.59.11-.89-.09.47.38.06.3-.06.75-.08-.6-2.09-.32-1.61-.07-.27.19-.57-.45-.87-.31s.06.14,0,.32c-.39.06-.75-.63-.89-.09-.21,0-.13-.19-.15-.31-.21,0-.17.19-.21.32a3.12,3.12,0,0,0-.86-.41c-.24,0-.17.27-.21.43-.21,0-.14-.19-.16-.32-.53.1-.21.17-.21.44-.63,0-.39-.53-1.22-.41.5.54,0,0-.75.33.48-.43-.28.13-.15-.31-.4.33-1,0-2,.14-2.43-.62-5-.82-6.32-1.6-2.5,0-3.81,0-6.27-.1.06.24.88,0,1.25.09-3.09.17-5.9-.08-9.72.4-.46,0,.23.18,0,.42-.39-.11-.57-.34-1-.4-.08.28.69.07.5.42a12.74,12.74,0,0,1-1.83-.06L6.9,100.19c1.88-.19,2.67.56,4.47.68,0-.15.06-.3-.15-.32.19-.29.42.22.51.32.18-.12.67-.05.57-.34a.88.88,0,0,0,.88.2c-.26-.47.37,0,.58-.55.32.31.9.08,1.24.2.06-.24-.12-.34-.51-.32.3-.36.42.22.89.09-.11-.1-.4-.1-.33-.31a11.71,11.71,0,0,0,4.44.45c0-.12-.29-.26-.35-.1,0-.53,1.88.41,2.5.17-.3-1.12,3.29-.12,4.32-.19a.84.84,0,0,1,.52.21s1.94-.78,2.53-.27c-.12-.35,2.41-.16,2.15.07.55,0,.43-.34,1.09-.23-.14-.16-.57-.15-.88-.2a6.18,6.18,0,0,1,3.91.35c.23,0,.38-.14.39-.33.39,0,0,.38.13.54.53-.33,1-.19,1.3-.45,1.24.58,3.14,0,3.74.25-.14-.16.65-.24.39-.33.85-.28.72.26,1.78.18.39-.08-.31-.35-.51-.42,0-.27,1,.45,1.76.39.45-.1-.38-.3-.12-.64.94.34.34.42,1,.74.25,0,.17-.28.22-.44a2.14,2.14,0,0,0,2.33.07c.14.63.8-.21.67.41.57-.35.92,0,1.3-.45.53.06-.19.23,0,.43.73-.44,1.88-.22,2.06-1a.8.8,0,0,0,1,.84c.47,0-.23-.18,0-.43.4.08.36.41.86.42a5,5,0,0,1,2.74-.59c.46-.08-.31-.28-.13-.54.08.2.88.39.72-.12.42,0,.18.31.52.32s.92-.73,1.08-.13c.34,0,.14-.37.4-.44.61,0-.32.6.13.54.73,0,.12-.23.22-.44.16.42,1.52-.16,1,.31.58-.15,1-.46,1.63-.25-.41-.21-.16-.17-.31-.53.63.1.87-.25,1.61.08.31-.22,0-.14,0-.43.81-.24,3.3.42,3.42-.18.84-.17,2,.28,2.71-.15.59.43,1.55-.12,2.49.17.06-.19-.28-.28,0-.33.63,0,0,.16.32.43,1.33-.2.27.14,1.61.07,0-.12-.32-.08-.53-.1a6.18,6.18,0,0,1,2.51.07c.38,0,.11-.39.22-.55.37-.16,2.47.11,1.81-.24.41-.35,1.83.54,2-.26.39.37,1.25.06.81-.22a.78.78,0,0,1-.24-.11,1.1,1.1,0,0,1,.24.11,7.53,7.53,0,0,0,3.33,0c-.11-.11-.41-.1-.33-.32a1.33,1.33,0,0,1,1.24.09c.26-.36-.57-.07-.32-.43.68,0,1.61.08,1.65-.35.51.19.24.46.86.41.44-.07-.59-.19,0-.43.4.69,2.85,0,4-.39-.8-.53,1.22-.58,2.21-.69a.43.43,0,0,0-.34-.21c.45,0,1.15-.1,1.42.19.63,0-.28-.47.21-.43.44.33,1.54-.1,1.32,0,.55,0,.46.33.64.14,1.13.5,3.21-.66,3.6-.18.28-.1.29-.35.41-.54a9,9,0,0,1,1.6.18c1-.75,2.82-.22,3.64-.71-.36-.21-.89-.34-.85-.52.31-.31.65.22,1.06.19-.07-.13-.21-.21-.52-.2a6.07,6.07,0,0,1,1.63-.25c0,.28.83.14.33.43.31-.06,1.68-.08.91-.24.17-.25.84,0,.88.2a.52.52,0,0,0,.4-.44c.57.23,1.13-.22,1.61,0,.22,0,.65-.33.21-.33.27-.25.59.32.86.41.57,0,.53-.43,1.29-.34,0-.11-.22-.08-.35-.1.6,0,1.35-.53,1.78.07.57-.18-.19-.41.61-.76-.64.06-.6.13-1.08,0,1.63-.37,2.78.57,3.9.57.28,0,0-.22-.23-.29,1,.09,3,.52,2.78-.19,1.34.29,2.25-.24,3.92.25-.1-.31,1-.06,1.45-.24-.73-.19-.22-.27.06-.65,0,.38,1.18,0,1.79,0a27.83,27.83,0,0,0,4.3.13c.25-.11-.07-.17.38-.33,1.63.54,2.72-.33,3.81-.5-.11,0,.31.36,1.07.09,1.38-.5,4-.35,6.11-.22.62,0,1.4-.5,2-.15-.19-.33.83,0,.56-.22.52-.12,1.62.41,1.8-.14.39.63,1.38.17,2.13.28-.81-.11.69-.44-.5-.42a31.5,31.5,0,0,1,4.62.45c.54-.31,1.29-.44,1.32-.78.37,0,0,.47.31.53.46.12.8-.34.71.1.2-.15,1-.4,0-.32.55-.33,1.55.06,2-.15.09-.18-.12-.2-.34-.21,1.66.17,2.61-.66,5.43-.53.28,0-.18.21.16.21.7.13.39-.36,1.09-.23-.13-.31-.25-.12-.7-.09.59-.68,2.17,0,3.22,0,.79-.21.54-.36,1-.77a33.37,33.37,0,0,1,5.36.22,6.93,6.93,0,0,0,.73-.12c.5.06,1.11.36.36,0a34.2,34.2,0,0,1,3.52.79,10.86,10.86,0,0,1,1.83-.46c-.62.17.44-.67.41-.66a1.65,1.65,0,0,1,.54,0,1.21,1.21,0,0,0,.2-.1c-.12-.14.26-.17,0,0a.49.49,0,0,0,.16.1c.3.13,1.79-.28,1.11-.45,2.3.2,3.69-.08,6.06.42.11-.16-.67-.25-.15-.32,1.25.85,3.15-.56,4.47.13.22,0,.17-.2.21-.33.33.44.78.17,1.59.3.38,0-.23-.33-.32-.43.62-.08,1,.34,1.76.4a13.88,13.88,0,0,1,4.15-.4c.07-.16.26-.2.58-.44.9.27.86-.15,1.27-.24,2.37.12,7.91.29,10.29-.73.22,0,.85.3.88.09.26,0,0,.1,0,.22,2.46-.32,5.16.65,7.14.29a2.7,2.7,0,0,0-1.25-.08.41.41,0,0,0-.34-.21c.32-.24,1,0,.58-.44,1.54.44,2.56-.42,3.94,0,.39,0,1-.34.57-.44.82-.16,1.82.43,2.64.6.33-.1.27-.44.93-.34a1.31,1.31,0,0,0-.52-.21c.13-.06,1.81.25,1.39.51a1.82,1.82,0,0,1,1.26,0c.3-.41-.8,0-.5-.42.19.12,1.35.25,1.09-.23a19.18,19.18,0,0,0,3.56.36,6.28,6.28,0,0,0,3.82-.72c0-.1-.21-.08-.35-.1,1.66-.35,1.89.34,3.76.15-.11-.15-.37-.2-.71-.21-.29-.24,1.1,0,1.24.2.34-.24.64-.2.41-.55.36,0,.32.29.69.31s-.06-.14,0-.32c1.51-.06,5.35.44,5.07-.63a32.88,32.88,0,0,0,4.18-.62c0,.12-.17.18-.35.21,1,0,1.9.66,3.32.7s3.83-1,4.65.13a1.46,1.46,0,0,1,.72-.12c.12.2.53.06.16.32a10.05,10.05,0,0,1,2.52-.16c.58-.78,3.08-.15,3.48-.81.31.2,1.73.76,2,.07.18.48,3,.06,1.29-.35a3.85,3.85,0,0,1,1.56.61c.61-.1,0-.24.39-.43.27.45.42-.22,1.42.19,0-.24.86-.32,1-.77.85.4.94.12,2.13.28.28-.38,2.38-1.1,3.27-.49a15.32,15.32,0,0,1,7.41-.68c1.06,0,2.31-.72,3.8-.39.23,0,.2-.22,0-.22,1.31-.1,3.85-.14,4.56-.94,1.14.59,5.32-.38,6.81.09,3-.48,5.11-1.41,8.88-1.14.51-.28.21-.36.05-.64,2.15.53,5.07.1,6.35-.87a.49.49,0,0,0-.21.32,32.24,32.24,0,0,0,5.68-1.39c.73.78,2.86.21,3.89.68.9-.8,4.78-1,6.88-.78.1-.54,2.24-.14,3.09-.48-.12.21,2.78.25,3.59-.07.05.18-.16.21-.38.22a26.41,26.41,0,0,0,5,.23.4.4,0,0,1-.14-.43c.18.38,1.76.51,1.6.08.36,0,.21.29.71.2.32-.33,1-.42,1.32-.77.44,0,.59.07,1.23.19.47,0-.23-.18,0-.43,1.67,0,3.58.49,3.95-.07a1.48,1.48,0,0,0,1.1-.24l0,.32c1-.88,2.6-.54,4.36-.62.21,0,.16-.2.2-.32,2.3.11,2.92-.43,4.67-.09.24,0,.15-.22-.07-.3l-.26,0a.44.44,0,0,1,.26,0,35.87,35.87,0,0,0,4.61-.43c.08-.32-.37-.32-.3-.64.34-.2.52,0,.89.09a.4.4,0,0,0-.34-.2c.09-.42,1.42.17,1.47-.46,1.37.23,2.86-1.45,4.53-1a10.07,10.07,0,0,1,4.67-.09,5.67,5.67,0,0,1,2.57-.7c.32-.64,1.29.93,1.82.16.26.71,1.51,0,1.76.39.21,0,.17-.2.21-.32,1.82.41,3.36-1.41,5.05-.93.87-.68,1.78,1.06,3,.88.05-.23-.12-.34-.51-.31.48-.33,2.35,0,.54,0a.46.46,0,0,1,.13.54c.33,0,.14-.37.39-.44.54.61,1.85-1,2.93-1.1-.26-.12-.31,1.06-.77,1.06a23,23,0,0,0,6.14-.55c.26.09.46-1.21.4-.94.24-.24.76.66,1.22.91-.39-.14.25-.26-.16-.32,1.07.18,1.46-.57,3.09-.38.28-.06,0-.11-.17-.1,2.4-1.19,6.8,1,10.07-.4,1.35.24,2.81-.22,4.12,0-.63-.55,2.05.29,2.91-.49-.16.36.34.16.36,0,.25,0,0,.18-.2.21a1.38,1.38,0,0,0,.52.21c.07-.14.27-.4,1.11-.34-.2-.13-.17-.38-.13-.65.28-.34.15.38.14.54,2.34.38,3.29-.83,4.72-.73.15-.3-.35-.2-.51-.32a1.16,1.16,0,0,1,1.1-.23c-.08.17-.31-.09-.37.11s.35.07.34.21a4.27,4.27,0,0,1,2.35-.26,1.22,1.22,0,0,0,.6-.65c.8,0-.19.28-.05.53.82-.68,1.5-.18,2.07-1.11.23.14.33.32.54,0,.26,0-.09.14,0,.32.59,0,.24-.53,1.1-.34,0-.2-.6,0-.7-.2-.36-.33,1.05.33,1.26,0,.24,0,.12.26.14.42.17-.06.3-.3.37-.11.27-.05-.06-.14,0-.32.34,0,.11.41.69.31.43,0-.18-.29-.33-.32a1.89,1.89,0,0,1,1.36.83c.23-.23.86-.22.95-.55.27.16-.21.54.67.52.11-.3.19,0,.38-.33.18.32.71,0,.34.32.35,0,.56,0,.55-.23a7,7,0,0,1,.87.42c.73-.15.94-.45,1.81-.25.17-.47-.37.09-.34-.21.73-.55,1.91-.22,2.22-.9,2,.38,5.25-.11,6,.85.24,0,.17-.27.21-.43a3.63,3.63,0,0,0,1.58.51c-1-.34,1.32-.18,1.42.08.25,0,.18-.27.22-.44a2.77,2.77,0,0,0,2,.07c.21,0,.14.2.16.32.32-.32,2.37.22,3.08-.38.43.17.48.26,1,.52a1,1,0,0,0,.38-.33c-1.35,0,.34-.54-.46-.85.34-.16.9.42,1,.73a3.57,3.57,0,0,0,1-.87,5.47,5.47,0,0,1,3.52.79c.81,0,1.25-.4,2.17-.15a.9.9,0,0,0-.08-1.18c-.12-.28.57.58.83.74.24-.31,1-.24,1.11-.34s.13.19.15.31c.4,0,.68,0,.74-.22.24,0,.12.26.14.42a.89.89,0,0,0,.56-.33c.25.21,1.17.47.91-.12.66-.08.18.5.68.52.58-.18-.6-.39,0-.64.18.07,0,.32.31.53.24,0,.3-.2.56-.23.09-.26-.82.08-.51-.31.35.23.59-.11.89.09-.48-.38-.06-.3.06-.75.07.6,2.09.32,1.61.07.27-.19.57.45.87.31s-.06-.14,0-.32c.39-.06.75.63.88.09.21,0,.14.19.16.32.21,0,.17-.2.2-.33a3.27,3.27,0,0,0,.86.41c.25,0,.18-.27.22-.43.21,0,.14.19.15.32.53-.1.22-.16.22-.43.63,0,.38.52,1.22.4-.51-.54,0,0,.74-.33-.47.43.28-.13.16.32.4-.34,1,0,2-.15,2.43.63,5,.82,6.32,1.6,2.5,0,3.8,0,6.27.1-.06-.24-.88,0-1.25-.09,3.09-.16,5.9.08,9.72-.39.46,0-.23-.18,0-.43.39.11.57.35,1,.41.08-.29-.69-.08-.5-.42A7.32,7.32,0,0,1,510.06,63.85Z"/><path class="cls-3" d="M161.43,88.4c0-.07,0-.13-.17-.11,0,.59.71.11.9-.12C161.61,88.06,161.71,88.35,161.43,88.4Z"/><path class="cls-3" d="M351.69,15.05c0,.07,0,.13.17.11,0-.58-.72-.11-.91.12C351.51,15.39,351.4,15.1,351.69,15.05Z"/><path class="cls-3" d="M395.69,12.08c.83.1.38,0,.87.31-.12-.4.81,0,1.08,0,.18-.35-.25-.33-.31-.54-.56,0-.89.27-.53-.09-.45,0-.55-.16-.88-.2C395.9,11.94,396.16,11.88,395.69,12.08Z"/><path class="cls-3" d="M117.43,91.37c-.84-.1-.38,0-.87-.3.12.39-.81,0-1.08,0-.19.34.25.32.31.53.56,0,.89-.27.53.09.45,0,.54.16.88.2C117.22,91.51,117,91.57,117.43,91.37Z"/></g><path class="cls-4" d="M507.78,61.27,503.17.71c-1.37,0-2.17-.6-3.7-.71,0,.15-.06.3.15.32-.19.29-.42-.22-.51-.31-.18.12-.67,0-.57.33a.91.91,0,0,0-.88-.2c.26.47-.37,0-.58.55-.33-.31-.91-.07-1.24-.19-.06.23.11.34.51.31-.3.36-.42-.21-.89-.09.11.11.4.1.33.32a11.72,11.72,0,0,0-4.44-.46c0,.12.29.27.35.1,0,.53-1.88-.41-2.5-.16-.18-.68-2.95.09-4.32.18a.86.86,0,0,1-.52-.2s-1.94.78-2.53.26c.12.35-2.41.16-2.15-.07-.56,0-.43.34-1.09.24.14.16.57.14.88.2a6.24,6.24,0,0,1-3.91-.36c-.23,0-.39.14-.39.33-.39,0-.05-.38-.13-.53-.53.32-1,.18-1.3.45C472.5.44,470.59,1,470,.77c.14.15-.66.24-.39.33-.85.27-.72-.27-1.78-.18-.39.08.31.35.51.42,0,.26-1-.46-1.76-.4-.45.11.38.31.12.64-.95-.33-.34-.41-1-.73-.25,0-.17.27-.22.43a2.14,2.14,0,0,0-2.33-.06c-.14-.63-.75.88-.62.26-.57.36-1-.62-1.35-.22-.53-.07.24.44.09.25-.73.43-1.94-.46-2.11.32.07-.43-.27-.24-.95-.16-.47,0,.18-.5-.09-.25-.4-.07-.31.28-.81.27a4.92,4.92,0,0,1-2.79-.09c-.46.08.31.27.13.53-.08-.2-.88-.38-.73.12-.41,0-.17-.31-.51-.31s-.92.73-1.08.13c-.34,0-.15.36-.4.43-.61,0,.32-.59-.13-.53-.73,0-.12.22-.22.43-.16-.42-1.52.17-1.05-.3-.58.14-1,.45-1.63.24.41.21.16.17.31.54-.63-.11-.88.24-1.61-.08-.31.22,0,.14,0,.43-.8.24-3.29-.42-3.42.17-.83.17-2-.28-2.7.16-.59-.43-1.55.12-2.49-.17-.06.18.28.27,0,.32-.63,0,0-.15-.32-.42-1.33.2-.27-.15-1.61-.08,0,.13.32.09.53.1A6,6,0,0,1,435,3.25c-.38,0-.11.38-.22.54-.37.16-2.47-.11-1.81.25-.41.34-1.83-.55-2,.25-.4-.37-1.25-.06-.81.23a.81.81,0,0,1,.24.1,1.15,1.15,0,0,1-.24-.1,7.38,7.38,0,0,0-3.33,0c.11.1.41.1.33.31a1.32,1.32,0,0,1-1.24-.08c-.26.35.57.07.32.42-.69,0-1.61-.08-1.65.35-.51-.19-.24-.45-.86-.41-.44.07.59.2,0,.43-.4-.69-2.85,0-4,.4.8.52-1.17,1.26-2.16,1.37.07.09.09-.5.29-.48-.45,0-1.1.79-1.37.5-.63,0,.23-.22-.27-.25-.43-.34-1.53.1-1.32,0-.54,0-.45-.32-.63-.13-1.13-.51-3.16,1.34-3.55.86-.28.09-.35-.34-.46-.14a8.07,8.07,0,0,1-1.6-.19c-1,.75-2.82.23-3.64.72.36.21.88.33.85.52-.31.3-.65-.23-1.06-.2.07.13.21.22.52.21a5.78,5.78,0,0,1-1.63.24c0-.27-.83-.14-.33-.42-.31,0-1.68.08-.91.23-.17.25-.84,0-.88-.2a.54.54,0,0,0-.4.44c-.57-.23-1.13.22-1.62,0-.21,0-.64.32-.2.32-.27.26-.59-.32-.86-.41-.57,0-.53.44-1.29.35,0,.1.22.08.35.1-.6,0-1.35.52-1.78-.07-.57.17.19.41-.61.76.64-.07.6-.14,1.08,0-1.63.36-2.78-.58-3.9-.57-.28,0,0,.22.23.29-1-.09-3-.53-2.78.18-1.35-.29-2.26.24-3.92-.24.1.31-1,.06-1.45.24.74.19.22.27-.06.64,0-.38-1.18,0-1.79,0a27.92,27.92,0,0,0-4.3-.14c-.25.11.07.18-.38.33-1.63-.54-2.72.34-3.81.5.12,0-.31-.36-1.07-.09-1.38.5-4,.36-6.11.23-.62,0-1.4.49-2,.14.19.33-.83,0-.56.23-.52.11-1.63-.41-1.8.14-.39-.64-1.38-.18-2.13-.29.81.12-.69.45.5.43a33,33,0,0,1-4.62-.46c-.54.31-1.29.45-1.32.78-.37,0,0-.47-.32-.53s-.8.35-.7-.09c-.2.15-1,.39,0,.32-.55.33-1.55-.06-2,.14-.08.19.13.2.34.21-1.65-.16-2.6.66-5.42.53-.28,0,.18-.2-.16-.21-.7-.12-.4.36-1.1.24.13.31.26.11.71.09-.59.67-2.17,0-3.22-.05-.79.22-.54.37-1,.77a32.25,32.25,0,0,1-5.36-.22c-.21,0-.62.14-.73.12-.5-.06-1.11-.36-.36,0a33.51,33.51,0,0,1-3.51-.79,12.68,12.68,0,0,1-1.84.46c.62-.17-.45.67-.41.65a1.65,1.65,0,0,1-.54,0l-.2.11c.12.13-.26.16,0,0A.49.49,0,0,0,329,14c-.3-.13-1.79.28-1.11.45-2.3-.2-3.69.08-6.06-.42-.11.15.67.24.15.32-1.25-.86-3.15.55-4.47-.14-.22,0-.17.2-.21.33-.33-.44-.78-.17-1.59-.29-.38,0,.23.33.32.42-.62.08-1-.34-1.76-.4a14.19,14.19,0,0,1-4.15.41c-.07.16-.26.19-.58.43-.9-.27-.86.16-1.27.24-2.37-.11-7.91-.29-10.28.73-.23,0-.86-.29-.89-.09-.26,0,0-.09,0-.21-2.46.32-5.16-.66-7.14-.3a2.82,2.82,0,0,0,1.24.09.44.44,0,0,0,.35.2c-.32.25-1,0-.58.44-1.54-.44-2.56.43-3.94,0-.39,0-1,.34-.58.44-.81.17-1.81-.43-2.63-.59-.33.1-.27.44-.93.34a1.49,1.49,0,0,0,.52.2c-.13.07-1.81-.24-1.39-.51a1.77,1.77,0,0,1-1.26,0c-.3.42.8,0,.5.42-.19-.12-1.35-.25-1.09.24a19.18,19.18,0,0,0-3.56-.36,6.27,6.27,0,0,0-3.82.71c0,.11.21.08.35.1-1.66.35-1.89-.34-3.75-.14.1.14.36.19.7.2.29.25-1.1,0-1.24-.19-.34.23-.64.2-.41.54-.36,0-.32-.28-.69-.31s.06.14,0,.33c-1.51.05-5.35-.45-5.07.63a31.3,31.3,0,0,0-4.18.61c0-.11.17-.18.35-.21-1,0-1.9-.66-3.32-.7s-3.83,1-4.65-.12a1.73,1.73,0,0,1-.72.12c-.12-.2-.54-.07-.16-.32a9.66,9.66,0,0,1-2.52.15c-.58.79-3.09.16-3.48.82-.31-.2-1.73-.76-2-.07-.18-.48-3-.06-1.29.35a3.88,3.88,0,0,1-1.56-.62c-.61.11,0,.24-.39.44-.27-.45-.42.22-1.42-.19.05.23-.86.32-1,.77-.84-.41-.94-.12-2.13-.28-.28.37-2.38,1.1-3.27.49a15.44,15.44,0,0,1-7.41.67c-1.06,0-2.31.73-3.8.4-.23,0-.2.21,0,.21-1.31.11-3.85.15-4.56.94-1.14-.59-5.32.38-6.81-.08-3,.47-5.11,1.41-8.88,1.13-.51.29-.22.37,0,.65-2.15-.53-5.07-.11-6.35.87a.49.49,0,0,0,.21-.33,32.27,32.27,0,0,0-5.68,1.4c-.72-.78-2.86-.22-3.89-.68-.9.8-4.78,1-6.88.77-.1.54-2.24.15-3.09.49.12-.21-2.78-.25-3.59.06-.05-.18.16-.2.38-.22a26.37,26.37,0,0,0-5-.23.41.41,0,0,1,.14.43c-.18-.37-1.76-.5-1.6-.08-.36,0-.21-.29-.7-.2-.33.33-1.05.42-1.33.78-.44-.06-.59-.08-1.24-.19-.46,0,.24.18,0,.43-1.67,0-3.58-.5-4,.07a1.44,1.44,0,0,0-1.1.24l0-.33c-1,.88-2.6.55-4.36.62-.21,0-.16.2-.2.33-2.3-.11-2.92.43-4.67.09-.24,0-.15.21.07.3h.26a.38.38,0,0,1-.26,0,35.89,35.89,0,0,0-4.61.42c-.08.32.37.33.3.64-.34.21-.52,0-.89-.09a.41.41,0,0,0,.34.21c-.09.42-1.42-.17-1.47.46-1.37-.24-3,.08-4.64-.35a10.06,10.06,0,0,1-4.67.09,5.64,5.64,0,0,1-2.56.7c-.33.64-1.19.44-1.72,1.21-.26-.72-1.51,0-1.76-.4-.21,0-.17.2-.21.33-1.83-.42-3.46,0-5.16-.44-.87.68-1.67.3-2.91.48,0,.24.12.34.51.31-.48.34-2.34,0-.54,0a.45.45,0,0,1-.13-.53c-.33,0-.14.37-.4.44-.53-.62-1.94-.33-3-.27a1.67,1.67,0,0,0,.87.31,23,23,0,0,0-6.14.54c-.26-.09-.56-.15-.5-.42-.24.24-.66.7-1.12.45.39.15-.25.27.15.32-1.06-.18-1.46.58-3.08.38-.28.06,0,.11.17.1-2.4,1.19-6.8-1-10.07.41-1.35-.24-2.81.21-4.12,0,.63.54-2-.29-2.91.48.16-.35-.34-.16-.36,0-.25,0,0-.19.2-.22a1.29,1.29,0,0,0-.52-.2c-.07.13-.27.39-1.11.34.2.12.17.37.12.64-.27.35-.14-.38-.13-.53-2.34-.39-3.29.83-4.72.73-.15.29.35.2.51.31a1.16,1.16,0,0,1-1.1.24c.08-.17.31.08.37-.12s-.35-.06-.34-.21a4.18,4.18,0,0,1-2.35.26,1.24,1.24,0,0,0-.6.66c-.8,0,.19-.28,0-.54-.82.68-1.49.19-2.07,1.11-.23-.13-.33-.32-.54,0-.26,0,.09-.14,0-.32-.59,0-.24.53-1.1.34,0,.2.6.06.7.2.36.34-1-.33-1.26,0-.24,0-.13-.27-.14-.43-.18.07-.3.3-.37.12-.27.05.06.13,0,.32-.34,0-.1-.42-.69-.31-.43,0,.17.29.33.31a1.86,1.86,0,0,1-1.36-.83c-.24.24-.87.23-1,.56-.27-.16.2-.54-.67-.53-.11.31-.18,0-.39.33-.17-.32-.7,0-.33-.32-.35,0-.56,0-.55.23a8.78,8.78,0,0,1-.87-.41c-.73.15-.94.44-1.81.25-.17.47.37-.1.34.2-.73.56-1.91.22-2.22.9-2-.37-5.25.11-6-.85-.25,0-.17.27-.22.44A3.41,3.41,0,0,0,54.62,36c1,.34-1.32.17-1.42-.08-.25,0-.17.27-.22.43a2.79,2.79,0,0,0-2-.07c-.2,0-.13-.19-.15-.32-.32.33-2.37-.22-3.08.38-.44-.17-.48-.26-1-.52a1.16,1.16,0,0,0-.39.33c1.36,0-.33.54.47.85-.34.16-.9-.42-1-.73a3.63,3.63,0,0,0-1,.88,5.52,5.52,0,0,1-3.51-.79c-.81,0-1.25.4-2.17.14a.9.9,0,0,0,.08,1.18c.12.28-.57-.57-.83-.73-.24.31-1,.23-1.11.34s-.13-.19-.15-.32c-.4,0-.68,0-.74.23-.24,0-.12-.27-.14-.43a1.06,1.06,0,0,0-.57.33c-.24-.21-1.16-.47-.9.13-.66.08-.18-.51-.68-.53-.59.19.6.39,0,.65-.18-.07,0-.32-.31-.53-.24,0-.3.19-.56.22-.09.26.82-.07.51.32-.35-.23-.59.1-.89-.1.47.38.06.3-.06.76-.08-.61-2.09-.32-1.61-.08-.27.2-.57-.45-.87-.31s.06.14,0,.33c-.39.06-.75-.64-.88-.09-.21,0-.14-.2-.16-.32-.21,0-.17.2-.2.32a3.81,3.81,0,0,0-.86-.41c-.25,0-.18.27-.22.43-.21,0-.14-.19-.15-.32-.54.11-.22.17-.22.44-.63,0-.39-.52-1.22-.41.5.54,0,0-.75.34.48-.44-.27.12-.15-.32-.4.33-1,0-2,.14-2.43-.62-5-.82-6.32-1.6-2.5,0-3.8,0-6.27-.09.06.24.88,0,1.25.08-3.09.17-5.9-.08-9.72.4-.46,0,.23.18,0,.43-.39-.12-.57-.35-1-.41-.08.28.69.07.5.42A11.43,11.43,0,0,1,0,37L4.62,97.61c1.89-.19,2.67.56,4.48.69,0-.16.05-.31-.16-.32.19-.3.42.22.52.31.17-.12.66-.05.56-.33a.92.92,0,0,0,.88.2c-.25-.48.37,0,.58-.55.33.31.91.07,1.24.19.06-.24-.11-.34-.51-.31.3-.36.42.21.89.09-.11-.11-.4-.11-.33-.32a11.92,11.92,0,0,0,4.44.46c-.05-.13-.29-.27-.34-.11,0-.52,1.87.42,2.49.17-.3-1.12,3.29-.12,4.32-.19a.91.91,0,0,1,.52.21s1.94-.78,2.53-.26c-.12-.35,2.42-.16,2.15.06.56,0,.43-.33,1.09-.23-.14-.16-.56-.15-.88-.2a6.2,6.2,0,0,1,3.92.36c.22-.06.38-.15.38-.33.39,0,0,.38.14.53.52-.32,1-.18,1.29-.45,1.24.58,3.15,0,3.74.25-.14-.15.66-.24.39-.33.85-.27.73.26,1.78.18.4-.08-.31-.35-.5-.42,0-.26,1,.46,1.76.4.44-.11-.38-.31-.13-.64,1,.33.35.41,1,.73.25,0,.18-.27.22-.44a2.13,2.13,0,0,0,2.33.07c.14.63.8-.2.68.42.57-.36.91-.06,1.29-.46.53.06-.19.24,0,.43.73-.43,1.89-.22,2.06-1-.07.43.32.92,1,.84.46,0-.24-.18,0-.43.4.07.36.4.86.41a5,5,0,0,1,2.74-.59c.46-.08-.3-.28-.13-.53.08.2.88.38.73-.12.42,0,.17.3.51.31s.92-.73,1.08-.13c.34,0,.15-.36.4-.44.61,0-.32.6.13.54.74,0,.12-.23.22-.43.16.41,1.52-.17,1,.3.58-.14,1-.45,1.64-.25-.42-.2-.17-.16-.32-.53.63.1.88-.25,1.61.08.32-.22,0-.14,0-.43.8-.24,3.29.42,3.42-.17.83-.18,2,.27,2.7-.16.6.43,1.56-.12,2.5.17.05-.19-.29-.28,0-.32.63,0,0,.15.33.42,1.32-.2.26.14,1.6.08,0-.13-.32-.09-.53-.1a6,6,0,0,1,2.51.06c.39,0,.11-.38.22-.54.37-.16,2.47.1,1.82-.25.4-.34,1.82.55,2-.25.4.37,1.25,0,.81-.23a.6.6,0,0,1-.24-.11,1.94,1.94,0,0,1,.24.11,7.53,7.53,0,0,0,3.33,0c-.11-.11-.4-.1-.33-.31a1.35,1.35,0,0,1,1.25.08c.25-.35-.58-.07-.33-.42.69,0,1.61.07,1.65-.36.51.2.24.46.86.42.44-.08-.59-.2,0-.43.39.69,2.84,0,4-.4-.79-.52,1.23-.58,2.21-.69a.4.4,0,0,0-.34-.2c.46,0,1.15-.11,1.42.18.63,0-.28-.47.22-.43.43.34,1.53-.1,1.32,0,.54,0,.45.33.63.14,1.14.51,3.21-.66,3.61-.18.27-.09.29-.35.4-.54a9,9,0,0,1,1.6.18c1-.75,2.82-.22,3.64-.71-.36-.21-.88-.33-.85-.52.32-.31.66.22,1.06.2-.07-.13-.21-.22-.52-.21a5.75,5.75,0,0,1,1.64-.24c0,.27.82.13.32.42.31-.06,1.68-.08.91-.23.17-.25.84,0,.88.2a.54.54,0,0,0,.4-.44c.57.23,1.13-.23,1.62,0,.21,0,.64-.32.2-.33.27-.25.6.33.87.42.56,0,.52-.44,1.28-.35,0-.11-.21-.08-.35-.1.61,0,1.36-.53,1.79.07.56-.17-.2-.41.6-.76-.64.06-.6.14-1.08,0,1.63-.36,2.78.57,3.9.57.28,0,0-.22-.23-.29,1,.09,3,.53,2.78-.18,1.35.28,2.26-.24,3.92.24-.1-.31,1-.06,1.45-.24-.73-.19-.22-.27.06-.64,0,.37,1.18,0,1.8,0a27.76,27.76,0,0,0,4.29.14c.25-.12-.06-.18.38-.33,1.63.54,2.72-.34,3.81-.5-.11,0,.31.36,1.07.08,1.38-.49,4-.35,6.12-.22.61,0,1.39-.49,2-.14-.19-.33.83,0,.56-.23.52-.12,1.63.41,1.8-.14.39.63,1.38.18,2.13.28-.81-.11.69-.44-.5-.42a32.93,32.93,0,0,1,4.62.45c.54-.3,1.29-.44,1.32-.77.37,0,0,.47.31.53.46.11.81-.35.71.09.2-.15,1-.4,0-.32.55-.33,1.55.06,2-.15.08-.18-.13-.2-.35-.2,1.66.16,2.61-.67,5.43-.53.28,0-.18.2.16.21.7.12.4-.36,1.1-.24-.13-.31-.26-.11-.71-.09.59-.68,2.17,0,3.22,0,.8-.21.54-.36,1-.76a32.25,32.25,0,0,1,5.36.22c.21,0,.62-.14.73-.12.5.06,1.11.36.36,0a34.2,34.2,0,0,1,3.52.79,12.22,12.22,0,0,1,1.83-.46c-.62.17.45-.67.41-.65a1.65,1.65,0,0,1,.54,0l.2-.11c-.12-.13.26-.17,0,0a.49.49,0,0,0,.16.1c.3.13,1.79-.28,1.12-.45,2.29.2,3.68-.08,6.05.42.11-.16-.67-.25-.15-.32,1.25.86,3.15-.55,4.47.13.22,0,.17-.2.21-.32.33.43.79.17,1.59.29.38,0-.23-.33-.32-.42.62-.08,1,.33,1.76.39a13.88,13.88,0,0,1,4.15-.4c.07-.16.26-.19.58-.44.9.28.86-.15,1.28-.24,2.36.12,7.9.3,10.28-.73.22,0,.85.3.89.1.25,0,0,.09,0,.21,2.46-.32,5.16.65,7.14.3a2.68,2.68,0,0,0-1.24-.09.45.45,0,0,0-.34-.21c.31-.24,1,0,.57-.44,1.54.44,2.56-.42,3.94,0,.39,0,1-.34.58-.44.81-.17,1.81.43,2.64.59.32-.1.26-.44.92-.34a1.18,1.18,0,0,0-.52-.2c.13-.07,1.81.24,1.39.51a1.77,1.77,0,0,1,1.26,0c.3-.41-.8,0-.5-.42.19.12,1.35.26,1.09-.23a19.18,19.18,0,0,0,3.56.36,6.27,6.27,0,0,0,3.82-.71c0-.11-.21-.08-.35-.11,1.66-.35,1.89.34,3.76.15a1,1,0,0,0-.7-.2c-.3-.25,1.09,0,1.23.19.34-.23.64-.2.41-.55.36,0,.33.29.69.31s-.06-.13,0-.32c1.51-.06,5.35.44,5.07-.63a31.17,31.17,0,0,0,4.18-.62c0,.12-.17.18-.35.21,1,0,1.9.66,3.32.7s3.83-1,4.65.13a1.6,1.6,0,0,1,.73-.12c.11.2.53.06.15.32a10.12,10.12,0,0,1,2.52-.16c.59-.78,3.09-.15,3.48-.81.31.2,1.73.76,2,.07.18.48,3,.06,1.28-.35a3.74,3.74,0,0,1,1.56.62c.61-.11,0-.24.39-.44.27.45.42-.22,1.42.19-.05-.24.86-.32,1-.77.84.4.93.12,2.12.28.28-.37,2.38-1.1,3.27-.49A15.31,15.31,0,0,1,285,78.1c1.06,0,2.31-.73,3.8-.4.23,0,.2-.22,0-.21,1.31-.11,3.86-.15,4.56-.95,1.14.59,5.32-.38,6.81.09,3-.47,5.12-1.41,8.88-1.13.51-.29.22-.37.05-.65,2.15.53,5.07.1,6.35-.87a.45.45,0,0,0-.2.33,33.3,33.3,0,0,0,5.67-1.4c.73.78,2.86.21,3.89.68.9-.8,4.78-1,6.88-.77.1-.54,2.24-.15,3.09-.49-.11.21,2.79.25,3.59-.07.05.18-.16.21-.38.23a27.25,27.25,0,0,0,5,.22.4.4,0,0,1-.14-.42c.18.37,1.77.5,1.61.07.35,0,.2.29.7.21.32-.33,1-.42,1.32-.78.44,0,.59.07,1.24.19.46,0-.23-.18,0-.43,1.67,0,3.58.5,3.95-.07a1.43,1.43,0,0,0,1.1-.24l0,.32c1-.88,2.6-.54,4.36-.61.21,0,.17-.2.2-.33,2.3.11,2.92-.43,4.67-.09.24,0,.15-.22-.06-.3h-.27a.41.41,0,0,1,.27,0,34.47,34.47,0,0,0,4.61-.43c.07-.31-.38-.32-.31-.64.34-.2.52,0,.89.1a.41.41,0,0,0-.34-.21c.09-.42,1.42.17,1.48-.46,1.36.24,2.86-1.44,4.52-1a10.2,10.2,0,0,1,4.67-.09,5.54,5.54,0,0,1,2.57-.69c.32-.64,1.29.92,1.82.15.26.72,1.52,0,1.76.4.21,0,.17-.2.21-.33,1.83.42,3.36-1.41,5.06-.92.86-.68,1.77,1,3,.88.05-.24-.12-.34-.51-.32.48-.33,2.35,0,.54,0a.47.47,0,0,1,.13.54c.33,0,.14-.37.4-.44.54.62,1.84-1,2.92-1.1-.26-.12-.31,1.07-.77,1.06a23.44,23.44,0,0,0,6.14-.54c.26.08.46-1.22.4-1,.24-.23.76.67,1.22.92-.38-.15.25-.27-.15-.32,1.06.17,1.46-.58,3.08-.38.28-.06,0-.12-.17-.11,2.4-1.19,6.8,1,10.07-.4,1.35.24,2.81-.21,4.12,0-.63-.54,2.05.29,2.91-.48-.16.35.35.15.36,0,.25,0,0,.19-.2.22a1.63,1.63,0,0,0,.53.2c.06-.14.26-.4,1.1-.34-.2-.12-.17-.38-.12-.64.27-.35.14.37.13.53,2.34.39,3.29-.83,4.72-.73.15-.29-.35-.2-.51-.31a1.17,1.17,0,0,1,1.1-.24c-.08.17-.31-.09-.37.12s.35.06.34.2a4.36,4.36,0,0,1,2.35-.26,1.19,1.19,0,0,0,.6-.65c.8,0-.19.28-.05.54.82-.69,1.5-.19,2.07-1.11.23.13.33.32.54,0,.26.05-.08.14,0,.33.59,0,.24-.53,1.1-.35,0-.19-.6-.05-.69-.2-.37-.33,1,.33,1.25,0,.24,0,.13.27.15.43.17-.07.29-.31.36-.12.27,0-.05-.13,0-.32.34,0,.11.41.69.31s-.17-.29-.33-.32a1.9,1.9,0,0,1,1.36.84c.24-.24.87-.23.95-.56.27.16-.2.54.67.53.11-.31.19,0,.39-.33.18.32.7,0,.33.31.36,0,.56,0,.55-.22a8.78,8.78,0,0,1,.87.41c.73-.15.94-.44,1.81-.25.17-.47-.36.09-.34-.21.73-.55,1.92-.22,2.23-.9,2,.38,5.24-.1,6,.86.25,0,.17-.27.22-.44a3.58,3.58,0,0,0,1.57.51c-1-.34,1.32-.18,1.43.08.24,0,.17-.27.21-.43a2.91,2.91,0,0,0,2,.07c.2,0,.13.19.15.32.32-.33,2.37.21,3.08-.38.44.17.49.25,1,.51a1,1,0,0,0,.39-.33c-1.36,0,.33-.53-.47-.85.34-.16.91.42,1,.74a3.74,3.74,0,0,0,1-.88,5.46,5.46,0,0,1,3.51.79c.81,0,1.25-.4,2.17-.14a.89.89,0,0,0-.08-1.18c-.12-.28.57.57.83.73.25-.31,1-.23,1.11-.34s.13.19.15.32c.41,0,.68,0,.74-.23.24,0,.12.27.14.43a1,1,0,0,0,.57-.34c.24.21,1.16.48.9-.12.66-.08.18.51.68.52.59-.18-.6-.39.05-.64.19.07,0,.32.31.53.24,0,.3-.2.56-.23.09-.26-.82.08-.51-.31.35.23.59-.1.89.09-.47-.37-.06-.29.06-.75.08.6,2.1.32,1.61.08.27-.2.57.45.87.3s-.06-.13,0-.32c.39-.06.75.64.89.09.21,0,.13.19.15.32.21,0,.17-.2.2-.33a3.7,3.7,0,0,0,.87.42c.24,0,.17-.27.21-.44.21,0,.14.2.16.32.52-.1.21-.16.21-.43.63,0,.39.52,1.22.41-.5-.55,0,0,.75-.34-.48.43.28-.12.15.32.4-.33,1,0,2-.15,2.43.63,5,.82,6.32,1.6,2.5,0,3.81,0,6.27.1-.06-.24-.88,0-1.25-.08,3.09-.17,5.9.08,9.72-.4.46,0-.23-.18,0-.43.39.11.57.35,1,.41.08-.28-.69-.07-.5-.42A7.32,7.32,0,0,1,507.78,61.27Z"/><path class="cls-4" d="M159.15,85.82c0-.06,0-.12-.17-.1,0,.58.72.1.91-.13C159.33,85.48,159.44,85.77,159.15,85.82Z"/><path class="cls-4" d="M349.41,12.48c0,.06,0,.12.17.1,0-.58-.71-.11-.9.12C349.23,12.82,349.13,12.53,349.41,12.48Z"/><path class="cls-4" d="M393.41,9.5c.83.1.38,0,.87.31-.11-.4.81,0,1.08,0,.18-.35-.25-.33-.31-.53-.56,0-.89.27-.53-.1-.45,0-.54-.16-.88-.2C393.62,9.36,393.88,9.3,393.41,9.5Z"/><path class="cls-4" d="M115.15,88.79c-.83-.09-.38,0-.87-.3.12.39-.81,0-1.08,0-.18.34.26.33.32.53.55,0,.89-.27.52.1.45,0,.54.16.88.19C114.94,88.93,114.68,89,115.15,88.79Z"/><path d="M35.38,71.24c2.32.93,3.56,2.27,3.78,4.07a4,4,0,0,1-1.88,3.83,10.19,10.19,0,0,1-5.53,1.8l-6.13.39L23.37,63.07l6.13-.39a10.43,10.43,0,0,1,5.61,1,4.34,4.34,0,0,1,2.66,3.38C38,68.74,37.18,70.13,35.38,71.24Zm-6.51-1.13L30.4,70c1.73-.11,3-1.13,2.81-2.31s-1.6-2-3.32-1.89l-1.54.1Zm.39,3.13.57,4.67,1.53-.1c2-.12,3.32-1.27,3.16-2.54s-1.77-2.17-3.62-2.14Z"/><path d="M60.42,63.67,58,66.25a8.6,8.6,0,0,0-6.53-2.11,8,8,0,0,0-5.42,2.52,6.78,6.78,0,0,0,.9,10,8,8,0,0,0,5.78,1.53,8.51,8.51,0,0,0,6.06-3.21l2.81,2.11a11.75,11.75,0,0,1-8.56,4.53,11.8,11.8,0,0,1-8.57-2.29,10,10,0,0,1-1.34-14.82,11.8,11.8,0,0,1,8-3.76A11.86,11.86,0,0,1,60.42,63.67Z"/><path d="M60.54,59.35l-.28-4,11.48-1.33L72,58l-4,.47L69.3,77.68l-3.44.4L64.55,58.89Z"/><path d="M78.46,70.38,79,76.9l-3.44.31L74,59l4-.36a7.11,7.11,0,0,1,4.94,1.24,5.32,5.32,0,0,1,2.32,4,5.38,5.38,0,0,1-1.57,4.39A7.17,7.17,0,0,1,79,70.33Zm-.77-8.6.49,5.48.58-.06c1.86-.16,3.19-1.44,3-3s-1.68-2.6-3.54-2.44Z"/><path d="M96.79,54.94l.27,3.78-6,.66.38,5.35,5.74-.63.27,3.77-5.74.63.39,5.35,6-.66L98.38,77,88.91,78,87.32,56Z"/><path d="M111.87,74l-3.44.31-.59-6.6a4.63,4.63,0,0,1-2.79,1.12c-3,.27-4.77-1.62-5-4.54l-.68-7.57,3.44-.3.66,7.3a1.9,1.9,0,0,0,2.19,1.91,1.92,1.92,0,0,0,1.83-2.19L106.8,56l3.44-.31Z"/><path d="M127.3,73.76l-4.17-.33.63-11.32-6,10.9-4.17-.33,1.1-19.8,4.17.32-.63,11.32,6-10.89,4.17.32Z"/><path d="M134.52,78.21l-4.61.32,1.32-8.12,5.49-.38Z"/><path d="M149.42,64.52l.07.78a2.6,2.6,0,0,0,3,2.28,2.57,2.57,0,0,0,2.58-2.77c-.13-1.46-1.26-2.47-3.32-2.28l-1.43.13-.28-3.13,1.43-.13c1.86-.17,2.73-1.16,2.61-2.52a2.31,2.31,0,0,0-2.73-2.07,2.35,2.35,0,0,0-2.29,2.52l.05.52-3.45.31,0-.52c-.29-3.27,1.86-5.64,5.45-6a6.16,6.16,0,0,1,4.43,1.1,4.81,4.81,0,0,1,2,3.66,4.55,4.55,0,0,1-2,4.12,4.72,4.72,0,0,1,3,4.07,5,5,0,0,1-1.4,4.14,7.39,7.39,0,0,1-9,.81,5.33,5.33,0,0,1-2.09-4l-.07-.78Z"/><path d="M163.43,69.37l-3.87.34,8.38-19.14,3.87-.35,11.67,17.36-3.84.34-2.53-3.71-11.87,1.05Zm6.78-15.43-3.53,8,8.43-.75Z"/><path d="M186.32,57.45l.72,9.49-4.35.46-2-26.59,5.06-.53a8.12,8.12,0,0,1,9.16,7.66A8.62,8.62,0,0,1,187,57.37Zm-1-12.53.61,8,.72-.08a4.11,4.11,0,0,0,3.86-4.42,3.86,3.86,0,0,0-4.46-3.55Z"/><path d="M200.3,66.08l-4.36.39,5.45-7.64a5.7,5.7,0,0,1-4.2-5,5.32,5.32,0,0,1,1.57-4.37,7.12,7.12,0,0,1,4.64-2.1l4-.35,1.63,18.25-3.45.3-.55-6.2ZM204.74,56l-.48-5.48-.58.05c-1.86.17-3.19,1.44-3.05,3s1.68,2.6,3.54,2.44Z"/><path d="M215.12,67.89l-3.79.46,4.58-12.68-6.18-11.44,3.79-.46,5.31,9.64-.66-10.2,3.44-.42.66,10.2,4-10.76,3.78-.46-4.6,12.75,6.17,11.37-3.82.46-5.27-9.6.65,10.16-3.44.42-.66-10.16Z"/><path d="M241.76,44l.28,3.13-6,.54.39,4.43,5.74-.51.27,3.12-5.73.52.4,4.43,6-.54.28,3.13-9.47.85L232.3,44.82Z"/><path d="M271.91,60.27l-4.37.3L266.65,53l-16.41,1.11.88,7.56-4.37.3-2.13-18.26,4.38-.29.88,7.56,16.41-1.11-.88-7.57,4.38-.29Z"/><path d="M288.68,58.19l-2.4.32L285.84,51l-9,1.19.45,7.56-2.4.32-1.08-18.25,2.4-.32.45,7.56,9-1.19-.44-7.56,2.4-.32Z"/><path d="M293.94,45.89l.57,0a7.11,7.11,0,0,1,4.94,1.24,5.3,5.3,0,0,1,2.32,4,5.38,5.38,0,0,1-1.57,4.39,7.19,7.19,0,0,1-4.64,2.07l-4,.36-1.63-18.25,3.44-.31Zm.28,3.13.48,5.48.58-.06c1.86-.16,3.19-1.44,3.05-3s-1.68-2.61-3.54-2.44Zm13.09,7.5-3.44.31-1.63-18.25,3.44-.31Z"/><path d="M321.36,37.21l.39,3.13-8.15.51.55,4.44,7.77-.49.39,3.13-7.77.49.56,4.43,8.15-.51.39,3.13-12.82.8L308.55,38Z"/><path d="M353.13,56.74l-3.44.39L349,47.78l-12.91,1.46.66,9.35-3.45.39-1.58-22.57L335.2,36l.66,9.35,12.9-1.46-.65-9.34,3.44-.39Z"/><path d="M358.76,51.93l-3.87.35,8.38-19.15,3.87-.35,11.67,17.36-3.84.34-2.53-3.71-11.87,1.06Zm6.78-15.43-3.53,8,8.43-.75Z"/><path d="M409.58,29.53,406.15,32a10.07,10.07,0,0,0-7-4.11,9.41,9.41,0,0,0-6.92,1.59,8.18,8.18,0,0,0-1.49,11.88A9.43,9.43,0,0,0,397,44.56a10.08,10.08,0,0,0,7.83-2.23l2.73,3.18a14.95,14.95,0,0,1-20.43-1.7,12.05,12.05,0,0,1,2.23-17.68,14.93,14.93,0,0,1,20.2,3.4Z"/><path d="M413.77,47l-3.87.34,8.38-19.14,3.87-.35,11.67,17.36-3.84.34-2.53-3.72-11.87,1.06Zm6.78-15.43-3.53,8,8.43-.75Z"/><path d="M442.48,33.94,439,44.77l-3.44.31L433.9,26.82l3.44-.3L438.27,37l3.52-10.83,3.44-.31,1.63,18.25-3.44.31Zm-4.94-12.69A1.44,1.44,0,0,0,440.4,21l3.44-.31a3.58,3.58,0,0,1-1.14,3,5.3,5.3,0,0,1-3.37,1.46,5.46,5.46,0,0,1-3.6-.84,3.65,3.65,0,0,1-1.63-2.77Z"/><path d="M469.48,44.4l-3.44.41-.65-9.76-12.91,1.53.65,9.75-3.44.41L448.12,23.2l3.44-.41.65,9.76L465.12,31l-.65-9.75,3.44-.41Z"/><path d="M489.22,24.94l-2.16,2.34a7.71,7.71,0,0,0-5.9-1.91,7.15,7.15,0,0,0-4.88,2.3,6.22,6.22,0,0,0,.81,9.07,7.18,7.18,0,0,0,5.21,1.4,7.67,7.67,0,0,0,5.46-2.93l2.55,1.93a10.67,10.67,0,0,1-7.73,4.13,10.52,10.52,0,0,1-7.73-2.1,9.16,9.16,0,0,1-1.21-13.5,11.37,11.37,0,0,1,15.58-.73Z"/></g></g></g></svg>